<svg width="64" height="92" viewBox="0 0 64 92" fill="none" xmlns="http://www.w3.org/2000/svg">
<path fill-rule="evenodd" clip-rule="evenodd" d="M11.0967 68.3064H11.0947L1.36169 68.2915C0.720076 68.2905 0.199199 67.7686 0.200197 67.126C0.201195 66.4844 0.722072 65.9645 1.36369 65.9645H1.36568L9.34748 65.9774L7.95249 62.6446C7.81079 62.3054 7.83674 61.9192 8.02433 61.6019C8.21193 61.2856 8.53922 61.076 8.90444 61.0381L18.1605 60.0712C18.7971 60.0083 19.3719 60.4683 19.4387 61.1069C19.5056 61.7456 19.0416 62.3183 18.403 62.3852L10.7026 63.1905L12.1694 66.6939C12.3201 67.0531 12.2812 67.4642 12.0646 67.7885C11.8491 68.1128 11.4859 68.3064 11.0967 68.3064Z" fill="#135D78"/>
<path fill-rule="evenodd" clip-rule="evenodd" d="M12.4457 79.5025C12.0436 79.5025 11.6515 79.293 11.4359 78.9188C11.1166 78.362 11.3072 77.6515 11.865 77.3302L17.0678 74.3367L15.0611 72.809C14.7687 72.5864 14.5991 72.2382 14.6031 71.871C14.6081 71.5028 14.7857 71.1585 15.0841 70.942L21.0831 66.5874C21.604 66.2112 22.3304 66.3259 22.7086 66.8458C23.0858 67.3667 22.9701 68.0931 22.4502 68.4713L17.7164 71.9069L19.8707 73.5464C20.1801 73.7829 20.3517 74.1581 20.3268 74.5472C20.3018 74.9354 20.0833 75.2866 19.745 75.4802L13.0245 79.3469C12.8419 79.4526 12.6423 79.5025 12.4457 79.5025Z" fill="#135D78"/>
<path fill-rule="evenodd" clip-rule="evenodd" d="M8.89149 56.3429C8.68992 56.3429 8.48836 56.29 8.30775 56.1862L1.59821 52.2986C1.0434 51.9773 0.852812 51.2648 1.17612 50.709C1.49742 50.1532 2.20789 49.9626 2.76569 50.2859L7.9585 53.2945L8.27981 50.7928C8.32571 50.4286 8.54224 50.1073 8.86355 49.9267C9.18386 49.7461 9.57202 49.7291 9.9073 49.8788L16.6787 52.8983C17.2654 53.1597 17.5279 53.8483 17.2674 54.434C17.005 55.0217 16.3165 55.2852 15.7308 55.0227L10.3883 52.6409L10.045 55.3271C9.99511 55.7132 9.75563 56.0495 9.40738 56.2221C9.24473 56.303 9.06711 56.3429 8.89149 56.3429Z" fill="#135D78"/>
<path fill-rule="evenodd" clip-rule="evenodd" d="M42.6275 13.2138C42.845 13.2138 43.0625 13.2407 43.2731 13.2936L44.9894 13.7207C45.6809 13.8923 46.2636 14.3234 46.6298 14.9331C46.997 15.5438 47.1038 16.2602 46.9322 16.9517L46.9102 17.0405C46.7605 17.6452 47.1317 18.2619 47.7384 18.4136L53.3154 19.8016C53.8742 19.9363 54.447 19.589 54.5837 19.0382C54.6515 18.7668 54.6096 18.4854 54.4649 18.2459C54.3213 18.0064 54.0917 17.8368 53.8203 17.769L51.8476 17.279C50.4686 16.9358 49.6264 15.5338 49.9686 14.1547L51.1221 9.52073C51.2728 8.91404 50.9016 8.29637 50.2939 8.1447L50.1233 8.10279C49.5166 7.95012 48.8949 8.33329 48.7473 8.93001L48.7243 9.01881C48.428 10.2063 47.3652 11.0395 46.1399 11.0395C45.9234 11.0395 45.7048 11.0125 45.4933 10.9596L43.6053 10.4896C42.1794 10.1344 41.3073 8.68453 41.6625 7.25761C41.7354 6.96324 41.6905 6.6589 41.5338 6.39846C41.3781 6.13902 41.1297 5.95542 40.8353 5.88257L29.0108 2.93892C28.8192 2.89302 28.6216 2.95089 28.4869 3.09358C28.4161 3.16942 28.3333 3.30014 28.3442 3.49173C28.4879 5.92748 27.6597 9.49778 26.4573 11.6212L26.0861 12.2788C25.9644 12.4933 26.0173 12.6879 26.0592 12.7847C26.1001 12.8815 26.2058 13.0531 26.4433 13.113L38.645 16.1504C39.2447 16.2971 39.8714 15.9189 40.0201 15.3222L40.042 15.2334C40.3384 14.045 41.4011 13.2138 42.6275 13.2138ZM53.5699 22.1595C53.2955 22.1595 53.021 22.1266 52.7526 22.0587L47.1766 20.6717C45.3246 20.2107 44.1921 18.3278 44.6521 16.4757L44.675 16.3869C44.702 16.2772 44.6691 16.1874 44.6361 16.1325C44.6022 16.0776 44.5403 16.0068 44.4276 15.9788L42.7103 15.5507C42.5566 15.5118 42.354 15.5837 42.2992 15.7982L42.2772 15.887C41.894 17.4307 40.513 18.5114 38.9194 18.5114C38.639 18.5114 38.3577 18.4764 38.0822 18.4086L25.8825 15.3711C24.9965 15.1506 24.281 14.5429 23.9208 13.7037C23.5605 12.8645 23.6104 11.9275 24.0605 11.1333L24.4327 10.4757C25.4116 8.7464 26.139 5.61216 26.0212 3.62943C25.9743 2.83315 26.2488 2.07578 26.7946 1.49802C27.4961 0.752629 28.5777 0.431322 29.5726 0.680784L41.3981 3.62444C42.2952 3.84696 43.0515 4.40675 43.5275 5.19905C44.0045 5.99234 44.1452 6.92233 43.9207 7.8204C43.8758 8.00201 43.9865 8.18661 44.1681 8.23151L46.0571 8.7025C46.2097 8.74041 46.4133 8.66957 46.4682 8.45303L46.4891 8.36522C46.8733 6.82155 48.2543 5.74188 49.8469 5.74188C50.1283 5.74188 50.4097 5.7758 50.6841 5.84466L50.8557 5.88657C52.7087 6.34857 53.8403 8.23051 53.3803 10.0825L52.2268 14.7165C52.1938 14.8502 52.2757 14.987 52.4094 15.0209L54.3821 15.5118C55.2572 15.7294 55.9946 16.2742 56.4586 17.0465C56.9236 17.8188 57.0603 18.7249 56.8418 19.6C56.4666 21.1068 55.1215 22.1595 53.5699 22.1595Z" fill="#135D78"/>
<path fill-rule="evenodd" clip-rule="evenodd" d="M40.449 29.8921C40.5338 29.8921 40.6187 29.8961 40.7035 29.9041L42.4637 30.0708C43.1722 30.1386 43.8128 30.4779 44.2668 31.0267C44.7208 31.5755 44.9334 32.269 44.8665 32.9775L44.8575 33.0673C44.8296 33.3667 44.9194 33.662 45.114 33.8965C45.3066 34.13 45.579 34.2747 45.8803 34.3026L51.602 34.8445C52.1837 34.9033 52.6886 34.4753 52.7425 33.9025C52.7695 33.6231 52.6867 33.3517 52.507 33.1362C52.3294 32.9206 52.078 32.7869 51.8006 32.761L49.7759 32.5694C48.36 32.4347 47.3182 31.1744 47.4519 29.7584L47.903 25.0067C47.9608 24.383 47.5018 23.8282 46.8792 23.7693L46.7015 23.7514C46.6666 23.7484 46.6297 23.7474 46.5938 23.7474C46.0061 23.7474 45.5221 24.1894 45.4662 24.7752L45.4582 24.866C45.3205 26.3228 44.0363 27.4045 42.5515 27.2668L40.6157 27.0832C39.1518 26.9445 38.0741 25.6403 38.2128 24.1765C38.2707 23.5528 37.8117 22.998 37.189 22.9391L25.0572 21.7896H25.0462C24.8367 21.7896 24.69 21.8615 24.5882 21.9862C24.5293 22.06 24.4355 22.2177 24.4814 22.4342C24.9863 24.8221 24.699 28.4772 23.8268 30.7543L23.5564 31.4598C23.4686 31.6903 23.5484 31.8759 23.6053 31.9657C23.6612 32.0545 23.7909 32.2082 24.0354 32.2321L36.5514 33.4185C37.1851 33.4774 37.7289 33.0174 37.7888 32.3958L37.7977 32.3049C37.9275 30.9309 39.068 29.8921 40.449 29.8921ZM51.7038 37.1774C51.598 37.1774 51.4892 37.1715 51.3825 37.1615L45.6618 36.6196C44.7418 36.5318 43.9096 36.0918 43.3198 35.3793C42.7311 34.6659 42.4547 33.7668 42.5415 32.8458L42.5495 32.756C42.5605 32.6422 42.5146 32.5584 42.4737 32.5095C42.4327 32.4596 42.3589 32.3987 42.2442 32.3878L40.483 32.2211H40.479C40.2754 32.2211 40.1297 32.3558 40.1137 32.5275L40.1048 32.6163C39.9252 34.5102 38.2538 35.9152 36.3319 35.7346L23.8159 34.5491C22.9068 34.4633 22.1095 33.9684 21.6286 33.192C21.1456 32.4167 21.0568 31.4817 21.3831 30.6286L21.6525 29.9231C22.363 28.0681 22.6165 24.86 22.2043 22.9162C22.0247 22.068 22.2353 21.1949 22.7811 20.5213C23.3848 19.775 24.3008 19.3818 25.2777 19.4726L37.4086 20.6221C39.3095 20.8027 40.7095 22.4951 40.5289 24.396C40.5109 24.5826 40.6486 24.7482 40.8352 24.7662L42.771 24.9498H42.775C42.9786 24.9498 43.1253 24.8161 43.1412 24.6445L43.1502 24.5537C43.3298 22.6597 44.9992 21.2568 46.9231 21.4354L47.1017 21.4523C48.9996 21.6329 50.3996 23.3253 50.219 25.2262L49.7689 29.979C49.755 30.1167 49.8577 30.2394 49.9955 30.2524L52.0201 30.445C52.9162 30.5288 53.7274 30.9588 54.3012 31.6534C54.8749 32.3479 55.1454 33.224 55.0605 34.121C54.8949 35.8633 53.451 37.1774 51.7038 37.1774Z" fill="#135D78"/>
<path fill-rule="evenodd" clip-rule="evenodd" d="M35.3227 40.0427L23.096 40.5865C22.8605 40.5975 22.7298 40.7402 22.6739 40.824C22.6171 40.9088 22.5352 41.0834 22.6161 41.306C23.4463 43.599 23.6668 47.2581 23.12 49.636L22.9513 50.3724C22.8965 50.6059 22.9952 50.7756 23.0591 50.8554C23.123 50.9362 23.2667 51.0709 23.5022 51.0709L23.5311 51.0699L36.091 50.5101C36.3934 50.4962 36.6738 50.3654 36.8783 50.1429C37.0829 49.9184 37.1877 49.629 37.1737 49.3257L37.1707 49.2379C37.1378 48.5254 37.3852 47.8449 37.8672 47.319C38.3482 46.7931 39.0037 46.4868 39.7152 46.4549L41.6022 46.373C43.0321 46.373 44.2006 47.4926 44.2644 48.9206L44.2684 49.0084C44.2953 49.6181 44.7923 50.094 45.401 50.094L51.1945 49.8366C51.4739 49.8246 51.7313 49.7039 51.9199 49.4983C52.1085 49.2908 52.2053 49.0233 52.1933 48.7449C52.1684 48.1841 51.7094 47.7441 51.1486 47.7441L48.9533 47.8379C47.5713 47.8379 46.4407 46.7572 46.3789 45.3752L46.1663 40.6055C46.1394 39.9978 45.6424 39.5218 45.0338 39.5218L44.8052 39.5298C44.1806 39.5577 43.6936 40.0896 43.7216 40.7142L43.7256 40.8031C43.7904 42.2709 42.6499 43.5192 41.1811 43.5861L39.1175 43.6749C37.6886 43.6749 36.5181 42.5563 36.4552 41.1274C36.4273 40.5197 35.9304 40.0427 35.3227 40.0427ZM23.5022 53.3979C22.6171 53.3979 21.7908 52.9998 21.239 52.3053C20.6862 51.6098 20.4837 50.7157 20.6822 49.8505L20.8519 49.1141C21.2979 47.1783 21.1033 43.9652 20.4268 42.0983C20.1135 41.2321 20.2272 40.2961 20.7391 39.5318C21.251 38.7654 22.0722 38.3024 22.9933 38.2615L35.167 37.7187C37.0979 37.6399 38.6944 39.1167 38.7802 41.0236C38.7882 41.2062 38.9359 41.3489 39.1175 41.3489L41.0773 41.2611C41.2629 41.2531 41.4096 41.0934 41.4016 40.9068L41.3966 40.819C41.3128 38.9101 42.7946 37.2906 44.7015 37.2058L44.8771 37.1978C46.8219 37.116 48.4055 38.5948 48.4913 40.5017L48.7038 45.2714C48.7098 45.4061 48.8196 45.5109 48.9533 45.5109L50.9969 45.4201C51.0488 45.4181 51.0987 45.4171 51.1486 45.4171C52.9577 45.4171 54.4375 46.8331 54.5173 48.6412C54.5582 49.5412 54.2449 50.4024 53.6372 51.0679C53.0285 51.7325 52.1983 52.1207 51.2993 52.1616L45.5566 52.417C43.6517 52.5038 42.0292 51.02 41.9444 49.1121L41.9404 49.0243C41.9324 48.8427 41.7838 48.7 41.6021 48.7L39.819 48.7799C39.7032 48.7848 39.6264 48.8417 39.5845 48.8896C39.5406 48.9375 39.4897 49.0173 39.4957 49.1331L39.4997 49.2219C39.5406 50.1459 39.2193 51.03 38.5946 51.7125C37.97 52.3951 37.1178 52.7942 36.1938 52.8351L23.6339 53.3949C23.591 53.3969 23.5461 53.3979 23.5022 53.3979Z" fill="#135D78"/>
<path fill-rule="evenodd" clip-rule="evenodd" d="M39.4269 58.7568C39.3122 58.7568 39.1984 58.7747 39.0857 58.8096L27.4617 62.4658C27.2362 62.5366 27.1474 62.7082 27.1145 62.805C27.0816 62.9008 27.0476 63.0904 27.1823 63.285C28.5743 65.2887 29.7298 68.7672 29.8127 71.2049L29.8386 71.9603C29.8516 72.3754 30.2547 72.587 30.579 72.4842L42.5722 68.7123C43.1689 68.5247 43.5022 67.8861 43.3146 67.2894L43.2876 67.2056C43.0731 66.526 43.138 65.8036 43.4672 65.1719C43.7965 64.5403 44.3523 64.0753 45.0309 63.8608L46.7182 63.3299C46.9777 63.2481 47.2471 63.2072 47.5185 63.2072C48.688 63.2072 49.7108 63.9576 50.061 65.0751L50.088 65.156C50.2726 65.7447 50.9142 66.089 51.5119 65.9004L56.9931 64.1771C57.5439 64.0035 57.8512 63.4147 57.6776 62.8639C57.508 62.3241 56.9153 62.0048 56.3664 62.1794L54.4246 62.7901C54.1742 62.8689 53.9137 62.9088 53.6513 62.9088C52.5207 62.9088 51.5329 62.1834 51.1936 61.1047L49.7597 56.5495C49.5761 55.9638 48.9305 55.6215 48.3377 55.8071L48.1671 55.861C47.8787 55.9508 47.6422 56.1494 47.5025 56.4188C47.3618 56.6872 47.3349 56.9946 47.4267 57.2839L47.4517 57.3648C47.8927 58.7707 47.1114 60.2705 45.7104 60.7115L43.8534 61.2953C43.593 61.3771 43.3245 61.418 43.0531 61.418C41.8837 61.418 40.8609 60.6686 40.5096 59.552C40.3599 59.0761 39.9249 58.7568 39.4269 58.7568ZM30.4054 74.8391C28.8358 74.8391 27.5645 73.6087 27.5126 72.0391L27.4867 71.2838C27.4198 69.299 26.405 66.2446 25.2705 64.6131C24.7456 63.8568 24.6149 62.9238 24.9122 62.0527C25.2106 61.1805 25.8851 60.523 26.7632 60.2456L38.3882 56.5894C38.7255 56.4837 39.0747 56.4298 39.4269 56.4298C40.9467 56.4298 42.2748 57.4047 42.7298 58.8536C42.7957 59.0631 42.9972 59.125 43.1549 59.0751L45.0109 58.4923C45.1885 58.4355 45.2893 58.2449 45.2324 58.0662L45.2075 57.9854C44.9291 57.1003 45.0109 56.1624 45.438 55.3421C45.8661 54.5219 46.5885 53.9172 47.4706 53.6408L47.6402 53.5879C47.9765 53.4811 48.3268 53.4272 48.678 53.4272C50.1977 53.4272 51.5239 54.4011 51.9799 55.851L53.4128 60.4052C53.4607 60.5609 53.6104 60.6058 53.7271 60.5699L55.6669 59.9592C55.9962 59.8564 56.3375 59.8035 56.6798 59.8035C58.1606 59.8035 59.4528 60.7525 59.8978 62.1664C60.4556 63.9396 59.4658 65.8385 57.6926 66.3963L52.2104 68.1206C51.8721 68.2273 51.5219 68.2802 51.1706 68.2802C49.6519 68.2802 48.3248 67.3063 47.8678 65.8575L47.8428 65.7756C47.775 65.5621 47.5734 65.5032 47.4167 65.5501L45.7294 66.081C45.6186 66.1159 45.5597 66.1907 45.5298 66.2476C45.4999 66.3045 45.4729 66.3953 45.5068 66.5061L45.5338 66.5909C46.1065 68.412 45.0917 70.3598 43.2707 70.9325L31.2775 74.7044C30.9941 74.7942 30.6998 74.8391 30.4054 74.8391Z" fill="#135D78"/>
<path fill-rule="evenodd" clip-rule="evenodd" d="M43.7343 76.3526C43.6535 76.3526 43.5707 76.3616 43.4899 76.3795L31.5835 78.9789C31.354 79.0298 31.2493 79.1925 31.2073 79.2853C31.1664 79.3781 31.1155 79.5647 31.2323 79.7702C32.4397 81.8896 33.2779 85.458 33.1422 87.8937L33.1003 88.6481C33.0893 88.8506 33.1781 88.9903 33.2539 89.0702C33.3916 89.2169 33.5892 89.2797 33.7918 89.2378L46.0743 86.5546C46.686 86.4209 47.0741 85.8152 46.9404 85.2035L46.9215 85.1157C46.7698 84.4212 46.8985 83.7077 47.2827 83.109C47.6659 82.5083 48.2616 82.0952 48.9581 81.9435L50.6854 81.5653C50.873 81.5254 51.0655 81.5035 51.2561 81.5035C52.4985 81.5035 53.5941 82.3856 53.8595 83.602L53.8785 83.6898C54.0092 84.2865 54.6229 84.6856 55.2296 84.5549L60.8435 83.3295C61.4083 83.2058 61.7665 82.647 61.6427 82.0842C61.523 81.5314 60.9562 81.1602 60.3974 81.284L58.4107 81.717C58.2291 81.7569 58.0435 81.7769 57.8579 81.7769C56.6565 81.7769 55.5988 80.9237 55.3423 79.7483L54.3225 75.0843C54.1918 74.4876 53.5771 74.0865 52.9724 74.2172L52.7998 74.2551C52.5024 74.321 52.249 74.4966 52.0863 74.751C51.9227 75.0065 51.8678 75.3108 51.9327 75.6062L51.9506 75.695C52.265 77.1289 51.3519 78.5528 49.915 78.8672L48.0151 79.2823C47.8275 79.3232 47.6349 79.3441 47.4453 79.3441C46.201 79.3441 45.1054 78.461 44.841 77.2457C44.7282 76.7278 44.2622 76.3526 43.7343 76.3526ZM33.665 91.5788C32.8748 91.5788 32.1094 91.2465 31.5636 90.6687C31.0108 90.086 30.7324 89.3216 30.7773 88.5174L30.8192 87.764C30.9299 85.7813 30.1935 82.648 29.2096 80.9217C28.7536 80.1225 28.7077 79.1805 29.0819 78.3393C29.4561 77.4971 30.1875 76.9024 31.0876 76.7058L42.9929 74.1064C43.2364 74.0525 43.4859 74.0256 43.7343 74.0256C45.3479 74.0256 46.7698 75.1711 47.1151 76.7487C47.16 76.9573 47.3575 77.0411 47.5192 77.0092L49.4181 76.5941C49.6017 76.5541 49.7185 76.3725 49.6775 76.1899L49.6586 76.1021C49.462 75.2001 49.6276 74.2741 50.1266 73.4947C50.6265 72.7164 51.3998 72.1796 52.3029 71.982L52.4745 71.9451C52.72 71.8912 52.9694 71.8643 53.2169 71.8643C54.8304 71.8643 56.2524 73.0088 56.5976 74.5884L57.6154 79.2523C57.6434 79.3821 57.7591 79.4499 57.8579 79.4499L59.9005 79.0109C60.138 78.959 60.3815 78.932 60.6239 78.932C62.1966 78.932 63.5816 80.0486 63.9169 81.5873C64.314 83.4034 63.1585 85.2055 61.3414 85.6026L55.7265 86.829C55.482 86.8819 55.2326 86.9088 54.9841 86.9088C53.3706 86.9088 51.9496 85.7633 51.6054 84.1847L51.5854 84.0969C51.5405 83.8913 51.3459 83.8035 51.1823 83.8394L49.454 84.2166C49.3403 84.2416 49.2754 84.3104 49.2415 84.3643C49.2066 84.4182 49.1706 84.507 49.1956 84.6208L49.2135 84.7086C49.6207 86.5716 48.4352 88.4206 46.5702 88.8277L34.2877 91.5109C34.0821 91.5558 33.8726 91.5788 33.665 91.5788Z" fill="#135D78"/>
<path fill-rule="evenodd" clip-rule="evenodd" d="M28.6883 55.5707C29.1094 55.4619 29.5375 55.395 29.9715 55.3721C30.4525 55.8401 30.3288 56.0576 29.6003 56.0247C28.5127 56.3091 27.4539 56.6883 26.4052 57.0894C25.7057 57.3578 25.0212 57.6701 24.3417 57.9835C21.9328 59.0931 21.9837 56.2243 23.2889 56.0985C25.0112 55.9329 26.7335 55.7672 28.4568 55.6016C29.5664 55.4948 29.5764 53.7486 28.4568 53.8564C26.6447 54.031 24.8336 54.2046 23.0215 54.3792C20.4291 54.6287 20.019 57.8787 21.5736 59.5391C22.5745 60.6068 24.1501 60.0141 25.2218 59.4902C26.3683 58.9314 27.5647 58.4944 28.7721 58.0912C29.5414 57.8348 30.8027 57.7729 31.4533 57.284C32.4542 56.5346 32.7286 55.6505 32.0311 54.5319C31.2488 53.2806 29.3928 53.6328 28.2243 53.8873C27.1257 54.1278 27.5907 55.8101 28.6883 55.5707Z" fill="#135D78"/>
</svg>
