<svg width="43" height="89" viewBox="0 0 43 89" fill="none" xmlns="http://www.w3.org/2000/svg">
<path fill-rule="evenodd" clip-rule="evenodd" d="M10.3377 26.2852C10.3008 26.2852 10.2631 26.2836 10.2255 26.2794C8.26683 26.0834 4.88631 24.8608 3.47365 24.2981C2.58937 24.577 1.65066 24.2554 1.12395 23.4867C0.588863 22.7063 0.639106 21.693 1.24788 20.967L1.68248 20.4487C1.28305 19.3073 0.600586 16.7508 0.600586 12.6225C0.600586 8.42217 1.30064 5.59182 1.685 4.355L1.36679 4.02759C0.715307 3.36019 0.584676 2.36538 1.04021 1.55144C1.49575 0.737507 2.41436 0.330539 3.32292 0.537373L4.06735 0.706524C5.51267 0.426838 12.8004 -0.825887 18.7534 1.04818C20.4374 1.57824 22.216 1.57824 23.8991 1.04818C29.8521 -0.825887 37.1406 0.426838 38.5851 0.706524L39.3296 0.537373C40.239 0.329702 41.1567 0.737507 41.6123 1.55144C42.0686 2.36538 41.9372 3.36019 41.2857 4.02759L40.9675 4.355C41.3518 5.59182 42.0519 8.42217 42.0519 12.6225C42.0519 16.7508 41.3694 19.3073 40.9708 20.4487L41.4054 20.967C42.0142 21.6939 42.0636 22.7063 41.5277 23.4867C41.0018 24.2554 40.0623 24.5778 39.1788 24.2981C38.5633 24.5435 37.139 25.4386 35.4985 25.7686C34.899 25.8892 34.3053 25.55 34.1604 24.9571C34.0147 24.3634 34.3789 23.7647 34.9726 23.619C35.7255 23.4356 38.0886 22.3688 38.6915 22.1033C38.9226 22.002 39.1797 21.9819 39.4217 22.0464L38.8522 21.3664C38.57 21.0307 38.5131 20.5584 38.7082 20.1648C38.7166 20.1472 39.8387 17.7448 39.8387 12.6225C39.8387 7.43322 38.6864 4.51578 38.6747 4.48647C38.5114 4.0795 38.6019 3.61141 38.9075 3.29739L39.4024 2.78993L38.8455 2.91722C38.689 2.95239 38.5265 2.95406 38.3699 2.92057C38.2929 2.90382 30.4993 1.29018 24.5631 3.15922C22.4454 3.82578 20.2071 3.82578 18.0893 3.15922C12.1389 1.28599 4.36044 2.90382 4.2834 2.92057C4.12597 2.95406 3.96352 2.95239 3.80693 2.91722L3.25007 2.78993L3.74496 3.29739C4.05312 3.61308 4.14439 4.08118 3.97608 4.48982C3.96603 4.51578 2.81379 7.43322 2.81379 12.6225C2.81379 17.7448 3.93588 20.1472 3.94761 20.1707C4.13518 20.5626 4.07908 21.034 3.80023 21.3664L3.23081 22.0464C3.47281 21.9819 3.72989 22.0012 3.961 22.1033C5.2355 22.6652 8.52893 23.8853 10.4474 24.0779C11.0545 24.139 11.4983 24.6816 11.4372 25.2896C11.3802 25.8598 10.8987 26.2852 10.3377 26.2852Z" fill="#135D78"/>
<path fill-rule="evenodd" clip-rule="evenodd" d="M22.7792 9.89688C19.943 9.89688 17.636 12.2039 17.636 15.0392C17.636 17.8746 19.943 20.1816 22.7792 20.1816C25.6146 20.1816 27.9216 17.8746 27.9216 15.0392C27.9216 12.2039 25.6146 9.89688 22.7792 9.89688ZM22.7791 22.6492C18.5821 22.6492 15.1689 19.2352 15.1689 15.0391C15.1689 10.843 18.5821 7.42981 22.7791 7.42981C26.9752 7.42981 30.3892 10.843 30.3892 15.0391C30.3892 19.2352 26.9752 22.6492 22.7791 22.6492Z" fill="#135D78"/>
<path fill-rule="evenodd" clip-rule="evenodd" d="M29.5969 85.4068H29.5776C28.896 85.3959 28.3526 84.8348 28.3634 84.154L29.1782 36.3905C29.1899 35.7089 29.7493 35.1705 30.4309 35.1763C31.1134 35.1864 31.656 35.7474 31.6451 36.429L30.8304 84.1926C30.8195 84.8666 30.2702 85.4068 29.5969 85.4068Z" fill="#135D78"/>
<path fill-rule="evenodd" clip-rule="evenodd" d="M23.1327 85.4068C22.4519 85.4068 21.8984 84.8549 21.8984 84.1733V55.1086C21.8984 54.427 22.4519 53.8751 23.1327 53.8751C23.8135 53.8751 24.3662 54.427 24.3662 55.1086V84.1733C24.3662 84.8549 23.8135 85.4068 23.1327 85.4068Z" fill="#135D78"/>
<path fill-rule="evenodd" clip-rule="evenodd" d="M38.8957 57.0339C37.2603 57.0339 35.7279 56.0324 35.12 54.4297C35.1133 54.4129 35.1082 54.3978 35.1032 54.3819L29.2424 36.8002C29.0263 36.1529 29.3755 35.4546 30.022 35.2402C30.6684 35.0242 31.3668 35.3733 31.5829 36.0198L37.4345 53.5739C37.7351 54.3367 38.5775 54.7395 39.3622 54.495C40.151 54.2471 40.609 53.4357 40.4181 52.6352L33.256 31.4301C33.2333 31.3631 33.2166 31.2936 33.2057 31.2241C32.8163 28.7128 30.9758 26.678 28.5164 26.039L26.2898 25.4612C25.6299 25.2896 25.2347 24.6163 25.4063 23.9565C25.5771 23.2974 26.2504 22.9014 26.9103 23.0722L29.1369 23.6508C32.514 24.5284 35.0505 27.3026 35.6266 30.7376L42.772 51.8916C42.7812 51.9192 42.7887 51.946 42.7954 51.9736C43.3439 54.0612 42.1599 56.2032 40.0991 56.8489C39.7005 56.9745 39.2952 57.0339 38.8957 57.0339Z" fill="#135D78"/>
<path fill-rule="evenodd" clip-rule="evenodd" d="M16.4048 85.4068C15.7315 85.4068 15.1814 84.8667 15.1713 84.1917L14.3976 36.4282C14.3875 35.7466 14.931 35.1864 15.6126 35.1763C16.2909 35.1688 16.8545 35.7098 16.8645 36.3914L17.6391 84.1549C17.6483 84.8357 17.1049 85.3967 16.4232 85.4068H16.4048Z" fill="#135D78"/>
<path fill-rule="evenodd" clip-rule="evenodd" d="M7.10672 57.0339C6.70729 57.0339 6.30283 56.9745 5.9034 56.8489C3.84344 56.2032 2.65854 54.0612 3.20702 51.9736C3.21372 51.946 3.22126 51.9192 3.23131 51.8916L10.3759 30.7376C10.952 27.3026 13.4884 24.5284 16.8656 23.6508L19.0922 23.0722C19.7529 22.9014 20.4253 23.2974 20.5961 23.9565C20.7678 24.6163 20.3725 25.2896 19.7127 25.4612L17.4861 26.039C15.0267 26.678 13.1861 28.7128 12.7967 31.2241C12.7858 31.2936 12.7699 31.3631 12.7465 31.4301L5.58435 52.6352C5.39343 53.4357 5.85148 54.2471 6.6403 54.495C7.42576 54.7403 8.26817 54.3359 8.56795 53.573L14.4623 36.0173C14.6792 35.3717 15.3784 35.0233 16.024 35.241C16.6705 35.4571 17.018 36.1563 16.8011 36.8028L10.8984 54.3844C10.8934 54.3995 10.8883 54.4146 10.8825 54.4297C10.2745 56.0324 8.74213 57.0339 7.10672 57.0339Z" fill="#135D78"/>
<path fill-rule="evenodd" clip-rule="evenodd" d="M28.3672 83.861C28.3689 83.8945 28.3655 83.9288 28.3655 83.9631C28.3655 85.0609 27.4654 85.9511 26.3675 85.9511C25.2706 85.9511 24.3662 85.0593 24.3662 83.9614C24.3662 83.9271 24.3645 83.8945 24.3662 83.861H21.9093C21.9085 83.8953 21.8984 83.9263 21.8984 83.9606C21.8984 86.4259 23.9031 88.4297 26.3675 88.4297C28.8328 88.4297 30.8333 86.4384 30.8333 83.974C30.8333 83.9397 30.8275 83.8953 30.8266 83.861H28.3672Z" fill="#135D78"/>
<path fill-rule="evenodd" clip-rule="evenodd" d="M21.9104 83.861C21.9121 83.8945 21.9054 83.9263 21.9054 83.9606C21.9054 85.0584 20.8687 85.9544 19.6445 85.9511C18.5467 85.9477 17.6373 85.0593 17.6373 83.9614C17.6373 83.9271 17.6339 83.8945 17.6356 83.861H15.1854C15.1846 83.8953 15.167 84.0217 15.167 84.0561C15.167 86.5213 17.1801 88.4297 19.6445 88.4297C22.1081 88.4297 24.1136 86.4259 24.1136 83.9606C24.1136 83.9263 24.1035 83.8953 24.1027 83.861H21.9104Z" fill="#135D78"/>
</svg>
