<svg width="51" height="93" viewBox="0 0 51 93" fill="none" xmlns="http://www.w3.org/2000/svg">
<path fill-rule="evenodd" clip-rule="evenodd" d="M33.798 26.5137C33.8338 26.508 33.8696 26.5006 33.9055 26.4917C35.759 26.0171 38.8304 24.3491 40.106 23.6019C40.9965 23.7419 41.8521 23.295 42.2452 22.4801C42.6458 21.6506 42.4504 20.6852 41.7593 20.0763L41.266 19.6416C41.4825 18.4865 41.7658 15.9296 41.1642 11.9612C40.5512 7.92436 39.4653 5.30643 38.9158 4.17329L39.1739 3.81267C39.703 3.07597 39.6827 2.10076 39.1267 1.38522C38.5691 0.669682 37.628 0.412447 36.7847 0.743759L36.0936 1.01483C34.6633 0.956222 27.4762 0.816208 22.0287 3.48543C20.4877 4.24004 18.7782 4.49972 17.0834 4.23597C11.0889 3.30309 4.26644 5.56936 2.91758 6.04964L2.17844 5.9951C1.27404 5.92835 0.451868 6.45422 0.132766 7.30244C-0.187149 8.15066 0.0839243 9.08925 0.807602 9.63546L1.16089 9.90328C0.972037 11.1488 0.711545 13.971 1.3237 18.0078C1.9269 21.9754 2.95584 24.3329 3.50531 25.3724L3.16261 25.9341C2.68395 26.7204 2.78408 27.7005 3.41251 28.3729C4.03037 29.0355 4.98035 29.2081 5.78868 28.8101C6.41549 28.9558 7.91576 29.6094 9.54057 29.6868C10.1348 29.7153 10.655 29.3034 10.7087 28.7116C10.7608 28.1198 10.3245 27.5971 9.7335 27.5442C8.98214 27.4775 6.5555 26.7978 5.93684 26.6301C5.69995 26.565 5.45004 26.5845 5.22618 26.6814L5.67553 25.9455C5.89776 25.5808 5.88311 25.1192 5.63809 24.7684C5.62832 24.7537 4.19806 22.6079 3.45159 17.6846C2.69454 12.6979 3.3767 9.72501 3.38402 9.6957C3.48171 9.28054 3.32623 8.84341 2.98596 8.58699L2.4373 8.17101L2.99003 8.21172C3.14632 8.22311 3.30262 8.20032 3.44833 8.14578C3.52078 8.1181 10.7746 5.43179 16.7529 6.36141C18.8857 6.69273 21.0372 6.3663 22.9746 5.41713C28.4205 2.74873 36.1327 3.16877 36.21 3.17365C36.3655 3.18261 36.5218 3.15819 36.6667 3.10039L37.1828 2.8977L36.7814 3.45775C36.5315 3.80534 36.5128 4.26934 36.7326 4.63729C36.7464 4.66008 38.2809 7.29755 39.0379 12.2843C39.7844 17.2068 39.0559 19.6798 39.0477 19.7051C38.9248 20.1088 39.0469 20.5533 39.3636 20.8325L40.0107 21.4023C39.769 21.3755 39.5239 21.4325 39.3172 21.5635C38.1743 22.2905 35.1867 23.9429 33.3715 24.4078C32.7959 24.5551 32.4492 25.1412 32.5957 25.7167C32.7341 26.2564 33.2591 26.5959 33.798 26.5137Z" fill="#135D78"/>
<path fill-rule="evenodd" clip-rule="evenodd" d="M24.4936 12.9685C21.7446 12.7609 19.34 14.8277 19.1316 17.5767C18.924 20.3257 20.9908 22.7312 23.7398 22.9388C26.4888 23.1463 28.8943 21.0795 29.1019 18.3305C29.3095 15.5815 27.2426 13.1768 24.4936 12.9685ZM23.5602 25.3311C19.4917 25.0234 16.4333 21.4637 16.7411 17.3959C17.0488 13.3282 20.6077 10.2699 24.6755 10.5768C28.7424 10.8845 31.8015 14.4434 31.4946 18.512C31.1869 22.5789 27.6271 25.6372 23.5602 25.3311Z" fill="#135D78"/>
<path fill-rule="evenodd" clip-rule="evenodd" d="M19.0654 90.2548C18.4044 90.2076 17.9071 89.6337 17.9543 88.9735L20.2531 56.7304C20.3011 56.0702 20.8742 55.5728 21.5344 55.62C22.1962 55.6673 22.6928 56.2412 22.6456 56.9013L20.3467 89.1445C20.2995 89.8046 19.7264 90.3028 19.0654 90.2548Z" fill="#135D78"/>
<path fill-rule="evenodd" clip-rule="evenodd" d="M37.7724 34.4449C34.6921 32.5864 31.2096 29.8366 28.8758 29.1732L26.7601 28.4503C26.1301 28.0987 25.7955 27.4173 26.0104 26.7905C26.2245 26.1637 26.9066 25.8299 27.5335 26.044L29.6491 26.7669C32.8589 27.865 37.5103 31.5274 39.3239 32.7997" fill="#135D78"/>
<path fill-rule="evenodd" clip-rule="evenodd" d="M12.4759 89.7565C11.8238 89.7068 11.3305 89.1435 11.3704 88.4882L14.4263 38.0734C14.4662 37.4124 15.0352 36.9085 15.6962 36.9492C16.3539 36.9915 16.8611 37.5573 16.8204 38.2183L13.7637 88.6331C13.7238 89.2949 13.1556 89.798 12.4938 89.7581C12.4889 89.7573 12.4824 89.7573 12.4759 89.7565Z" fill="#135D78"/>
<path fill-rule="evenodd" clip-rule="evenodd" d="M5.84902 57.5129C5.46154 57.4836 5.07325 57.3957 4.69472 57.2459C2.74511 56.4685 1.75442 54.3064 2.43903 52.3218C2.44717 52.2966 2.45775 52.2705 2.46833 52.2445L10.9449 32.2616C11.7548 28.9745 14.4159 26.4705 17.7551 25.8681L19.9554 25.4717C20.6075 25.3537 21.231 25.7859 21.3491 26.4379C21.4671 27.09 21.0332 27.7144 20.382 27.8316L18.18 28.2288C15.7501 28.6676 13.8168 30.5049 13.2559 32.9103C13.2396 32.9779 13.2185 33.043 13.1916 33.1073L4.69472 53.1383C4.45132 53.9002 4.83636 54.72 5.58283 55.0179C6.32523 55.3134 7.17183 54.9837 7.51942 54.2657L14.5185 37.6798C14.7757 37.0692 15.4791 36.7827 16.0896 37.0416C16.7001 37.2988 16.9858 38.0021 16.7278 38.6118L9.71813 55.223C9.71243 55.2369 9.70592 55.2507 9.69941 55.2645C8.99201 56.7746 7.43313 57.6326 5.84902 57.5129Z" fill="#135D78"/>
<path fill-rule="evenodd" clip-rule="evenodd" d="M17.9254 88.6617C17.9246 88.6942 17.9156 88.7244 17.9124 88.7577C17.8326 89.8217 16.7621 90.6137 15.5753 90.5209C14.5121 90.4379 13.6965 89.5099 13.7762 88.446C13.7787 88.4126 13.7771 88.3808 13.7811 88.3483L11.4066 88.1692C11.4033 88.2018 11.3773 88.3239 11.3748 88.3572C11.1933 90.7464 13.0054 92.7441 15.3937 92.924C17.7829 93.1047 20.1192 91.3244 20.2999 88.936" fill="#135D78"/>
<path fill-rule="evenodd" clip-rule="evenodd" d="M40.3791 42.0431C39.9159 41.9943 39.4585 41.8657 39.0246 41.6573L31.3507 37.9958C30.8004 37.7328 30.5692 37.0735 30.8321 36.524C31.0967 35.9737 31.7561 35.7425 32.3055 36.0055L39.9802 39.667C40.4532 39.8933 40.9831 39.9177 41.4748 39.7321C41.9649 39.5481 42.3491 39.1794 42.5542 38.6975L47.7396 26.5333C47.8894 26.1833 47.8853 25.7975 47.7282 25.449C47.5728 25.1015 47.2862 24.8426 46.9248 24.7221C46.2768 24.5048 45.5678 24.806 45.2747 25.423L40.7959 34.8463C40.6624 35.1271 40.4158 35.3388 40.1178 35.4291C39.8199 35.5187 39.4983 35.4796 39.2313 35.3192L37.4103 34.2243C36.8869 33.9101 31.4247 30.0654 31.7381 29.5428C32.0515 29.0194 32.7296 28.8493 33.2522 29.1635L39.3233 32.8006L43.2803 24.4755C44.0529 22.8515 45.9211 22.057 47.6257 22.6276C48.5651 22.9426 49.3368 23.6411 49.743 24.5447C50.1484 25.4474 50.1589 26.4886 49.7706 27.3995L44.5852 39.5628C44.1408 40.6047 43.3129 41.3992 42.253 41.7981C41.6433 42.0277 41.0059 42.1091 40.3791 42.0431Z" fill="#135D78"/>
<path fill-rule="evenodd" clip-rule="evenodd" d="M44.4807 57.6545C43.6431 56.0321 42.4098 54.9918 40.2583 54.6987L40.0955 56.8519C41.4875 57.7701 42.0663 57.6675 42.5686 58.6411C43.092 59.6538 43.0814 60.8089 42.5409 61.8109L31.9918 80.0779C31.9869 80.086 31.9829 80.0933 31.9788 80.1015C31.5498 80.8895 30.5721 81.2232 29.7508 80.8602C29.3104 80.6656 28.9791 80.3083 28.8171 79.854C28.6583 79.4047 28.6876 78.9236 28.8993 78.497L37.6697 62.6217C37.8586 62.279 37.848 61.8606 37.6396 61.5293C37.4312 61.1988 36.745 60.9668 36.355 60.9888L34.8474 63.2819L27.0067 77.4754L26.9904 77.5063C26.5068 78.4539 26.4344 79.5724 26.7909 80.5736C27.1467 81.5765 27.9094 82.3979 28.8822 82.8277C29.461 83.0833 30.0748 83.1842 30.6739 83.1476C31.9723 83.0686 33.2031 82.3425 33.8608 81.1426L44.4107 62.8741C44.4156 62.8659 44.4205 62.8586 44.4246 62.8505C45.3045 61.233 45.3249 59.2907 44.4807 57.6545Z" fill="#135D78"/>
<path fill-rule="evenodd" clip-rule="evenodd" d="M41.9816 57.8222C41.8514 57.8124 41.7203 57.7815 41.5925 57.727L30.1838 52.9551C29.7043 52.75 29.408 52.2615 29.4479 51.7405L30.5607 37.0163C30.6112 36.3439 31.1973 35.84 31.8697 35.8913C32.5421 35.9418 33.046 36.5287 32.9955 37.2003L31.9486 51.0551L42.5547 55.4827C43.175 55.748 43.4615 56.466 43.1962 57.0863C42.9845 57.5788 42.4888 57.8613 41.9816 57.8222Z" fill="#135D78"/>
<path fill-rule="evenodd" clip-rule="evenodd" d="M36.5425 63.0809C36.4448 63.0736 36.3455 63.0549 36.2478 63.0215L21.1345 57.9965C20.4946 57.7824 20.1487 57.0913 20.3636 56.4514C20.576 55.8116 21.268 55.4664 21.907 55.6805L37.0204 60.7056C37.6602 60.9197 38.0062 61.6108 37.7921 62.2498C37.6114 62.7928 37.0871 63.1224 36.5425 63.0809Z" fill="#135D78"/>
<path fill-rule="evenodd" clip-rule="evenodd" d="M31.1362 53.3832C31.0271 53.3661 30.9188 53.3352 30.8138 53.2921L28.633 52.4959C27.9403 52.2135 27.613 51.4865 27.902 50.8727C28.1902 50.2573 28.9855 49.9879 29.6774 50.2704L31.8582 51.0657C32.5501 51.3481 32.8782 52.0759 32.5884 52.6897C32.3442 53.2107 31.7369 53.4834 31.1362 53.3832Z" fill="#135D78"/>
<path fill-rule="evenodd" clip-rule="evenodd" d="M24.3023 5.63568C23.8522 5.63568 23.4883 5.27181 23.4883 4.82165V2.38362C23.4883 1.93345 23.8522 1.56958 24.3023 1.56958C24.7525 1.56958 25.1164 1.93345 25.1164 2.38362V4.82165C25.1164 5.27181 24.7525 5.63568 24.3023 5.63568ZM24.3023 12.1373C23.8522 12.1373 23.4883 11.7734 23.4883 11.3233V8.88525C23.4883 8.43508 23.8522 8.07121 24.3023 8.07121C24.7525 8.07121 25.1164 8.43508 25.1164 8.88525V11.3233C25.1164 11.7734 24.7525 12.1373 24.3023 12.1373ZM24.3023 18.6399C23.8522 18.6399 23.4883 18.2752 23.4883 17.8259V15.387C23.4883 14.9377 23.8522 14.573 24.3023 14.573C24.7525 14.573 25.1164 14.9377 25.1164 15.387V17.8259C25.1164 18.2752 24.7525 18.6399 24.3023 18.6399ZM24.3023 25.1416C23.8522 25.1416 23.4883 24.7777 23.4883 24.3275V21.8895C23.4883 21.4393 23.8522 21.0755 24.3023 21.0755C24.7525 21.0755 25.1164 21.4393 25.1164 21.8895V24.3275C25.1164 24.7777 24.7525 25.1416 24.3023 25.1416ZM24.3023 31.6433C23.8522 31.6433 23.4883 31.2795 23.4883 30.8293V28.3913C23.4883 27.9411 23.8522 27.5772 24.3023 27.5772C24.7525 27.5772 25.1164 27.9411 25.1164 28.3913V30.8293C25.1164 31.2795 24.7525 31.6433 24.3023 31.6433ZM24.3023 38.1458C23.8522 38.1458 23.4883 37.7811 23.4883 37.3317V34.8929C23.4883 34.4435 23.8522 34.0789 24.3023 34.0789C24.7525 34.0789 25.1164 34.4435 25.1164 34.8929V37.3317C25.1164 37.7811 24.7525 38.1458 24.3023 38.1458ZM24.3023 44.6474C23.8522 44.6474 23.4883 44.2836 23.4883 43.8334V41.3954C23.4883 40.9452 23.8522 40.5813 24.3023 40.5813C24.7525 40.5813 25.1164 40.9452 25.1164 41.3954V43.8334C25.1164 44.2836 24.7525 44.6474 24.3023 44.6474ZM24.3023 51.1492C23.8522 51.1492 23.4883 50.7853 23.4883 50.3352V47.8971C23.4883 47.447 23.8522 47.0831 24.3023 47.0831C24.7525 47.0831 25.1164 47.447 25.1164 47.8971V50.3352C25.1164 50.7853 24.7525 51.1492 24.3023 51.1492ZM24.3023 57.6508C23.8522 57.6508 23.4883 57.287 23.4883 56.8368V54.3988C23.4883 53.9494 23.8522 53.5847 24.3023 53.5847C24.7525 53.5847 25.1164 53.9494 25.1164 54.3988V56.8368C25.1164 57.287 24.7525 57.6508 24.3023 57.6508ZM24.3023 64.1535C23.8522 64.1535 23.4883 63.7888 23.4883 63.3394V60.9014C23.4883 60.4512 23.8522 60.0874 24.3023 60.0874C24.7525 60.0874 25.1164 60.4512 25.1164 60.9014V63.3394C25.1164 63.7888 24.7525 64.1535 24.3023 64.1535ZM24.3023 70.6551C23.8522 70.6551 23.4883 70.2912 23.4883 69.841V67.403C23.4883 66.9529 23.8522 66.589 24.3023 66.589C24.7525 66.589 25.1164 66.9529 25.1164 67.403V69.841C25.1164 70.2912 24.7525 70.6551 24.3023 70.6551ZM24.3023 77.1567C23.8522 77.1567 23.4883 76.7928 23.4883 76.3427V73.9046C23.4883 73.4553 23.8522 73.0906 24.3023 73.0906C24.7525 73.0906 25.1164 73.4553 25.1164 73.9046V76.3427C25.1164 76.7928 24.7525 77.1567 24.3023 77.1567ZM24.3023 83.6593C23.8522 83.6593 23.4883 83.2946 23.4883 82.8453V80.4064C23.4883 79.9563 23.8522 79.5924 24.3023 79.5924C24.7525 79.5924 25.1164 79.9563 25.1164 80.4064V82.8453C25.1164 83.2946 24.7525 83.6593 24.3023 83.6593ZM24.3023 90.1609C23.8522 90.1609 23.4883 89.7971 23.4883 89.3469V86.9081C23.4883 86.4579 23.8522 86.094 24.3023 86.094C24.7525 86.094 25.1164 86.4579 25.1164 86.9081V89.3469C25.1164 89.7971 24.7525 90.1609 24.3023 90.1609Z" fill="#135D78"/>
</svg>
