<svg width="99" height="96" viewBox="0 0 99 96" fill="none" xmlns="http://www.w3.org/2000/svg">
<path fill-rule="evenodd" clip-rule="evenodd" d="M37.3456 4.92798C34.2855 4.92798 31.7951 7.31673 31.7951 10.252C31.7951 13.1872 34.2855 15.5743 37.3456 15.5743C40.4057 15.5743 42.8953 13.1872 42.8953 10.252C42.8953 7.31673 40.4057 4.92798 37.3456 4.92798M37.3459 18.1328C32.8149 18.1328 29.1289 14.5981 29.1289 10.252C29.1289 5.90585 32.8149 2.36951 37.3459 2.36951C41.877 2.36951 45.5629 5.90585 45.5629 10.252C45.5629 14.5981 41.877 18.1328 37.3459 18.1328" fill="#135D78"/>
<path fill-rule="evenodd" clip-rule="evenodd" d="M45.589 63.5964H45.5657C44.8285 63.584 44.2415 63.002 44.2545 62.2957L44.63 41.2176C44.6421 40.5113 45.2541 39.9524 45.9861 39.9607C46.7224 39.9731 47.3094 40.5552 47.2973 41.2606L46.9218 62.3387C46.9089 63.0376 46.315 63.5964 45.589 63.5964M44.7072 87.4525H44.671C43.9346 87.4343 43.3537 86.8456 43.3735 86.1401L43.6109 76.8112C43.6299 76.1165 44.2238 75.5659 44.9437 75.5659C44.9558 75.5659 44.9679 75.5659 44.98 75.5667C45.7155 75.5849 46.2964 76.1728 46.2774 76.8799L46.0392 86.2089C46.0202 86.9027 45.4272 87.4525 44.7072 87.4525" fill="#135D78"/>
<path fill-rule="evenodd" clip-rule="evenodd" d="M37.7282 87.4529C36.9919 87.4529 36.3945 86.8807 36.3945 86.1736V51.7425C36.3945 51.0362 36.9919 50.4633 37.7282 50.4633C38.4654 50.4633 39.0619 51.0362 39.0619 51.7425V86.1736C39.0619 86.8807 38.4654 87.4529 37.7282 87.4529" fill="#135D78"/>
<path fill-rule="evenodd" clip-rule="evenodd" d="M30.4665 87.4528C29.7448 87.4528 29.1518 86.9005 29.1337 86.205L27.7758 32.1241C27.7577 31.4178 28.3412 30.8316 29.0775 30.815C29.8104 30.7968 30.425 31.3565 30.4432 32.0628L31.8001 86.1429C31.8174 86.8492 31.2356 87.4354 30.4993 87.4528H30.4665Z" fill="#135D78"/>
<path fill-rule="evenodd" clip-rule="evenodd" d="M20.3275 53.718C19.8148 53.718 19.3763 53.6319 19.0284 53.5234C18.2601 53.2833 17.769 52.89 17.5877 52.7261C16.3326 51.6894 15.7939 50.0351 16.216 48.4959C16.2238 48.4677 16.2316 48.4396 16.2419 48.4114L22.5901 30.3836C23.0122 29.1855 23.4075 27.9476 23.7899 26.7495C23.9445 26.2668 24.099 25.7841 24.2543 25.3014C25.2401 22.261 27.7478 19.9675 30.9625 19.1676L33.3665 18.569C34.0804 18.391 34.8072 18.8017 34.9928 19.4848C35.1776 20.1687 34.7494 20.8667 34.0364 21.0447L31.6323 21.6433C29.3171 22.2204 27.5113 23.8714 26.8009 26.0615C26.6463 26.5401 26.4935 27.0195 26.3399 27.4989C25.9523 28.7135 25.5509 29.9696 25.1167 31.2033L18.7858 49.1823C18.6382 49.7743 18.8549 50.406 19.3426 50.7993C19.3927 50.8399 19.3961 50.8382 19.4324 50.878C19.5895 51.0088 20.2611 51.4584 21.4722 50.849C21.675 50.7472 21.8719 50.4863 22.0117 50.1328L27.9446 34.9971C28.2036 34.3364 28.9727 34.0019 29.6624 34.2495C30.3513 34.4987 30.7 35.2364 30.4411 35.898L24.5064 51.0361C24.1275 51.9974 23.5059 52.7153 22.71 53.116C21.8114 53.5665 21.0052 53.718 20.3275 53.718V53.718Z" fill="#135D78"/>
<path fill-rule="evenodd" clip-rule="evenodd" d="M36.3955 86.0022C36.3981 86.0378 36.3938 86.0734 36.3938 86.1098C36.3938 87.2657 35.3174 88.2038 34.0976 88.2038C32.8779 88.2038 31.8006 87.2641 31.8006 86.1082C31.8006 86.0717 31.7989 86.0378 31.8006 86.0022H29.1401C29.1393 86.0378 29.1289 86.0717 29.1289 86.1074C29.1289 88.7039 31.3577 90.8153 34.0976 90.8153C36.8375 90.8153 39.062 88.7172 39.062 86.1214C39.062 86.085 39.056 86.0378 39.0551 86.0022H36.3955Z" fill="#135D78"/>
<path fill-rule="evenodd" clip-rule="evenodd" d="M43.3726 86.0022C43.3743 86.0378 43.3605 86.0734 43.3605 86.1098C43.3605 87.2657 42.2849 88.2038 41.0643 88.2038C39.8446 88.2038 39.0643 87.2641 39.0643 86.1082C39.0643 86.0717 39.0625 86.0378 39.0643 86.0022H36.4038C36.4029 86.0378 36.3926 86.0717 36.3926 86.1074C36.3926 88.7039 38.3245 90.8153 41.0643 90.8153C43.8051 90.8153 46.0296 88.7172 46.0296 86.1214C46.0296 86.085 46.0227 86.0378 46.0218 86.0022H43.3726Z" fill="#135D78"/>
<path fill-rule="evenodd" clip-rule="evenodd" d="M60.2975 10.0447C57.2374 10.0447 54.7478 12.4334 54.7478 15.3687C54.7478 18.3039 57.2374 20.691 60.2975 20.691C63.3576 20.691 65.848 18.3039 65.848 15.3687C65.848 12.4334 63.3576 10.0447 60.2975 10.0447M60.2971 23.2495C55.7669 23.2495 52.0801 19.714 52.0801 15.3687C52.0801 11.0225 55.7669 7.48621 60.2971 7.48621C64.8282 7.48621 68.515 11.0225 68.515 15.3687C68.515 19.714 64.8282 23.2495 60.2971 23.2495" fill="#135D78"/>
<path fill-rule="evenodd" clip-rule="evenodd" d="M70.6679 43.7699C70.1725 43.7699 69.6744 43.7062 69.1867 43.577L57.73 40.5317C57.0195 40.3429 56.6035 39.6383 56.8011 38.9577C56.9971 38.2762 57.7325 37.878 58.4421 38.0659L69.8988 41.1113C70.5903 41.2951 71.3231 41.2247 71.9619 40.9142C73.1903 40.3172 73.804 38.9635 73.4208 37.695L72.9987 36.2924C72.3978 34.5834 70.9735 30.1636 70.9131 29.9765C70.6956 29.3008 71.0901 28.5846 71.7945 28.376C72.4988 28.1673 73.2438 28.5457 73.4613 29.2213C73.4769 29.2669 74.9513 33.844 75.5348 35.5008C75.5417 35.519 75.5469 35.5372 75.5521 35.5546L75.9837 36.9846C76.7217 39.4321 75.5374 42.0444 73.1678 43.1962C72.384 43.577 71.5286 43.7699 70.6679 43.7699" fill="#135D78"/>
<path fill-rule="evenodd" clip-rule="evenodd" d="M66.8286 26.8018C66.7172 26.8018 66.6042 26.7878 66.4919 26.7596L64.0887 26.1618C63.3757 25.9838 62.9476 25.2858 63.1331 24.6019C63.3179 23.9188 64.0464 23.5073 64.7595 23.6853L67.1627 24.2839C67.8757 24.4619 68.3038 25.1599 68.1183 25.8438C67.962 26.4193 67.4216 26.8018 66.8286 26.8018" fill="#135D78"/>
<path fill-rule="evenodd" clip-rule="evenodd" d="M49.1113 44.4087C48.1704 44.4087 47.2338 44.1387 46.4353 43.6072C44.7805 42.5076 44.0424 40.5221 44.5957 38.6657L45.5237 35.5583C45.5289 35.5384 45.5349 35.5202 45.5418 35.5003C45.964 34.3006 46.3602 33.0602 46.7434 31.8605C46.8971 31.3794 47.0508 30.8984 47.2061 30.4181C48.1928 27.3777 50.7005 25.0842 53.9142 24.2835L56.3183 23.6857C57.0313 23.5069 57.759 23.9184 57.9438 24.6015C58.1294 25.2854 57.7012 25.9834 56.989 26.1614L54.585 26.7601C52.2689 27.3372 50.4631 28.9882 49.7526 31.1782C49.5981 31.6551 49.4462 32.1321 49.2943 32.609C48.9084 33.817 48.5096 35.0648 48.0788 36.2902L47.1595 39.3695C46.9204 40.1718 47.2398 41.0296 47.9545 41.5041C48.5562 41.9048 49.34 41.9619 49.9978 41.6548L65.0455 34.6235C63.5513 33.841 61.7661 33.6373 60.1113 34.0869L52.4235 36.1751C51.7165 36.3672 50.9776 35.9731 50.7773 35.2925C50.5762 34.6127 50.9888 33.9056 51.6975 33.7135L59.3845 31.6262C62.139 30.8768 65.1491 31.4158 67.4366 33.0652L68.4595 33.8021C68.8307 34.0712 69.0293 34.5042 68.9852 34.9472C68.9412 35.391 68.6598 35.7802 68.242 35.9748L51.1666 43.9541C50.5157 44.258 49.8122 44.4087 49.1113 44.4087" fill="#135D78"/>
<path fill-rule="evenodd" clip-rule="evenodd" d="M55.2794 21.1644C55.2337 21.1644 55.1888 21.1619 55.1422 21.1577L42.8291 19.953C42.0971 19.881 41.5628 19.2525 41.6379 18.5504C41.713 17.8474 42.3639 17.3349 43.1002 17.4078L55.4124 18.6125C56.1452 18.6845 56.6787 19.3122 56.6036 20.0143C56.5337 20.6734 55.9545 21.1644 55.2794 21.1644" fill="#135D78"/>
<path fill-rule="evenodd" clip-rule="evenodd" d="M70.4812 31.1754C70.0055 31.1754 69.529 31.0976 69.0715 30.9394C67.4288 30.3714 66.3247 28.8645 66.3247 27.1895V24.9895C66.3247 24.2832 66.9212 23.7103 67.6576 23.7103C68.3948 23.7103 68.9912 24.2832 68.9912 24.9895V27.1895C68.9912 27.7889 69.3866 28.3288 69.9753 28.5325C70.3897 28.6749 70.8273 28.6393 71.2106 28.4331C71.593 28.2269 71.852 27.8858 71.9392 27.4735L72.1498 26.4832C72.4407 25.1112 71.7933 23.707 70.5381 22.9907L65.7939 20.2807C65.1611 19.9189 64.9539 19.134 65.3303 18.527C65.7084 17.9201 66.5267 17.7214 67.1586 18.0824L71.9029 20.7933C74.13 22.065 75.279 24.5565 74.7628 26.9924L74.5539 27.9835C74.3122 29.1187 73.5706 30.0957 72.5175 30.6637C71.8882 31.0032 71.1864 31.1754 70.4812 31.1754" fill="#135D78"/>
<path fill-rule="evenodd" clip-rule="evenodd" d="M66.9131 9.10037C67.2937 9.1161 67.7038 9.15584 68.1432 9.22125C68.6292 9.29329 69.1212 9.42825 69.602 9.622C71.4597 10.3672 73.0972 9.9888 74.38 9.28749C73.4114 9.12355 72.6388 8.71038 71.8671 8.23429C71.0134 7.70603 70.4497 7.35828 69.16 7.54789C67.9265 7.73087 67.2661 8.41727 66.9131 9.10037M71.6184 12.5878C70.6516 12.5878 69.6313 12.4065 68.573 11.9809C68.2907 11.8683 68.0084 11.7897 67.7348 11.7491C66.4987 11.5661 65.9229 11.682 65.8046 11.7425C65.3885 11.9553 64.8844 11.9437 64.4822 11.7077C64.0782 11.4725 63.8347 11.0503 63.8399 10.5982C63.865 8.9157 64.9215 5.58636 68.7534 5.01918C71.0435 4.67971 72.3012 5.45884 73.3121 6.08398C74.4092 6.7621 75.1999 7.25144 77.9122 6.15104C78.4508 5.93245 79.0767 6.07653 79.4522 6.50625C79.8294 6.93598 79.87 7.55035 79.5532 8.0223C78.3334 9.83643 75.3838 12.5878 71.6184 12.5878" fill="#135D78"/>
<path fill-rule="evenodd" clip-rule="evenodd" d="M66.1997 87.457C66.1842 87.457 66.1686 87.4562 66.1531 87.4562C65.4176 87.4321 64.841 86.8401 64.866 86.133L65.3701 72.0125C65.3943 71.3236 65.9839 70.7763 66.703 70.7763H77.2956L66.0909 42.209C65.8311 41.5474 66.1798 40.8097 66.8687 40.5605C67.5575 40.3129 68.3275 40.6466 68.5874 41.3082L80.4696 71.6051C80.6241 71.9984 80.5672 72.4389 80.3177 72.7842C80.0682 73.1286 79.6591 73.3348 79.2214 73.3348H67.9917L67.5317 86.2216C67.5075 86.9122 66.9153 87.457 66.1997 87.457" fill="#135D78"/>
<path fill-rule="evenodd" clip-rule="evenodd" d="M60.777 87.4569C60.0398 87.4569 59.4434 86.884 59.4434 86.1777V72.0555C59.4434 71.35 60.0398 70.7762 60.777 70.7762C61.5142 70.7762 62.1107 71.35 62.1107 72.0555V86.1777C62.1107 86.884 61.5142 87.4569 60.777 87.4569" fill="#135D78"/>
<path fill-rule="evenodd" clip-rule="evenodd" d="M54.9049 87.457C54.1893 87.457 53.5971 86.913 53.573 86.2216L53.1129 73.3348H41.8832C41.4473 73.3348 41.0398 73.1311 40.7895 72.7891C40.54 72.4472 40.4804 72.01 40.6298 71.6175L52.1573 41.3197C52.4093 40.6565 53.175 40.3137 53.8673 40.5563C54.5596 40.7981 54.9153 41.5325 54.6632 42.1966L43.7892 70.7763H54.4017C55.1199 70.7763 55.7103 71.3236 55.7345 72.0125L56.2386 86.133C56.2636 86.8401 55.687 87.4321 54.9515 87.4561C54.936 87.4561 54.9204 87.457 54.9049 87.457" fill="#135D78"/>
<path fill-rule="evenodd" clip-rule="evenodd" d="M64.8592 86.1826C64.8333 86.8897 64.2308 87.4569 63.4876 87.4569C63.4004 87.4569 63.3132 87.4486 63.2277 87.4337C63.1457 87.4179 63.0637 87.3956 62.9843 87.3658C62.9066 87.3368 62.8324 87.3004 62.7616 87.2581C62.6917 87.2159 62.6252 87.1679 62.5648 87.1149C62.5035 87.0619 62.4474 87.0031 62.3973 86.941C62.3472 86.8781 62.3024 86.8102 62.2644 86.7398C62.2264 86.6678 62.1945 86.5933 62.1711 86.5154C62.1461 86.4376 62.1297 86.3565 62.1202 86.2745C62.1159 86.2372 62.1142 86.2008 62.1107 86.1644C62.1099 86.1105 62.1099 86.0567 62.1099 86.0021H59.452C59.4511 86.0311 59.4434 86.0592 59.4434 86.0882C59.4434 88.1996 61.2544 89.916 63.4824 89.916C65.7104 89.916 67.5197 88.2095 67.5197 86.099C67.5197 86.0691 67.5145 86.0311 67.5136 86.0021H64.8696" fill="#135D78"/>
<path fill-rule="evenodd" clip-rule="evenodd" d="M59.4505 86.1826C59.4246 86.8897 58.6892 87.5885 57.6058 87.4569C57.5204 87.4461 57.4323 87.4486 57.3469 87.4337C57.264 87.4179 57.182 87.3956 57.1034 87.3658C57.0258 87.3368 56.9506 87.3004 56.8799 87.2581C56.8099 87.2159 56.7443 87.1679 56.6839 87.1149C56.6226 87.0619 56.5665 87.0031 56.5164 86.941C56.4655 86.8781 56.4215 86.8102 56.3835 86.7398C56.3447 86.6678 56.3136 86.5933 56.2894 86.5154C56.2653 86.4376 56.248 86.3565 56.2394 86.2745C56.235 86.2372 56.2324 86.2008 56.2299 86.1644V86.0021H53.5703C53.5703 86.0311 53.5625 86.0592 53.5625 86.0882C53.5625 88.1996 55.3735 89.916 57.6015 89.916C59.8295 89.916 62.111 88.2095 62.111 86.099C62.111 86.0691 62.105 86.0311 62.105 86.0021H59.4609" fill="#135D78"/>
<mask id="path-20-outside-1_9790_73614" maskUnits="userSpaceOnUse" x="79.6973" y="71.8242" width="20" height="20" fill="black">
<rect fill="white" x="79.6973" y="71.8242" width="20" height="20"/>
<path fill-rule="evenodd" clip-rule="evenodd" d="M90.6105 80.1336L90.6095 80.1333C89.9608 79.9476 89.5383 79.9731 89.2486 80.0791C88.9627 80.1836 88.7204 80.3975 88.4946 80.7598C88.2642 81.1296 88.0756 81.614 87.885 82.2015C87.8021 82.4572 87.7209 82.7251 87.6358 83.006L87.6014 83.1198C87.5044 83.4395 87.4022 83.7735 87.2896 84.1101C86.637 86.0623 86.7042 87.7895 87.2755 88.7557C87.5484 89.2172 87.9271 89.4967 88.4138 89.5881C88.9191 89.6829 89.6213 89.5894 90.5465 89.134C91.1248 88.8494 91.5269 88.55 91.9378 88.2423L91.9469 88.2355C92.1173 88.1079 92.3018 87.9698 92.4931 87.8414C93.1952 87.3701 94.0665 86.9538 95.7227 86.6161C96.5998 86.4376 97.0498 86.087 97.2667 85.73C97.4875 85.3665 97.5295 84.8935 97.3771 84.3564C97.0646 83.2545 96.0017 82.1348 94.8174 81.7959L94.8167 81.7957C93.531 81.4267 92.8052 81.0997 92.2195 80.8125C92.1429 80.775 92.0684 80.7379 91.9973 80.7026L91.9968 80.7023C91.9959 80.7019 91.995 80.7014 91.9941 80.701C91.5395 80.4749 91.1727 80.294 90.6105 80.1336ZM92.427 79.8865L92.4275 79.8868C92.4989 79.9223 92.5712 79.9582 92.6448 79.9943C92.7649 80.0532 92.8912 80.1139 93.0282 80.1765C93.0589 80.1906 93.0903 80.2047 93.1222 80.219C93.5927 80.4292 94.1921 80.6607 95.0841 80.9167C95.2319 80.959 95.3776 81.0102 95.5206 81.0695C95.6355 81.1172 95.7487 81.1701 95.8597 81.2278C97.0275 81.8343 97.9625 82.9687 98.2871 84.113C98.4866 84.8166 98.4651 85.561 98.0796 86.1957C97.6917 86.8341 96.9745 87.2978 95.9166 87.5131C94.3639 87.8297 93.6134 88.2036 93.0297 88.5954C92.8587 88.7101 92.6908 88.8358 92.5141 88.9682C92.1001 89.2782 91.6374 89.6246 90.9732 89.9516C89.9352 90.4624 89.0147 90.6344 88.2347 90.488C87.4426 90.3393 86.8471 89.8718 86.4571 89.2122C85.9799 88.4051 85.8043 87.3077 85.9087 86.0939C85.9175 85.9908 85.9284 85.8868 85.9413 85.7821C86.0192 85.1493 86.1704 84.4897 86.392 83.827C86.4373 83.6914 86.481 83.556 86.5236 83.4209C86.5562 83.3174 86.5882 83.2142 86.6198 83.1112C86.6454 83.0276 86.6707 82.9442 86.6959 82.8611L86.7304 82.7474C86.8149 82.4682 86.8987 82.1916 86.9848 81.9261C87.1289 81.482 87.2846 81.0527 87.4744 80.6695C87.5408 80.5353 87.6115 80.4067 87.6872 80.2852C87.7879 80.1236 87.8994 79.9717 88.0242 79.8337C88.2653 79.5672 88.5563 79.3528 88.916 79.2213C89.0875 79.1586 89.2691 79.1167 89.4616 79.0958C89.7823 79.0608 90.1333 79.0838 90.5181 79.1648C90.6344 79.1893 90.7539 79.2191 90.8765 79.2542C91.5311 79.4409 91.9654 79.6569 92.427 79.8865ZM89.5608 78.1684C89.3129 78.087 89.0771 77.9594 88.8633 77.7975C88.3531 77.4113 87.9448 76.8164 87.7389 76.1101C87.5329 75.4038 87.5604 74.6926 87.7895 74.1095C88.0187 73.526 88.4617 73.0493 89.0892 72.8839C89.7157 72.7186 90.3509 72.9099 90.8607 73.2959C91.3709 73.6821 91.7792 74.277 91.9852 74.9834C92.1911 75.6896 92.1636 76.4009 91.9345 76.984C91.7054 77.5674 91.2624 78.0441 90.6349 78.2096C90.6008 78.2186 90.5667 78.2265 90.5326 78.2334C90.2025 78.3002 89.8721 78.2707 89.5608 78.1684ZM85.6294 83.1266C85.4449 82.6665 85.1306 82.2255 84.7057 81.8606C84.1447 81.3788 83.4762 81.1033 82.8377 81.0617C82.1982 81.02 81.5686 81.2146 81.1453 81.6982C80.723 82.1807 80.6194 82.821 80.7505 83.4367C80.8817 84.0526 81.2498 84.6673 81.811 85.1491C82.372 85.631 83.0405 85.9065 83.679 85.9481C84.1554 85.9792 84.6263 85.8791 85.0105 85.6261C85.142 85.5394 85.2634 85.4349 85.3714 85.3116C85.7799 84.8449 85.8902 84.2304 85.7783 83.6335C85.7745 83.6133 85.7705 83.5931 85.7662 83.573C85.7343 83.4235 85.6885 83.2741 85.6294 83.1266ZM86.6994 80.1249C86.7929 80.0412 86.8754 79.949 86.947 79.85C87.0541 79.702 87.1372 79.5387 87.1974 79.3657C87.2746 79.144 87.3143 78.9064 87.3191 78.6646C87.3315 78.0367 87.1127 77.3534 86.6775 76.7516C86.2424 76.1498 85.6563 75.7201 85.0458 75.5227C84.4352 75.3252 83.7742 75.3554 83.2456 75.7222C82.7175 76.0886 82.4703 76.6876 82.4578 77.3151C82.4454 77.943 82.6642 78.6263 83.0994 79.2281C83.5345 79.8299 84.1206 80.2596 84.7311 80.457C85.3418 80.6544 86.0027 80.6243 86.5313 80.2575C86.5909 80.2161 86.6469 80.1718 86.6994 80.1249ZM95.9561 80.254C96.3879 80.1018 96.7455 79.7949 96.9995 79.4076C97.3433 78.8834 97.5108 78.1972 97.4436 77.4728C97.3763 76.7483 97.0846 76.0961 96.6515 75.6286C96.2185 75.1612 95.6259 74.8628 94.9755 74.9073C94.3235 74.9519 93.789 75.3291 93.4447 75.8541C93.1009 76.3783 92.9334 77.0645 93.0006 77.7889C93.0588 78.4157 93.285 78.9884 93.6254 79.4342C93.6784 79.5037 93.7343 79.5701 93.7927 79.6331C94.1775 80.0486 94.6885 80.3305 95.254 80.3568L95.2545 80.3568C95.3251 80.3601 95.3965 80.3593 95.4687 80.3544C95.6397 80.3427 95.8026 80.3081 95.9561 80.254ZM85.9052 77.2783C85.5735 76.8197 85.1465 76.5213 84.7477 76.3923C84.3478 76.263 84.0189 76.3121 83.7942 76.468C83.5684 76.6247 83.4097 76.9158 83.4015 77.3327C83.3933 77.7475 83.5401 78.2428 83.8717 78.7014C84.2034 79.16 84.6304 79.4584 85.0292 79.5874C85.4291 79.7167 85.758 79.6676 85.9827 79.5117C86.2085 79.355 86.3672 79.0639 86.3754 78.6469C86.3836 78.2322 86.2368 77.7369 85.9052 77.2783ZM89.3365 73.7684C89.068 73.8392 88.8208 74.0557 88.6713 74.4361C88.5222 74.8158 88.4904 75.3233 88.647 75.8604C88.8035 76.3973 89.1063 76.8194 89.4435 77.0746C89.7824 77.3312 90.1171 77.3964 90.3875 77.3251C90.656 77.2543 90.9033 77.0377 91.0527 76.6573C91.2018 76.2776 91.2337 75.7701 91.0771 75.233C90.9205 74.6961 90.6177 74.274 90.2805 74.0188C89.9416 73.7622 89.6069 73.6971 89.3365 73.7684ZM84.0805 82.5472C83.6597 82.1858 83.1844 82.0029 82.7745 81.9762C82.3651 81.9495 82.0536 82.0757 81.8644 82.2919C81.6731 82.5104 81.5877 82.8427 81.6747 83.2511C81.7614 83.6578 82.0155 84.1012 82.4362 84.4625C82.857 84.824 83.3322 85.0069 83.7422 85.0336C84.1516 85.0603 84.4631 84.9341 84.6523 84.7179C84.8436 84.4994 84.929 84.1671 84.842 83.7587C84.7553 83.352 84.5012 82.9085 84.0805 82.5472ZM95.0418 75.8216C94.7504 75.8415 94.4612 76.0104 94.2407 76.3465C94.02 76.6831 93.8901 77.1632 93.9406 77.7066C93.991 78.2498 94.2083 78.7113 94.4943 79.0201C94.7816 79.3302 95.1077 79.4603 95.4023 79.4401C95.6937 79.4202 95.983 79.2513 96.2034 78.9152C96.4242 78.5786 96.554 78.0985 96.5036 77.5551C96.4532 77.0119 96.2359 76.5504 95.9499 76.2416C95.6626 75.9315 95.3364 75.8014 95.0418 75.8216Z"/>
</mask>
<path fill-rule="evenodd" clip-rule="evenodd" d="M90.6105 80.1336L90.6095 80.1333C89.9608 79.9476 89.5383 79.9731 89.2486 80.0791C88.9627 80.1836 88.7204 80.3975 88.4946 80.7598C88.2642 81.1296 88.0756 81.614 87.885 82.2015C87.8021 82.4572 87.7209 82.7251 87.6358 83.006L87.6014 83.1198C87.5044 83.4395 87.4022 83.7735 87.2896 84.1101C86.637 86.0623 86.7042 87.7895 87.2755 88.7557C87.5484 89.2172 87.9271 89.4967 88.4138 89.5881C88.9191 89.6829 89.6213 89.5894 90.5465 89.134C91.1248 88.8494 91.5269 88.55 91.9378 88.2423L91.9469 88.2355C92.1173 88.1079 92.3018 87.9698 92.4931 87.8414C93.1952 87.3701 94.0665 86.9538 95.7227 86.6161C96.5998 86.4376 97.0498 86.087 97.2667 85.73C97.4875 85.3665 97.5295 84.8935 97.3771 84.3564C97.0646 83.2545 96.0017 82.1348 94.8174 81.7959L94.8167 81.7957C93.531 81.4267 92.8052 81.0997 92.2195 80.8125C92.1429 80.775 92.0684 80.7379 91.9973 80.7026L91.9968 80.7023C91.9959 80.7019 91.995 80.7014 91.9941 80.701C91.5395 80.4749 91.1727 80.294 90.6105 80.1336ZM92.427 79.8865L92.4275 79.8868C92.4989 79.9223 92.5712 79.9582 92.6448 79.9943C92.7649 80.0532 92.8912 80.1139 93.0282 80.1765C93.0589 80.1906 93.0903 80.2047 93.1222 80.219C93.5927 80.4292 94.1921 80.6607 95.0841 80.9167C95.2319 80.959 95.3776 81.0102 95.5206 81.0695C95.6355 81.1172 95.7487 81.1701 95.8597 81.2278C97.0275 81.8343 97.9625 82.9687 98.2871 84.113C98.4866 84.8166 98.4651 85.561 98.0796 86.1957C97.6917 86.8341 96.9745 87.2978 95.9166 87.5131C94.3639 87.8297 93.6134 88.2036 93.0297 88.5954C92.8587 88.7101 92.6908 88.8358 92.5141 88.9682C92.1001 89.2782 91.6374 89.6246 90.9732 89.9516C89.9352 90.4624 89.0147 90.6344 88.2347 90.488C87.4426 90.3393 86.8471 89.8718 86.4571 89.2122C85.9799 88.4051 85.8043 87.3077 85.9087 86.0939C85.9175 85.9908 85.9284 85.8868 85.9413 85.7821C86.0192 85.1493 86.1704 84.4897 86.392 83.827C86.4373 83.6914 86.481 83.556 86.5236 83.4209C86.5562 83.3174 86.5882 83.2142 86.6198 83.1112C86.6454 83.0276 86.6707 82.9442 86.6959 82.8611L86.7304 82.7474C86.8149 82.4682 86.8987 82.1916 86.9848 81.9261C87.1289 81.482 87.2846 81.0527 87.4744 80.6695C87.5408 80.5353 87.6115 80.4067 87.6872 80.2852C87.7879 80.1236 87.8994 79.9717 88.0242 79.8337C88.2653 79.5672 88.5563 79.3528 88.916 79.2213C89.0875 79.1586 89.2691 79.1167 89.4616 79.0958C89.7823 79.0608 90.1333 79.0838 90.5181 79.1648C90.6344 79.1893 90.7539 79.2191 90.8765 79.2542C91.5311 79.4409 91.9654 79.6569 92.427 79.8865ZM89.5608 78.1684C89.3129 78.087 89.0771 77.9594 88.8633 77.7975C88.3531 77.4113 87.9448 76.8164 87.7389 76.1101C87.5329 75.4038 87.5604 74.6926 87.7895 74.1095C88.0187 73.526 88.4617 73.0493 89.0892 72.8839C89.7157 72.7186 90.3509 72.9099 90.8607 73.2959C91.3709 73.6821 91.7792 74.277 91.9852 74.9834C92.1911 75.6896 92.1636 76.4009 91.9345 76.984C91.7054 77.5674 91.2624 78.0441 90.6349 78.2096C90.6008 78.2186 90.5667 78.2265 90.5326 78.2334C90.2025 78.3002 89.8721 78.2707 89.5608 78.1684ZM85.6294 83.1266C85.4449 82.6665 85.1306 82.2255 84.7057 81.8606C84.1447 81.3788 83.4762 81.1033 82.8377 81.0617C82.1982 81.02 81.5686 81.2146 81.1453 81.6982C80.723 82.1807 80.6194 82.821 80.7505 83.4367C80.8817 84.0526 81.2498 84.6673 81.811 85.1491C82.372 85.631 83.0405 85.9065 83.679 85.9481C84.1554 85.9792 84.6263 85.8791 85.0105 85.6261C85.142 85.5394 85.2634 85.4349 85.3714 85.3116C85.7799 84.8449 85.8902 84.2304 85.7783 83.6335C85.7745 83.6133 85.7705 83.5931 85.7662 83.573C85.7343 83.4235 85.6885 83.2741 85.6294 83.1266ZM86.6994 80.1249C86.7929 80.0412 86.8754 79.949 86.947 79.85C87.0541 79.702 87.1372 79.5387 87.1974 79.3657C87.2746 79.144 87.3143 78.9064 87.3191 78.6646C87.3315 78.0367 87.1127 77.3534 86.6775 76.7516C86.2424 76.1498 85.6563 75.7201 85.0458 75.5227C84.4352 75.3252 83.7742 75.3554 83.2456 75.7222C82.7175 76.0886 82.4703 76.6876 82.4578 77.3151C82.4454 77.943 82.6642 78.6263 83.0994 79.2281C83.5345 79.8299 84.1206 80.2596 84.7311 80.457C85.3418 80.6544 86.0027 80.6243 86.5313 80.2575C86.5909 80.2161 86.6469 80.1718 86.6994 80.1249ZM95.9561 80.254C96.3879 80.1018 96.7455 79.7949 96.9995 79.4076C97.3433 78.8834 97.5108 78.1972 97.4436 77.4728C97.3763 76.7483 97.0846 76.0961 96.6515 75.6286C96.2185 75.1612 95.6259 74.8628 94.9755 74.9073C94.3235 74.9519 93.789 75.3291 93.4447 75.8541C93.1009 76.3783 92.9334 77.0645 93.0006 77.7889C93.0588 78.4157 93.285 78.9884 93.6254 79.4342C93.6784 79.5037 93.7343 79.5701 93.7927 79.6331C94.1775 80.0486 94.6885 80.3305 95.254 80.3568L95.2545 80.3568C95.3251 80.3601 95.3965 80.3593 95.4687 80.3544C95.6397 80.3427 95.8026 80.3081 95.9561 80.254ZM85.9052 77.2783C85.5735 76.8197 85.1465 76.5213 84.7477 76.3923C84.3478 76.263 84.0189 76.3121 83.7942 76.468C83.5684 76.6247 83.4097 76.9158 83.4015 77.3327C83.3933 77.7475 83.5401 78.2428 83.8717 78.7014C84.2034 79.16 84.6304 79.4584 85.0292 79.5874C85.4291 79.7167 85.758 79.6676 85.9827 79.5117C86.2085 79.355 86.3672 79.0639 86.3754 78.6469C86.3836 78.2322 86.2368 77.7369 85.9052 77.2783ZM89.3365 73.7684C89.068 73.8392 88.8208 74.0557 88.6713 74.4361C88.5222 74.8158 88.4904 75.3233 88.647 75.8604C88.8035 76.3973 89.1063 76.8194 89.4435 77.0746C89.7824 77.3312 90.1171 77.3964 90.3875 77.3251C90.656 77.2543 90.9033 77.0377 91.0527 76.6573C91.2018 76.2776 91.2337 75.7701 91.0771 75.233C90.9205 74.6961 90.6177 74.274 90.2805 74.0188C89.9416 73.7622 89.6069 73.6971 89.3365 73.7684ZM84.0805 82.5472C83.6597 82.1858 83.1844 82.0029 82.7745 81.9762C82.3651 81.9495 82.0536 82.0757 81.8644 82.2919C81.6731 82.5104 81.5877 82.8427 81.6747 83.2511C81.7614 83.6578 82.0155 84.1012 82.4362 84.4625C82.857 84.824 83.3322 85.0069 83.7422 85.0336C84.1516 85.0603 84.4631 84.9341 84.6523 84.7179C84.8436 84.4994 84.929 84.1671 84.842 83.7587C84.7553 83.352 84.5012 82.9085 84.0805 82.5472ZM95.0418 75.8216C94.7504 75.8415 94.4612 76.0104 94.2407 76.3465C94.02 76.6831 93.8901 77.1632 93.9406 77.7066C93.991 78.2498 94.2083 78.7113 94.4943 79.0201C94.7816 79.3302 95.1077 79.4603 95.4023 79.4401C95.6937 79.4202 95.983 79.2513 96.2034 78.9152C96.4242 78.5786 96.554 78.0985 96.5036 77.5551C96.4532 77.0119 96.2359 76.5504 95.9499 76.2416C95.6626 75.9315 95.3364 75.8014 95.0418 75.8216Z" fill="#135D78"/>
<path fill-rule="evenodd" clip-rule="evenodd" d="M90.6105 80.1336L90.6095 80.1333C89.9608 79.9476 89.5383 79.9731 89.2486 80.0791C88.9627 80.1836 88.7204 80.3975 88.4946 80.7598C88.2642 81.1296 88.0756 81.614 87.885 82.2015C87.8021 82.4572 87.7209 82.7251 87.6358 83.006L87.6014 83.1198C87.5044 83.4395 87.4022 83.7735 87.2896 84.1101C86.637 86.0623 86.7042 87.7895 87.2755 88.7557C87.5484 89.2172 87.9271 89.4967 88.4138 89.5881C88.9191 89.6829 89.6213 89.5894 90.5465 89.134C91.1248 88.8494 91.5269 88.55 91.9378 88.2423L91.9469 88.2355C92.1173 88.1079 92.3018 87.9698 92.4931 87.8414C93.1952 87.3701 94.0665 86.9538 95.7227 86.6161C96.5998 86.4376 97.0498 86.087 97.2667 85.73C97.4875 85.3665 97.5295 84.8935 97.3771 84.3564C97.0646 83.2545 96.0017 82.1348 94.8174 81.7959L94.8167 81.7957C93.531 81.4267 92.8052 81.0997 92.2195 80.8125C92.1429 80.775 92.0684 80.7379 91.9973 80.7026L91.9968 80.7023C91.9959 80.7019 91.995 80.7014 91.9941 80.701C91.5395 80.4749 91.1727 80.294 90.6105 80.1336ZM92.427 79.8865L92.4275 79.8868C92.4989 79.9223 92.5712 79.9582 92.6448 79.9943C92.7649 80.0532 92.8912 80.1139 93.0282 80.1765C93.0589 80.1906 93.0903 80.2047 93.1222 80.219C93.5927 80.4292 94.1921 80.6607 95.0841 80.9167C95.2319 80.959 95.3776 81.0102 95.5206 81.0695C95.6355 81.1172 95.7487 81.1701 95.8597 81.2278C97.0275 81.8343 97.9625 82.9687 98.2871 84.113C98.4866 84.8166 98.4651 85.561 98.0796 86.1957C97.6917 86.8341 96.9745 87.2978 95.9166 87.5131C94.3639 87.8297 93.6134 88.2036 93.0297 88.5954C92.8587 88.7101 92.6908 88.8358 92.5141 88.9682C92.1001 89.2782 91.6374 89.6246 90.9732 89.9516C89.9352 90.4624 89.0147 90.6344 88.2347 90.488C87.4426 90.3393 86.8471 89.8718 86.4571 89.2122C85.9799 88.4051 85.8043 87.3077 85.9087 86.0939C85.9175 85.9908 85.9284 85.8868 85.9413 85.7821C86.0192 85.1493 86.1704 84.4897 86.392 83.827C86.4373 83.6914 86.481 83.556 86.5236 83.4209C86.5562 83.3174 86.5882 83.2142 86.6198 83.1112C86.6454 83.0276 86.6707 82.9442 86.6959 82.8611L86.7304 82.7474C86.8149 82.4682 86.8987 82.1916 86.9848 81.9261C87.1289 81.482 87.2846 81.0527 87.4744 80.6695C87.5408 80.5353 87.6115 80.4067 87.6872 80.2852C87.7879 80.1236 87.8994 79.9717 88.0242 79.8337C88.2653 79.5672 88.5563 79.3528 88.916 79.2213C89.0875 79.1586 89.2691 79.1167 89.4616 79.0958C89.7823 79.0608 90.1333 79.0838 90.5181 79.1648C90.6344 79.1893 90.7539 79.2191 90.8765 79.2542C91.5311 79.4409 91.9654 79.6569 92.427 79.8865ZM89.5608 78.1684C89.3129 78.087 89.0771 77.9594 88.8633 77.7975C88.3531 77.4113 87.9448 76.8164 87.7389 76.1101C87.5329 75.4038 87.5604 74.6926 87.7895 74.1095C88.0187 73.526 88.4617 73.0493 89.0892 72.8839C89.7157 72.7186 90.3509 72.9099 90.8607 73.2959C91.3709 73.6821 91.7792 74.277 91.9852 74.9834C92.1911 75.6896 92.1636 76.4009 91.9345 76.984C91.7054 77.5674 91.2624 78.0441 90.6349 78.2096C90.6008 78.2186 90.5667 78.2265 90.5326 78.2334C90.2025 78.3002 89.8721 78.2707 89.5608 78.1684ZM85.6294 83.1266C85.4449 82.6665 85.1306 82.2255 84.7057 81.8606C84.1447 81.3788 83.4762 81.1033 82.8377 81.0617C82.1982 81.02 81.5686 81.2146 81.1453 81.6982C80.723 82.1807 80.6194 82.821 80.7505 83.4367C80.8817 84.0526 81.2498 84.6673 81.811 85.1491C82.372 85.631 83.0405 85.9065 83.679 85.9481C84.1554 85.9792 84.6263 85.8791 85.0105 85.6261C85.142 85.5394 85.2634 85.4349 85.3714 85.3116C85.7799 84.8449 85.8902 84.2304 85.7783 83.6335C85.7745 83.6133 85.7705 83.5931 85.7662 83.573C85.7343 83.4235 85.6885 83.2741 85.6294 83.1266ZM86.6994 80.1249C86.7929 80.0412 86.8754 79.949 86.947 79.85C87.0541 79.702 87.1372 79.5387 87.1974 79.3657C87.2746 79.144 87.3143 78.9064 87.3191 78.6646C87.3315 78.0367 87.1127 77.3534 86.6775 76.7516C86.2424 76.1498 85.6563 75.7201 85.0458 75.5227C84.4352 75.3252 83.7742 75.3554 83.2456 75.7222C82.7175 76.0886 82.4703 76.6876 82.4578 77.3151C82.4454 77.943 82.6642 78.6263 83.0994 79.2281C83.5345 79.8299 84.1206 80.2596 84.7311 80.457C85.3418 80.6544 86.0027 80.6243 86.5313 80.2575C86.5909 80.2161 86.6469 80.1718 86.6994 80.1249ZM95.9561 80.254C96.3879 80.1018 96.7455 79.7949 96.9995 79.4076C97.3433 78.8834 97.5108 78.1972 97.4436 77.4728C97.3763 76.7483 97.0846 76.0961 96.6515 75.6286C96.2185 75.1612 95.6259 74.8628 94.9755 74.9073C94.3235 74.9519 93.789 75.3291 93.4447 75.8541C93.1009 76.3783 92.9334 77.0645 93.0006 77.7889C93.0588 78.4157 93.285 78.9884 93.6254 79.4342C93.6784 79.5037 93.7343 79.5701 93.7927 79.6331C94.1775 80.0486 94.6885 80.3305 95.254 80.3568L95.2545 80.3568C95.3251 80.3601 95.3965 80.3593 95.4687 80.3544C95.6397 80.3427 95.8026 80.3081 95.9561 80.254ZM85.9052 77.2783C85.5735 76.8197 85.1465 76.5213 84.7477 76.3923C84.3478 76.263 84.0189 76.3121 83.7942 76.468C83.5684 76.6247 83.4097 76.9158 83.4015 77.3327C83.3933 77.7475 83.5401 78.2428 83.8717 78.7014C84.2034 79.16 84.6304 79.4584 85.0292 79.5874C85.4291 79.7167 85.758 79.6676 85.9827 79.5117C86.2085 79.355 86.3672 79.0639 86.3754 78.6469C86.3836 78.2322 86.2368 77.7369 85.9052 77.2783ZM89.3365 73.7684C89.068 73.8392 88.8208 74.0557 88.6713 74.4361C88.5222 74.8158 88.4904 75.3233 88.647 75.8604C88.8035 76.3973 89.1063 76.8194 89.4435 77.0746C89.7824 77.3312 90.1171 77.3964 90.3875 77.3251C90.656 77.2543 90.9033 77.0377 91.0527 76.6573C91.2018 76.2776 91.2337 75.7701 91.0771 75.233C90.9205 74.6961 90.6177 74.274 90.2805 74.0188C89.9416 73.7622 89.6069 73.6971 89.3365 73.7684ZM84.0805 82.5472C83.6597 82.1858 83.1844 82.0029 82.7745 81.9762C82.3651 81.9495 82.0536 82.0757 81.8644 82.2919C81.6731 82.5104 81.5877 82.8427 81.6747 83.2511C81.7614 83.6578 82.0155 84.1012 82.4362 84.4625C82.857 84.824 83.3322 85.0069 83.7422 85.0336C84.1516 85.0603 84.4631 84.9341 84.6523 84.7179C84.8436 84.4994 84.929 84.1671 84.842 83.7587C84.7553 83.352 84.5012 82.9085 84.0805 82.5472ZM95.0418 75.8216C94.7504 75.8415 94.4612 76.0104 94.2407 76.3465C94.02 76.6831 93.8901 77.1632 93.9406 77.7066C93.991 78.2498 94.2083 78.7113 94.4943 79.0201C94.7816 79.3302 95.1077 79.4603 95.4023 79.4401C95.6937 79.4202 95.983 79.2513 96.2034 78.9152C96.4242 78.5786 96.554 78.0985 96.5036 77.5551C96.4532 77.0119 96.2359 76.5504 95.9499 76.2416C95.6626 75.9315 95.3364 75.8014 95.0418 75.8216Z" stroke="#135D78" stroke-width="0.6" mask="url(#path-20-outside-1_9790_73614)"/>
<mask id="path-21-outside-2_9790_73614" maskUnits="userSpaceOnUse" x="0.68437" y="69.4562" width="27.1933" height="27.3954" fill="black">
<rect fill="white" x="0.68437" y="69.4562" width="27.1933" height="27.3954"/>
<path fill-rule="evenodd" clip-rule="evenodd" d="M16.2854 82.7861L16.2848 82.7853C15.881 82.2451 15.5279 82.0139 15.2313 81.928C14.9388 81.8432 14.6138 81.8745 14.2107 82.0375C13.7992 82.204 13.3508 82.4898 12.8373 82.8591C12.6139 83.0197 12.3843 83.1916 12.1437 83.3718L12.0462 83.4448C11.7722 83.6498 11.4853 83.8634 11.1884 84.073C9.46686 85.2886 8.45846 86.749 8.32059 87.8847C8.25475 88.4271 8.38534 88.8831 8.71784 89.2489C9.06303 89.6286 9.68123 89.9709 10.7001 90.149C11.337 90.2603 11.8421 90.2542 12.3594 90.2465L12.3709 90.2464C12.5855 90.2432 12.8177 90.2397 13.0494 90.2484C13.8999 90.2801 14.8517 90.458 16.3819 91.1694C17.1921 91.5463 17.7671 91.5267 18.1598 91.3626C18.5596 91.1956 18.884 90.8318 19.0926 90.2991C19.5205 89.2064 19.3602 87.6509 18.6228 86.665L18.6224 86.6644C17.8225 85.5933 17.444 84.8911 17.1528 84.3051C17.1148 84.2286 17.0781 84.1536 17.043 84.0821L17.0428 84.0816C17.0423 84.0806 17.0419 84.0797 17.0414 84.0788C16.8174 83.6214 16.6357 83.2537 16.2854 82.7861ZM17.888 83.6676L17.8882 83.6681C17.9234 83.7399 17.959 83.8126 17.9956 83.8863C18.0553 84.0064 18.1188 84.1317 18.1897 84.265C18.2056 84.2949 18.2219 84.3253 18.2387 84.3561C18.4852 84.81 18.8215 85.3582 19.3764 86.1014C19.4685 86.2244 19.5533 86.3535 19.631 86.4877C19.6935 86.5955 19.7513 86.7066 19.8045 86.8203C20.3642 88.0164 20.4133 89.5075 19.9689 90.6423C19.6956 91.34 19.2207 91.9393 18.5226 92.231C17.8203 92.5244 16.9624 92.4774 15.9852 92.0228C14.5506 91.3559 13.7213 91.2152 13.0143 91.1888C12.8073 91.1811 12.5959 91.1842 12.3733 91.1875C11.8521 91.1952 11.2696 91.2039 10.5381 91.0761C9.3951 90.8763 8.55433 90.468 8.02148 89.8819C7.48032 89.2866 7.29222 88.5466 7.38634 87.7713C7.5015 86.8227 8.0361 85.8155 8.86571 84.8797C8.93622 84.8001 9.00886 84.7211 9.08355 84.6427C9.53485 84.1689 10.0612 83.7168 10.6456 83.3041C10.7651 83.2198 10.8833 83.1345 11.0004 83.0488C11.0901 82.9832 11.1791 82.9174 11.2676 82.8516C11.3395 82.7981 11.411 82.7447 11.4822 82.6914L11.5796 82.6185C11.8188 82.4394 12.0558 82.2619 12.2878 82.095C12.676 81.8159 13.0643 81.5559 13.4515 81.354C13.5871 81.2834 13.7225 81.2198 13.8577 81.1651C14.0375 81.0924 14.2199 81.034 14.4044 80.9951C14.7608 80.92 15.1251 80.9174 15.4932 81.024C15.6687 81.0749 15.8394 81.1489 16.0061 81.2466C16.2836 81.4094 16.5498 81.6378 16.8073 81.9342C16.8851 82.0238 16.9622 82.1197 17.0385 82.2218C17.4465 82.7662 17.6605 83.2032 17.888 83.6676ZM16.6555 80.5433C16.5075 80.3282 16.3977 80.0825 16.3265 79.8218C16.1566 79.1995 16.1963 78.4665 16.4661 77.7627C16.736 77.059 17.1952 76.4906 17.7367 76.1478C18.2785 75.8049 18.9253 75.6775 19.5282 75.9161C20.1302 76.1544 20.5197 76.6909 20.6896 77.3128C20.8595 77.9351 20.8198 78.668 20.55 79.3718C20.2801 80.0756 19.8208 80.644 19.2794 80.9867C18.7376 81.3296 18.0907 81.4571 17.4879 81.2185C17.4551 81.2055 17.423 81.1917 17.3916 81.177C17.0869 81.0348 16.8412 80.8133 16.6555 80.5433ZM10.4672 82.2728C10.6028 81.7843 10.623 81.234 10.5081 80.6803C10.3563 79.9491 9.99185 79.3233 9.50754 78.9078C9.02247 78.4916 8.40004 78.2758 7.76463 78.4207C7.13075 78.5652 6.65422 79.0299 6.38038 79.6145C6.10646 80.1993 6.02251 80.9246 6.17431 81.6559C6.32609 82.3871 6.69051 83.0128 7.17482 83.4284C7.53618 83.7384 7.97376 83.9373 8.43615 83.9586C8.59446 83.9659 8.75567 83.9525 8.91773 83.9155C9.53091 83.7757 9.99684 83.3363 10.2745 82.7785C10.2839 82.7597 10.293 82.7407 10.302 82.7216C10.3685 82.5797 10.4238 82.4294 10.4672 82.2728ZM13.1674 80.4434C13.2936 80.4305 13.4161 80.4039 13.5342 80.3653C13.7107 80.3075 13.8775 80.2228 14.0319 80.1166C14.2299 79.9804 14.4077 79.8086 14.5602 79.6126C14.9562 79.1037 15.2016 78.4112 15.2242 77.6565C15.2467 76.9018 15.0429 76.1985 14.6767 75.6716C14.3104 75.1446 13.7641 74.7747 13.1164 74.7607C12.4694 74.7466 11.9037 75.0916 11.5079 75.6002C11.1119 76.1091 10.8664 76.8016 10.8439 77.5563C10.8214 78.311 11.0252 79.0143 11.3914 79.5412C11.7576 80.0682 12.304 80.438 12.9517 80.4521C13.0247 80.4537 13.0966 80.4507 13.1674 80.4434ZM20.4803 86.0771C20.9187 86.2098 21.3929 86.171 21.8339 86.0042C22.4308 85.7784 22.9865 85.3142 23.3782 84.6783C23.77 84.0425 23.938 83.3319 23.8796 82.6888C23.8213 82.0459 23.5315 81.4467 22.9847 81.0949C22.4366 80.7423 21.7779 80.7333 21.1801 80.9594C20.5832 81.1851 20.0275 81.6494 19.6358 82.2852C19.2968 82.8354 19.1253 83.4414 19.1231 84.0112C19.1227 84.1001 19.1265 84.188 19.1343 84.2747C19.1862 84.8461 19.4209 85.383 19.8564 85.7424L19.8567 85.7427C19.9111 85.7875 19.9686 85.8296 20.0293 85.8686C20.173 85.9611 20.3244 86.03 20.4803 86.0771ZM14.2835 77.6284C14.3006 77.0532 14.1431 76.5528 13.9039 76.2087C13.664 75.8635 13.3712 75.7075 13.096 75.7016C12.8192 75.6956 12.5136 75.8402 12.2506 76.1781C11.989 76.5143 11.8018 77.0093 11.7846 77.5844C11.7674 78.1596 11.925 78.66 12.1642 79.0041C12.404 79.3492 12.6969 79.5052 12.9721 79.5112C13.2488 79.5172 13.5545 79.3726 13.8175 79.0347C14.0791 78.6985 14.2663 78.2035 14.2835 77.6284ZM19.1819 76.7911C18.9239 76.689 18.5933 76.7194 18.2401 76.943C17.8875 77.1662 17.55 77.5645 17.3448 78.0997C17.1397 78.6347 17.122 79.1626 17.2344 79.5738C17.3472 79.9872 17.5745 80.2406 17.8342 80.3434C18.0922 80.4455 18.4228 80.4151 18.776 80.1915C19.1286 79.9684 19.466 79.57 19.6712 79.0349C19.8764 78.4999 19.894 77.972 19.7817 77.5608C19.6688 77.1474 19.4416 76.8939 19.1819 76.7911ZM9.58659 80.8716C9.47273 80.323 9.20571 79.8889 8.89474 79.622C8.58422 79.3556 8.25786 79.2735 7.97386 79.3382C7.68673 79.4037 7.41427 79.6259 7.23262 80.0137C7.05172 80.3999 6.98196 80.9163 7.09577 81.4646C7.20963 82.0131 7.47665 82.4473 7.78762 82.7141C8.09815 82.9805 8.4245 83.0627 8.7085 82.998C8.99563 82.9325 9.26809 82.7102 9.44974 82.3224C9.63064 81.9362 9.70041 81.4199 9.58659 80.8716ZM22.4755 81.8864C22.2305 81.7288 21.8957 81.6949 21.513 81.8396C21.1298 81.9846 20.7309 82.3019 20.437 82.7789C20.1433 83.2556 20.033 83.7649 20.0716 84.1896C20.1103 84.6161 20.2908 84.9178 20.5385 85.0772C20.7834 85.2348 21.1183 85.2687 21.501 85.1239C21.8842 84.979 22.2831 84.6617 22.577 84.1847C22.8707 83.7079 22.981 83.1987 22.9424 82.7739C22.9037 82.3475 22.7232 82.0457 22.4755 81.8864Z"/>
</mask>
<path fill-rule="evenodd" clip-rule="evenodd" d="M16.2854 82.7861L16.2848 82.7853C15.881 82.2451 15.5279 82.0139 15.2313 81.928C14.9388 81.8432 14.6138 81.8745 14.2107 82.0375C13.7992 82.204 13.3508 82.4898 12.8373 82.8591C12.6139 83.0197 12.3843 83.1916 12.1437 83.3718L12.0462 83.4448C11.7722 83.6498 11.4853 83.8634 11.1884 84.073C9.46686 85.2886 8.45846 86.749 8.32059 87.8847C8.25475 88.4271 8.38534 88.8831 8.71784 89.2489C9.06303 89.6286 9.68123 89.9709 10.7001 90.149C11.337 90.2603 11.8421 90.2542 12.3594 90.2465L12.3709 90.2464C12.5855 90.2432 12.8177 90.2397 13.0494 90.2484C13.8999 90.2801 14.8517 90.458 16.3819 91.1694C17.1921 91.5463 17.7671 91.5267 18.1598 91.3626C18.5596 91.1956 18.884 90.8318 19.0926 90.2991C19.5205 89.2064 19.3602 87.6509 18.6228 86.665L18.6224 86.6644C17.8225 85.5933 17.444 84.8911 17.1528 84.3051C17.1148 84.2286 17.0781 84.1536 17.043 84.0821L17.0428 84.0816C17.0423 84.0806 17.0419 84.0797 17.0414 84.0788C16.8174 83.6214 16.6357 83.2537 16.2854 82.7861ZM17.888 83.6676L17.8882 83.6681C17.9234 83.7399 17.959 83.8126 17.9956 83.8863C18.0553 84.0064 18.1188 84.1317 18.1897 84.265C18.2056 84.2949 18.2219 84.3253 18.2387 84.3561C18.4852 84.81 18.8215 85.3582 19.3764 86.1014C19.4685 86.2244 19.5533 86.3535 19.631 86.4877C19.6935 86.5955 19.7513 86.7066 19.8045 86.8203C20.3642 88.0164 20.4133 89.5075 19.9689 90.6423C19.6956 91.34 19.2207 91.9393 18.5226 92.231C17.8203 92.5244 16.9624 92.4774 15.9852 92.0228C14.5506 91.3559 13.7213 91.2152 13.0143 91.1888C12.8073 91.1811 12.5959 91.1842 12.3733 91.1875C11.8521 91.1952 11.2696 91.2039 10.5381 91.0761C9.3951 90.8763 8.55433 90.468 8.02148 89.8819C7.48032 89.2866 7.29222 88.5466 7.38634 87.7713C7.5015 86.8227 8.0361 85.8155 8.86571 84.8797C8.93622 84.8001 9.00886 84.7211 9.08355 84.6427C9.53485 84.1689 10.0612 83.7168 10.6456 83.3041C10.7651 83.2198 10.8833 83.1345 11.0004 83.0488C11.0901 82.9832 11.1791 82.9174 11.2676 82.8516C11.3395 82.7981 11.411 82.7447 11.4822 82.6914L11.5796 82.6185C11.8188 82.4394 12.0558 82.2619 12.2878 82.095C12.676 81.8159 13.0643 81.5559 13.4515 81.354C13.5871 81.2834 13.7225 81.2198 13.8577 81.1651C14.0375 81.0924 14.2199 81.034 14.4044 80.9951C14.7608 80.92 15.1251 80.9174 15.4932 81.024C15.6687 81.0749 15.8394 81.1489 16.0061 81.2466C16.2836 81.4094 16.5498 81.6378 16.8073 81.9342C16.8851 82.0238 16.9622 82.1197 17.0385 82.2218C17.4465 82.7662 17.6605 83.2032 17.888 83.6676ZM16.6555 80.5433C16.5075 80.3282 16.3977 80.0825 16.3265 79.8218C16.1566 79.1995 16.1963 78.4665 16.4661 77.7627C16.736 77.059 17.1952 76.4906 17.7367 76.1478C18.2785 75.8049 18.9253 75.6775 19.5282 75.9161C20.1302 76.1544 20.5197 76.6909 20.6896 77.3128C20.8595 77.9351 20.8198 78.668 20.55 79.3718C20.2801 80.0756 19.8208 80.644 19.2794 80.9867C18.7376 81.3296 18.0907 81.4571 17.4879 81.2185C17.4551 81.2055 17.423 81.1917 17.3916 81.177C17.0869 81.0348 16.8412 80.8133 16.6555 80.5433ZM10.4672 82.2728C10.6028 81.7843 10.623 81.234 10.5081 80.6803C10.3563 79.9491 9.99185 79.3233 9.50754 78.9078C9.02247 78.4916 8.40004 78.2758 7.76463 78.4207C7.13075 78.5652 6.65422 79.0299 6.38038 79.6145C6.10646 80.1993 6.02251 80.9246 6.17431 81.6559C6.32609 82.3871 6.69051 83.0128 7.17482 83.4284C7.53618 83.7384 7.97376 83.9373 8.43615 83.9586C8.59446 83.9659 8.75567 83.9525 8.91773 83.9155C9.53091 83.7757 9.99684 83.3363 10.2745 82.7785C10.2839 82.7597 10.293 82.7407 10.302 82.7216C10.3685 82.5797 10.4238 82.4294 10.4672 82.2728ZM13.1674 80.4434C13.2936 80.4305 13.4161 80.4039 13.5342 80.3653C13.7107 80.3075 13.8775 80.2228 14.0319 80.1166C14.2299 79.9804 14.4077 79.8086 14.5602 79.6126C14.9562 79.1037 15.2016 78.4112 15.2242 77.6565C15.2467 76.9018 15.0429 76.1985 14.6767 75.6716C14.3104 75.1446 13.7641 74.7747 13.1164 74.7607C12.4694 74.7466 11.9037 75.0916 11.5079 75.6002C11.1119 76.1091 10.8664 76.8016 10.8439 77.5563C10.8214 78.311 11.0252 79.0143 11.3914 79.5412C11.7576 80.0682 12.304 80.438 12.9517 80.4521C13.0247 80.4537 13.0966 80.4507 13.1674 80.4434ZM20.4803 86.0771C20.9187 86.2098 21.3929 86.171 21.8339 86.0042C22.4308 85.7784 22.9865 85.3142 23.3782 84.6783C23.77 84.0425 23.938 83.3319 23.8796 82.6888C23.8213 82.0459 23.5315 81.4467 22.9847 81.0949C22.4366 80.7423 21.7779 80.7333 21.1801 80.9594C20.5832 81.1851 20.0275 81.6494 19.6358 82.2852C19.2968 82.8354 19.1253 83.4414 19.1231 84.0112C19.1227 84.1001 19.1265 84.188 19.1343 84.2747C19.1862 84.8461 19.4209 85.383 19.8564 85.7424L19.8567 85.7427C19.9111 85.7875 19.9686 85.8296 20.0293 85.8686C20.173 85.9611 20.3244 86.03 20.4803 86.0771ZM14.2835 77.6284C14.3006 77.0532 14.1431 76.5528 13.9039 76.2087C13.664 75.8635 13.3712 75.7075 13.096 75.7016C12.8192 75.6956 12.5136 75.8402 12.2506 76.1781C11.989 76.5143 11.8018 77.0093 11.7846 77.5844C11.7674 78.1596 11.925 78.66 12.1642 79.0041C12.404 79.3492 12.6969 79.5052 12.9721 79.5112C13.2488 79.5172 13.5545 79.3726 13.8175 79.0347C14.0791 78.6985 14.2663 78.2035 14.2835 77.6284ZM19.1819 76.7911C18.9239 76.689 18.5933 76.7194 18.2401 76.943C17.8875 77.1662 17.55 77.5645 17.3448 78.0997C17.1397 78.6347 17.122 79.1626 17.2344 79.5738C17.3472 79.9872 17.5745 80.2406 17.8342 80.3434C18.0922 80.4455 18.4228 80.4151 18.776 80.1915C19.1286 79.9684 19.466 79.57 19.6712 79.0349C19.8764 78.4999 19.894 77.972 19.7817 77.5608C19.6688 77.1474 19.4416 76.8939 19.1819 76.7911ZM9.58659 80.8716C9.47273 80.323 9.20571 79.8889 8.89474 79.622C8.58422 79.3556 8.25786 79.2735 7.97386 79.3382C7.68673 79.4037 7.41427 79.6259 7.23262 80.0137C7.05172 80.3999 6.98196 80.9163 7.09577 81.4646C7.20963 82.0131 7.47665 82.4473 7.78762 82.7141C8.09815 82.9805 8.4245 83.0627 8.7085 82.998C8.99563 82.9325 9.26809 82.7102 9.44974 82.3224C9.63064 81.9362 9.70041 81.4199 9.58659 80.8716ZM22.4755 81.8864C22.2305 81.7288 21.8957 81.6949 21.513 81.8396C21.1298 81.9846 20.7309 82.3019 20.437 82.7789C20.1433 83.2556 20.033 83.7649 20.0716 84.1896C20.1103 84.6161 20.2908 84.9178 20.5385 85.0772C20.7834 85.2348 21.1183 85.2687 21.501 85.1239C21.8842 84.979 22.2831 84.6617 22.577 84.1847C22.8707 83.7079 22.981 83.1987 22.9424 82.7739C22.9037 82.3475 22.7232 82.0457 22.4755 81.8864Z" fill="#135D78"/>
<path fill-rule="evenodd" clip-rule="evenodd" d="M16.2854 82.7861L16.2848 82.7853C15.881 82.2451 15.5279 82.0139 15.2313 81.928C14.9388 81.8432 14.6138 81.8745 14.2107 82.0375C13.7992 82.204 13.3508 82.4898 12.8373 82.8591C12.6139 83.0197 12.3843 83.1916 12.1437 83.3718L12.0462 83.4448C11.7722 83.6498 11.4853 83.8634 11.1884 84.073C9.46686 85.2886 8.45846 86.749 8.32059 87.8847C8.25475 88.4271 8.38534 88.8831 8.71784 89.2489C9.06303 89.6286 9.68123 89.9709 10.7001 90.149C11.337 90.2603 11.8421 90.2542 12.3594 90.2465L12.3709 90.2464C12.5855 90.2432 12.8177 90.2397 13.0494 90.2484C13.8999 90.2801 14.8517 90.458 16.3819 91.1694C17.1921 91.5463 17.7671 91.5267 18.1598 91.3626C18.5596 91.1956 18.884 90.8318 19.0926 90.2991C19.5205 89.2064 19.3602 87.6509 18.6228 86.665L18.6224 86.6644C17.8225 85.5933 17.444 84.8911 17.1528 84.3051C17.1148 84.2286 17.0781 84.1536 17.043 84.0821L17.0428 84.0816C17.0423 84.0806 17.0419 84.0797 17.0414 84.0788C16.8174 83.6214 16.6357 83.2537 16.2854 82.7861ZM17.888 83.6676L17.8882 83.6681C17.9234 83.7399 17.959 83.8126 17.9956 83.8863C18.0553 84.0064 18.1188 84.1317 18.1897 84.265C18.2056 84.2949 18.2219 84.3253 18.2387 84.3561C18.4852 84.81 18.8215 85.3582 19.3764 86.1014C19.4685 86.2244 19.5533 86.3535 19.631 86.4877C19.6935 86.5955 19.7513 86.7066 19.8045 86.8203C20.3642 88.0164 20.4133 89.5075 19.9689 90.6423C19.6956 91.34 19.2207 91.9393 18.5226 92.231C17.8203 92.5244 16.9624 92.4774 15.9852 92.0228C14.5506 91.3559 13.7213 91.2152 13.0143 91.1888C12.8073 91.1811 12.5959 91.1842 12.3733 91.1875C11.8521 91.1952 11.2696 91.2039 10.5381 91.0761C9.3951 90.8763 8.55433 90.468 8.02148 89.8819C7.48032 89.2866 7.29222 88.5466 7.38634 87.7713C7.5015 86.8227 8.0361 85.8155 8.86571 84.8797C8.93622 84.8001 9.00886 84.7211 9.08355 84.6427C9.53485 84.1689 10.0612 83.7168 10.6456 83.3041C10.7651 83.2198 10.8833 83.1345 11.0004 83.0488C11.0901 82.9832 11.1791 82.9174 11.2676 82.8516C11.3395 82.7981 11.411 82.7447 11.4822 82.6914L11.5796 82.6185C11.8188 82.4394 12.0558 82.2619 12.2878 82.095C12.676 81.8159 13.0643 81.5559 13.4515 81.354C13.5871 81.2834 13.7225 81.2198 13.8577 81.1651C14.0375 81.0924 14.2199 81.034 14.4044 80.9951C14.7608 80.92 15.1251 80.9174 15.4932 81.024C15.6687 81.0749 15.8394 81.1489 16.0061 81.2466C16.2836 81.4094 16.5498 81.6378 16.8073 81.9342C16.8851 82.0238 16.9622 82.1197 17.0385 82.2218C17.4465 82.7662 17.6605 83.2032 17.888 83.6676ZM16.6555 80.5433C16.5075 80.3282 16.3977 80.0825 16.3265 79.8218C16.1566 79.1995 16.1963 78.4665 16.4661 77.7627C16.736 77.059 17.1952 76.4906 17.7367 76.1478C18.2785 75.8049 18.9253 75.6775 19.5282 75.9161C20.1302 76.1544 20.5197 76.6909 20.6896 77.3128C20.8595 77.9351 20.8198 78.668 20.55 79.3718C20.2801 80.0756 19.8208 80.644 19.2794 80.9867C18.7376 81.3296 18.0907 81.4571 17.4879 81.2185C17.4551 81.2055 17.423 81.1917 17.3916 81.177C17.0869 81.0348 16.8412 80.8133 16.6555 80.5433ZM10.4672 82.2728C10.6028 81.7843 10.623 81.234 10.5081 80.6803C10.3563 79.9491 9.99185 79.3233 9.50754 78.9078C9.02247 78.4916 8.40004 78.2758 7.76463 78.4207C7.13075 78.5652 6.65422 79.0299 6.38038 79.6145C6.10646 80.1993 6.02251 80.9246 6.17431 81.6559C6.32609 82.3871 6.69051 83.0128 7.17482 83.4284C7.53618 83.7384 7.97376 83.9373 8.43615 83.9586C8.59446 83.9659 8.75567 83.9525 8.91773 83.9155C9.53091 83.7757 9.99684 83.3363 10.2745 82.7785C10.2839 82.7597 10.293 82.7407 10.302 82.7216C10.3685 82.5797 10.4238 82.4294 10.4672 82.2728ZM13.1674 80.4434C13.2936 80.4305 13.4161 80.4039 13.5342 80.3653C13.7107 80.3075 13.8775 80.2228 14.0319 80.1166C14.2299 79.9804 14.4077 79.8086 14.5602 79.6126C14.9562 79.1037 15.2016 78.4112 15.2242 77.6565C15.2467 76.9018 15.0429 76.1985 14.6767 75.6716C14.3104 75.1446 13.7641 74.7747 13.1164 74.7607C12.4694 74.7466 11.9037 75.0916 11.5079 75.6002C11.1119 76.1091 10.8664 76.8016 10.8439 77.5563C10.8214 78.311 11.0252 79.0143 11.3914 79.5412C11.7576 80.0682 12.304 80.438 12.9517 80.4521C13.0247 80.4537 13.0966 80.4507 13.1674 80.4434ZM20.4803 86.0771C20.9187 86.2098 21.3929 86.171 21.8339 86.0042C22.4308 85.7784 22.9865 85.3142 23.3782 84.6783C23.77 84.0425 23.938 83.3319 23.8796 82.6888C23.8213 82.0459 23.5315 81.4467 22.9847 81.0949C22.4366 80.7423 21.7779 80.7333 21.1801 80.9594C20.5832 81.1851 20.0275 81.6494 19.6358 82.2852C19.2968 82.8354 19.1253 83.4414 19.1231 84.0112C19.1227 84.1001 19.1265 84.188 19.1343 84.2747C19.1862 84.8461 19.4209 85.383 19.8564 85.7424L19.8567 85.7427C19.9111 85.7875 19.9686 85.8296 20.0293 85.8686C20.173 85.9611 20.3244 86.03 20.4803 86.0771ZM14.2835 77.6284C14.3006 77.0532 14.1431 76.5528 13.9039 76.2087C13.664 75.8635 13.3712 75.7075 13.096 75.7016C12.8192 75.6956 12.5136 75.8402 12.2506 76.1781C11.989 76.5143 11.8018 77.0093 11.7846 77.5844C11.7674 78.1596 11.925 78.66 12.1642 79.0041C12.404 79.3492 12.6969 79.5052 12.9721 79.5112C13.2488 79.5172 13.5545 79.3726 13.8175 79.0347C14.0791 78.6985 14.2663 78.2035 14.2835 77.6284ZM19.1819 76.7911C18.9239 76.689 18.5933 76.7194 18.2401 76.943C17.8875 77.1662 17.55 77.5645 17.3448 78.0997C17.1397 78.6347 17.122 79.1626 17.2344 79.5738C17.3472 79.9872 17.5745 80.2406 17.8342 80.3434C18.0922 80.4455 18.4228 80.4151 18.776 80.1915C19.1286 79.9684 19.466 79.57 19.6712 79.0349C19.8764 78.4999 19.894 77.972 19.7817 77.5608C19.6688 77.1474 19.4416 76.8939 19.1819 76.7911ZM9.58659 80.8716C9.47273 80.323 9.20571 79.8889 8.89474 79.622C8.58422 79.3556 8.25786 79.2735 7.97386 79.3382C7.68673 79.4037 7.41427 79.6259 7.23262 80.0137C7.05172 80.3999 6.98196 80.9163 7.09577 81.4646C7.20963 82.0131 7.47665 82.4473 7.78762 82.7141C8.09815 82.9805 8.4245 83.0627 8.7085 82.998C8.99563 82.9325 9.26809 82.7102 9.44974 82.3224C9.63064 81.9362 9.70041 81.4199 9.58659 80.8716ZM22.4755 81.8864C22.2305 81.7288 21.8957 81.6949 21.513 81.8396C21.1298 81.9846 20.7309 82.3019 20.437 82.7789C20.1433 83.2556 20.033 83.7649 20.0716 84.1896C20.1103 84.6161 20.2908 84.9178 20.5385 85.0772C20.7834 85.2348 21.1183 85.2687 21.501 85.1239C21.8842 84.979 22.2831 84.6617 22.577 84.1847C22.8707 83.7079 22.981 83.1987 22.9424 82.7739C22.9037 82.3475 22.7232 82.0457 22.4755 81.8864Z" stroke="#135D78" stroke-width="0.6" mask="url(#path-21-outside-2_9790_73614)"/>
</svg>
