<svg width="84" height="76" viewBox="0 0 84 76" fill="none" xmlns="http://www.w3.org/2000/svg">
<path fill-rule="evenodd" clip-rule="evenodd" d="M79.4506 9.8541C76.3948 12.6817 71.8622 15.4514 66.837 18.5231C50.1062 28.7473 27.2787 42.6981 35.6446 72.3773C49.8247 72.1435 60.7152 67.9775 68.0289 59.9839C79.9955 46.906 80.5744 25.9412 79.4506 9.8541ZM34.3737 75.793C33.6256 75.793 32.965 75.3037 32.7447 74.5886C22.6296 41.5471 48.1644 25.9435 65.0609 15.6172C71.6538 11.5886 77.3465 8.10939 79.3636 4.76187C79.7439 4.13074 80.4829 3.81631 81.2048 3.9809C81.9233 4.14663 82.4535 4.75506 82.5182 5.48949C84.0392 22.588 84.4524 47.0797 70.5413 62.2837C62.34 71.2467 50.1713 75.793 34.3737 75.793Z" fill="#135D78"/>
<path fill-rule="evenodd" clip-rule="evenodd" d="M34.376 75.7927C33.8243 75.7927 33.2829 75.5248 32.9548 75.0299C32.4361 74.2455 32.6506 73.1898 33.435 72.6699C51.0125 61.0337 63.3072 40.767 70.5266 25.815C70.9353 24.9682 71.9524 24.6106 72.8003 25.0215C73.6471 25.4302 74.0013 26.4484 73.5926 27.2952C66.1882 42.632 53.5371 63.4458 35.3148 75.5101C35.0253 75.7008 34.6995 75.7927 34.376 75.7927Z" fill="#135D78"/>
<path fill-rule="evenodd" clip-rule="evenodd" d="M60.6501 49.1737C60.3663 49.1737 60.0848 49.1033 59.8305 48.9637C59.4151 48.7355 59.1131 48.3439 58.9985 47.8841L55.1958 32.6722C54.9676 31.7607 55.5227 30.8356 56.4353 30.6085C57.3491 30.377 58.272 30.9354 58.499 31.847L61.8556 45.2745L71.5202 42.053C72.4147 41.7544 73.3772 42.238 73.6747 43.1302C73.9709 44.0213 73.4896 44.9861 72.5974 45.2836L61.1893 49.0863C61.0122 49.1453 60.8306 49.1737 60.6501 49.1737Z" fill="#135D78"/>
<path fill-rule="evenodd" clip-rule="evenodd" d="M47.3397 64.385C46.5905 64.385 45.9151 63.8889 45.704 63.1499L41.9002 49.8405C41.6413 48.9358 42.1646 47.9936 43.0693 47.7348C43.9684 47.4783 44.9151 47.9993 45.175 48.904L48.5702 60.7866L60.4097 59.0952C61.3303 58.9567 62.202 59.6083 62.336 60.5391C62.4688 61.4711 61.8218 62.3326 60.891 62.4666L47.5815 64.3679C47.5009 64.3793 47.4192 64.385 47.3397 64.385Z" fill="#135D78"/>
<path fill-rule="evenodd" clip-rule="evenodd" d="M28.2119 68.1883C28.07 68.1883 27.9259 68.1701 27.7828 68.1327C2.35469 61.525 -0.114228 38.6271 0.00382622 29.0897C0.186583 14.4589 5.27085 1.73294 5.48653 1.19829C5.73285 0.592128 6.30496 0.178939 6.95766 0.138074C7.62512 0.10175 8.23015 0.434345 8.55139 1.00418C12.723 8.44613 18.6564 12.6189 24.3956 16.6554C29.9555 20.5648 35.705 24.6082 39.3385 31.4621C39.7778 32.293 39.4623 33.3237 38.6313 33.7642C37.805 34.2046 36.772 33.889 36.3293 33.057C33.0783 26.9239 27.9088 23.2892 22.4364 19.441C17.1966 15.7553 11.8024 11.9616 7.49458 5.7377C5.99053 10.3815 3.53069 19.4172 3.40923 29.1317C3.09366 54.4123 19.0809 62.3537 28.6387 64.8374C29.5491 65.0735 30.0951 66.0032 29.859 66.9135C29.6592 67.6797 28.9691 68.1883 28.2119 68.1883Z" fill="#135D78"/>
<path fill-rule="evenodd" clip-rule="evenodd" d="M30.2273 51.0754C29.9492 51.0754 29.6688 51.0073 29.4077 50.8643C19.8169 45.5893 10.8755 33.4275 7.66644 21.286C7.4258 20.3779 7.96839 19.446 8.8765 19.2053C9.78801 18.967 10.7177 19.5073 10.9583 20.4165C13.9483 31.7259 22.2109 43.0193 31.0491 47.88C31.8721 48.3329 32.174 49.3693 31.72 50.1923C31.4101 50.7564 30.8277 51.0754 30.2273 51.0754Z" fill="#135D78"/>
<path fill-rule="evenodd" clip-rule="evenodd" d="M20.2782 44.3011C20.2101 44.3011 20.1431 44.2977 20.0738 44.2886L9.11184 42.9821C8.17875 42.8708 7.51129 42.024 7.62367 41.0898C7.73492 40.1556 8.58059 39.4904 9.51594 39.6005L18.8933 40.7186L21.1874 28.3831C21.3588 27.4591 22.2442 26.8473 23.1728 27.0209C24.0968 27.1923 24.7063 28.0811 24.5349 29.0063L21.9502 42.9094C21.7981 43.7244 21.0875 44.3011 20.2782 44.3011Z" fill="#135D78"/>
</svg>
