<svg width="87" height="67" viewBox="0 0 87 67" fill="none" xmlns="http://www.w3.org/2000/svg">
<path fill-rule="evenodd" clip-rule="evenodd" d="M4.51112 28.596C4.05384 28.596 3.6825 28.9684 3.6825 29.4246V62.5175C3.6825 62.9737 4.05384 63.3461 4.51112 63.3461H82.8833C83.3405 63.3461 83.7119 62.9737 83.7119 62.5175V29.4246C83.7119 28.9684 83.3405 28.596 82.8833 28.596H4.51112ZM82.8837 66.5291H4.51155C2.29941 66.5291 0.5 64.7297 0.5 62.5175V29.4246C0.5 27.2125 2.29941 25.4131 4.51155 25.4131H82.8837C85.0958 25.4131 86.8952 27.2125 86.8952 29.4246V62.5175C86.8952 64.7297 85.0958 66.5291 82.8837 66.5291Z" fill="#135D78"/>
<path fill-rule="evenodd" clip-rule="evenodd" d="M85.3059 31.0163C84.4274 31.0163 83.7144 30.3044 83.7144 29.4249C83.7144 28.1305 83.4057 26.8361 82.8222 25.6786L72.3206 4.88345C71.9652 4.18108 71.2554 3.74396 70.4682 3.74396H16.9303C16.143 3.74396 15.4332 4.18108 15.0778 4.88345L4.57521 25.6796C3.99167 26.8361 3.68293 28.1305 3.68293 29.4249C3.68293 30.3044 2.96995 31.0163 2.09146 31.0163C1.21298 31.0163 0.5 30.3044 0.5 29.4249C0.5 27.635 0.927573 25.8441 1.73391 24.2452L12.2365 3.44901C13.1362 1.66763 14.9346 0.561035 16.9303 0.561035H70.4682C72.4639 0.561035 74.2622 1.66763 75.1609 3.44901L85.6635 24.2441C86.4709 25.8441 86.8974 27.635 86.8974 29.4249C86.8974 30.3044 86.1844 31.0163 85.3059 31.0163Z" fill="#135D78"/>
<path fill-rule="evenodd" clip-rule="evenodd" d="M17.9126 23.4621H17.1657C16.2872 23.4621 15.5742 22.7502 15.5742 21.8706C15.5742 20.9911 16.2872 20.2792 17.1657 20.2792H17.9126C18.7911 20.2792 19.5041 20.9911 19.5041 21.8706C19.5041 22.7502 18.7911 23.4621 17.9126 23.4621Z" fill="#135D78"/>
<path fill-rule="evenodd" clip-rule="evenodd" d="M35.3531 23.4621H34.6051C33.7266 23.4621 33.0137 22.7502 33.0137 21.8706C33.0137 20.9911 33.7266 20.2792 34.6051 20.2792H35.3531C36.2316 20.2792 36.9446 20.9911 36.9446 21.8706C36.9446 22.7502 36.2316 23.4621 35.3531 23.4621Z" fill="#135D78"/>
<path fill-rule="evenodd" clip-rule="evenodd" d="M52.7926 23.4621H52.0446C51.1661 23.4621 50.4531 22.7502 50.4531 21.8706C50.4531 20.9911 51.1661 20.2792 52.0446 20.2792H52.7926C53.6711 20.2792 54.384 20.9911 54.384 21.8706C54.384 22.7502 53.6711 23.4621 52.7926 23.4621Z" fill="#135D78"/>
<path fill-rule="evenodd" clip-rule="evenodd" d="M70.234 23.4621H69.486C68.6075 23.4621 67.8945 22.7502 67.8945 21.8706C67.8945 20.9911 68.6075 20.2792 69.486 20.2792H70.234C71.1125 20.2792 71.8254 20.9911 71.8254 21.8706C71.8254 22.7502 71.1125 23.4621 70.234 23.4621Z" fill="#135D78"/>
<path fill-rule="evenodd" clip-rule="evenodd" d="M19.5476 18.4788H18.8473C17.9688 18.4788 17.2559 17.7669 17.2559 16.8874C17.2559 16.0078 17.9688 15.2959 18.8473 15.2959H19.5476C20.4261 15.2959 21.139 16.0078 21.139 16.8874C21.139 17.7669 20.4261 18.4788 19.5476 18.4788Z" fill="#135D78"/>
<path fill-rule="evenodd" clip-rule="evenodd" d="M35.8816 18.4788H35.1813C34.3028 18.4788 33.5898 17.7669 33.5898 16.8874C33.5898 16.0078 34.3028 15.2959 35.1813 15.2959H35.8816C36.76 15.2959 37.473 16.0078 37.473 16.8874C37.473 17.7669 36.76 18.4788 35.8816 18.4788Z" fill="#135D78"/>
<path fill-rule="evenodd" clip-rule="evenodd" d="M52.2145 18.4788H51.5153C50.6368 18.4788 49.9238 17.7669 49.9238 16.8874C49.9238 16.0078 50.6368 15.2959 51.5153 15.2959H52.2145C53.093 15.2959 53.8059 16.0078 53.8059 16.8874C53.8059 17.7669 53.093 18.4788 52.2145 18.4788Z" fill="#135D78"/>
<path fill-rule="evenodd" clip-rule="evenodd" d="M68.5515 18.4788H67.8512C66.9727 18.4788 66.2598 17.7669 66.2598 16.8874C66.2598 16.0078 66.9727 15.2959 67.8512 15.2959H68.5515C69.43 15.2959 70.1429 16.0078 70.1429 16.8874C70.1429 17.7669 69.43 18.4788 68.5515 18.4788Z" fill="#135D78"/>
<path fill-rule="evenodd" clip-rule="evenodd" d="M21.1211 13.3275H20.4665C19.588 13.3275 18.875 12.6155 18.875 11.736C18.875 10.8564 19.588 10.1445 20.4665 10.1445H21.1211C21.9996 10.1445 22.7125 10.8564 22.7125 11.736C22.7125 12.6155 21.9996 13.3275 21.1211 13.3275Z" fill="#135D78"/>
<path fill-rule="evenodd" clip-rule="evenodd" d="M36.3906 13.3275H35.736C34.8575 13.3275 34.1445 12.6155 34.1445 11.736C34.1445 10.8564 34.8575 10.1445 35.736 10.1445H36.3906C37.2691 10.1445 37.9821 10.8564 37.9821 11.736C37.9821 12.6155 37.2691 13.3275 36.3906 13.3275Z" fill="#135D78"/>
<path fill-rule="evenodd" clip-rule="evenodd" d="M51.6601 13.3275H51.0055C50.127 13.3275 49.4141 12.6155 49.4141 11.736C49.4141 10.8564 50.127 10.1445 51.0055 10.1445H51.6601C52.5386 10.1445 53.2516 10.8564 53.2516 11.736C53.2516 12.6155 52.5386 13.3275 51.6601 13.3275Z" fill="#135D78"/>
<path fill-rule="evenodd" clip-rule="evenodd" d="M66.9316 13.3275H66.277C65.3985 13.3275 64.6855 12.6155 64.6855 11.736C64.6855 10.8564 65.3985 10.1445 66.277 10.1445H66.9316C67.8101 10.1445 68.5231 10.8564 68.5231 11.736C68.5231 12.6155 67.8101 13.3275 66.9316 13.3275Z" fill="#135D78"/>
<path fill-rule="evenodd" clip-rule="evenodd" d="M22.4529 8.67365H21.8376C20.9591 8.67365 20.2461 7.96173 20.2461 7.08219C20.2461 6.20264 20.9591 5.49072 21.8376 5.49072H22.4529C23.3314 5.49072 24.0444 6.20264 24.0444 7.08219C24.0444 7.96173 23.3314 8.67365 22.4529 8.67365Z" fill="#135D78"/>
<path fill-rule="evenodd" clip-rule="evenodd" d="M36.8212 8.67365H36.2047C35.3263 8.67365 34.6133 7.96173 34.6133 7.08219C34.6133 6.20264 35.3263 5.49072 36.2047 5.49072H36.8212C37.6997 5.49072 38.4126 6.20264 38.4126 7.08219C38.4126 7.96173 37.6997 8.67365 36.8212 8.67365Z" fill="#135D78"/>
<path fill-rule="evenodd" clip-rule="evenodd" d="M51.1912 8.67365H50.5758C49.6974 8.67365 48.9844 7.96173 48.9844 7.08219C48.9844 6.20264 49.6974 5.49072 50.5758 5.49072H51.1912C52.0697 5.49072 52.7827 6.20264 52.7827 7.08219C52.7827 7.96173 52.0697 8.67365 51.1912 8.67365Z" fill="#135D78"/>
<path fill-rule="evenodd" clip-rule="evenodd" d="M65.5603 8.67365H64.945C64.0665 8.67365 63.3535 7.96173 63.3535 7.08219C63.3535 6.20264 64.0665 5.49072 64.945 5.49072H65.5603C66.4388 5.49072 67.1518 6.20264 67.1518 7.08219C67.1518 7.96173 66.4388 8.67365 65.5603 8.67365Z" fill="#135D78"/>
<path fill-rule="evenodd" clip-rule="evenodd" d="M85.3048 34.0397H2.09146C1.21298 34.0397 0.5 33.3278 0.5 32.4483C0.5 31.5687 1.21298 30.8568 2.09146 30.8568H85.3048C86.1833 30.8568 86.8963 31.5687 86.8963 32.4483C86.8963 33.3278 86.1833 34.0397 85.3048 34.0397Z" fill="#135D78"/>
<path fill-rule="evenodd" clip-rule="evenodd" d="M85.3048 61.0843H2.09146C1.21298 61.0843 0.5 60.3724 0.5 59.4928C0.5 58.6133 1.21298 57.9014 2.09146 57.9014H85.3048C86.1833 57.9014 86.8963 58.6133 86.8963 59.4928C86.8963 60.3724 86.1833 61.0843 85.3048 61.0843Z" fill="#135D78"/>
</svg>
