<svg width="69" height="87" viewBox="0 0 69 87" fill="none" xmlns="http://www.w3.org/2000/svg">
<path fill-rule="evenodd" clip-rule="evenodd" d="M52.1547 81.3502C51.0347 82.1356 49.6501 82.567 48.2556 82.567H21.032C19.6339 82.567 18.2811 82.143 17.1378 81.3526C9.0211 75.6327 4.17606 66.3078 4.17606 56.4069C4.17606 46.5 9.02845 37.175 17.1562 31.4649L18.4661 30.5446L17.7334 29.1208C17.4613 28.5878 17.264 28.0633 17.1366 27.5193L14.8109 17.4628C14.0794 14.2818 14.8231 10.9844 16.8499 8.42582C18.8901 5.86851 21.9302 4.40176 25.1896 4.40176H44.098C47.3575 4.40176 50.3963 5.86851 52.4353 8.41969C54.4645 10.9856 55.2095 14.2732 54.4768 17.4407L52.1547 27.5009C52.0261 28.0364 51.8226 28.5743 51.5543 29.0975L50.8228 30.5226L52.1314 31.4416C60.2592 37.1542 65.1116 46.4865 65.1116 56.4069C65.1116 66.3298 60.2678 75.6548 52.1547 81.3502ZM55.4485 29.3181C55.5575 28.9983 55.6519 28.6748 55.7327 28.3464L58.0572 18.2691C59.0437 14.0073 58.045 9.58623 55.3112 6.13196C52.5689 2.6973 48.4811 0.725708 44.098 0.725708H25.1896C20.8053 0.725708 16.7175 2.6973 13.9715 6.13931C11.2439 9.58378 10.2452 14.011 11.2304 18.2899L13.5574 28.3537C13.6346 28.6882 13.7301 29.0166 13.8404 29.3414C5.46023 35.7916 0.5 45.8003 0.5 56.4069C0.5 67.5 5.92708 77.9498 15.0339 84.367C16.8094 85.5948 18.884 86.243 21.032 86.243H48.2557C50.3976 86.243 52.5321 85.574 54.266 84.3597C63.3593 77.9756 68.7877 67.5258 68.7877 56.4069C68.7877 45.7892 63.8274 35.7732 55.4485 29.3181Z" fill="#135D78"/>
<path fill-rule="evenodd" clip-rule="evenodd" d="M23.2763 13.7871C23.6648 13.2982 24.248 13.0164 24.873 13.0164H43.7691C44.3928 13.0164 44.9761 13.2982 45.3633 13.7859C45.753 14.2761 45.8951 14.9059 45.7542 15.5137L43.8782 23.6255C37.6999 21.8156 30.9421 21.8156 24.7627 23.6267L22.8867 15.5149C22.7445 14.9059 22.8879 14.2761 23.2763 13.7871ZM22.0988 28.4276L24.0471 27.7255C30.6186 25.3545 38.0222 25.3545 44.5938 27.7255L46.5421 28.4276L49.3359 16.3432C49.7317 14.6375 49.3334 12.873 48.2416 11.4994C47.1511 10.1282 45.5201 9.34033 43.7691 9.34033H24.873C23.1207 9.34033 21.4898 10.1282 20.398 11.4994C19.3099 12.8718 18.9104 14.6363 19.305 16.342L22.0988 28.4276Z" fill="#135D78"/>
<path fill-rule="evenodd" clip-rule="evenodd" d="M23.5712 64.285H17.8108L22.7882 57.6363C23.4462 56.7614 24.0026 55.8301 24.4412 54.867C24.8995 53.8634 25.1323 52.8746 25.1323 51.9286C25.1323 50.4435 24.8836 49.1213 24.3947 48.0013C23.8923 46.8507 23.1644 45.9477 22.2307 45.3178C20.351 44.0484 17.5842 44.0324 15.6064 45.3779C14.6286 46.0432 13.8493 46.9622 13.2917 48.1092C12.7367 49.2463 12.4561 50.5305 12.4561 51.9286C12.4561 52.4653 12.6301 52.9456 12.9768 53.3525C13.7194 54.2261 15.0256 54.1979 15.7265 53.3439C16.0574 52.9395 16.2265 52.4641 16.2265 51.9286C16.2265 51.2767 16.3551 50.6604 16.6088 50.0967C16.8575 49.5441 17.1908 49.1189 17.6246 48.7966C18.0339 48.4927 18.4701 48.3457 18.9565 48.3457C19.7199 48.3457 20.3044 48.6373 20.7431 49.2389C21.221 49.8933 21.4624 50.7976 21.4624 51.9286C21.4624 52.8256 20.9747 53.9369 20.0079 55.2358L12.9499 64.9406C12.6215 65.329 12.4561 65.8167 12.4561 66.3939C12.4561 66.949 12.6239 67.4342 12.9572 67.8386C13.3138 68.2723 13.7929 68.5015 14.3419 68.5015H23.5712C24.1153 68.5015 24.5956 68.276 24.962 67.8459C25.3075 67.4403 25.4828 66.9514 25.4828 66.3939C25.4828 65.8376 25.3075 65.3486 24.962 64.9394C24.5956 64.5117 24.1153 64.285 23.5712 64.285Z" fill="#135D78"/>
<path fill-rule="evenodd" clip-rule="evenodd" d="M37.9295 55.1164C38.449 54.7206 38.9085 54.2501 39.3019 53.7122C39.944 52.8373 40.2687 51.792 40.2687 50.6083C40.2687 49.4553 40.0138 48.3917 39.5114 47.4445C39.0029 46.4912 38.2971 45.7278 37.4099 45.1751C35.5437 44.0086 33.071 44.0968 31.2341 45.1972C30.2784 45.7707 29.515 46.5684 28.966 47.5707C28.4195 48.5657 28.1426 49.6869 28.1426 50.9024C28.1426 51.4661 28.2933 51.9526 28.5911 52.3447C29.2626 53.222 30.5676 53.222 31.2219 52.2993C31.5148 51.8913 31.663 51.3913 31.663 50.8142C31.663 50.3204 31.7819 49.8891 32.0294 49.497C32.2843 49.0926 32.62 48.7764 33.0575 48.5314C33.4949 48.2875 33.9642 48.1687 34.4911 48.1687C35.1467 48.1687 35.6687 48.3917 36.0841 48.8487C36.5142 49.323 36.7237 49.8989 36.7237 50.6083C36.7237 51.0948 36.6147 51.5237 36.3892 51.9231C36.1637 52.3275 35.8782 52.6351 35.5192 52.8667C35.1773 53.0872 34.8404 53.1938 34.4911 53.1938C33.9483 53.1938 33.4716 53.4144 33.1138 53.8359C32.7769 54.2317 32.6065 54.7268 32.6065 55.3027C32.6065 55.8761 32.7756 56.3724 33.1077 56.778C33.4655 57.2118 33.9446 57.4409 34.4911 57.4409C34.996 57.4409 35.4457 57.5904 35.8648 57.8967C36.2985 58.2104 36.6465 58.6614 36.9002 59.2336C37.1636 59.8267 37.2972 60.4884 37.2972 61.2003C37.2972 62.3068 37.0166 63.1743 36.4615 63.7772C35.9125 64.3752 35.1859 64.6656 34.2424 64.6656C33.626 64.6656 33.0808 64.5014 32.571 64.1644C32.049 63.8213 31.6483 63.3692 31.3444 62.7822C31.0418 62.1977 30.8886 61.5471 30.8886 60.8486C30.8886 60.2862 30.7391 59.7973 30.4462 59.4015C29.7858 58.4984 28.4771 58.4947 27.8105 59.4002C27.5177 59.7997 27.3682 60.2886 27.3682 60.8486C27.3682 62.27 27.6684 63.5726 28.259 64.722C28.857 65.8811 29.6976 66.8112 30.7587 67.4839C31.8272 68.1603 33.0489 68.5022 34.3919 68.5022C35.5878 68.5022 36.7078 68.1787 37.7224 67.5439C38.7309 66.9141 39.5457 66.0319 40.1461 64.9241C40.7404 63.8213 41.0419 62.5788 41.0419 61.2285C41.0419 59.698 40.7037 58.3452 40.0346 57.2069C39.5298 56.3491 38.8228 55.6494 37.9295 55.1164Z" fill="#135D78"/>
<path fill-rule="evenodd" clip-rule="evenodd" d="M53.0379 56.4183C53.0379 58.858 52.761 60.8394 52.2157 62.3073C51.505 64.225 50.5664 64.225 50.2576 64.225C49.9549 64.225 49.0335 64.225 48.313 62.3171C47.7579 60.8602 47.4785 58.8763 47.4785 56.4183C47.4785 53.9774 47.7542 51.9911 48.3007 50.5121C49.0151 48.5809 49.95 48.5809 50.2576 48.5809C50.5603 48.5809 51.4793 48.5809 52.2035 50.5268C52.7573 52.0168 53.0379 53.9982 53.0379 56.4183ZM56.1136 50.1249C55.6222 48.3114 54.8833 46.8887 53.9153 45.8962C52.9007 44.8583 51.6704 44.3326 50.2576 44.3326C48.123 44.3326 46.459 45.4612 45.3109 47.6864C44.2313 49.7793 43.6836 52.7165 43.6836 56.4183C43.6836 60.1201 44.2313 63.0572 45.3109 65.1489C46.4578 67.3729 48.1218 68.5015 50.2576 68.5015C51.6729 68.5015 52.9031 67.977 53.9153 66.9392C54.8833 65.9466 55.6222 64.524 56.1136 62.7105C56.5915 60.9435 56.8341 58.8273 56.8341 56.4183C56.8341 54.0105 56.5915 51.8931 56.1136 50.1249Z" fill="#135D78"/>
</svg>
