<svg width="90" height="90" viewBox="0 0 90 90" fill="none" xmlns="http://www.w3.org/2000/svg">
<path fill-rule="evenodd" clip-rule="evenodd" d="M49.3306 51.3206L46.8046 58.5644C42.3108 71.4574 48.4954 81.0183 50.772 83.9429C53.5941 82.8951 60.9581 79.6731 65.3317 73.2873C70.9797 65.0362 70.6101 53.2758 68.3575 45.5473C66.3631 48.9781 63.7815 52.0052 63.6283 52.1837L56.7389 60.2108L60.4063 50.2892C60.4127 50.2677 62.049 44.9779 56.7819 33.2643C51.8654 22.3303 42.9664 14.9524 37.2703 11.0913C38.2612 13.4186 39.2673 16.0673 39.9279 18.4148C42.5335 27.6733 39.6128 33.8819 39.4887 34.1413L37.7499 37.7391L36.0592 34.1185C35.4581 32.8302 34.2685 31.6596 33.0511 30.7282C33.3599 34.2362 33.27 39.4463 31.1186 44.4641C29.719 47.7278 27.6727 49.8792 25.6921 51.9597C22.4107 55.4082 19.5747 58.3885 20.4567 66.3106C21.4299 75.0767 29.5545 80.2362 34.1369 82.4762C33.7762 79.8477 33.551 76.1866 34.3242 72.8646C35.8023 66.5016 41.5794 58.5454 43.7181 56.5509L49.3306 51.3206ZM39.371 88.5L36.0605 87.4104C35.3366 87.1712 18.3117 81.3992 16.6817 66.7294C15.6073 57.0508 19.5038 52.9556 22.9409 49.3426C24.7709 47.4203 26.4983 45.6043 27.6296 42.967C30.7554 35.6751 28.7319 27.5391 28.7116 27.4569L27.7296 23.6186L31.3351 25.2549C31.511 25.3359 34.5026 26.7165 36.9678 29.1008C37.3196 26.8102 37.407 23.4718 36.2731 19.4424C34.9228 14.6436 31.9425 8.35147 31.2148 7.24795L27.4145 1.5L33.6218 4.49167C34.3723 4.85234 52.0793 13.5514 60.2444 31.7065C62.8032 37.3974 63.889 41.7673 64.2788 44.9475C65.3051 43.3605 66.2669 41.6154 66.701 40.1082L68.0652 35.36L70.2318 39.8007C74.0283 47.5848 76.0911 64.2921 68.4626 75.4336C62.2148 84.5592 51.1504 87.8483 50.6822 87.9837L49.5673 88.3076L48.7725 87.461C48.3777 87.0409 40.6986 78.6885 41.4579 65.9511C39.9671 68.4442 38.5965 71.2524 38.0207 73.7252C36.8552 78.7442 38.4751 85.0641 38.4915 85.1274L39.371 88.5Z" fill="#135D78"/>
</svg>
