<svg width="76" height="94" viewBox="0 0 76 94" fill="none" xmlns="http://www.w3.org/2000/svg">
<path fill-rule="evenodd" clip-rule="evenodd" d="M21.5478 2.6975C18.4464 2.6975 15.9238 5.22013 15.9238 8.32053C15.9238 11.4209 18.4464 13.9436 21.5478 13.9436C24.6482 13.9436 27.1708 11.4209 27.1708 8.32053C27.1708 5.22013 24.6482 2.6975 21.5478 2.6975ZM21.548 16.642C16.9588 16.642 13.2266 12.9089 13.2266 8.32054C13.2266 3.7322 16.9588 0 21.548 0C26.1364 0 29.8695 3.7322 29.8695 8.32054C29.8695 12.9089 26.1364 16.642 21.548 16.642Z" fill="#135D78"/>
<path fill-rule="evenodd" clip-rule="evenodd" d="M29.0052 85.2654H28.9841C28.2388 85.2535 27.6445 84.64 27.6564 83.8955L28.5474 31.6676C28.5602 30.9223 29.1718 30.3335 29.9172 30.3399C30.6634 30.3509 31.2568 30.9644 31.2449 31.7097L30.3539 83.9377C30.342 84.6748 29.7414 85.2654 29.0052 85.2654Z" fill="#135D78"/>
<path fill-rule="evenodd" clip-rule="evenodd" d="M21.9337 85.2656C21.1892 85.2656 20.584 84.6621 20.584 83.9168V52.1354C20.584 51.39 21.1892 50.7866 21.9337 50.7866C22.6781 50.7866 23.2824 51.39 23.2824 52.1354V83.9168C23.2824 84.6621 22.6781 85.2656 21.9337 85.2656Z" fill="#135D78"/>
<path fill-rule="evenodd" clip-rule="evenodd" d="M39.1691 54.2405C37.3808 54.2405 35.7052 53.1454 35.0404 51.3928C35.0331 51.3745 35.0276 51.358 35.0221 51.3406L28.6135 32.1156C28.3772 31.4078 28.759 30.6441 29.4659 30.4097C30.1728 30.1735 30.9365 30.5553 31.1727 31.2622L37.5713 50.457C37.9 51.2912 38.8212 51.7316 39.6791 51.4642C40.5417 51.1932 41.0425 50.3059 40.8338 49.4306L33.0022 26.2435C32.9775 26.1702 32.9592 26.0942 32.9472 26.0182C32.5215 23.2722 30.5089 21.0471 27.8196 20.3485L25.3849 19.7167C24.6633 19.529 24.2311 18.7928 24.4189 18.0713C24.6056 17.3507 25.3418 16.9175 26.0634 17.1043L28.4981 17.7371C32.1909 18.6967 34.9644 21.7302 35.5944 25.4862L43.4077 48.6175C43.4177 48.6477 43.426 48.677 43.4333 48.7072C44.0331 50.9899 42.7383 53.3322 40.4849 54.0381C40.0491 54.1755 39.6059 54.2405 39.1691 54.2405Z" fill="#135D78"/>
<path fill-rule="evenodd" clip-rule="evenodd" d="M14.5758 85.2654C13.8396 85.2654 13.2381 84.6748 13.2271 83.9368L12.381 31.7088C12.37 30.9635 12.9643 30.3509 13.7096 30.3399C14.4513 30.3317 15.0675 30.9232 15.0785 31.6685L15.9255 83.8965C15.9356 84.6409 15.3413 85.2544 14.596 85.2654H14.5758Z" fill="#135D78"/>
<path fill-rule="evenodd" clip-rule="evenodd" d="M4.41048 54.2405C3.97372 54.2405 3.53146 54.1755 3.09469 54.0381C0.842183 53.3322 -0.453466 50.9899 0.146287 48.7072C0.153612 48.677 0.161853 48.6477 0.172841 48.6175L7.9852 25.4862C8.61517 21.7302 11.3887 18.6967 15.0815 17.7371L17.5162 17.1043C18.2387 16.9175 18.974 17.3507 19.1607 18.0713C19.3485 18.7928 18.9163 19.529 18.1947 19.7167L15.76 20.3485C13.0707 21.0471 11.0581 23.2722 10.6323 26.0182C10.6204 26.0942 10.603 26.1702 10.5774 26.2435L2.74583 49.4306C2.53706 50.3059 3.03792 51.1932 3.90047 51.4642C4.75935 51.7325 5.6805 51.2903 6.0083 50.4561L12.4536 31.2594C12.6907 30.5535 13.4553 30.1725 14.1613 30.4106C14.8682 30.6469 15.2482 31.4114 15.011 32.1183L8.55656 51.3434C8.55107 51.3598 8.54558 51.3763 8.53917 51.3928C7.8744 53.1454 6.19876 54.2405 4.41048 54.2405Z" fill="#135D78"/>
<path fill-rule="evenodd" clip-rule="evenodd" d="M27.6574 83.5757C27.6592 83.6123 27.6556 83.6499 27.6556 83.6874C27.6556 84.8878 26.6712 85.8612 25.4708 85.8612C24.2713 85.8612 23.2824 84.886 23.2824 83.6856C23.2824 83.648 23.2806 83.6123 23.2824 83.5757H20.5959C20.595 83.6132 20.584 83.6471 20.584 83.6846C20.584 86.3803 22.7761 88.5715 25.4708 88.5715C28.1665 88.5715 30.354 86.3941 30.354 83.6993C30.354 83.6618 30.3476 83.6132 30.3467 83.5757H27.6574Z" fill="#135D78"/>
<path fill-rule="evenodd" clip-rule="evenodd" d="M20.6003 83.5757C20.6021 83.6123 20.5948 83.6471 20.5948 83.6846C20.5948 84.8851 19.4612 85.8648 18.1226 85.8612C16.9221 85.8575 15.9277 84.886 15.9277 83.6856C15.9277 83.648 15.9241 83.6123 15.9259 83.5757H13.2467C13.2458 83.6132 13.2266 83.7515 13.2266 83.789C13.2266 86.4847 15.4278 88.5715 18.1226 88.5715C20.8164 88.5715 23.0094 86.3803 23.0094 83.6846C23.0094 83.6471 22.9984 83.6132 22.9975 83.5757H20.6003Z" fill="#135D78"/>
<mask id="path-9-outside-1_9790_73565" maskUnits="userSpaceOnUse" x="47.3164" y="25.6362" width="29" height="30" fill="black">
<rect fill="white" x="47.3164" y="25.6362" width="29" height="30"/>
<path fill-rule="evenodd" clip-rule="evenodd" d="M63.5245 38.265L63.5229 38.2646C62.5278 37.969 61.8796 38.0096 61.4351 38.1782C60.9966 38.3444 60.6249 38.6848 60.2785 39.2612C59.9249 39.8495 59.6356 40.6202 59.3432 41.5549C59.216 41.9616 59.0914 42.3879 58.9609 42.8348L58.9081 43.0158C58.7594 43.5244 58.6026 44.0557 58.4299 44.5913C57.4287 47.6971 57.5317 50.445 58.4082 51.9822C58.8268 52.7163 59.4079 53.161 60.1545 53.3064C60.9297 53.4573 62.0068 53.3085 63.4263 52.584C64.3135 52.1312 64.9303 51.6549 65.5606 51.1654L65.5747 51.1545C65.8361 50.9515 66.119 50.7318 66.4125 50.5275C67.4896 49.7778 68.8263 49.1154 71.3672 48.5782C72.7127 48.2942 73.4031 47.7364 73.7358 47.1684C74.0745 46.5902 74.1389 45.8377 73.9052 44.9831C73.4258 43.2301 71.7952 41.4487 69.9783 40.9095L69.9772 40.9092C68.0048 40.3222 66.8914 39.802 65.9928 39.3451C65.8754 39.2854 65.7611 39.2264 65.652 39.1702L65.6512 39.1698C65.6498 39.169 65.6484 39.1683 65.647 39.1676C64.9496 38.8079 64.3869 38.5201 63.5245 38.265ZM66.3112 37.8719L66.3119 37.8723C66.4215 37.9288 66.5324 37.9859 66.6453 38.0434C66.8295 38.137 67.0233 38.2336 67.2334 38.3332C67.2806 38.3556 67.3287 38.3781 67.3776 38.4008C68.0995 38.7353 69.019 39.1035 70.3875 39.5108C70.6143 39.5781 70.8378 39.6596 71.0571 39.7539C71.2334 39.8298 71.407 39.914 71.5773 40.0057C73.3689 40.9706 74.8033 42.7754 75.3011 44.5959C75.6073 45.7153 75.5743 46.8996 74.9828 47.9093C74.3879 48.925 73.2875 49.6628 71.6646 50.0053C69.2826 50.5089 68.1312 51.1038 67.2357 51.7271C66.9735 51.9096 66.7159 52.1096 66.4448 52.3202C65.8096 52.8134 65.0999 53.3646 64.0808 53.8847C62.4884 54.6974 61.0763 54.971 59.8798 54.7381C58.6645 54.5015 57.751 53.7578 57.1526 52.7084C56.4205 51.4244 56.1512 49.6784 56.3113 47.7475C56.3249 47.5833 56.3416 47.4179 56.3614 47.2513C56.4809 46.2446 56.7129 45.1953 57.0528 44.1408C57.1223 43.9253 57.1893 43.7098 57.2547 43.4948C57.3047 43.3302 57.3538 43.1659 57.4022 43.0021C57.4415 42.8692 57.4804 42.7365 57.519 42.6043L57.5719 42.4234C57.7016 41.9792 57.8301 41.5391 57.9622 41.1167C58.1833 40.4102 58.4222 39.7272 58.7133 39.1175C58.8152 38.904 58.9236 38.6995 59.0398 38.5061C59.1943 38.2491 59.3653 38.0074 59.5568 37.7879C59.9267 37.3639 60.3731 37.0227 60.9249 36.8135C61.1879 36.7138 61.4666 36.6472 61.7619 36.6138C62.2539 36.5582 62.7924 36.5948 63.3826 36.7237C63.5611 36.7626 63.7444 36.8101 63.9325 36.8659C64.9367 37.163 65.6031 37.5066 66.3112 37.8719ZM61.9141 35.1385C61.5337 35.0089 61.172 34.8059 60.844 34.5484C60.0613 33.934 59.4349 32.9876 59.119 31.8638C58.8031 30.7402 58.8453 29.6087 59.1967 28.681C59.5483 27.7528 60.2279 26.9944 61.1905 26.7311C62.1518 26.4682 63.1261 26.7726 63.9083 27.3867C64.691 28.0011 65.3174 28.9475 65.6333 30.0713C65.9492 31.1949 65.907 32.3264 65.5556 33.2541C65.2041 34.1823 64.5245 34.9407 63.5618 35.204C63.5095 35.2183 63.4572 35.2309 63.4049 35.2419C62.8985 35.3482 62.3916 35.3012 61.9141 35.1385ZM55.8828 43.0266C55.5997 42.2947 55.1177 41.5931 54.4659 41.0126C53.6051 40.246 52.5796 39.8077 51.6001 39.7414C50.6189 39.6751 49.6532 39.9848 49.0037 40.7542C48.3559 41.5217 48.1969 42.5405 48.3981 43.52C48.5994 44.4999 49.1641 45.4777 50.0249 46.2444C50.8856 47.0109 51.9112 47.4492 52.8907 47.5155C53.6216 47.5649 54.344 47.4056 54.9334 47.0031C55.1352 46.8653 55.3214 46.699 55.4871 46.5028C56.1138 45.7603 56.283 44.7827 56.1113 43.833C56.1055 43.801 56.0993 43.7688 56.0927 43.7369C56.0438 43.499 55.9735 43.2612 55.8828 43.0266ZM57.5244 38.2511C57.6679 38.1179 57.7943 37.9713 57.9042 37.8138C58.0686 37.5783 58.196 37.3185 58.2884 37.0433C58.4068 36.6906 58.4676 36.3126 58.475 35.9278C58.4941 34.9289 58.1585 33.8418 57.4908 32.8844C56.8232 31.927 55.9242 31.2434 54.9876 30.9293C54.0507 30.6152 53.0368 30.6632 52.2258 31.2467C51.4157 31.8297 51.0364 32.7826 51.0173 33.7809C50.9983 34.7799 51.3339 35.8669 52.0015 36.8244C52.6691 37.7818 53.5681 38.4654 54.5048 38.7794C55.4416 39.0936 56.4555 39.0456 57.2665 38.462C57.3579 38.3963 57.4438 38.3258 57.5244 38.2511ZM71.7253 38.4565C72.3877 38.2143 72.9362 37.7262 73.3259 37.11C73.8533 36.276 74.1103 35.1843 74.0072 34.0318C73.904 32.8792 73.4565 31.8416 72.792 31.0978C72.1277 30.3542 71.2186 29.8795 70.2208 29.9503C69.2206 30.0213 68.4007 30.6213 67.8724 31.4566C67.345 32.2905 67.088 33.3822 67.1911 34.5347C67.2804 35.5319 67.6274 36.443 68.1496 37.1523C68.231 37.2628 68.3167 37.3685 68.4063 37.4688C68.9967 38.1297 69.7805 38.5782 70.6481 38.62L70.6488 38.6201C70.7571 38.6252 70.8667 38.6241 70.9775 38.6162C71.2398 38.5976 71.4897 38.5426 71.7253 38.4565ZM56.3059 33.7224C55.7971 32.9927 55.142 32.518 54.5302 32.3128C53.9167 32.1071 53.4121 32.1852 53.0675 32.4332C52.721 32.6825 52.4776 33.1457 52.465 33.809C52.4524 34.4689 52.6777 35.2568 53.1864 35.9864C53.6952 36.716 54.3503 37.1908 54.9621 37.3959C55.5756 37.6016 56.0802 37.5235 56.4248 37.2755C56.7713 37.0262 57.0147 36.5631 57.0274 35.8998C57.04 35.2399 56.8146 34.4519 56.3059 33.7224ZM61.57 28.1383C61.1581 28.251 60.7788 28.5954 60.5495 29.2007C60.3207 29.8047 60.2719 30.6121 60.5121 31.4666C60.7523 32.3208 61.2169 32.9923 61.7342 33.3984C62.2541 33.8066 62.7676 33.9102 63.1823 33.7968C63.5942 33.6841 63.9736 33.3397 64.2028 32.7344C64.4316 32.1304 64.4804 31.323 64.2402 30.4685C64 29.6143 63.5355 28.9428 63.0182 28.5367C62.4982 28.1285 61.9848 28.0249 61.57 28.1383ZM53.5067 42.1049C52.8611 41.5299 52.132 41.2389 51.503 41.1964C50.875 41.1539 50.3972 41.3547 50.1069 41.6986C49.8134 42.0463 49.6825 42.5749 49.816 43.2246C49.9489 43.8717 50.3387 44.5772 50.9841 45.152C51.6297 45.727 52.3588 46.018 52.9877 46.0606C53.6158 46.103 54.0936 45.9022 54.3839 45.5583C54.6774 45.2106 54.8083 44.682 54.6748 44.0323C54.5419 43.3852 54.1521 42.6797 53.5067 42.1049ZM70.3226 31.4049C69.8756 31.4366 69.4318 31.7052 69.0936 32.2399C68.755 32.7754 68.5558 33.5393 68.6332 34.4038C68.7105 35.268 69.0438 36.0022 69.4827 36.4935C69.9233 36.9868 70.4237 37.1938 70.8757 37.1617C71.3227 37.1299 71.7665 36.8613 72.1046 36.3266C72.4433 35.7911 72.6425 35.0272 72.5651 34.1627C72.4878 33.2985 72.1544 32.5643 71.7156 32.073C71.275 31.5798 70.7746 31.3728 70.3226 31.4049Z"/>
</mask>
<path fill-rule="evenodd" clip-rule="evenodd" d="M63.5245 38.265L63.5229 38.2646C62.5278 37.969 61.8796 38.0096 61.4351 38.1782C60.9966 38.3444 60.6249 38.6848 60.2785 39.2612C59.9249 39.8495 59.6356 40.6202 59.3432 41.5549C59.216 41.9616 59.0914 42.3879 58.9609 42.8348L58.9081 43.0158C58.7594 43.5244 58.6026 44.0557 58.4299 44.5913C57.4287 47.6971 57.5317 50.445 58.4082 51.9822C58.8268 52.7163 59.4079 53.161 60.1545 53.3064C60.9297 53.4573 62.0068 53.3085 63.4263 52.584C64.3135 52.1312 64.9303 51.6549 65.5606 51.1654L65.5747 51.1545C65.8361 50.9515 66.119 50.7318 66.4125 50.5275C67.4896 49.7778 68.8263 49.1154 71.3672 48.5782C72.7127 48.2942 73.4031 47.7364 73.7358 47.1684C74.0745 46.5902 74.1389 45.8377 73.9052 44.9831C73.4258 43.2301 71.7952 41.4487 69.9783 40.9095L69.9772 40.9092C68.0048 40.3222 66.8914 39.802 65.9928 39.3451C65.8754 39.2854 65.7611 39.2264 65.652 39.1702L65.6512 39.1698C65.6498 39.169 65.6484 39.1683 65.647 39.1676C64.9496 38.8079 64.3869 38.5201 63.5245 38.265ZM66.3112 37.8719L66.3119 37.8723C66.4215 37.9288 66.5324 37.9859 66.6453 38.0434C66.8295 38.137 67.0233 38.2336 67.2334 38.3332C67.2806 38.3556 67.3287 38.3781 67.3776 38.4008C68.0995 38.7353 69.019 39.1035 70.3875 39.5108C70.6143 39.5781 70.8378 39.6596 71.0571 39.7539C71.2334 39.8298 71.407 39.914 71.5773 40.0057C73.3689 40.9706 74.8033 42.7754 75.3011 44.5959C75.6073 45.7153 75.5743 46.8996 74.9828 47.9093C74.3879 48.925 73.2875 49.6628 71.6646 50.0053C69.2826 50.5089 68.1312 51.1038 67.2357 51.7271C66.9735 51.9096 66.7159 52.1096 66.4448 52.3202C65.8096 52.8134 65.0999 53.3646 64.0808 53.8847C62.4884 54.6974 61.0763 54.971 59.8798 54.7381C58.6645 54.5015 57.751 53.7578 57.1526 52.7084C56.4205 51.4244 56.1512 49.6784 56.3113 47.7475C56.3249 47.5833 56.3416 47.4179 56.3614 47.2513C56.4809 46.2446 56.7129 45.1953 57.0528 44.1408C57.1223 43.9253 57.1893 43.7098 57.2547 43.4948C57.3047 43.3302 57.3538 43.1659 57.4022 43.0021C57.4415 42.8692 57.4804 42.7365 57.519 42.6043L57.5719 42.4234C57.7016 41.9792 57.8301 41.5391 57.9622 41.1167C58.1833 40.4102 58.4222 39.7272 58.7133 39.1175C58.8152 38.904 58.9236 38.6995 59.0398 38.5061C59.1943 38.2491 59.3653 38.0074 59.5568 37.7879C59.9267 37.3639 60.3731 37.0227 60.9249 36.8135C61.1879 36.7138 61.4666 36.6472 61.7619 36.6138C62.2539 36.5582 62.7924 36.5948 63.3826 36.7237C63.5611 36.7626 63.7444 36.8101 63.9325 36.8659C64.9367 37.163 65.6031 37.5066 66.3112 37.8719ZM61.9141 35.1385C61.5337 35.0089 61.172 34.8059 60.844 34.5484C60.0613 33.934 59.4349 32.9876 59.119 31.8638C58.8031 30.7402 58.8453 29.6087 59.1967 28.681C59.5483 27.7528 60.2279 26.9944 61.1905 26.7311C62.1518 26.4682 63.1261 26.7726 63.9083 27.3867C64.691 28.0011 65.3174 28.9475 65.6333 30.0713C65.9492 31.1949 65.907 32.3264 65.5556 33.2541C65.2041 34.1823 64.5245 34.9407 63.5618 35.204C63.5095 35.2183 63.4572 35.2309 63.4049 35.2419C62.8985 35.3482 62.3916 35.3012 61.9141 35.1385ZM55.8828 43.0266C55.5997 42.2947 55.1177 41.5931 54.4659 41.0126C53.6051 40.246 52.5796 39.8077 51.6001 39.7414C50.6189 39.6751 49.6532 39.9848 49.0037 40.7542C48.3559 41.5217 48.1969 42.5405 48.3981 43.52C48.5994 44.4999 49.1641 45.4777 50.0249 46.2444C50.8856 47.0109 51.9112 47.4492 52.8907 47.5155C53.6216 47.5649 54.344 47.4056 54.9334 47.0031C55.1352 46.8653 55.3214 46.699 55.4871 46.5028C56.1138 45.7603 56.283 44.7827 56.1113 43.833C56.1055 43.801 56.0993 43.7688 56.0927 43.7369C56.0438 43.499 55.9735 43.2612 55.8828 43.0266ZM57.5244 38.2511C57.6679 38.1179 57.7943 37.9713 57.9042 37.8138C58.0686 37.5783 58.196 37.3185 58.2884 37.0433C58.4068 36.6906 58.4676 36.3126 58.475 35.9278C58.4941 34.9289 58.1585 33.8418 57.4908 32.8844C56.8232 31.927 55.9242 31.2434 54.9876 30.9293C54.0507 30.6152 53.0368 30.6632 52.2258 31.2467C51.4157 31.8297 51.0364 32.7826 51.0173 33.7809C50.9983 34.7799 51.3339 35.8669 52.0015 36.8244C52.6691 37.7818 53.5681 38.4654 54.5048 38.7794C55.4416 39.0936 56.4555 39.0456 57.2665 38.462C57.3579 38.3963 57.4438 38.3258 57.5244 38.2511ZM71.7253 38.4565C72.3877 38.2143 72.9362 37.7262 73.3259 37.11C73.8533 36.276 74.1103 35.1843 74.0072 34.0318C73.904 32.8792 73.4565 31.8416 72.792 31.0978C72.1277 30.3542 71.2186 29.8795 70.2208 29.9503C69.2206 30.0213 68.4007 30.6213 67.8724 31.4566C67.345 32.2905 67.088 33.3822 67.1911 34.5347C67.2804 35.5319 67.6274 36.443 68.1496 37.1523C68.231 37.2628 68.3167 37.3685 68.4063 37.4688C68.9967 38.1297 69.7805 38.5782 70.6481 38.62L70.6488 38.6201C70.7571 38.6252 70.8667 38.6241 70.9775 38.6162C71.2398 38.5976 71.4897 38.5426 71.7253 38.4565ZM56.3059 33.7224C55.7971 32.9927 55.142 32.518 54.5302 32.3128C53.9167 32.1071 53.4121 32.1852 53.0675 32.4332C52.721 32.6825 52.4776 33.1457 52.465 33.809C52.4524 34.4689 52.6777 35.2568 53.1864 35.9864C53.6952 36.716 54.3503 37.1908 54.9621 37.3959C55.5756 37.6016 56.0802 37.5235 56.4248 37.2755C56.7713 37.0262 57.0147 36.5631 57.0274 35.8998C57.04 35.2399 56.8146 34.4519 56.3059 33.7224ZM61.57 28.1383C61.1581 28.251 60.7788 28.5954 60.5495 29.2007C60.3207 29.8047 60.2719 30.6121 60.5121 31.4666C60.7523 32.3208 61.2169 32.9923 61.7342 33.3984C62.2541 33.8066 62.7676 33.9102 63.1823 33.7968C63.5942 33.6841 63.9736 33.3397 64.2028 32.7344C64.4316 32.1304 64.4804 31.323 64.2402 30.4685C64 29.6143 63.5355 28.9428 63.0182 28.5367C62.4982 28.1285 61.9848 28.0249 61.57 28.1383ZM53.5067 42.1049C52.8611 41.5299 52.132 41.2389 51.503 41.1964C50.875 41.1539 50.3972 41.3547 50.1069 41.6986C49.8134 42.0463 49.6825 42.5749 49.816 43.2246C49.9489 43.8717 50.3387 44.5772 50.9841 45.152C51.6297 45.727 52.3588 46.018 52.9877 46.0606C53.6158 46.103 54.0936 45.9022 54.3839 45.5583C54.6774 45.2106 54.8083 44.682 54.6748 44.0323C54.5419 43.3852 54.1521 42.6797 53.5067 42.1049ZM70.3226 31.4049C69.8756 31.4366 69.4318 31.7052 69.0936 32.2399C68.755 32.7754 68.5558 33.5393 68.6332 34.4038C68.7105 35.268 69.0438 36.0022 69.4827 36.4935C69.9233 36.9868 70.4237 37.1938 70.8757 37.1617C71.3227 37.1299 71.7665 36.8613 72.1046 36.3266C72.4433 35.7911 72.6425 35.0272 72.5651 34.1627C72.4878 33.2985 72.1544 32.5643 71.7156 32.073C71.275 31.5798 70.7746 31.3728 70.3226 31.4049Z" fill="#135D78"/>
<path fill-rule="evenodd" clip-rule="evenodd" d="M63.5245 38.265L63.5229 38.2646C62.5278 37.969 61.8796 38.0096 61.4351 38.1782C60.9966 38.3444 60.6249 38.6848 60.2785 39.2612C59.9249 39.8495 59.6356 40.6202 59.3432 41.5549C59.216 41.9616 59.0914 42.3879 58.9609 42.8348L58.9081 43.0158C58.7594 43.5244 58.6026 44.0557 58.4299 44.5913C57.4287 47.6971 57.5317 50.445 58.4082 51.9822C58.8268 52.7163 59.4079 53.161 60.1545 53.3064C60.9297 53.4573 62.0068 53.3085 63.4263 52.584C64.3135 52.1312 64.9303 51.6549 65.5606 51.1654L65.5747 51.1545C65.8361 50.9515 66.119 50.7318 66.4125 50.5275C67.4896 49.7778 68.8263 49.1154 71.3672 48.5782C72.7127 48.2942 73.4031 47.7364 73.7358 47.1684C74.0745 46.5902 74.1389 45.8377 73.9052 44.9831C73.4258 43.2301 71.7952 41.4487 69.9783 40.9095L69.9772 40.9092C68.0048 40.3222 66.8914 39.802 65.9928 39.3451C65.8754 39.2854 65.7611 39.2264 65.652 39.1702L65.6512 39.1698C65.6498 39.169 65.6484 39.1683 65.647 39.1676C64.9496 38.8079 64.3869 38.5201 63.5245 38.265ZM66.3112 37.8719L66.3119 37.8723C66.4215 37.9288 66.5324 37.9859 66.6453 38.0434C66.8295 38.137 67.0233 38.2336 67.2334 38.3332C67.2806 38.3556 67.3287 38.3781 67.3776 38.4008C68.0995 38.7353 69.019 39.1035 70.3875 39.5108C70.6143 39.5781 70.8378 39.6596 71.0571 39.7539C71.2334 39.8298 71.407 39.914 71.5773 40.0057C73.3689 40.9706 74.8033 42.7754 75.3011 44.5959C75.6073 45.7153 75.5743 46.8996 74.9828 47.9093C74.3879 48.925 73.2875 49.6628 71.6646 50.0053C69.2826 50.5089 68.1312 51.1038 67.2357 51.7271C66.9735 51.9096 66.7159 52.1096 66.4448 52.3202C65.8096 52.8134 65.0999 53.3646 64.0808 53.8847C62.4884 54.6974 61.0763 54.971 59.8798 54.7381C58.6645 54.5015 57.751 53.7578 57.1526 52.7084C56.4205 51.4244 56.1512 49.6784 56.3113 47.7475C56.3249 47.5833 56.3416 47.4179 56.3614 47.2513C56.4809 46.2446 56.7129 45.1953 57.0528 44.1408C57.1223 43.9253 57.1893 43.7098 57.2547 43.4948C57.3047 43.3302 57.3538 43.1659 57.4022 43.0021C57.4415 42.8692 57.4804 42.7365 57.519 42.6043L57.5719 42.4234C57.7016 41.9792 57.8301 41.5391 57.9622 41.1167C58.1833 40.4102 58.4222 39.7272 58.7133 39.1175C58.8152 38.904 58.9236 38.6995 59.0398 38.5061C59.1943 38.2491 59.3653 38.0074 59.5568 37.7879C59.9267 37.3639 60.3731 37.0227 60.9249 36.8135C61.1879 36.7138 61.4666 36.6472 61.7619 36.6138C62.2539 36.5582 62.7924 36.5948 63.3826 36.7237C63.5611 36.7626 63.7444 36.8101 63.9325 36.8659C64.9367 37.163 65.6031 37.5066 66.3112 37.8719ZM61.9141 35.1385C61.5337 35.0089 61.172 34.8059 60.844 34.5484C60.0613 33.934 59.4349 32.9876 59.119 31.8638C58.8031 30.7402 58.8453 29.6087 59.1967 28.681C59.5483 27.7528 60.2279 26.9944 61.1905 26.7311C62.1518 26.4682 63.1261 26.7726 63.9083 27.3867C64.691 28.0011 65.3174 28.9475 65.6333 30.0713C65.9492 31.1949 65.907 32.3264 65.5556 33.2541C65.2041 34.1823 64.5245 34.9407 63.5618 35.204C63.5095 35.2183 63.4572 35.2309 63.4049 35.2419C62.8985 35.3482 62.3916 35.3012 61.9141 35.1385ZM55.8828 43.0266C55.5997 42.2947 55.1177 41.5931 54.4659 41.0126C53.6051 40.246 52.5796 39.8077 51.6001 39.7414C50.6189 39.6751 49.6532 39.9848 49.0037 40.7542C48.3559 41.5217 48.1969 42.5405 48.3981 43.52C48.5994 44.4999 49.1641 45.4777 50.0249 46.2444C50.8856 47.0109 51.9112 47.4492 52.8907 47.5155C53.6216 47.5649 54.344 47.4056 54.9334 47.0031C55.1352 46.8653 55.3214 46.699 55.4871 46.5028C56.1138 45.7603 56.283 44.7827 56.1113 43.833C56.1055 43.801 56.0993 43.7688 56.0927 43.7369C56.0438 43.499 55.9735 43.2612 55.8828 43.0266ZM57.5244 38.2511C57.6679 38.1179 57.7943 37.9713 57.9042 37.8138C58.0686 37.5783 58.196 37.3185 58.2884 37.0433C58.4068 36.6906 58.4676 36.3126 58.475 35.9278C58.4941 34.9289 58.1585 33.8418 57.4908 32.8844C56.8232 31.927 55.9242 31.2434 54.9876 30.9293C54.0507 30.6152 53.0368 30.6632 52.2258 31.2467C51.4157 31.8297 51.0364 32.7826 51.0173 33.7809C50.9983 34.7799 51.3339 35.8669 52.0015 36.8244C52.6691 37.7818 53.5681 38.4654 54.5048 38.7794C55.4416 39.0936 56.4555 39.0456 57.2665 38.462C57.3579 38.3963 57.4438 38.3258 57.5244 38.2511ZM71.7253 38.4565C72.3877 38.2143 72.9362 37.7262 73.3259 37.11C73.8533 36.276 74.1103 35.1843 74.0072 34.0318C73.904 32.8792 73.4565 31.8416 72.792 31.0978C72.1277 30.3542 71.2186 29.8795 70.2208 29.9503C69.2206 30.0213 68.4007 30.6213 67.8724 31.4566C67.345 32.2905 67.088 33.3822 67.1911 34.5347C67.2804 35.5319 67.6274 36.443 68.1496 37.1523C68.231 37.2628 68.3167 37.3685 68.4063 37.4688C68.9967 38.1297 69.7805 38.5782 70.6481 38.62L70.6488 38.6201C70.7571 38.6252 70.8667 38.6241 70.9775 38.6162C71.2398 38.5976 71.4897 38.5426 71.7253 38.4565ZM56.3059 33.7224C55.7971 32.9927 55.142 32.518 54.5302 32.3128C53.9167 32.1071 53.4121 32.1852 53.0675 32.4332C52.721 32.6825 52.4776 33.1457 52.465 33.809C52.4524 34.4689 52.6777 35.2568 53.1864 35.9864C53.6952 36.716 54.3503 37.1908 54.9621 37.3959C55.5756 37.6016 56.0802 37.5235 56.4248 37.2755C56.7713 37.0262 57.0147 36.5631 57.0274 35.8998C57.04 35.2399 56.8146 34.4519 56.3059 33.7224ZM61.57 28.1383C61.1581 28.251 60.7788 28.5954 60.5495 29.2007C60.3207 29.8047 60.2719 30.6121 60.5121 31.4666C60.7523 32.3208 61.2169 32.9923 61.7342 33.3984C62.2541 33.8066 62.7676 33.9102 63.1823 33.7968C63.5942 33.6841 63.9736 33.3397 64.2028 32.7344C64.4316 32.1304 64.4804 31.323 64.2402 30.4685C64 29.6143 63.5355 28.9428 63.0182 28.5367C62.4982 28.1285 61.9848 28.0249 61.57 28.1383ZM53.5067 42.1049C52.8611 41.5299 52.132 41.2389 51.503 41.1964C50.875 41.1539 50.3972 41.3547 50.1069 41.6986C49.8134 42.0463 49.6825 42.5749 49.816 43.2246C49.9489 43.8717 50.3387 44.5772 50.9841 45.152C51.6297 45.727 52.3588 46.018 52.9877 46.0606C53.6158 46.103 54.0936 45.9022 54.3839 45.5583C54.6774 45.2106 54.8083 44.682 54.6748 44.0323C54.5419 43.3852 54.1521 42.6797 53.5067 42.1049ZM70.3226 31.4049C69.8756 31.4366 69.4318 31.7052 69.0936 32.2399C68.755 32.7754 68.5558 33.5393 68.6332 34.4038C68.7105 35.268 69.0438 36.0022 69.4827 36.4935C69.9233 36.9868 70.4237 37.1938 70.8757 37.1617C71.3227 37.1299 71.7665 36.8613 72.1046 36.3266C72.4433 35.7911 72.6425 35.0272 72.5651 34.1627C72.4878 33.2985 72.1544 32.5643 71.7156 32.073C71.275 31.5798 70.7746 31.3728 70.3226 31.4049Z" stroke="#135D78" stroke-width="0.6" mask="url(#path-9-outside-1_9790_73565)"/>
<mask id="path-10-outside-2_9790_73565" maskUnits="userSpaceOnUse" x="32.9838" y="52.2322" width="42.5901" height="42.7922" fill="black">
<rect fill="white" x="32.9838" y="52.2322" width="42.5901" height="42.7922"/>
<path fill-rule="evenodd" clip-rule="evenodd" d="M57.1631 72.5031L57.1621 72.5017C56.5234 71.6473 55.9648 71.2815 55.4957 71.1456C55.0331 71.0116 54.5189 71.061 53.8813 71.3189C53.2305 71.5822 52.5212 72.0343 51.7089 72.6184C51.3556 72.8726 50.9924 73.1445 50.6117 73.4295L50.4576 73.5449C50.0242 73.8692 49.5702 74.2071 49.1006 74.5386C46.3776 76.4614 44.7825 78.7715 44.5644 80.568C44.4602 81.4259 44.6668 82.1473 45.1927 82.7258C45.7388 83.3264 46.7166 83.868 48.3283 84.1496C49.3357 84.3256 50.1347 84.316 50.953 84.3039L50.9712 84.3036C51.3106 84.2986 51.6779 84.2932 52.0444 84.3068C53.3897 84.357 54.8952 84.6384 57.3158 85.7637C58.5973 86.3599 59.5068 86.3289 60.128 86.0694C60.7604 85.8052 61.2735 85.2296 61.6035 84.387C62.2804 82.6587 62.0268 80.1982 60.8604 78.6387L60.8597 78.6378C59.5945 76.9435 58.9958 75.8327 58.5352 74.9058C58.475 74.7847 58.4169 74.6661 58.3615 74.5529L58.3611 74.5522C58.3604 74.5507 58.3597 74.5492 58.359 74.5478C58.0046 73.8244 57.7173 73.2426 57.1631 72.5031ZM59.698 73.8974L59.6984 73.8982C59.7541 74.0118 59.8104 74.1268 59.8683 74.2433C59.9627 74.4333 60.0632 74.6315 60.1753 74.8424C60.2005 74.8897 60.2263 74.9377 60.2527 74.9864C60.6427 75.7044 61.1746 76.5715 62.0525 77.7471C62.1981 77.9417 62.3323 78.146 62.4552 78.3581C62.554 78.5287 62.6454 78.7044 62.7296 78.8843C63.6149 80.7762 63.6926 83.1349 62.9896 84.9299C62.5573 86.0336 61.8062 86.9816 60.7018 87.4429C59.5911 87.907 58.2339 87.8327 56.6883 87.1136C54.419 86.0587 53.1073 85.8361 51.9889 85.7944C51.6614 85.7822 51.327 85.7872 50.975 85.7924C50.1505 85.8046 49.2292 85.8182 48.0721 85.616C46.264 85.3001 44.9341 84.6543 44.0913 83.7272C43.2353 82.7856 42.9377 81.615 43.0866 80.3886C43.2688 78.8881 44.1144 77.2948 45.4267 75.8146C45.5382 75.6888 45.6531 75.5638 45.7712 75.4398C46.4851 74.6903 47.3176 73.9752 48.2421 73.3224C48.4312 73.189 48.6181 73.0541 48.8033 72.9186C48.9451 72.8148 49.086 72.7107 49.226 72.6066C49.3396 72.5221 49.4527 72.4375 49.5654 72.3532L49.7195 72.2379C50.0978 71.9546 50.4728 71.6738 50.8398 71.4099C51.4537 70.9683 52.0679 70.557 52.6804 70.2378C52.8949 70.126 53.1091 70.0255 53.323 69.939C53.6074 69.8239 53.8959 69.7316 54.1878 69.6701C54.7515 69.5512 55.3277 69.5471 55.91 69.7158C56.1875 69.7962 56.4576 69.9133 56.7212 70.0678C57.1603 70.3253 57.5814 70.6867 57.9886 71.1555C58.1117 71.2973 58.2336 71.4489 58.3544 71.6104C58.9997 72.4715 59.3382 73.1628 59.698 73.8974ZM57.7485 68.9554C57.5145 68.6152 57.3407 68.2265 57.2281 67.814C56.9593 66.8298 57.0221 65.6703 57.449 64.5571C57.8758 63.4439 58.6023 62.5448 59.4588 62.0026C60.3157 61.4602 61.3389 61.2586 62.2925 61.636C63.2448 62.0129 63.861 62.8617 64.1296 63.8454C64.3984 64.8297 64.3356 65.9891 63.9087 67.1023C63.4819 68.2155 62.7554 69.1146 61.8989 69.6568C61.042 70.1992 60.0188 70.4008 59.0652 70.0234C59.0134 70.0029 58.9626 69.981 58.9128 69.9577C58.4309 69.7329 58.0422 69.3824 57.7485 68.9554ZM47.9599 71.6911C48.1743 70.9184 48.2063 70.048 48.0245 69.1721C47.7844 68.0154 47.208 67.0256 46.4419 66.3683C45.6746 65.71 44.6901 65.3686 43.685 65.5978C42.6823 65.8264 41.9285 66.5615 41.4954 67.4862C41.0621 68.4112 40.9293 69.5585 41.1694 70.7152C41.4095 71.8719 41.9859 72.8617 42.752 73.519C43.3236 74.0094 44.0158 74.3239 44.7472 74.3577C44.9976 74.3693 45.2526 74.348 45.5089 74.2895C46.4789 74.0683 47.2159 73.3733 47.6551 72.4911C47.6699 72.4613 47.6844 72.4312 47.6985 72.4011C47.8037 72.1765 47.8912 71.9388 47.9599 71.6911ZM52.2311 68.7974C52.4307 68.7769 52.6244 68.7348 52.8112 68.6738C53.0905 68.5824 53.3542 68.4485 53.5985 68.2804C53.9117 68.0649 54.1929 67.7933 54.4342 67.4832C55.0606 66.6782 55.4488 65.5829 55.4844 64.389C55.52 63.1952 55.1977 62.0828 54.6185 61.2493C54.0391 60.4157 53.1749 59.8307 52.1504 59.8084C51.1269 59.7862 50.2321 60.3318 49.606 61.1363C48.9796 61.9413 48.5914 63.0367 48.5558 64.2305C48.5202 65.4243 48.8425 66.5368 49.4217 67.3702C50.0011 68.2038 50.8653 68.7889 51.8898 68.8111C52.0053 68.8136 52.1191 68.8089 52.2311 68.7974ZM63.7985 77.7088C64.4921 77.9186 65.2421 77.8572 65.9397 77.5933C66.8838 77.2362 67.7628 76.5019 68.3825 75.4962C69.0022 74.4903 69.268 73.3664 69.1756 72.3492C69.0833 71.3322 68.6249 70.3844 67.76 69.8279C66.8931 69.2702 65.8511 69.2559 64.9055 69.6135C63.9614 69.9706 63.0823 70.705 62.4627 71.7107C61.9266 72.5809 61.6553 73.5395 61.6517 74.4409C61.6511 74.5814 61.6571 74.7205 61.6695 74.8577C61.7516 75.7616 62.1228 76.6109 62.8116 77.1792L62.8122 77.1797C62.8982 77.2507 62.9892 77.3172 63.0851 77.3789C63.3125 77.5252 63.552 77.6341 63.7985 77.7088ZM53.9965 64.3446C54.0236 63.4348 53.7744 62.6433 53.396 62.0989C53.0166 61.5529 52.5534 61.3062 52.1181 61.2967C51.6803 61.2872 51.1968 61.516 50.7809 62.0505C50.3671 62.5823 50.0709 63.3653 50.0438 64.2749C50.0166 65.1848 50.2658 65.9763 50.6442 66.5207C51.0236 67.0666 51.4868 67.3134 51.9221 67.3228C52.3599 67.3323 52.8434 67.1035 53.2593 66.569C53.6731 66.0372 53.9693 65.2543 53.9965 64.3446ZM61.7447 63.0202C61.3367 62.8587 60.8137 62.9068 60.255 63.2605C59.6973 63.6134 59.1635 64.2435 58.8389 65.09C58.5144 65.9363 58.4865 66.7713 58.6641 67.4218C58.8427 68.0757 59.2021 68.4766 59.613 68.6392C60.021 68.8007 60.544 68.7526 61.1027 68.3989C61.6604 68.046 62.1942 67.4159 62.5188 66.5694C62.8433 65.7231 62.8712 64.8881 62.6936 64.2376C62.515 63.5837 62.1556 63.1828 61.7447 63.0202ZM46.5669 69.4746C46.3868 68.607 45.9645 67.9202 45.4726 67.4981C44.9814 67.0767 44.4652 66.9467 44.0159 67.0492C43.5618 67.1527 43.1308 67.5043 42.8434 68.1177C42.5573 68.7286 42.4469 69.5453 42.627 70.4127C42.8071 71.2803 43.2294 71.9671 43.7213 72.3892C44.2125 72.8106 44.7288 72.9406 45.178 72.8381C45.6322 72.7346 46.0631 72.383 46.3505 71.7696C46.6366 71.1587 46.747 70.3419 46.5669 69.4746ZM66.9546 71.0798C66.5671 70.8305 66.0375 70.7769 65.4321 71.0059C64.8259 71.2352 64.1949 71.7371 63.7301 72.4915C63.2655 73.2457 63.0911 74.0513 63.1521 74.7231C63.2133 75.3977 63.4988 75.875 63.8906 76.127C64.2781 76.3763 64.8077 76.4299 65.413 76.201C66.0193 75.9717 66.6503 75.4698 67.1151 74.7153C67.5797 73.9611 67.7541 73.1556 67.6931 72.4838C67.6319 71.8092 67.3464 71.3319 66.9546 71.0798Z"/>
</mask>
<path fill-rule="evenodd" clip-rule="evenodd" d="M57.1631 72.5031L57.1621 72.5017C56.5234 71.6473 55.9648 71.2815 55.4957 71.1456C55.0331 71.0116 54.5189 71.061 53.8813 71.3189C53.2305 71.5822 52.5212 72.0343 51.7089 72.6184C51.3556 72.8726 50.9924 73.1445 50.6117 73.4295L50.4576 73.5449C50.0242 73.8692 49.5702 74.2071 49.1006 74.5386C46.3776 76.4614 44.7825 78.7715 44.5644 80.568C44.4602 81.4259 44.6668 82.1473 45.1927 82.7258C45.7388 83.3264 46.7166 83.868 48.3283 84.1496C49.3357 84.3256 50.1347 84.316 50.953 84.3039L50.9712 84.3036C51.3106 84.2986 51.6779 84.2932 52.0444 84.3068C53.3897 84.357 54.8952 84.6384 57.3158 85.7637C58.5973 86.3599 59.5068 86.3289 60.128 86.0694C60.7604 85.8052 61.2735 85.2296 61.6035 84.387C62.2804 82.6587 62.0268 80.1982 60.8604 78.6387L60.8597 78.6378C59.5945 76.9435 58.9958 75.8327 58.5352 74.9058C58.475 74.7847 58.4169 74.6661 58.3615 74.5529L58.3611 74.5522C58.3604 74.5507 58.3597 74.5492 58.359 74.5478C58.0046 73.8244 57.7173 73.2426 57.1631 72.5031ZM59.698 73.8974L59.6984 73.8982C59.7541 74.0118 59.8104 74.1268 59.8683 74.2433C59.9627 74.4333 60.0632 74.6315 60.1753 74.8424C60.2005 74.8897 60.2263 74.9377 60.2527 74.9864C60.6427 75.7044 61.1746 76.5715 62.0525 77.7471C62.1981 77.9417 62.3323 78.146 62.4552 78.3581C62.554 78.5287 62.6454 78.7044 62.7296 78.8843C63.6149 80.7762 63.6926 83.1349 62.9896 84.9299C62.5573 86.0336 61.8062 86.9816 60.7018 87.4429C59.5911 87.907 58.2339 87.8327 56.6883 87.1136C54.419 86.0587 53.1073 85.8361 51.9889 85.7944C51.6614 85.7822 51.327 85.7872 50.975 85.7924C50.1505 85.8046 49.2292 85.8182 48.0721 85.616C46.264 85.3001 44.9341 84.6543 44.0913 83.7272C43.2353 82.7856 42.9377 81.615 43.0866 80.3886C43.2688 78.8881 44.1144 77.2948 45.4267 75.8146C45.5382 75.6888 45.6531 75.5638 45.7712 75.4398C46.4851 74.6903 47.3176 73.9752 48.2421 73.3224C48.4312 73.189 48.6181 73.0541 48.8033 72.9186C48.9451 72.8148 49.086 72.7107 49.226 72.6066C49.3396 72.5221 49.4527 72.4375 49.5654 72.3532L49.7195 72.2379C50.0978 71.9546 50.4728 71.6738 50.8398 71.4099C51.4537 70.9683 52.0679 70.557 52.6804 70.2378C52.8949 70.126 53.1091 70.0255 53.323 69.939C53.6074 69.8239 53.8959 69.7316 54.1878 69.6701C54.7515 69.5512 55.3277 69.5471 55.91 69.7158C56.1875 69.7962 56.4576 69.9133 56.7212 70.0678C57.1603 70.3253 57.5814 70.6867 57.9886 71.1555C58.1117 71.2973 58.2336 71.4489 58.3544 71.6104C58.9997 72.4715 59.3382 73.1628 59.698 73.8974ZM57.7485 68.9554C57.5145 68.6152 57.3407 68.2265 57.2281 67.814C56.9593 66.8298 57.0221 65.6703 57.449 64.5571C57.8758 63.4439 58.6023 62.5448 59.4588 62.0026C60.3157 61.4602 61.3389 61.2586 62.2925 61.636C63.2448 62.0129 63.861 62.8617 64.1296 63.8454C64.3984 64.8297 64.3356 65.9891 63.9087 67.1023C63.4819 68.2155 62.7554 69.1146 61.8989 69.6568C61.042 70.1992 60.0188 70.4008 59.0652 70.0234C59.0134 70.0029 58.9626 69.981 58.9128 69.9577C58.4309 69.7329 58.0422 69.3824 57.7485 68.9554ZM47.9599 71.6911C48.1743 70.9184 48.2063 70.048 48.0245 69.1721C47.7844 68.0154 47.208 67.0256 46.4419 66.3683C45.6746 65.71 44.6901 65.3686 43.685 65.5978C42.6823 65.8264 41.9285 66.5615 41.4954 67.4862C41.0621 68.4112 40.9293 69.5585 41.1694 70.7152C41.4095 71.8719 41.9859 72.8617 42.752 73.519C43.3236 74.0094 44.0158 74.3239 44.7472 74.3577C44.9976 74.3693 45.2526 74.348 45.5089 74.2895C46.4789 74.0683 47.2159 73.3733 47.6551 72.4911C47.6699 72.4613 47.6844 72.4312 47.6985 72.4011C47.8037 72.1765 47.8912 71.9388 47.9599 71.6911ZM52.2311 68.7974C52.4307 68.7769 52.6244 68.7348 52.8112 68.6738C53.0905 68.5824 53.3542 68.4485 53.5985 68.2804C53.9117 68.0649 54.1929 67.7933 54.4342 67.4832C55.0606 66.6782 55.4488 65.5829 55.4844 64.389C55.52 63.1952 55.1977 62.0828 54.6185 61.2493C54.0391 60.4157 53.1749 59.8307 52.1504 59.8084C51.1269 59.7862 50.2321 60.3318 49.606 61.1363C48.9796 61.9413 48.5914 63.0367 48.5558 64.2305C48.5202 65.4243 48.8425 66.5368 49.4217 67.3702C50.0011 68.2038 50.8653 68.7889 51.8898 68.8111C52.0053 68.8136 52.1191 68.8089 52.2311 68.7974ZM63.7985 77.7088C64.4921 77.9186 65.2421 77.8572 65.9397 77.5933C66.8838 77.2362 67.7628 76.5019 68.3825 75.4962C69.0022 74.4903 69.268 73.3664 69.1756 72.3492C69.0833 71.3322 68.6249 70.3844 67.76 69.8279C66.8931 69.2702 65.8511 69.2559 64.9055 69.6135C63.9614 69.9706 63.0823 70.705 62.4627 71.7107C61.9266 72.5809 61.6553 73.5395 61.6517 74.4409C61.6511 74.5814 61.6571 74.7205 61.6695 74.8577C61.7516 75.7616 62.1228 76.6109 62.8116 77.1792L62.8122 77.1797C62.8982 77.2507 62.9892 77.3172 63.0851 77.3789C63.3125 77.5252 63.552 77.6341 63.7985 77.7088ZM53.9965 64.3446C54.0236 63.4348 53.7744 62.6433 53.396 62.0989C53.0166 61.5529 52.5534 61.3062 52.1181 61.2967C51.6803 61.2872 51.1968 61.516 50.7809 62.0505C50.3671 62.5823 50.0709 63.3653 50.0438 64.2749C50.0166 65.1848 50.2658 65.9763 50.6442 66.5207C51.0236 67.0666 51.4868 67.3134 51.9221 67.3228C52.3599 67.3323 52.8434 67.1035 53.2593 66.569C53.6731 66.0372 53.9693 65.2543 53.9965 64.3446ZM61.7447 63.0202C61.3367 62.8587 60.8137 62.9068 60.255 63.2605C59.6973 63.6134 59.1635 64.2435 58.8389 65.09C58.5144 65.9363 58.4865 66.7713 58.6641 67.4218C58.8427 68.0757 59.2021 68.4766 59.613 68.6392C60.021 68.8007 60.544 68.7526 61.1027 68.3989C61.6604 68.046 62.1942 67.4159 62.5188 66.5694C62.8433 65.7231 62.8712 64.8881 62.6936 64.2376C62.515 63.5837 62.1556 63.1828 61.7447 63.0202ZM46.5669 69.4746C46.3868 68.607 45.9645 67.9202 45.4726 67.4981C44.9814 67.0767 44.4652 66.9467 44.0159 67.0492C43.5618 67.1527 43.1308 67.5043 42.8434 68.1177C42.5573 68.7286 42.4469 69.5453 42.627 70.4127C42.8071 71.2803 43.2294 71.9671 43.7213 72.3892C44.2125 72.8106 44.7288 72.9406 45.178 72.8381C45.6322 72.7346 46.0631 72.383 46.3505 71.7696C46.6366 71.1587 46.747 70.3419 46.5669 69.4746ZM66.9546 71.0798C66.5671 70.8305 66.0375 70.7769 65.4321 71.0059C64.8259 71.2352 64.1949 71.7371 63.7301 72.4915C63.2655 73.2457 63.0911 74.0513 63.1521 74.7231C63.2133 75.3977 63.4988 75.875 63.8906 76.127C64.2781 76.3763 64.8077 76.4299 65.413 76.201C66.0193 75.9717 66.6503 75.4698 67.1151 74.7153C67.5797 73.9611 67.7541 73.1556 67.6931 72.4838C67.6319 71.8092 67.3464 71.3319 66.9546 71.0798Z" fill="#135D78"/>
<path fill-rule="evenodd" clip-rule="evenodd" d="M57.1631 72.5031L57.1621 72.5017C56.5234 71.6473 55.9648 71.2815 55.4957 71.1456C55.0331 71.0116 54.5189 71.061 53.8813 71.3189C53.2305 71.5822 52.5212 72.0343 51.7089 72.6184C51.3556 72.8726 50.9924 73.1445 50.6117 73.4295L50.4576 73.5449C50.0242 73.8692 49.5702 74.2071 49.1006 74.5386C46.3776 76.4614 44.7825 78.7715 44.5644 80.568C44.4602 81.4259 44.6668 82.1473 45.1927 82.7258C45.7388 83.3264 46.7166 83.868 48.3283 84.1496C49.3357 84.3256 50.1347 84.316 50.953 84.3039L50.9712 84.3036C51.3106 84.2986 51.6779 84.2932 52.0444 84.3068C53.3897 84.357 54.8952 84.6384 57.3158 85.7637C58.5973 86.3599 59.5068 86.3289 60.128 86.0694C60.7604 85.8052 61.2735 85.2296 61.6035 84.387C62.2804 82.6587 62.0268 80.1982 60.8604 78.6387L60.8597 78.6378C59.5945 76.9435 58.9958 75.8327 58.5352 74.9058C58.475 74.7847 58.4169 74.6661 58.3615 74.5529L58.3611 74.5522C58.3604 74.5507 58.3597 74.5492 58.359 74.5478C58.0046 73.8244 57.7173 73.2426 57.1631 72.5031ZM59.698 73.8974L59.6984 73.8982C59.7541 74.0118 59.8104 74.1268 59.8683 74.2433C59.9627 74.4333 60.0632 74.6315 60.1753 74.8424C60.2005 74.8897 60.2263 74.9377 60.2527 74.9864C60.6427 75.7044 61.1746 76.5715 62.0525 77.7471C62.1981 77.9417 62.3323 78.146 62.4552 78.3581C62.554 78.5287 62.6454 78.7044 62.7296 78.8843C63.6149 80.7762 63.6926 83.1349 62.9896 84.9299C62.5573 86.0336 61.8062 86.9816 60.7018 87.4429C59.5911 87.907 58.2339 87.8327 56.6883 87.1136C54.419 86.0587 53.1073 85.8361 51.9889 85.7944C51.6614 85.7822 51.327 85.7872 50.975 85.7924C50.1505 85.8046 49.2292 85.8182 48.0721 85.616C46.264 85.3001 44.9341 84.6543 44.0913 83.7272C43.2353 82.7856 42.9377 81.615 43.0866 80.3886C43.2688 78.8881 44.1144 77.2948 45.4267 75.8146C45.5382 75.6888 45.6531 75.5638 45.7712 75.4398C46.4851 74.6903 47.3176 73.9752 48.2421 73.3224C48.4312 73.189 48.6181 73.0541 48.8033 72.9186C48.9451 72.8148 49.086 72.7107 49.226 72.6066C49.3396 72.5221 49.4527 72.4375 49.5654 72.3532L49.7195 72.2379C50.0978 71.9546 50.4728 71.6738 50.8398 71.4099C51.4537 70.9683 52.0679 70.557 52.6804 70.2378C52.8949 70.126 53.1091 70.0255 53.323 69.939C53.6074 69.8239 53.8959 69.7316 54.1878 69.6701C54.7515 69.5512 55.3277 69.5471 55.91 69.7158C56.1875 69.7962 56.4576 69.9133 56.7212 70.0678C57.1603 70.3253 57.5814 70.6867 57.9886 71.1555C58.1117 71.2973 58.2336 71.4489 58.3544 71.6104C58.9997 72.4715 59.3382 73.1628 59.698 73.8974ZM57.7485 68.9554C57.5145 68.6152 57.3407 68.2265 57.2281 67.814C56.9593 66.8298 57.0221 65.6703 57.449 64.5571C57.8758 63.4439 58.6023 62.5448 59.4588 62.0026C60.3157 61.4602 61.3389 61.2586 62.2925 61.636C63.2448 62.0129 63.861 62.8617 64.1296 63.8454C64.3984 64.8297 64.3356 65.9891 63.9087 67.1023C63.4819 68.2155 62.7554 69.1146 61.8989 69.6568C61.042 70.1992 60.0188 70.4008 59.0652 70.0234C59.0134 70.0029 58.9626 69.981 58.9128 69.9577C58.4309 69.7329 58.0422 69.3824 57.7485 68.9554ZM47.9599 71.6911C48.1743 70.9184 48.2063 70.048 48.0245 69.1721C47.7844 68.0154 47.208 67.0256 46.4419 66.3683C45.6746 65.71 44.6901 65.3686 43.685 65.5978C42.6823 65.8264 41.9285 66.5615 41.4954 67.4862C41.0621 68.4112 40.9293 69.5585 41.1694 70.7152C41.4095 71.8719 41.9859 72.8617 42.752 73.519C43.3236 74.0094 44.0158 74.3239 44.7472 74.3577C44.9976 74.3693 45.2526 74.348 45.5089 74.2895C46.4789 74.0683 47.2159 73.3733 47.6551 72.4911C47.6699 72.4613 47.6844 72.4312 47.6985 72.4011C47.8037 72.1765 47.8912 71.9388 47.9599 71.6911ZM52.2311 68.7974C52.4307 68.7769 52.6244 68.7348 52.8112 68.6738C53.0905 68.5824 53.3542 68.4485 53.5985 68.2804C53.9117 68.0649 54.1929 67.7933 54.4342 67.4832C55.0606 66.6782 55.4488 65.5829 55.4844 64.389C55.52 63.1952 55.1977 62.0828 54.6185 61.2493C54.0391 60.4157 53.1749 59.8307 52.1504 59.8084C51.1269 59.7862 50.2321 60.3318 49.606 61.1363C48.9796 61.9413 48.5914 63.0367 48.5558 64.2305C48.5202 65.4243 48.8425 66.5368 49.4217 67.3702C50.0011 68.2038 50.8653 68.7889 51.8898 68.8111C52.0053 68.8136 52.1191 68.8089 52.2311 68.7974ZM63.7985 77.7088C64.4921 77.9186 65.2421 77.8572 65.9397 77.5933C66.8838 77.2362 67.7628 76.5019 68.3825 75.4962C69.0022 74.4903 69.268 73.3664 69.1756 72.3492C69.0833 71.3322 68.6249 70.3844 67.76 69.8279C66.8931 69.2702 65.8511 69.2559 64.9055 69.6135C63.9614 69.9706 63.0823 70.705 62.4627 71.7107C61.9266 72.5809 61.6553 73.5395 61.6517 74.4409C61.6511 74.5814 61.6571 74.7205 61.6695 74.8577C61.7516 75.7616 62.1228 76.6109 62.8116 77.1792L62.8122 77.1797C62.8982 77.2507 62.9892 77.3172 63.0851 77.3789C63.3125 77.5252 63.552 77.6341 63.7985 77.7088ZM53.9965 64.3446C54.0236 63.4348 53.7744 62.6433 53.396 62.0989C53.0166 61.5529 52.5534 61.3062 52.1181 61.2967C51.6803 61.2872 51.1968 61.516 50.7809 62.0505C50.3671 62.5823 50.0709 63.3653 50.0438 64.2749C50.0166 65.1848 50.2658 65.9763 50.6442 66.5207C51.0236 67.0666 51.4868 67.3134 51.9221 67.3228C52.3599 67.3323 52.8434 67.1035 53.2593 66.569C53.6731 66.0372 53.9693 65.2543 53.9965 64.3446ZM61.7447 63.0202C61.3367 62.8587 60.8137 62.9068 60.255 63.2605C59.6973 63.6134 59.1635 64.2435 58.8389 65.09C58.5144 65.9363 58.4865 66.7713 58.6641 67.4218C58.8427 68.0757 59.2021 68.4766 59.613 68.6392C60.021 68.8007 60.544 68.7526 61.1027 68.3989C61.6604 68.046 62.1942 67.4159 62.5188 66.5694C62.8433 65.7231 62.8712 64.8881 62.6936 64.2376C62.515 63.5837 62.1556 63.1828 61.7447 63.0202ZM46.5669 69.4746C46.3868 68.607 45.9645 67.9202 45.4726 67.4981C44.9814 67.0767 44.4652 66.9467 44.0159 67.0492C43.5618 67.1527 43.1308 67.5043 42.8434 68.1177C42.5573 68.7286 42.4469 69.5453 42.627 70.4127C42.8071 71.2803 43.2294 71.9671 43.7213 72.3892C44.2125 72.8106 44.7288 72.9406 45.178 72.8381C45.6322 72.7346 46.0631 72.383 46.3505 71.7696C46.6366 71.1587 46.747 70.3419 46.5669 69.4746ZM66.9546 71.0798C66.5671 70.8305 66.0375 70.7769 65.4321 71.0059C64.8259 71.2352 64.1949 71.7371 63.7301 72.4915C63.2655 73.2457 63.0911 74.0513 63.1521 74.7231C63.2133 75.3977 63.4988 75.875 63.8906 76.127C64.2781 76.3763 64.8077 76.4299 65.413 76.201C66.0193 75.9717 66.6503 75.4698 67.1151 74.7153C67.5797 73.9611 67.7541 73.1556 67.6931 72.4838C67.6319 71.8092 67.3464 71.3319 66.9546 71.0798Z" stroke="#135D78" stroke-width="0.6" mask="url(#path-10-outside-2_9790_73565)"/>
</svg>
