<svg width="87" height="66" viewBox="0 0 87 66" fill="none" xmlns="http://www.w3.org/2000/svg">
<path fill-rule="evenodd" clip-rule="evenodd" d="M4.27293 27.6439C3.67739 27.6439 3.19268 28.1286 3.19268 28.7242V61.9012C3.19268 62.4967 3.67739 62.9815 4.27293 62.9815H82.8464C83.4419 62.9815 83.9276 62.4967 83.9276 61.9012V28.7242C83.9276 28.1286 83.4419 27.6439 82.8464 27.6439H4.27293ZM82.8465 65.6743H4.27311C2.19236 65.6743 0.5 63.9819 0.5 61.9012V28.7242C0.5 26.6434 2.19236 24.951 4.27311 24.951H82.8465C84.9273 24.951 86.6207 26.6434 86.6207 28.7242V61.9012C86.6207 63.9819 84.9273 65.6743 82.8465 65.6743Z" fill="#135D78"/>
<path fill-rule="evenodd" clip-rule="evenodd" d="M85.2743 30.0703C84.5306 30.0703 83.9278 29.4675 83.9278 28.7239C83.9278 27.3868 83.6099 26.0497 83.0071 24.8565L72.478 4.00761C72.0793 3.21839 71.2818 2.7285 70.3983 2.7285H16.7224C15.8389 2.7285 15.0414 3.21839 14.6427 4.00864L4.11464 24.8565C3.51186 26.0497 3.19286 27.3868 3.19286 28.7239C3.19286 29.4675 2.59007 30.0703 1.84643 30.0703C1.10279 30.0703 0.5 29.4675 0.5 28.7239C0.5 26.9673 0.919464 25.2108 1.71075 23.6427L12.2388 2.79375C13.0995 1.09207 14.8177 0.0356445 16.7224 0.0356445H70.3983C72.305 0.0356445 74.0223 1.09207 74.8809 2.79375L85.4099 23.6427C86.2023 25.2108 86.6207 26.9673 86.6207 28.7239C86.6207 29.4675 86.0179 30.0703 85.2743 30.0703Z" fill="#135D78"/>
<path fill-rule="evenodd" clip-rule="evenodd" d="M85.2743 33.1017H1.84643C1.10279 33.1017 0.5 32.4989 0.5 31.7552C0.5 31.0116 1.10279 30.4088 1.84643 30.4088H85.2743C86.0179 30.4088 86.6207 31.0116 86.6207 31.7552C86.6207 32.4989 86.0179 33.1017 85.2743 33.1017Z" fill="#135D78"/>
<path fill-rule="evenodd" clip-rule="evenodd" d="M85.2743 60.2153H1.84643C1.10279 60.2153 0.5 59.6125 0.5 58.8689C0.5 58.1252 1.10279 57.5225 1.84643 57.5225H85.2743C86.0179 57.5225 86.6207 58.1252 86.6207 58.8689C86.6207 59.6125 86.0179 60.2153 85.2743 60.2153Z" fill="#135D78"/>
<path fill-rule="evenodd" clip-rule="evenodd" d="M28.9612 37.4366L9.53017 54.4441C9.13452 54.79 8.49342 54.79 8.09674 54.4441C7.70213 54.0971 7.70213 53.5358 8.09674 53.1898L27.5278 36.1813C27.9245 35.8354 28.5656 35.8354 28.9612 36.1813C29.3579 36.5283 29.3579 37.0896 28.9612 37.4366Z" fill="#135D78"/>
<path fill-rule="evenodd" clip-rule="evenodd" d="M28.2476 36.3555C28.1151 36.3555 27.9825 36.4001 27.881 36.4891L8.45098 53.4966C8.24798 53.6727 8.24798 53.9616 8.45098 54.1377C8.65191 54.3148 8.98023 54.3169 9.18219 54.1377L28.6143 37.1302C28.8162 36.9542 28.8162 36.6652 28.6143 36.4891C28.5138 36.4001 28.3802 36.3555 28.2476 36.3555ZM8.81659 55.1372C8.43027 55.1372 8.04292 55.0087 7.74981 54.7519C7.16152 54.2361 7.16152 53.3982 7.74981 52.8824L27.1808 35.875C27.7702 35.3602 28.7251 35.3602 29.3155 35.875C29.9037 36.3907 29.9037 37.2286 29.3155 37.7444L9.88442 54.7519C9.58924 55.0087 9.20292 55.1372 8.81659 55.1372Z" fill="#135D78"/>
<path fill-rule="evenodd" clip-rule="evenodd" d="M53.9932 37.4366L34.5622 54.4441C34.1655 54.79 33.5244 54.79 33.1288 54.4441C32.7331 54.0971 32.7331 53.5358 33.1288 53.1898L52.5598 36.1813C52.9554 35.8354 53.5976 35.8354 53.9932 36.1813C54.3889 36.5283 54.3889 37.0896 53.9932 37.4366Z" fill="#135D78"/>
<path fill-rule="evenodd" clip-rule="evenodd" d="M53.2765 36.3555C53.1439 36.3555 53.0113 36.4001 52.9098 36.4891L33.4798 53.4966C33.2768 53.6727 33.2768 53.9616 33.4798 54.1377C33.5762 54.2226 33.7067 54.2703 33.8465 54.2703C33.9842 54.2703 34.1147 54.2226 34.2111 54.1387L53.6431 37.1302C53.8461 36.9542 53.8461 36.6652 53.6431 36.4891C53.5427 36.4001 53.4101 36.3555 53.2765 36.3555ZM33.8461 55.1372C33.4433 55.1372 33.0642 55.0004 32.7783 54.7519C32.1911 54.2361 32.1911 53.3982 32.7783 52.8824L52.2094 35.875C52.7997 35.3602 53.7536 35.3602 54.344 35.875C54.9323 36.3907 54.9323 37.2286 54.344 37.7444L34.9129 54.7519C34.6281 54.9994 34.2501 55.1372 33.8472 55.1372H33.8461Z" fill="#135D78"/>
<path fill-rule="evenodd" clip-rule="evenodd" d="M79.0217 37.4366L59.5907 54.4441C59.1951 54.79 58.554 54.79 58.1573 54.4441C57.7627 54.0971 57.7627 53.5358 58.1573 53.1898L77.5883 36.1813C77.985 35.8354 78.6261 35.8354 79.0217 36.1813C79.4184 36.5283 79.4184 37.0896 79.0217 37.4366Z" fill="#135D78"/>
<path fill-rule="evenodd" clip-rule="evenodd" d="M78.3044 36.3555C78.1708 36.3555 78.0382 36.4001 77.9378 36.4891L58.5078 53.4966C58.3048 53.6727 58.3048 53.9616 58.5078 54.1377C58.7087 54.3158 59.0381 54.3158 59.24 54.1377L78.6711 37.1302C78.873 36.9542 78.873 36.6652 78.6711 36.4891C78.5696 36.4001 78.437 36.3555 78.3044 36.3555ZM58.8735 55.1372C58.4861 55.1372 58.1009 55.0087 57.8057 54.7519C57.2184 54.2361 57.2184 53.3982 57.8057 52.8824L77.2367 35.875C77.8271 35.3602 78.781 35.3602 79.3713 35.875C79.9596 36.3907 79.9596 37.2286 79.3713 37.7444L59.9413 54.7519C59.6451 55.0087 59.2598 55.1372 58.8735 55.1372Z" fill="#135D78"/>
<path fill-rule="evenodd" clip-rule="evenodd" d="M58.1581 37.4366L77.5891 54.4441C77.9858 54.79 78.6269 54.79 79.0225 54.4441C79.4182 54.0971 79.4182 53.5358 79.0225 53.1898L59.5915 36.1813C59.1958 35.8354 58.5547 35.8354 58.1581 36.1813C57.7624 36.5283 57.7624 37.0896 58.1581 37.4366Z" fill="#135D78"/>
<path fill-rule="evenodd" clip-rule="evenodd" d="M58.874 36.3555C58.7404 36.3555 58.6078 36.4001 58.5074 36.4891C58.3054 36.6652 58.3054 36.9542 58.5074 37.1302L77.9374 54.1377C78.1393 54.3158 78.4697 54.3158 78.6706 54.1377C78.8736 53.9616 78.8736 53.6727 78.6706 53.4966L59.2406 36.4891C59.1391 36.4001 59.0066 36.3555 58.874 36.3555ZM78.3053 55.1372C77.9179 55.1372 77.5327 55.0087 77.2364 54.7519L57.8064 37.7444C57.2182 37.2286 57.2182 36.3907 57.8064 35.875C58.3968 35.3602 59.3507 35.3602 59.9411 35.875L79.3721 52.8824C79.9593 53.3982 79.9593 54.2361 79.3721 54.7519C79.0769 55.0087 78.6916 55.1372 78.3053 55.1372Z" fill="#135D78"/>
<path fill-rule="evenodd" clip-rule="evenodd" d="M33.1295 37.4366L52.5606 54.4441C52.9562 54.79 53.5984 54.79 53.994 54.4441C54.3886 54.0971 54.3886 53.5358 53.994 53.1898L34.563 36.1813C34.1663 35.8354 33.5252 35.8354 33.1295 36.1813C32.7329 36.5283 32.7329 37.0896 33.1295 37.4366Z" fill="#135D78"/>
<path fill-rule="evenodd" clip-rule="evenodd" d="M33.845 36.3554C33.7051 36.3554 33.5746 36.403 33.4783 36.489C33.2753 36.6651 33.2753 36.954 33.4783 37.1301L52.9083 54.1376C53.1103 54.3157 53.4407 54.3157 53.6406 54.1376C53.8446 53.9615 53.8446 53.6725 53.6406 53.4965L34.2095 36.489C34.1132 36.403 33.9827 36.3554 33.845 36.3554ZM53.275 55.1371C52.8887 55.1371 52.5034 55.0086 52.2072 54.7518L32.7772 37.7443C32.1889 37.2285 32.1889 36.3906 32.7772 35.8748C33.062 35.6252 33.441 35.4885 33.845 35.4885H33.846C34.2489 35.4885 34.6269 35.6263 34.9107 35.8759L54.3428 52.8823C54.93 53.3981 54.93 54.236 54.3428 54.7518C54.0476 55.0086 53.6623 55.1371 53.275 55.1371Z" fill="#135D78"/>
<path fill-rule="evenodd" clip-rule="evenodd" d="M8.09751 37.4366L27.5285 54.4441C27.9252 54.79 28.5663 54.79 28.962 54.4441C29.3576 54.0971 29.3576 53.5358 28.962 53.1898L9.53094 36.1813C9.1353 35.8354 8.49419 35.8354 8.09751 36.1813C7.70187 36.5283 7.70187 37.0896 8.09751 37.4366Z" fill="#135D78"/>
<path fill-rule="evenodd" clip-rule="evenodd" d="M8.8142 36.3555C8.68267 36.3555 8.55009 36.4 8.44859 36.4891C8.24663 36.6652 8.24663 36.9542 8.44859 37.1302L27.8796 54.1377C28.0816 54.3158 28.411 54.3158 28.6119 54.1377C28.8149 53.9616 28.8149 53.6727 28.6119 53.4966L9.18084 36.4891C9.08038 36.4 8.94677 36.3555 8.8142 36.3555ZM28.2465 55.1371C27.8601 55.1371 27.4738 55.0087 27.1786 54.7519L7.74863 37.7444C7.15931 37.2286 7.15931 36.3907 7.74863 35.8749C8.33485 35.3612 9.29288 35.3602 9.8822 35.8749L29.3143 52.8824C29.9015 53.3982 29.9015 54.2361 29.3143 54.7519C29.0191 55.0087 28.6338 55.1371 28.2465 55.1371Z" fill="#135D78"/>
</svg>
