<svg width="88" height="79" viewBox="0 0 88 79" fill="none" xmlns="http://www.w3.org/2000/svg">
<path fill-rule="evenodd" clip-rule="evenodd" d="M65.3404 35.9638C65.686 31.876 66.9223 27.6828 69.2285 22.7667C71.2772 18.3996 73.8713 14.3142 76.942 10.621C77.1271 10.3992 77.6552 9.8846 78.2164 9.33932L78.5987 8.96681C79.084 8.49505 79.0938 7.7194 78.6195 7.23416C78.1478 6.74892 77.3709 6.74157 76.8881 7.21333L76.507 7.58216C75.8466 8.22425 75.3246 8.73154 75.0574 9.05504C71.8532 12.9075 69.1464 17.1705 67.0093 21.7252C64.577 26.9121 63.2708 31.3711 62.8983 35.7567C62.663 38.5162 61.6484 42.2829 59.5592 43.8109C58.6916 44.4469 57.704 44.627 56.5436 44.3636C54.4703 43.8942 53.2878 42.1506 51.9179 40.1336C50.559 38.1326 49.0212 35.8633 46.3315 34.8744C45.3329 34.5068 44.1541 34.3402 43.012 34.1784C41.3113 33.9395 39.5516 33.6907 38.7503 32.8281C37.7798 31.7841 36.3523 29.7451 37.6928 27.8164C39.6901 24.938 43.9776 23.5559 48.3141 22.4886C53.0955 21.3135 57.1477 16.7233 60.4047 13.035C60.8213 12.5608 61.2269 12.1037 61.6141 11.6736C62.3604 10.8465 63.0992 10.0476 63.8271 9.25967C66.0193 6.88739 68.0889 4.64499 70.1058 1.96147C70.5114 1.42109 70.4023 0.652797 69.8607 0.24598C69.3204 -0.160837 68.5508 -0.0517804 68.1452 0.489825C66.2043 3.07409 64.1751 5.27115 62.0271 7.59687C61.2918 8.39212 60.5481 9.19718 59.7945 10.0316C59.3999 10.4691 58.9906 10.9323 58.5679 11.4126C55.5364 14.8448 51.766 19.1164 47.7296 20.1089C42.9263 21.2902 38.1425 22.8709 35.6795 26.4183C34.0106 28.8212 34.486 31.8417 36.9551 34.4958C38.3496 35.9956 40.6447 36.3203 42.6702 36.6059C43.7301 36.7553 44.7324 36.8963 45.486 37.1744C47.4356 37.8912 48.6266 39.6484 49.8912 41.5097C51.4118 43.7509 52.9852 46.0705 56.0008 46.7542C56.5314 46.8743 57.0448 46.9343 57.5447 46.9343C58.8056 46.9343 59.9648 46.5508 61.0076 45.7886C63.7573 43.7754 65.05 39.3935 65.3404 35.9638Z" fill="#135D78"/>
<path fill-rule="evenodd" clip-rule="evenodd" d="M51.577 46.4133C49.5466 40.2707 45.2027 37.6423 39.0036 38.8149C37.744 39.0502 36.412 38.4486 35.0041 37.8077C32.9185 36.8593 30.3232 35.678 27.5184 37.4511C24.493 39.3639 24.0249 43.024 23.6463 45.9649C23.5679 46.58 23.4907 47.1816 23.3926 47.7514C23.0103 49.9975 22.1636 52.1002 21.2703 54.3267L21.1221 54.6955C19.7889 58.0174 17.6274 61.9667 15.7195 65.4504C15.0468 66.6819 14.3949 67.8693 13.8092 68.977C13.4918 69.5749 13.7197 70.3163 14.3189 70.6337C14.9181 70.9522 15.6595 70.7219 15.9744 70.1239C16.5564 69.0248 17.2009 67.8472 17.8688 66.628C19.8097 63.083 22.0092 59.0663 23.3963 55.6072L23.5434 55.2408C24.4465 52.9935 25.3802 50.669 25.809 48.1644C25.912 47.5627 25.9941 46.9268 26.0762 46.2761C26.4217 43.5938 26.7783 40.8196 28.8283 39.522C30.4298 38.5086 31.8329 39.0576 33.9883 40.0378C35.6057 40.773 37.4364 41.6051 39.4595 41.2228C44.4773 40.2707 47.5909 42.1663 49.25 47.1829C51.6358 54.4026 37.4903 59.5381 37.3482 59.5896L37.2122 59.6471C31.551 62.4618 28.3725 68.2589 25.5652 73.3735C25.1118 74.2019 24.6633 75.0192 24.2112 75.8132C23.8767 76.4014 24.0825 77.1488 24.6695 77.4846C24.8606 77.5937 25.0702 77.6451 25.2748 77.6451C25.7012 77.6451 26.1154 77.4233 26.3408 77.0263C26.7991 76.2213 27.2537 75.3917 27.7145 74.5523C30.4654 69.5406 33.307 64.3574 38.2415 61.8724C39.5845 61.3835 54.6367 55.6721 51.577 46.4133Z" fill="#135D78"/>
<path fill-rule="evenodd" clip-rule="evenodd" d="M10.9352 23.1287V23.1299C11.2158 23.5172 11.6716 23.7389 12.1483 23.7206C12.6274 23.7022 13.0636 23.4449 13.3124 23.0356L15.741 19.0544L22.0884 26.1321C22.614 26.719 23.5184 26.768 24.1053 26.2423C24.6935 25.7154 24.7364 24.8111 24.2156 24.2242L16.5853 15.7153C16.2839 15.3784 15.8415 15.2056 15.3918 15.246C14.9421 15.2877 14.5377 15.5401 14.3025 15.9261L11.9927 19.7124L6.25682 11.766C6.25682 11.7648 6.25559 11.7648 6.25559 11.7636C5.79241 11.1252 4.90035 10.9818 4.26194 11.4425C3.62108 11.9045 3.47772 12.7978 3.93967 13.4374L10.9352 23.1287Z" fill="#135D78"/>
<path fill-rule="evenodd" clip-rule="evenodd" d="M20.7526 33.6273C20.9976 32.8774 20.5871 32.0699 19.8384 31.8249L11.1862 28.9931C10.7561 28.8534 10.2868 28.9244 9.91677 29.1854C9.54793 29.4464 9.32492 29.8655 9.31267 30.3177L9.23915 33.4129L2.51441 30.3936C1.79391 30.0714 0.949638 30.3924 0.626145 31.1117C0.408033 31.5957 0.482779 32.1361 0.773188 32.5368C0.915328 32.7328 1.10893 32.8946 1.3442 33.0012L10.0307 36.899C10.4669 37.0963 10.9742 37.0608 11.3786 36.8059C11.783 36.5498 12.0329 36.1087 12.044 35.6308L12.1236 32.3076L18.9501 34.5415C19.7 34.7865 20.5075 34.3773 20.7526 33.6273Z" fill="#135D78"/>
<path fill-rule="evenodd" clip-rule="evenodd" d="M21.2455 12.3201C21.3729 12.4954 21.5396 12.6424 21.7368 12.7466C22.1608 12.9696 22.6669 12.9647 23.0872 12.7355L26.006 11.1426L27.485 18.1712C27.6479 18.9432 28.4052 19.4382 29.1772 19.2752C29.9504 19.1135 30.443 18.355 30.28 17.583L28.4064 8.67349C28.3145 8.23359 28.0168 7.85986 27.6063 7.67115C27.1958 7.48122 26.7216 7.49715 26.3246 7.71404L23.6067 9.19794L22.858 1.86544C22.7772 1.07753 22.0763 0.508971 21.292 0.588619C20.5066 0.668267 19.9356 1.36917 20.0152 2.15462L20.982 11.6266C21.0078 11.8815 21.1009 12.1192 21.2455 12.3201Z" fill="#135D78"/>
<path fill-rule="evenodd" clip-rule="evenodd" d="M77.1376 70.8008C77.1364 70.8008 77.1351 70.8008 77.1351 70.7996L68.7831 65.6715L72.3869 63.0872C72.7533 62.8226 72.9751 62.4023 72.9824 61.9501C72.9898 61.4979 72.7839 61.0691 72.4249 60.7934L63.372 53.8199C62.747 53.3445 61.8489 53.4547 61.3673 54.0797C60.8857 54.7058 61.0021 55.6028 61.6271 56.0843L69.1581 61.8852L65.3693 64.603C64.9796 64.8824 64.7566 65.337 64.7738 65.8161C64.7909 66.294 65.0458 66.7302 65.4526 66.9814C65.4538 66.9814 65.4538 66.9814 65.4538 66.9826L75.639 73.2344C76.3117 73.6473 77.1927 73.4378 77.6057 72.7651C78.0174 72.0936 77.8078 71.2138 77.1376 70.8008Z" fill="#135D78"/>
<path fill-rule="evenodd" clip-rule="evenodd" d="M56.1189 58.7513C55.8175 58.0222 54.983 57.6742 54.254 57.9744C53.5236 58.2759 53.1769 59.1103 53.4759 59.8406L56.2133 66.4821L52.9036 66.8092C52.4282 66.8558 52.0079 67.1376 51.7836 67.5604C51.5582 67.9831 51.5606 68.4904 51.7898 68.9119L56.326 77.2823C56.4498 77.5102 56.625 77.6916 56.8309 77.8178C57.2524 78.0763 57.7952 78.1106 58.2621 77.857C58.9556 77.482 59.213 76.6157 58.838 75.9209L55.3261 69.4401L58.4067 69.1349C58.8564 69.0908 59.2583 68.836 59.4911 68.4487C59.7227 68.0615 59.7595 67.5861 59.5879 67.1695L56.1189 58.7513Z" fill="#135D78"/>
<path fill-rule="evenodd" clip-rule="evenodd" d="M85.7705 53.5058L78.4013 53.3061L79.6781 50.4853C79.8656 50.0736 79.8447 49.5981 79.6254 49.2036C79.4073 48.8078 79.0127 48.5394 78.5655 48.4806L69.542 47.2761C68.759 47.172 68.0409 47.7209 67.9368 48.5027C67.8314 49.2857 68.3816 50.0037 69.1633 50.1079L76.2839 51.0575L74.9127 54.0878C74.7166 54.5241 74.7497 55.0289 75.0034 55.4345C75.121 55.6244 75.2803 55.7788 75.4653 55.8928C75.6761 56.0227 75.9199 56.0986 76.176 56.1048L85.6946 56.3621C86.4812 56.3829 87.138 55.7617 87.1601 54.9725C87.1797 54.1846 86.5621 53.5279 85.7705 53.5058Z" fill="#135D78"/>
</svg>
