<svg width="80" height="87" viewBox="0 0 80 87" fill="none" xmlns="http://www.w3.org/2000/svg">
<path fill-rule="evenodd" clip-rule="evenodd" d="M59.7731 46.5795L58.5833 43.5421C69.0418 39.4433 74.8339 32.0244 75.7952 21.4897C76.1976 17.1039 75.6495 13.0703 75.0698 10.3146C72.4544 13.1508 68.0685 14.7886 63.4988 16.4927C55.3567 19.5312 46.9373 22.674 46.9373 32.7867H43.6748C43.6748 20.4088 54.0343 16.5427 62.3581 13.4368C68.0914 11.2966 73.0438 9.44895 74.0454 5.65249L75.382 0.586914L77.1568 5.51546C77.2655 5.81561 87.649 35.6577 59.7731 46.5795Z" fill="#135D78"/>
<path fill-rule="evenodd" clip-rule="evenodd" d="M42.7373 62.5405V59.278C61.9567 59.278 65.9913 49.4089 65.9913 41.1309H69.2538C69.2538 49.1272 65.8086 62.5405 42.7373 62.5405Z" fill="#135D78"/>
<path fill-rule="evenodd" clip-rule="evenodd" d="M33.9624 70.9787C31.7602 70.9787 29.4526 70.8579 27.0698 70.734C21.9912 70.4686 16.234 70.1685 10.2843 70.9634L9.85254 67.7292C16.1046 66.8951 22.0217 67.2029 27.2395 67.4758C37.5359 68.0109 44.9701 68.398 48.6589 60.2374L51.6321 61.5805C48.0499 69.5073 41.6608 70.9787 33.9624 70.9787Z" fill="#135D78"/>
<path fill-rule="evenodd" clip-rule="evenodd" d="M25.7933 43.3955L22.6885 42.3929C26.486 30.6359 32.837 25.6508 37.4948 23.5389C42.643 21.204 46.893 21.7597 47.0724 21.7837L46.632 25.0168C46.0404 24.9385 32.252 23.3943 25.7933 43.3955Z" fill="#135D78"/>
<path fill-rule="evenodd" clip-rule="evenodd" d="M11.4758 69.0494L8.22852 68.733C9.51938 55.4981 11.0288 48.0694 13.4366 43.093C16.1151 37.5565 20.1888 34.9106 26.2571 34.7671L26.3332 38.0285C18.1335 38.2221 14.0423 42.7472 11.4758 69.0494Z" fill="#135D78"/>
<path fill-rule="evenodd" clip-rule="evenodd" d="M3.2625 86.2206H0C0 70.9663 21.2073 56.7396 39.9189 44.1877C51.6171 36.3392 63.7144 28.2243 63.7144 23.4556H66.9769C66.9769 29.9643 55.8388 37.4365 41.7361 46.8966C24.5949 58.3959 3.2625 72.7063 3.2625 86.2206Z" fill="#135D78"/>
</svg>
