<svg width="88" height="71" viewBox="0 0 88 71" fill="none" xmlns="http://www.w3.org/2000/svg">
<path fill-rule="evenodd" clip-rule="evenodd" d="M70.4713 67.7333C71.0226 60.2594 77.0438 54.2857 84.5379 53.8113V67.7333H70.4713ZM2.90059 53.8123C10.3927 54.2878 16.4119 60.2614 16.9622 67.7333H2.90059V53.8123ZM16.9642 23.509C16.4281 30.995 10.4028 36.9839 2.90059 37.4604V23.509H16.9642ZM84.538 37.4614C77.0327 36.9859 71.0054 30.9971 70.4692 23.509H84.538V37.4614ZM2.90059 39.868C11.7281 39.3845 18.8277 32.3203 19.3719 23.509H68.0616C68.6058 32.3223 75.7085 39.3875 84.5379 39.868V51.4036C75.7186 51.8841 68.623 58.9342 68.0636 67.7333H19.3699C18.8115 58.9362 11.7179 51.8872 2.90059 51.4046V39.868ZM85.498 21.1084H1.94056C1.14643 21.1084 0.5 21.7538 0.5 22.5479V68.6934C0.5 69.4885 1.14643 70.1349 1.94056 70.1349H85.498C86.2931 70.1349 86.9396 69.4885 86.9396 68.6934V22.5479C86.9396 21.7538 86.2931 21.1084 85.498 21.1084Z" fill="#135D78"/>
<path d="M70.4713 67.7333L70.2219 67.7149L70.2021 67.9833H70.4713V67.7333ZM84.5379 53.8113H84.7879V53.545L84.5222 53.5618L84.5379 53.8113ZM84.5379 67.7333V67.9833H84.7879V67.7333H84.5379ZM2.90059 53.8123L2.91643 53.5628L2.65059 53.5459V53.8123H2.90059ZM16.9622 67.7333V67.9833H17.2313L17.2115 67.715L16.9622 67.7333ZM2.90059 67.7333H2.65059V67.9833H2.90059V67.7333ZM16.9642 23.509L17.2136 23.5269L17.2328 23.259H16.9642V23.509ZM2.90059 37.4604H2.65059V37.7267L2.91644 37.7098L2.90059 37.4604ZM2.90059 23.509V23.259H2.65059V23.509H2.90059ZM84.538 37.4614L84.5221 37.7109L84.788 37.7277V37.4614H84.538ZM70.4692 23.509V23.259H70.2007L70.2199 23.5268L70.4692 23.509ZM84.538 23.509H84.788V23.259H84.538V23.509ZM2.90059 39.868L2.88692 39.6184L2.65059 39.6313V39.868H2.90059ZM19.3719 23.509V23.259H19.1369L19.1224 23.4936L19.3719 23.509ZM68.0616 23.509L68.3111 23.4936L68.2966 23.259H68.0616V23.509ZM84.5379 39.868H84.7879V39.6313L84.5515 39.6184L84.5379 39.868ZM84.5379 51.4036L84.5516 51.6533L84.7879 51.6404V51.4036H84.5379ZM68.0636 67.7333V67.9833H68.2982L68.3131 67.7492L68.0636 67.7333ZM19.3699 67.7333L19.1204 67.7492L19.1353 67.9833H19.3699V67.7333ZM2.90059 51.4046H2.65059V51.6413L2.88693 51.6543L2.90059 51.4046ZM70.7206 67.7517C71.2627 60.4022 77.1844 54.5273 84.5537 54.0608L84.5222 53.5618C76.9032 54.0442 70.7825 60.1166 70.2219 67.7149L70.7206 67.7517ZM84.2879 53.8113V67.7333H84.7879V53.8113H84.2879ZM84.5379 67.4833H70.4713V67.9833H84.5379V67.4833ZM2.88476 54.0618C10.2521 54.5294 16.1717 60.4042 16.7129 67.7517L17.2115 67.715C16.6521 60.1187 10.5334 54.0462 2.91643 53.5628L2.88476 54.0618ZM16.9622 67.4833H2.90059V67.9833H16.9622V67.4833ZM3.15059 67.7333V53.8123H2.65059V67.7333H3.15059ZM16.7149 23.4911C16.1876 30.8526 10.262 36.7423 2.88475 37.2109L2.91644 37.7098C10.5436 37.2254 16.6685 31.1375 17.2136 23.5269L16.7149 23.4911ZM3.15059 37.4604V23.509H2.65059V37.4604H3.15059ZM2.90059 23.759H16.9642V23.259H2.90059V23.759ZM84.5538 37.2119C77.1734 36.7443 71.2458 30.8545 70.7186 23.4911L70.2199 23.5268C70.765 31.1396 76.8919 37.2275 84.5221 37.7109L84.5538 37.2119ZM70.4692 23.759H84.538V23.259H70.4692V23.759ZM84.288 23.509V37.4614H84.788V23.509H84.288ZM2.91427 40.1177C11.8685 39.6271 19.0694 32.4621 19.6214 23.5244L19.1224 23.4936C18.5859 32.1784 11.5876 39.1418 2.88692 39.6184L2.91427 40.1177ZM19.3719 23.759H68.0616V23.259H19.3719V23.759ZM67.812 23.5244C68.3641 32.4642 75.568 39.6302 84.5244 40.1177L84.5515 39.6184C75.8489 39.1448 68.8475 32.1804 68.3111 23.4936L67.812 23.5244ZM84.2879 39.868V51.4036H84.7879V39.868H84.2879ZM84.5243 51.154C75.5783 51.6414 68.3815 58.7921 67.8141 67.7175L68.3131 67.7492C68.8645 59.0763 75.8589 52.1269 84.5516 51.6533L84.5243 51.154ZM68.0636 67.4833H19.3699V67.9833H68.0636V67.4833ZM19.6194 67.7175C19.053 58.7941 11.8583 51.6445 2.91425 51.155L2.88693 51.6543C11.5776 52.1299 18.57 59.0783 19.1204 67.7492L19.6194 67.7175ZM3.15059 51.4046V39.868H2.65059V51.4046H3.15059ZM85.498 20.8584H1.94056V21.3584H85.498V20.8584ZM1.94056 20.8584C1.00859 20.8584 0.25 21.6155 0.25 22.5479H0.75C0.75 21.8921 1.28427 21.3584 1.94056 21.3584V20.8584ZM0.25 22.5479V68.6934H0.75V22.5479H0.25ZM0.25 68.6934C0.25 69.6264 1.00824 70.3849 1.94056 70.3849V69.8849C1.28462 69.8849 0.75 69.3505 0.75 68.6934H0.25ZM1.94056 70.3849H85.498V69.8849H1.94056V70.3849ZM85.498 70.3849C86.4312 70.3849 87.1896 69.6266 87.1896 68.6934H86.6896C86.6896 69.3504 86.1551 69.8849 85.498 69.8849V70.3849ZM87.1896 68.6934V22.5479H86.6896V68.6934H87.1896ZM87.1896 22.5479C87.1896 21.6154 86.4309 20.8584 85.498 20.8584V21.3584C86.1554 21.3584 86.6896 21.8922 86.6896 22.5479H87.1896Z" fill="#135D78"/>
<path fill-rule="evenodd" clip-rule="evenodd" d="M43.7187 29.1626C51.4354 29.1626 57.7125 36.5455 57.7125 45.6218C57.7125 54.6961 51.4354 62.08 43.7187 62.08C36.003 62.08 29.7248 54.6961 29.7248 45.6218C29.7248 36.5455 36.003 29.1626 43.7187 29.1626ZM43.7187 64.4805C52.7596 64.4805 60.1141 56.0203 60.1141 45.6218C60.1141 35.2222 52.7596 26.761 43.7187 26.761C34.6788 26.761 27.3242 35.2222 27.3242 45.6218C27.3242 56.0203 34.6788 64.4805 43.7187 64.4805Z" fill="#135D78"/>
<path d="M43.7187 29.4126C51.2608 29.4126 57.4625 36.6439 57.4625 45.6218H57.9625C57.9625 36.447 51.6099 28.9126 43.7187 28.9126V29.4126ZM57.4625 45.6218C57.4625 54.5976 51.2608 61.83 43.7187 61.83V62.33C51.6099 62.33 57.9625 54.7946 57.9625 45.6218H57.4625ZM43.7187 61.83C36.1775 61.83 29.9748 54.5976 29.9748 45.6218H29.4748C29.4748 54.7946 35.8284 62.33 43.7187 62.33V61.83ZM29.9748 45.6218C29.9748 36.644 36.1775 29.4126 43.7187 29.4126V28.9126C35.8284 28.9126 29.4748 36.4469 29.4748 45.6218H29.9748ZM43.7187 64.7305C52.9294 64.7305 60.3641 56.1244 60.3641 45.6218H59.8641C59.8641 55.9162 52.5898 64.2305 43.7187 64.2305V64.7305ZM60.3641 45.6218C60.3641 35.1182 52.9294 26.511 43.7187 26.511V27.011C52.5898 27.011 59.8641 35.3263 59.8641 45.6218H60.3641ZM43.7187 26.511C34.5089 26.511 27.0742 35.1182 27.0742 45.6218H27.5742C27.5742 35.3263 34.8486 27.011 43.7187 27.011V26.511ZM27.0742 45.6218C27.0742 56.1243 34.509 64.7305 43.7187 64.7305V64.2305C34.8486 64.2305 27.5742 55.9162 27.5742 45.6218H27.0742Z" fill="#135D78"/>
<path fill-rule="evenodd" clip-rule="evenodd" d="M39.2133 41.1129C39.2133 39.6308 40.5244 38.5261 42.5173 38.2095V44.4593C40.4424 43.8615 39.2062 42.6455 39.2133 41.1129ZM48.2279 50.7597C48.2279 52.2438 46.9138 53.3485 44.9189 53.6631V47.4123C46.9958 48.0081 48.235 49.2261 48.2279 50.7597ZM39.2072 50.7547C39.2042 50.0911 38.6691 49.5549 38.0024 49.5589C37.3378 49.562 36.8036 50.1022 36.8067 50.7648C36.8188 53.6166 39.1122 55.6955 42.5173 56.09V56.3166C42.5173 56.3399 42.5224 56.3611 42.5234 56.3834V58.087C42.5234 58.7496 43.0615 59.2868 43.7242 59.2868C44.3868 59.2868 44.925 58.7496 44.925 58.087V56.09C48.3382 55.6935 50.6285 53.6135 50.6285 50.7658C50.6427 47.9434 48.4343 45.7299 44.9189 44.9348V38.2115C46.668 38.4988 48.2259 39.4325 48.234 41.1179C48.236 41.7795 48.7732 42.3137 49.4348 42.3137H49.4389C50.1025 42.3106 50.6376 41.7704 50.6346 41.1078C50.6225 38.254 48.3261 36.1741 44.9189 35.7816V35.555V33.7856C44.9189 33.123 44.3797 32.5848 43.7171 32.5848C43.0545 32.5848 42.5173 33.123 42.5173 33.7856V35.555V35.7826C39.1041 36.1792 36.8117 38.2591 36.8127 41.1068C36.7986 43.9262 39.0049 46.1407 42.5173 46.9358V53.6601C40.7692 53.3728 39.2143 52.437 39.2072 50.7547Z" fill="#135D78"/>
<path d="M42.5173 38.2095H42.7673V37.9166L42.4781 37.9626L42.5173 38.2095ZM42.5173 44.4593L42.4481 44.6996L42.7673 44.7915V44.4593H42.5173ZM44.9189 53.6631H44.6689V53.9556L44.9578 53.9101L44.9189 53.6631ZM44.9189 47.4123L44.9878 47.172L44.6689 47.0805V47.4123H44.9189ZM38.0024 49.5589L38.0035 49.8089L38.0039 49.8089L38.0024 49.5589ZM36.8067 50.7648L37.0567 50.7637L37.0567 50.7637L36.8067 50.7648ZM42.5173 56.09H42.7673V55.8673L42.5461 55.8417L42.5173 56.09ZM42.5234 56.3834H42.7736L42.7731 56.372L42.5234 56.3834ZM44.925 56.09L44.8961 55.8417L44.675 55.8674V56.09H44.925ZM50.6285 50.7658L50.3785 50.7646V50.7658H50.6285ZM44.9189 44.9348H44.6689V45.1346L44.8637 45.1786L44.9189 44.9348ZM44.9189 38.2115L44.9594 37.9648L44.6689 37.9171V38.2115H44.9189ZM48.234 41.1179L48.484 41.1172L48.484 41.1167L48.234 41.1179ZM49.4389 42.3137V42.5637L49.44 42.5637L49.4389 42.3137ZM50.6346 41.1078L50.3846 41.1089V41.1089L50.6346 41.1078ZM44.9189 35.7816H44.6689V36.0044L44.8903 36.0299L44.9189 35.7816ZM42.5173 35.7826L42.5461 36.0309L42.7673 36.0052V35.7826H42.5173ZM36.8127 41.1068L37.0627 41.108L37.0627 41.1067L36.8127 41.1068ZM42.5173 46.9358H42.7673V46.7361L42.5725 46.692L42.5173 46.9358ZM42.5173 53.6601L42.4767 53.9068L42.7673 53.9545V53.6601H42.5173ZM39.4633 41.1129C39.4633 39.8131 40.6151 38.7648 42.5565 38.4564L42.4781 37.9626C40.4337 38.2874 38.9633 39.4485 38.9633 41.1129H39.4633ZM42.2673 38.2095V44.4593H42.7673V38.2095H42.2673ZM42.5865 44.2191C40.5578 43.6345 39.457 42.4818 39.4633 41.114L38.9633 41.1117C38.9555 42.8091 40.3271 44.0884 42.4481 44.6996L42.5865 44.2191ZM47.9779 50.7597C47.9779 52.0612 46.8234 53.1097 44.88 53.4162L44.9578 53.9101C47.0042 53.5873 48.4779 52.4264 48.4779 50.7597H47.9779ZM45.1689 53.6631V47.4123H44.6689V53.6631H45.1689ZM44.85 47.6526C46.8805 48.2351 47.9843 49.3899 47.9779 50.7586L48.4779 50.7609C48.4858 49.0624 47.111 47.7811 44.9878 47.172L44.85 47.6526ZM39.4572 50.7535C39.4536 49.9531 38.8072 49.3041 38.0009 49.3089L38.0039 49.8089C38.531 49.8057 38.9548 50.229 38.9572 50.7558L39.4572 50.7535ZM38.0013 49.3089C37.1985 49.3126 36.553 49.9653 36.5567 50.7659L37.0567 50.7637C37.0542 50.2391 37.477 49.8113 38.0035 49.8089L38.0013 49.3089ZM36.5567 50.7659C36.5695 53.784 39.0017 55.9343 42.4885 56.3384L42.5461 55.8417C39.2226 55.4566 37.0681 53.4492 37.0567 50.7637L36.5567 50.7659ZM42.2673 56.09V56.3166H42.7673V56.09H42.2673ZM42.2673 56.3166C42.2673 56.3453 42.2704 56.3699 42.2719 56.3817C42.2739 56.3977 42.2737 56.3962 42.2736 56.3947L42.7731 56.372C42.7725 56.359 42.7714 56.3476 42.7704 56.3389C42.7695 56.3311 42.7684 56.3224 42.768 56.319C42.7667 56.3089 42.7673 56.3112 42.7673 56.3166H42.2673ZM42.2734 56.3834V58.087H42.7734V56.3834H42.2734ZM42.2734 58.087C42.2734 58.8879 42.9238 59.5368 43.7242 59.5368V59.0368C43.1993 59.0368 42.7734 58.6112 42.7734 58.087H42.2734ZM43.7242 59.5368C44.5246 59.5368 45.175 58.8879 45.175 58.087H44.675C44.675 58.6112 44.249 59.0368 43.7242 59.0368V59.5368ZM45.175 58.087V56.09H44.675V58.087H45.175ZM44.9538 56.3383C48.4483 55.9324 50.8785 53.781 50.8785 50.7658H50.3785C50.3785 53.4461 48.2281 55.4546 44.8961 55.8417L44.9538 56.3383ZM50.8785 50.7671C50.8935 47.7852 48.5569 45.5013 44.9741 44.691L44.8637 45.1786C48.3117 45.9585 50.3919 48.1016 50.3785 50.7646L50.8785 50.7671ZM45.1689 44.9348V38.2115H44.6689V44.9348H45.1689ZM44.8784 38.4582C45.726 38.5974 46.5087 38.8909 47.0746 39.3368C47.634 39.7776 47.9804 40.3646 47.984 41.1191L48.484 41.1167C48.4795 40.1859 48.0429 39.4633 47.3841 38.9441C46.7317 38.43 45.8609 38.1129 44.9594 37.9648L44.8784 38.4582ZM47.984 41.1187C47.9865 41.9184 48.6358 42.5637 49.4348 42.5637V42.0637C48.9106 42.0637 48.4856 41.6406 48.484 41.1172L47.984 41.1187ZM49.4348 42.5637H49.4389V42.0637H49.4348V42.5637ZM49.44 42.5637C50.2416 42.56 50.8883 41.9074 50.8846 41.1067L50.3846 41.1089C50.387 41.6334 49.9634 42.0613 49.4377 42.0637L49.44 42.5637ZM50.8846 41.1067C50.8717 38.0865 48.4364 35.9352 44.9475 35.5332L44.8903 36.0299C48.2157 36.413 50.3732 38.4215 50.3846 41.1089L50.8846 41.1067ZM45.1689 35.7816V35.555H44.6689V35.7816H45.1689ZM45.1689 35.555V33.7856H44.6689V35.555H45.1689ZM45.1689 33.7856C45.1689 32.9847 44.5175 32.3348 43.7171 32.3348V32.8348C44.2419 32.8348 44.6689 33.2614 44.6689 33.7856H45.1689ZM43.7171 32.3348C42.9161 32.3348 42.2673 32.9852 42.2673 33.7856H42.7673C42.7673 33.2608 43.1928 32.8348 43.7171 32.8348V32.3348ZM42.2673 33.7856V35.555H42.7673V33.7856H42.2673ZM42.2673 35.555V35.7826H42.7673V35.555H42.2673ZM42.4884 35.5343C38.9941 35.9402 36.5617 38.0915 36.5627 41.1069L37.0627 41.1067C37.0618 38.4266 39.214 36.4181 42.5461 36.0309L42.4884 35.5343ZM36.5627 41.1055C36.5478 44.0843 38.8821 46.3692 42.4621 47.1796L42.5725 46.692C39.1277 45.9121 37.0494 43.7681 37.0627 41.108L36.5627 41.1055ZM42.2673 46.9358V53.6601H42.7673V46.9358H42.2673ZM42.5578 53.4134C41.7109 53.2742 40.9292 52.9803 40.3643 52.5343C39.8059 52.0934 39.4604 51.5067 39.4572 50.7536L38.9572 50.7557C38.9612 51.685 39.3967 52.4074 40.0545 52.9267C40.7058 53.441 41.5756 53.7587 42.4767 53.9068L42.5578 53.4134Z" fill="#135D78"/>
<path fill-rule="evenodd" clip-rule="evenodd" d="M5.72424 16.7954H81.7157C82.3783 16.7954 82.9165 16.2582 82.9165 15.5946C82.9165 14.932 82.3783 14.3938 81.7157 14.3938H5.72424C5.06162 14.3938 4.52344 14.932 4.52344 15.5946C4.52344 16.2582 5.06162 16.7954 5.72424 16.7954Z" fill="#135D78"/>
<path d="M5.72424 16.7954H81.7157C82.3783 16.7954 82.9165 16.2582 82.9165 15.5946C82.9165 14.932 82.3783 14.3938 81.7157 14.3938H5.72424C5.06162 14.3938 4.52344 14.932 4.52344 15.5946C4.52344 16.2582 5.06162 16.7954 5.72424 16.7954" stroke="#135D78" stroke-width="0.5"/>
<path fill-rule="evenodd" clip-rule="evenodd" d="M8.31213 10.1041H79.1281C79.7917 10.1041 80.3289 9.56694 80.3289 8.90332C80.3289 8.2407 79.7917 7.70251 79.1281 7.70251H8.31213C7.64951 7.70251 7.11133 8.2407 7.11133 8.90332C7.11133 9.56694 7.64951 10.1041 8.31213 10.1041Z" fill="#135D78"/>
<path d="M8.31213 10.1041H79.1281C79.7917 10.1041 80.3289 9.56694 80.3289 8.90332C80.3289 8.2407 79.7917 7.70251 79.1281 7.70251H8.31213C7.64951 7.70251 7.11133 8.2407 7.11133 8.90332C7.11133 9.56694 7.64951 10.1041 8.31213 10.1041" stroke="#135D78" stroke-width="0.5"/>
<path fill-rule="evenodd" clip-rule="evenodd" d="M12.1422 3.41296H75.2991C75.9618 3.41296 76.4989 2.87477 76.4989 2.21215C76.4989 1.54954 75.9618 1.01135 75.2991 1.01135H12.1422C11.4796 1.01135 10.9414 1.54954 10.9414 2.21215C10.9414 2.87477 11.4796 3.41296 12.1422 3.41296Z" fill="#135D78"/>
<path d="M12.1422 3.41296H75.2991C75.9618 3.41296 76.4989 2.87477 76.4989 2.21215C76.4989 1.54954 75.9618 1.01135 75.2991 1.01135H12.1422C11.4796 1.01135 10.9414 1.54954 10.9414 2.21215C10.9414 2.87477 11.4796 3.41296 12.1422 3.41296" stroke="#135D78" stroke-width="0.5"/>
</svg>
