<svg width="74" height="86" viewBox="0 0 74 86" fill="none" xmlns="http://www.w3.org/2000/svg">
<path fill-rule="evenodd" clip-rule="evenodd" d="M36.6364 82.4417C21.2148 82.4417 2.83202 78.9903 2.83202 62.5489C2.83202 51.8657 15.1098 35.5736 28.1666 28.8664H45.1051C58.162 35.5736 70.4407 51.8657 70.4407 62.5489C70.4407 78.9903 52.057 82.4417 36.6364 82.4417ZM26.7169 25.1988C26.7169 24.5563 27.2406 24.0327 27.8841 24.0327H45.3728C46.0153 24.0327 46.538 24.5563 46.538 25.1988V25.3688C46.538 26.0113 46.0153 26.535 45.3728 26.535H27.8841C27.2406 26.535 26.7169 26.0113 26.7169 25.3688V25.1988ZM27.5092 6.19619C27.5603 6.19619 27.6094 6.18735 27.6585 6.18047C28.3443 9.75661 29.3925 12.2697 30.9723 15.3556C31.2661 15.9294 31.9685 16.1553 32.5423 15.8616C33.1151 15.5688 33.341 14.8664 33.0483 14.2926C31.385 11.0466 30.3524 8.4863 29.7256 4.45822C30.377 4.02201 32.8115 3.33233 36.645 3.33233C40.4766 3.33233 42.9121 4.02201 43.5635 4.45822C42.9377 8.4863 41.9031 11.0466 40.2408 14.2926C39.9471 14.8664 40.175 15.5688 40.7478 15.8626C40.9168 15.949 41.0985 15.9903 41.2783 15.9903C41.7008 15.9903 42.1095 15.7584 42.3168 15.3556C43.8975 12.2697 44.9448 9.75759 45.6306 6.18145C45.6768 6.18735 45.7229 6.19619 45.7711 6.19619C49.3384 6.19619 51.5902 6.89668 52.1924 7.34075C50.8071 13.0636 46.7447 18.8168 43.3719 21.607C43.3375 21.6355 43.31 21.6699 43.2796 21.7013H29.9997C29.9702 21.6699 29.9427 21.6355 29.9064 21.607C26.5346 18.8168 22.4731 13.0636 21.0878 7.34075C21.6901 6.89668 23.9419 6.19619 27.5092 6.19619ZM64.2437 42.44C59.5672 36.3596 53.7167 31.1103 47.9251 27.7523C48.5097 27.1265 48.8703 26.2904 48.8703 25.3688V25.1989C48.8703 23.6633 47.8731 22.3586 46.4947 21.889C49.7653 18.5594 53.2972 13.1549 54.5557 7.46751C54.5744 7.38597 54.5832 7.30147 54.5832 7.216C54.5832 4.06821 47.1981 3.87368 45.8865 3.86484C45.247 1.1454 38.1261 1 36.6446 1C35.162 1 28.0412 1.1454 27.4026 3.86484C26.1136 3.8727 18.6951 4.06133 18.6951 7.216C18.6951 7.30147 18.7049 7.38597 18.7236 7.46751C19.9811 13.152 23.5091 18.5526 26.7778 21.8831C25.3905 22.3478 24.3855 23.6574 24.3855 25.1989V25.3688C24.3855 26.2933 24.748 27.1324 25.3355 27.7582C19.5469 31.1172 13.7013 36.3625 9.02772 42.44C3.52891 49.5913 0.5 56.7338 0.5 62.5489C0.5 70.8133 4.54575 76.8829 12.5253 80.5917C18.4957 83.3662 26.6078 84.774 36.6357 84.774C46.6627 84.774 54.7748 83.3662 60.7462 80.5917C68.7257 76.8829 72.7714 70.8133 72.7714 62.5489C72.7714 56.7338 69.7425 49.5913 64.2437 42.44Z" fill="#135D78"/>
<path d="M28.1666 28.8664V28.4914H28.0759L27.9953 28.5328L28.1666 28.8664ZM45.1051 28.8664L45.2765 28.5328L45.1958 28.4914H45.1051V28.8664ZM27.6585 6.18047L28.0268 6.10985L27.9596 5.75965L27.6065 5.80909L27.6585 6.18047ZM30.9723 15.3556L30.6385 15.5265L30.6385 15.5265L30.9723 15.3556ZM32.5423 15.8616L32.3716 15.5277L32.3714 15.5278L32.5423 15.8616ZM33.0483 14.2926L33.3823 14.1222L33.382 14.1216L33.0483 14.2926ZM29.7256 4.45822L29.5169 4.14664L29.3183 4.27966L29.3551 4.51588L29.7256 4.45822ZM43.5635 4.45822L43.934 4.5158L43.9707 4.27963L43.7722 4.14664L43.5635 4.45822ZM40.2408 14.2926L39.907 14.1217L39.907 14.1217L40.2408 14.2926ZM40.7478 15.8626L40.5766 16.1963L40.577 16.1964L40.7478 15.8626ZM42.3168 15.3556L42.6502 15.5272L42.6505 15.5266L42.3168 15.3556ZM45.6306 6.18145L45.6781 5.80947L45.3286 5.76486L45.2623 6.11083L45.6306 6.18145ZM52.1924 7.34075L52.5569 7.42898L52.6155 7.1868L52.415 7.03893L52.1924 7.34075ZM43.3719 21.607L43.1329 21.3181L43.1327 21.3182L43.3719 21.607ZM43.2796 21.7013V22.0763H43.4384L43.5489 21.9622L43.2796 21.7013ZM29.9997 21.7013L29.7261 21.9578L29.8372 22.0763H29.9997V21.7013ZM29.9064 21.607L29.6672 21.896L29.675 21.9021L29.9064 21.607ZM21.0878 7.34075L20.8653 7.03893L20.6647 7.1868L20.7234 7.42898L21.0878 7.34075ZM47.9251 27.7523L47.6511 27.4963L47.3296 27.8405L47.737 28.0767L47.9251 27.7523ZM46.4947 21.889L46.2271 21.6262L45.8092 22.0516L46.3737 22.2439L46.4947 21.889ZM54.5557 7.46751L54.1902 7.38383L54.1896 7.38649L54.5557 7.46751ZM45.8865 3.86484L45.5215 3.9507L45.589 4.23785L45.884 4.23983L45.8865 3.86484ZM27.4026 3.86484L27.4049 4.23984L27.7002 4.23803L27.7677 3.95057L27.4026 3.86484ZM18.7236 7.46751L19.0897 7.38651L19.0891 7.38383L18.7236 7.46751ZM26.7778 21.8831L26.8969 22.2387L27.4653 22.0483L27.0454 21.6204L26.7778 21.8831ZM25.3355 27.7582L25.5237 28.0825L25.932 27.8456L25.6089 27.5015L25.3355 27.7582ZM9.02772 42.44L8.73045 42.2114L8.73044 42.2114L9.02772 42.44ZM12.5253 80.5917L12.3672 80.9318L12.3672 80.9318L12.5253 80.5917ZM60.7462 80.5917L60.9042 80.9318L60.9042 80.9318L60.7462 80.5917ZM36.6364 82.0667C28.9419 82.0667 20.5546 81.2039 14.1042 78.3185C10.8834 76.8778 8.16198 74.9401 6.24596 72.3693C4.3333 69.803 3.20702 66.5844 3.20702 62.5489H2.45702C2.45702 66.7341 3.62859 70.1125 5.64461 72.8175C7.65728 75.5179 10.4953 77.5258 13.798 79.0031C20.3943 81.9538 28.9092 82.8167 36.6364 82.8167V82.0667ZM3.20702 62.5489C3.20702 57.3279 6.21948 50.6645 10.9026 44.4421C15.5776 38.2306 21.87 32.5225 28.338 29.1999L27.9953 28.5328C21.4064 31.9175 15.0314 37.7091 10.3034 43.9911C5.58343 50.2624 2.45702 57.0867 2.45702 62.5489H3.20702ZM28.1666 29.2414H45.1051V28.4914H28.1666V29.2414ZM44.9338 29.1999C51.4018 32.5225 57.6944 38.2306 62.3696 44.4421C67.053 50.6645 70.0657 57.3279 70.0657 62.5489H70.8157C70.8157 57.0867 67.689 50.2624 62.9689 43.9911C58.2405 37.7091 51.8653 31.9175 45.2765 28.5328L44.9338 29.1999ZM70.0657 62.5489C70.0657 66.5844 68.9394 69.803 67.0266 72.3693C65.1105 74.9401 62.389 76.8778 59.1682 78.3185C52.7176 81.2039 44.3304 82.0667 36.6364 82.0667V82.8167C44.363 82.8167 52.8779 81.9538 59.4744 79.0031C62.7771 77.5258 65.6152 75.5179 67.628 72.8175C69.6441 70.1125 70.8157 66.7341 70.8157 62.5489H70.0657ZM27.0919 25.1988C27.0919 24.7636 27.4475 24.4077 27.8841 24.4077V23.6577C27.0337 23.6577 26.3419 24.349 26.3419 25.1988H27.0919ZM27.8841 24.4077H45.3728V23.6577H27.8841V24.4077ZM45.3728 24.4077C45.8078 24.4077 46.163 24.763 46.163 25.1988H46.913C46.913 24.3496 46.2228 23.6577 45.3728 23.6577V24.4077ZM46.163 25.1988V25.3688H46.913V25.1988H46.163ZM46.163 25.3688C46.163 25.8046 45.8078 26.16 45.3728 26.16V26.91C46.2228 26.91 46.913 26.218 46.913 25.3688H46.163ZM45.3728 26.16H27.8841V26.91H45.3728V26.16ZM27.8841 26.16C27.4475 26.16 27.0919 25.804 27.0919 25.3688H26.3419C26.3419 26.2186 27.0337 26.91 27.8841 26.91V26.16ZM27.0919 25.3688V25.1988H26.3419V25.3688H27.0919ZM27.5092 6.57119C27.5942 6.57119 27.681 6.55598 27.7105 6.55185L27.6065 5.80909C27.5378 5.81871 27.5264 5.82119 27.5092 5.82119V6.57119ZM27.2902 6.25109C27.9849 9.8738 29.0491 12.4217 30.6385 15.5265L31.3061 15.1847C29.736 12.1178 28.7036 9.63943 28.0268 6.10985L27.2902 6.25109ZM30.6385 15.5265C31.0269 16.285 31.9555 16.5833 32.7132 16.1954L32.3714 15.5278C31.9816 15.7274 31.5053 15.5738 31.3061 15.1847L30.6385 15.5265ZM32.713 16.1955C33.471 15.808 33.7687 14.8794 33.3823 14.1222L32.7142 14.4631C32.9134 14.8534 32.7591 15.3296 32.3716 15.5277L32.713 16.1955ZM33.382 14.1216C31.731 10.8995 30.7151 8.37804 30.0961 4.40056L29.3551 4.51588C29.9897 8.59455 31.0389 11.1936 32.7145 14.4636L33.382 14.1216ZM29.9343 4.76981C30.1938 4.59601 30.9018 4.3253 32.0635 4.09983C33.2071 3.87784 34.7501 3.70733 36.645 3.70733V2.95733C34.7064 2.95733 33.1154 3.13166 31.9205 3.36357C30.7437 3.59199 29.9088 3.88423 29.5169 4.14664L29.9343 4.76981ZM36.645 3.70733C38.539 3.70733 40.0817 3.87784 41.2254 4.09983C42.3871 4.32531 43.0953 4.59602 43.3548 4.76981L43.7722 4.14664C43.3803 3.88422 42.5451 3.59198 41.3683 3.36357C40.1735 3.13166 38.5827 2.95733 36.645 2.95733V3.70733ZM43.1929 4.40065C42.575 8.37796 41.5572 10.8994 39.907 14.1217L40.5746 14.4635C42.2491 11.1937 43.3003 8.59463 43.934 4.5158L43.1929 4.40065ZM39.907 14.1217C39.5186 14.8803 39.8203 15.8083 40.5766 16.1963L40.9189 15.5289C40.5297 15.3293 40.3755 14.8524 40.5746 14.4635L39.907 14.1217ZM40.577 16.1964C40.8004 16.3107 41.0409 16.3653 41.2783 16.3653V15.6153C41.1561 15.6153 41.0331 15.5873 40.9186 15.5287L40.577 16.1964ZM41.2783 16.3653C41.8364 16.3653 42.3764 16.0592 42.6502 15.5272L41.9833 15.184C41.8425 15.4577 41.5651 15.6153 41.2783 15.6153V16.3653ZM42.6505 15.5266C44.241 12.4217 45.3042 9.87475 45.9989 6.25208L45.2623 6.11083C44.5855 9.64044 43.554 12.1178 41.983 15.1847L42.6505 15.5266ZM45.5831 6.55343C45.599 6.55547 45.6912 6.57119 45.7711 6.57119V5.82119C45.7693 5.82119 45.7631 5.82102 45.7471 5.81899C45.739 5.81796 45.7304 5.81674 45.7184 5.81503C45.7075 5.81346 45.693 5.81138 45.6781 5.80947L45.5831 6.55343ZM45.7711 6.57119C47.5309 6.57119 48.9593 6.74403 50.0156 6.96874C51.0901 7.19733 51.7367 7.47064 51.9699 7.64257L52.415 7.03893C52.0459 6.76679 51.2654 6.46783 50.1717 6.23515C49.0597 5.99859 47.5786 5.82119 45.7711 5.82119V6.57119ZM51.8279 7.25253C50.4633 12.89 46.4487 18.575 43.1329 21.3181L43.6109 21.8959C47.0406 19.0587 51.151 13.2371 52.5569 7.42898L51.8279 7.25253ZM43.1327 21.3182C43.097 21.3478 43.0688 21.3772 43.0498 21.3975C43.024 21.4253 43.0235 21.4267 43.0102 21.4404L43.5489 21.9622C43.5604 21.9504 43.5708 21.9391 43.5787 21.9304C43.5878 21.9205 43.5927 21.915 43.5987 21.9086C43.6097 21.8968 43.6124 21.8947 43.6112 21.8958L43.1327 21.3182ZM43.2796 21.3263H29.9997V22.0763H43.2796V21.3263ZM30.2733 21.4448C30.2695 21.4408 30.2042 21.364 30.1377 21.3119L29.675 21.9021C29.6721 21.8999 29.6735 21.9004 29.6822 21.9097C29.6868 21.9146 29.6916 21.9199 29.6992 21.9284C29.706 21.9359 29.7158 21.9468 29.7261 21.9578L30.2733 21.4448ZM30.1454 21.3181C26.8306 18.575 22.8169 12.89 21.4523 7.25253L20.7234 7.42898C22.1293 13.2371 26.2386 19.0586 29.6673 21.8959L30.1454 21.3181ZM21.3104 7.64257C21.5436 7.47064 22.1901 7.19733 23.2646 6.96874C24.3209 6.74403 25.7494 6.57119 27.5092 6.57119V5.82119C25.7017 5.82119 24.2206 5.99859 23.1086 6.23515C22.0148 6.46783 21.2344 6.76679 20.8653 7.03893L21.3104 7.64257ZM64.541 42.2114C59.8386 36.0973 53.9523 30.8134 48.1132 27.4279L47.737 28.0767C53.4812 31.4072 59.2959 36.6219 63.9465 42.6686L64.541 42.2114ZM48.1992 28.0083C48.845 27.3168 49.2453 26.3905 49.2453 25.3688H48.4953C48.4953 26.1902 48.1744 26.9361 47.6511 27.4963L48.1992 28.0083ZM49.2453 25.3688V25.1989H48.4953V25.3688H49.2453ZM49.2453 25.1989C49.2453 23.4967 48.1401 22.0534 46.6156 21.534L46.3737 22.2439C47.606 22.6638 48.4953 23.8299 48.4953 25.1989H49.2453ZM46.7622 22.1518C50.0697 18.7846 53.6448 13.3199 54.9219 7.54853L54.1896 7.38649C52.9496 12.99 49.4608 18.3343 46.2271 21.6262L46.7622 22.1518ZM54.9213 7.55119C54.9468 7.43991 54.9582 7.32718 54.9582 7.216H54.2082C54.2082 7.27576 54.202 7.33203 54.1902 7.38383L54.9213 7.55119ZM54.9582 7.216C54.9582 6.25495 54.3857 5.55085 53.6125 5.05077C52.8444 4.55401 51.8295 4.22245 50.8075 3.99711C48.7576 3.54517 46.5515 3.49432 45.8891 3.48985L45.884 4.23983C46.5331 4.24421 48.6754 4.29504 50.646 4.72952C51.6342 4.9474 52.5476 5.25523 53.2052 5.68054C53.8576 6.10251 54.2082 6.60316 54.2082 7.216H54.9582ZM46.2516 3.77899C46.0543 2.94004 45.3702 2.3513 44.5507 1.93552C43.7236 1.51593 42.6869 1.23474 41.6491 1.04382C39.5698 0.661288 37.3921 0.625 36.6446 0.625V1.375C37.3786 1.375 39.5021 1.41141 41.5134 1.78144C42.521 1.9668 43.4771 2.23186 44.2113 2.60437C44.9531 2.9807 45.399 3.42993 45.5215 3.9507L46.2516 3.77899ZM36.6446 0.625C35.8966 0.625 33.7186 0.661288 31.6393 1.04382C30.6015 1.23474 29.5649 1.51593 28.7379 1.93553C27.9185 2.35132 27.2346 2.9401 27.0375 3.77911L27.7677 3.95057C27.8899 3.42987 28.3356 2.98068 29.0773 2.60436C29.8114 2.23186 30.7674 1.9668 31.775 1.78144C33.7863 1.41141 35.91 1.375 36.6446 1.375V0.625ZM27.4003 3.48985C26.7491 3.49382 24.5404 3.54294 22.4851 3.99409C21.4603 4.21903 20.442 4.5504 19.6712 5.04745C18.8952 5.54775 18.3201 6.25277 18.3201 7.216H19.0701C19.0701 6.6019 19.4223 6.10033 20.0776 5.67778C20.738 5.25196 21.6549 4.94418 22.6459 4.72665C24.6221 4.29285 26.7671 4.24372 27.4049 4.23984L27.4003 3.48985ZM18.3201 7.216C18.3201 7.33015 18.3332 7.4427 18.358 7.55119L19.0891 7.38383C19.0766 7.32923 19.0701 7.2728 19.0701 7.216H18.3201ZM18.3574 7.54851C19.6336 13.317 23.2046 18.7777 26.5101 22.1458L27.0454 21.6204C23.8136 18.3275 20.3287 12.987 19.0897 7.38651L18.3574 7.54851ZM26.6586 21.5275C25.1243 22.0415 24.0105 23.4903 24.0105 25.1989H24.7605C24.7605 23.8246 25.6568 22.6541 26.8969 22.2387L26.6586 21.5275ZM24.0105 25.1989V25.3688H24.7605V25.1989H24.0105ZM24.0105 25.3688C24.0105 26.3936 24.4128 27.3232 25.0621 28.0148L25.6089 27.5015C25.0832 26.9415 24.7605 26.1931 24.7605 25.3688H24.0105ZM25.1473 27.4338C19.3113 30.8203 13.4299 36.1002 8.73045 42.2114L9.32499 42.6686C13.9726 36.6248 19.7825 31.414 25.5237 28.0825L25.1473 27.4338ZM8.73044 42.2114C3.20737 49.3943 0.125 56.6166 0.125 62.5489H0.875C0.875 56.851 3.85046 49.7883 9.325 42.6686L8.73044 42.2114ZM0.125 62.5489C0.125 66.7447 1.15291 70.4029 3.20827 73.4867C5.26271 76.5691 8.32816 79.0545 12.3672 80.9318L12.6833 80.2517C8.74286 78.4202 5.79568 76.0164 3.83236 73.0707C1.86997 70.1264 0.875 66.6176 0.875 62.5489H0.125ZM12.3672 80.9318C18.4062 83.7381 26.579 85.149 36.6357 85.149V84.399C26.6366 84.399 18.5851 82.9943 12.6833 80.2516L12.3672 80.9318ZM36.6357 85.149C46.6914 85.149 54.8643 83.7381 60.9042 80.9318L60.5882 80.2516C54.6853 82.9943 46.6339 84.399 36.6357 84.399V85.149ZM60.9042 80.9318C64.9433 79.0545 68.0087 76.5691 70.0632 73.4867C72.1185 70.4029 73.1464 66.7447 73.1464 62.5489H72.3964C72.3964 66.6176 71.4015 70.1264 69.4391 73.0707C67.4758 76.0164 64.5286 78.4202 60.5881 80.2517L60.9042 80.9318ZM73.1464 62.5489C73.1464 56.6166 70.0641 49.3943 64.541 42.2114L63.9464 42.6686C69.421 49.7883 72.3964 56.851 72.3964 62.5489H73.1464Z" fill="#135D78"/>
<path fill-rule="evenodd" clip-rule="evenodd" d="M43.8562 64.3613C43.8562 65.7485 43.2127 66.9569 41.9945 67.8559C40.9275 68.6438 39.4676 69.1439 37.8082 69.3021V58.6778C41.5848 59.5306 43.87 61.6389 43.8562 64.3613ZM29.4345 50.2031C29.4335 47.5426 31.8641 45.6062 35.4746 45.2633V55.8856C31.702 55.0299 29.4217 52.9235 29.4345 50.2031ZM43.8643 50.209C43.8672 50.8505 44.3879 51.3693 45.0295 51.3693H45.0354C45.6789 51.3663 46.1986 50.8427 46.1957 50.1982C46.179 46.1907 42.7846 43.3082 37.8074 42.9221V42.6696V42.0477V39.4511C37.8074 38.8076 37.2848 38.2849 36.6403 38.2849C35.9968 38.2849 35.4751 38.8076 35.4751 39.4511V42.0477V42.6696V42.9231C30.4901 43.3141 27.1026 46.1976 27.1026 50.1982C27.0839 54.1594 30.3359 57.2542 35.4751 58.2671V69.2961C32.3882 68.9827 29.4389 67.4079 29.4251 64.3563C29.4241 63.7138 28.9015 63.1951 28.2599 63.1951H28.255C27.6115 63.198 27.0918 63.7227 27.0938 64.3662C27.1114 68.3716 30.5009 71.2532 35.4751 71.6422V72.5166C35.4751 72.55 35.482 72.5815 35.4839 72.6139V75.1133C35.4839 75.7577 36.0066 76.2794 36.6501 76.2794C37.2946 76.2794 37.8173 75.7577 37.8173 75.1133V71.8947C37.8173 71.8613 37.8094 71.8309 37.8074 71.7975V71.6422C39.9914 71.4733 41.9013 70.8219 43.379 69.7323C45.1896 68.3952 46.1868 66.4883 46.1868 64.3672C46.2065 60.402 42.9506 57.3072 37.8074 56.2963V45.2672C40.8963 45.5787 43.8505 47.1535 43.8643 50.209Z" fill="#135D78"/>
<path d="M41.9945 67.8559L41.7718 67.5541L41.7717 67.5542L41.9945 67.8559ZM37.8082 69.3021H37.4332V69.7145L37.8438 69.6754L37.8082 69.3021ZM37.8082 58.6778L37.8908 58.312L37.4332 58.2087V58.6778H37.8082ZM35.4746 45.2633H35.8496V44.851L35.4391 44.89L35.4746 45.2633ZM35.4746 55.8856L35.3916 56.2513L35.8496 56.3552V55.8856H35.4746ZM45.0354 51.3693V51.7443L45.0371 51.7443L45.0354 51.3693ZM46.1957 50.1982L45.8207 50.1997V50.1999L46.1957 50.1982ZM37.8074 42.9221H37.4324V43.2691L37.7784 43.296L37.8074 42.9221ZM35.4751 42.9231L35.5044 43.2969L35.8501 43.2698V42.9231H35.4751ZM27.1026 50.1982L27.4776 50.1999V50.1982H27.1026ZM35.4751 58.2671H35.8501V57.9588L35.5476 57.8992L35.4751 58.2671ZM35.4751 69.2961L35.4372 69.6692L35.8501 69.7111V69.2961H35.4751ZM29.4251 64.3563L29.0501 64.3569L29.0501 64.358L29.4251 64.3563ZM28.255 63.1951V62.8201L28.2533 62.8201L28.255 63.1951ZM27.0938 64.3662L26.7188 64.3673L26.7188 64.3678L27.0938 64.3662ZM35.4751 71.6422H35.8501V71.2954L35.5043 71.2684L35.4751 71.6422ZM35.4839 72.6139H35.8589V72.6025L35.8582 72.5912L35.4839 72.6139ZM37.8074 71.7975H37.4324V71.8085L37.4331 71.8195L37.8074 71.7975ZM37.8074 71.6422L37.7785 71.2684L37.4324 71.2951V71.6422H37.8074ZM43.379 69.7323L43.6015 70.0342L43.6017 70.034L43.379 69.7323ZM46.1868 64.3672L45.8118 64.3653V64.3672H46.1868ZM37.8074 56.2963H37.4324V56.6047L37.7351 56.6642L37.8074 56.2963ZM37.8074 45.2672L37.8451 44.8941L37.4324 44.8525V45.2672H37.8074ZM43.4812 64.3613C43.4812 65.6174 42.9043 66.7184 41.7718 67.5541L42.2171 68.1576C43.5211 67.1954 44.2312 65.8796 44.2312 64.3613H43.4812ZM41.7717 67.5542C40.7727 68.292 39.3827 68.7753 37.7726 68.9288L37.8438 69.6754C39.5525 69.5125 41.0824 68.9956 42.2172 68.1575L41.7717 67.5542ZM38.1832 69.3021V58.6778H37.4332V69.3021H38.1832ZM37.7256 59.0436C41.4306 59.8802 43.4937 61.8984 43.4812 64.3594L44.2312 64.3632C44.2463 61.3794 41.7389 59.1809 37.8908 58.312L37.7256 59.0436ZM29.8095 50.2029C29.8086 47.8291 31.9824 45.9716 35.51 45.6366L35.4391 44.89C31.7457 45.2407 29.0584 47.256 29.0595 50.2032L29.8095 50.2029ZM35.0996 45.2633V55.8856H35.8496V45.2633H35.0996ZM35.5575 55.5199C31.8565 54.6804 29.7979 52.6643 29.8095 50.2048L29.0595 50.2013C29.0455 53.1827 31.5474 55.3794 35.3916 56.2513L35.5575 55.5199ZM43.4893 50.2107C43.4932 51.0585 44.1813 51.7443 45.0295 51.7443V50.9943C44.5945 50.9943 44.2413 50.6425 44.2393 50.2073L43.4893 50.2107ZM45.0295 51.7443H45.0354V50.9943H45.0295V51.7443ZM45.0371 51.7443C45.8876 51.7404 46.5745 51.0482 46.5707 50.1965L45.8207 50.1999C45.8227 50.6371 45.4702 50.9923 45.0337 50.9943L45.0371 51.7443ZM46.5707 50.1966C46.5528 45.9234 42.929 42.9433 37.8364 42.5482L37.7784 43.296C42.6401 43.6731 45.8051 46.458 45.8207 50.1997L46.5707 50.1966ZM38.1824 42.9221V42.6696H37.4324V42.9221H38.1824ZM38.1824 42.6696V42.0477H37.4324V42.6696H38.1824ZM38.1824 42.0477V39.4511H37.4324V42.0477H38.1824ZM38.1824 39.4511C38.1824 38.6003 37.4917 37.9099 36.6403 37.9099V38.6599C37.0779 38.6599 37.4324 39.0149 37.4324 39.4511H38.1824ZM36.6403 37.9099C35.7893 37.9099 35.1001 38.6009 35.1001 39.4511H35.8501C35.8501 39.0143 36.2043 38.6599 36.6403 38.6599V37.9099ZM35.1001 39.4511V42.0477H35.8501V39.4511H35.1001ZM35.1001 42.0477V42.6696H35.8501V42.0477H35.1001ZM35.1001 42.6696V42.9231H35.8501V42.6696H35.1001ZM35.4458 42.5492C30.3462 42.9492 26.7276 45.9303 26.7276 50.1982H27.4776C27.4776 46.4649 30.634 43.679 35.5044 43.2969L35.4458 42.5492ZM26.7276 50.1964C26.7077 54.4094 30.1685 57.6034 35.4026 58.635L35.5476 57.8992C30.5032 56.9049 27.4601 53.9095 27.4776 50.1999L26.7276 50.1964ZM35.1001 58.2671V69.2961H35.8501V58.2671H35.1001ZM35.513 68.9231C34.0137 68.7708 32.5738 68.3139 31.5176 67.5493C30.472 66.7924 29.8064 65.7406 29.8001 64.3547L29.0501 64.358C29.0576 66.0236 29.8735 67.285 31.0778 68.1568C32.2714 69.0208 33.8496 69.508 35.4372 69.6692L35.513 68.9231ZM29.8001 64.3558C29.7988 63.5053 29.1072 62.8201 28.2599 62.8201V63.5701C28.6957 63.5701 29.0495 63.9224 29.0501 64.3569L29.8001 64.3558ZM28.2599 62.8201H28.255V63.5701H28.2599V62.8201ZM28.2533 62.8201C27.4025 62.824 26.7162 63.5173 26.7188 64.3673L27.4688 64.365C27.4674 63.928 27.8205 63.5721 28.2567 63.5701L28.2533 62.8201ZM26.7188 64.3678C26.7376 68.6387 30.3562 71.618 35.4459 72.0161L35.5043 71.2684C30.6457 70.8884 27.4853 68.1046 27.4688 64.3645L26.7188 64.3678ZM35.1001 71.6422V72.5166H35.8501V71.6422H35.1001ZM35.1001 72.5166C35.1001 72.5575 35.1043 72.5928 35.1065 72.6111C35.108 72.6234 35.1084 72.6259 35.1092 72.6325C35.1097 72.637 35.1097 72.6377 35.1096 72.6366L35.8582 72.5912C35.8572 72.5738 35.8556 72.5585 35.8543 72.547C35.8532 72.5374 35.8515 72.5239 35.851 72.5202C35.8493 72.5063 35.8501 72.5091 35.8501 72.5166H35.1001ZM35.1089 72.6139V75.1133H35.8589V72.6139H35.1089ZM35.1089 75.1133C35.1089 75.9651 35.7997 76.6544 36.6501 76.6544V75.9044C36.2135 75.9044 35.8589 75.5504 35.8589 75.1133H35.1089ZM36.6501 76.6544C37.5013 76.6544 38.1923 75.9653 38.1923 75.1133H37.4423C37.4423 75.5502 37.0879 75.9044 36.6501 75.9044V76.6544ZM38.1923 75.1133V71.8947H37.4423V75.1133H38.1923ZM38.1923 71.8947C38.1923 71.8503 38.187 71.8123 38.1845 71.7947C38.1812 71.7708 38.1817 71.7735 38.1818 71.7754L37.4331 71.8195C37.4342 71.8389 37.4361 71.8559 37.4377 71.8687C37.4391 71.88 37.441 71.8933 37.4416 71.8975C37.4436 71.9118 37.4423 71.9058 37.4423 71.8947H38.1923ZM38.1824 71.7975V71.6422H37.4324V71.7975H38.1824ZM37.8364 72.0161C40.076 71.8428 42.0568 71.1732 43.6015 70.0342L43.1564 69.4305C41.7459 70.4706 39.9068 71.1037 37.7785 71.2684L37.8364 72.0161ZM43.6017 70.034C45.5014 68.6311 46.5618 66.6154 46.5618 64.3672H45.8118C45.8118 66.3611 44.8778 68.1593 43.1562 69.4307L43.6017 70.034ZM46.5618 64.369C46.5827 60.1518 43.1176 56.9579 37.8798 55.9283L37.7351 56.6642C42.7836 57.6566 45.8302 60.6521 45.8118 64.3653L46.5618 64.369ZM38.1824 56.2963V45.2672H37.4324V56.2963H38.1824ZM37.7698 45.6403C39.2701 45.7916 40.7116 46.2481 41.7693 47.013C42.8162 47.7701 43.483 48.8229 43.4893 50.2107L44.2393 50.2073C44.2318 48.5396 43.4146 47.2772 42.2088 46.4052C41.0137 45.541 39.4337 45.0543 37.8451 44.8941L37.7698 45.6403Z" fill="#135D78"/>
</svg>
