<svg width="74" height="74" viewBox="0 0 74 74" fill="none" xmlns="http://www.w3.org/2000/svg">
<mask id="path-1-outside-1_8603_84359" maskUnits="userSpaceOnUse" x="0" y="0" width="74" height="74" fill="black">
<rect fill="white" width="74" height="74"/>
<path fill-rule="evenodd" clip-rule="evenodd" d="M36.9988 68.6835C28.8589 68.6835 21.4288 65.5958 15.8106 60.5325L60.5319 15.8112C65.5952 21.4294 68.6829 28.8607 68.6829 36.9995C68.6829 54.471 54.4704 68.6835 36.9988 68.6835ZM5.31593 36.9995C5.31593 19.5301 19.5284 5.31654 36.9988 5.31654C45.1387 5.31654 52.57 8.40424 58.1871 13.4664L13.4658 58.1877C8.40362 52.5706 5.31593 45.1394 5.31593 36.9995ZM62.8817 13.4631C62.1366 12.645 61.3539 11.8634 60.5369 11.1183C54.3162 5.45694 46.0525 2 36.9994 2C17.7005 2 2 17.7005 2 36.9994C2 46.0536 5.45584 54.3162 11.1183 60.5369C11.8623 61.355 12.645 62.1377 13.4631 62.8817C19.6827 68.5442 27.9464 72 36.9994 72C56.2984 72 72 56.2984 72 36.9994C72 27.9453 68.5431 19.6838 62.8817 13.4631Z"/>
</mask>
<path fill-rule="evenodd" clip-rule="evenodd" d="M36.9988 68.6835C28.8589 68.6835 21.4288 65.5958 15.8106 60.5325L60.5319 15.8112C65.5952 21.4294 68.6829 28.8607 68.6829 36.9995C68.6829 54.471 54.4704 68.6835 36.9988 68.6835ZM5.31593 36.9995C5.31593 19.5301 19.5284 5.31654 36.9988 5.31654C45.1387 5.31654 52.57 8.40424 58.1871 13.4664L13.4658 58.1877C8.40362 52.5706 5.31593 45.1394 5.31593 36.9995ZM62.8817 13.4631C62.1366 12.645 61.3539 11.8634 60.5369 11.1183C54.3162 5.45694 46.0525 2 36.9994 2C17.7005 2 2 17.7005 2 36.9994C2 46.0536 5.45584 54.3162 11.1183 60.5369C11.8623 61.355 12.645 62.1377 13.4631 62.8817C19.6827 68.5442 27.9464 72 36.9994 72C56.2984 72 72 56.2984 72 36.9994C72 27.9453 68.5431 19.6838 62.8817 13.4631Z" fill="#135D78"/>
<path d="M15.8106 60.5325L14.7499 59.4719L13.6327 60.5891L14.8064 61.6468L15.8106 60.5325ZM60.5319 15.8112L61.6462 14.807L60.5884 13.6333L59.4712 14.7505L60.5319 15.8112ZM58.1871 13.4664L59.2478 14.5271L60.365 13.4098L59.1913 12.3521L58.1871 13.4664ZM13.4658 58.1877L12.3515 59.1919L13.4092 60.3656L14.5264 59.2484L13.4658 58.1877ZM60.5369 11.1183L61.5477 10.01L61.5465 10.0089L60.5369 11.1183ZM11.1183 60.5369L12.228 59.5277L12.2275 59.5272L11.1183 60.5369ZM13.4631 62.8817L14.4729 61.7726L14.4723 61.772L13.4631 62.8817ZM36.9988 67.1835C29.2457 67.1835 22.1694 64.244 16.8148 59.4183L14.8064 61.6468C20.6881 66.9475 28.4722 70.1835 36.9988 70.1835V67.1835ZM16.8712 61.5932L61.5926 16.8719L59.4712 14.7505L14.7499 59.4719L16.8712 61.5932ZM59.4176 16.8154C64.2434 22.17 67.1829 29.2474 67.1829 36.9995H70.1829C70.1829 28.474 66.9469 20.6888 61.6462 14.807L59.4176 16.8154ZM67.1829 36.9995C67.1829 53.6426 53.6419 67.1835 36.9988 67.1835V70.1835C55.2988 70.1835 70.1829 55.2994 70.1829 36.9995H67.1829ZM6.81593 36.9995C6.81593 20.3585 20.3569 6.81654 36.9988 6.81654V3.81654C18.6999 3.81654 3.81593 18.7017 3.81593 36.9995H6.81593ZM36.9988 6.81654C44.7521 6.81654 51.8294 9.75608 57.1829 14.5807L59.1913 12.3521C53.3106 7.0524 45.5254 3.81654 36.9988 3.81654V6.81654ZM57.1264 12.4057L12.4051 57.1271L14.5264 59.2484L59.2478 14.5271L57.1264 12.4057ZM14.58 57.1835C9.75546 51.83 6.81593 44.7527 6.81593 36.9995H3.81593C3.81593 45.526 7.05178 53.3112 12.3515 59.1919L14.58 57.1835ZM63.9907 12.453C63.2137 11.5999 62.3982 10.7856 61.5477 10.01L59.5261 12.2266C60.3097 12.9412 61.0595 13.69 61.7728 14.4731L63.9907 12.453ZM61.5465 10.0089C55.0615 4.10699 46.4416 0.5 36.9994 0.5V3.5C45.6634 3.5 53.571 6.80689 59.5273 12.2276L61.5465 10.0089ZM36.9994 0.5C16.8721 0.5 0.5 16.8721 0.5 36.9994H3.5C3.5 18.5289 18.5289 3.5 36.9994 3.5V0.5ZM0.5 36.9994C0.5 46.4426 4.10583 55.0615 10.009 61.5466L12.2275 59.5272C6.80584 53.571 3.5 45.6646 3.5 36.9994H0.5ZM10.0086 61.5462C10.7845 62.3993 11.6007 63.2155 12.4538 63.9914L14.4723 61.772C13.6893 61.0599 12.9401 60.3107 12.228 59.5277L10.0086 61.5462ZM12.4533 63.9909C18.9374 69.8942 27.5574 73.5 36.9994 73.5V70.5C28.3354 70.5 20.4279 67.1941 14.4729 61.7726L12.4533 63.9909ZM36.9994 73.5C57.1268 73.5 73.5 57.1268 73.5 36.9994H70.5C70.5 55.47 55.47 70.5 36.9994 70.5V73.5ZM73.5 36.9994C73.5 27.5561 69.893 18.9385 63.9911 12.4535L61.7724 14.4727C67.1932 20.4291 70.5 28.3345 70.5 36.9994H73.5Z" fill="#135D78" mask="url(#path-1-outside-1_8603_84359)"/>
</svg>
