<svg width="61" height="87" viewBox="0 0 61 87" fill="none" xmlns="http://www.w3.org/2000/svg">
<path fill-rule="evenodd" clip-rule="evenodd" d="M19.8494 2.79446C16.9937 2.79446 14.6697 5.11848 14.6697 7.97418C14.6697 10.8299 16.9937 13.1523 19.8494 13.1523C22.7051 13.1523 25.0283 10.8299 25.0283 7.97418C25.0283 5.11848 22.7051 2.79446 19.8494 2.79446ZM19.8497 15.6415C15.6214 15.6415 12.1816 12.2025 12.1816 7.97419C12.1816 3.74583 15.6214 0.305298 19.8497 0.305298C24.0781 0.305298 27.5178 3.74583 27.5178 7.97419C27.5178 12.2025 24.0781 15.6415 19.8497 15.6415Z" fill="#135D78"/>
<path fill-rule="evenodd" clip-rule="evenodd" d="M27.5426 59.8733H27.5208C26.8329 59.8612 26.2851 59.2949 26.2972 58.6078L26.6476 38.1007C26.6589 37.4136 27.23 36.8698 27.9131 36.8779C28.6003 36.89 29.148 37.4563 29.1367 38.1426L28.7863 58.6496C28.7743 59.3295 28.22 59.8733 27.5426 59.8733ZM26.7197 83.083H26.6858C25.9987 83.0652 25.4565 82.4925 25.4751 81.8062L25.6966 72.73C25.7143 72.0541 26.2685 71.5184 26.9404 71.5184C26.9517 71.5184 26.9629 71.5184 26.9742 71.5192C27.6605 71.5369 28.2027 72.1089 28.185 72.7968L27.9626 81.873C27.9449 82.5481 27.3915 83.083 26.7197 83.083Z" fill="#135D78"/>
<path fill-rule="evenodd" clip-rule="evenodd" d="M20.2075 83.0835C19.5203 83.0835 18.9629 82.5268 18.9629 81.8389V48.3407C18.9629 47.6535 19.5203 47.0961 20.2075 47.0961C20.8954 47.0961 21.4521 47.6535 21.4521 48.3407V81.8389C21.4521 82.5268 20.8954 83.0835 20.2075 83.0835Z" fill="#135D78"/>
<path fill-rule="evenodd" clip-rule="evenodd" d="M13.4293 83.0834C12.7558 83.0834 12.2024 82.5461 12.1855 81.8694L10.9184 29.2537C10.9014 28.5666 11.446 27.9963 12.1331 27.9802C12.817 27.9624 13.3906 28.507 13.4075 29.1941L14.6739 81.809C14.69 82.4961 14.147 83.0665 13.4599 83.0834H13.4293Z" fill="#135D78"/>
<path fill-rule="evenodd" clip-rule="evenodd" d="M3.96919 50.2624C3.49069 50.2624 3.08146 50.1787 2.75682 50.0731C2.03988 49.8395 1.58152 49.4569 1.41235 49.2974C0.241075 48.2888 -0.261591 46.6793 0.132325 45.1818C0.139575 45.1544 0.146825 45.127 0.156492 45.0996L6.08055 27.5603C6.47446 26.3946 6.84341 25.1903 7.20027 24.0247C7.34446 23.5551 7.48866 23.0854 7.63366 22.6158C8.5536 19.6578 10.8937 17.4264 13.8936 16.6482L16.1371 16.0658C16.8033 15.8926 17.4816 16.2922 17.6548 16.9567C17.8272 17.6221 17.4276 18.3012 16.7622 18.4744L14.5187 19.0568C12.3582 19.6183 10.673 21.2246 10.01 23.3553C9.86585 23.8209 9.72327 24.2873 9.57988 24.7537C9.21818 25.9355 8.8436 27.1575 8.43841 28.3578L2.53046 45.8496C2.39271 46.4256 2.59491 47.0402 3.05005 47.4229C3.09677 47.4623 3.09999 47.4607 3.13382 47.4994C3.28044 47.6267 3.90716 48.0641 5.03735 47.4712C5.22666 47.3721 5.41032 47.1184 5.54082 46.7744L11.0774 32.0488C11.3191 31.406 12.0368 31.0806 12.6805 31.3214C13.3233 31.5639 13.6487 32.2816 13.4071 32.9253L7.86888 47.6532C7.51524 48.5885 6.93524 49.2869 6.19252 49.6768C5.35393 50.115 4.60155 50.2624 3.96919 50.2624Z" fill="#135D78"/>
<path fill-rule="evenodd" clip-rule="evenodd" d="M18.9628 81.672C18.9652 81.7066 18.9612 81.7413 18.9612 81.7767C18.9612 82.9013 17.9567 83.814 16.8184 83.814C15.6802 83.814 14.6748 82.8997 14.6748 81.7751C14.6748 81.7397 14.6732 81.7066 14.6748 81.672H12.1921C12.1913 81.7066 12.1816 81.7397 12.1816 81.7743C12.1816 84.3005 14.2616 86.3547 16.8184 86.3547C19.3753 86.3547 21.4512 84.3134 21.4512 81.788C21.4512 81.7526 21.4455 81.7066 21.4447 81.672H18.9628Z" fill="#135D78"/>
<path fill-rule="evenodd" clip-rule="evenodd" d="M25.4747 81.672C25.4763 81.7066 25.4634 81.7413 25.4634 81.7767C25.4634 82.9013 24.4597 83.814 23.3206 83.814C22.1824 83.814 21.4541 82.8997 21.4541 81.7751C21.4541 81.7397 21.4525 81.7066 21.4541 81.672H18.9714C18.9706 81.7066 18.9609 81.7397 18.9609 81.7743C18.9609 84.3005 20.7638 86.3547 23.3206 86.3547C25.8782 86.3547 27.9542 84.3134 27.9542 81.788C27.9542 81.7526 27.9477 81.7066 27.9469 81.672H25.4747Z" fill="#135D78"/>
<path fill-rule="evenodd" clip-rule="evenodd" d="M41.27 7.7726C38.4143 7.7726 36.0911 10.0966 36.0911 12.9523C36.0911 15.808 38.4143 18.1304 41.27 18.1304C44.1257 18.1304 46.4497 15.808 46.4497 12.9523C46.4497 10.0966 44.1257 7.7726 41.27 7.7726ZM41.2696 20.6196C37.0421 20.6196 33.6016 17.1799 33.6016 12.9523C33.6016 8.72398 37.0421 5.28345 41.2696 5.28345C45.498 5.28345 48.9385 8.72398 48.9385 12.9523C48.9385 17.1799 45.498 20.6196 41.2696 20.6196Z" fill="#135D78"/>
<path fill-rule="evenodd" clip-rule="evenodd" d="M50.9453 40.5841C50.4829 40.5841 50.0181 40.5221 49.563 40.3964L38.8717 37.4336C38.2087 37.2499 37.8204 36.5644 38.0049 35.9022C38.1877 35.2392 38.8741 34.8518 39.5362 35.0346L50.2276 37.9974C50.8728 38.1763 51.5567 38.1078 52.1529 37.8057C53.2992 37.2249 53.8719 35.9078 53.5142 34.6737L53.1203 33.3091C52.5597 31.6465 51.2305 27.3464 51.1741 27.1643C50.9711 26.507 51.3392 25.8102 51.9966 25.6072C52.6539 25.4042 53.3491 25.7723 53.5521 26.4297C53.5666 26.474 54.9425 30.9271 55.487 32.539C55.4935 32.5567 55.4983 32.5745 55.5032 32.5914L55.9059 33.9826C56.5947 36.3638 55.4895 38.9053 53.2782 40.0258C52.5468 40.3964 51.7485 40.5841 50.9453 40.5841Z" fill="#135D78"/>
<path fill-rule="evenodd" clip-rule="evenodd" d="M47.362 24.0756C47.2581 24.0756 47.1526 24.0619 47.0479 24.0346L44.8052 23.4529C44.1398 23.2798 43.7403 22.6007 43.9135 21.9353C44.0858 21.2707 44.7657 20.8703 45.4311 21.0435L47.6738 21.626C48.3392 21.7991 48.7387 22.4782 48.5655 23.1436C48.4197 23.7035 47.9155 24.0756 47.362 24.0756Z" fill="#135D78"/>
<path fill-rule="evenodd" clip-rule="evenodd" d="M30.8307 41.2054C29.9526 41.2054 29.0786 40.9428 28.3334 40.4256C26.7892 39.3559 26.1004 37.4241 26.6168 35.6181L27.4828 32.5948C27.4876 32.5755 27.4933 32.5578 27.4997 32.5385C27.8936 31.3712 28.2634 30.1645 28.621 28.9972C28.7644 28.5292 28.9078 28.0612 29.0528 27.594C29.9736 24.636 32.3137 22.4046 35.3128 21.6256L37.5563 21.044C38.2216 20.87 38.9007 21.2703 39.0731 21.9349C39.2463 22.6003 38.8468 23.2794 38.1822 23.4526L35.9387 24.035C33.7774 24.5965 32.0922 26.2028 31.4292 28.3335C31.285 28.7975 31.1432 29.2615 31.0014 29.7255C30.6414 30.9008 30.2692 32.1147 29.8672 33.3069L29.0093 36.3028C28.7862 37.0834 29.0842 37.9179 29.7512 38.3795C30.3127 38.7694 31.0441 38.825 31.658 38.5261L45.7004 31.6854C44.306 30.9241 42.6401 30.726 41.0959 31.1634L33.9216 33.195C33.2618 33.3819 32.5723 32.9984 32.3854 32.3363C32.1977 31.6749 32.5828 30.987 33.2441 30.8001L40.4176 28.7693C42.9881 28.0402 45.7971 28.5646 47.9318 30.1693L48.8864 30.8863C49.2328 31.1481 49.4181 31.5694 49.377 32.0003C49.3359 32.4321 49.0733 32.8107 48.6834 33L32.7487 40.7632C32.1413 41.0588 31.4848 41.2054 30.8307 41.2054Z" fill="#135D78"/>
<path fill-rule="evenodd" clip-rule="evenodd" d="M36.5864 18.591C36.5437 18.591 36.5018 18.5885 36.4583 18.5845L24.9678 17.4124C24.2847 17.3424 23.7861 16.7309 23.8562 16.0478C23.9263 15.3639 24.5337 14.8653 25.2208 14.9362L36.7104 16.1082C37.3943 16.1783 37.8922 16.7889 37.8221 17.472C37.7568 18.1133 37.2163 18.591 36.5864 18.591Z" fill="#135D78"/>
<path fill-rule="evenodd" clip-rule="evenodd" d="M50.773 28.3308C50.3291 28.3308 49.8844 28.2551 49.4575 28.1012C47.9245 27.5486 46.8942 26.0825 46.8942 24.4529V22.3125C46.8942 21.6254 47.4509 21.0679 48.138 21.0679C48.8259 21.0679 49.3826 21.6254 49.3826 22.3125V24.4529C49.3826 25.0361 49.7515 25.5613 50.3009 25.7595C50.6876 25.898 51.096 25.8634 51.4537 25.6628C51.8105 25.4622 52.0522 25.1303 52.1335 24.7292L52.3301 23.7657C52.6016 22.4309 51.9974 21.0647 50.8261 20.3679L46.3988 17.7313C45.8083 17.3793 45.615 16.6156 45.9662 16.0251C46.319 15.4347 47.0827 15.2413 47.6724 15.5926L52.0997 18.2299C54.178 19.4673 55.2502 21.8912 54.7685 24.2611L54.5736 25.2254C54.348 26.3298 53.656 27.2804 52.6733 27.833C52.086 28.1632 51.4311 28.3308 50.773 28.3308Z" fill="#135D78"/>
<path fill-rule="evenodd" clip-rule="evenodd" d="M47.4422 6.85376C47.7974 6.86907 48.1801 6.90774 48.5901 6.97138C49.0436 7.04146 49.5028 7.17276 49.9515 7.36126C51.685 8.08626 53.2132 7.71813 54.4102 7.03582C53.5064 6.87632 52.7854 6.47435 52.0653 6.01115C51.2686 5.49721 50.7425 5.15888 49.539 5.34335C48.3879 5.52138 47.7717 6.18918 47.4422 6.85376ZM51.8332 10.2467C50.9309 10.2467 49.9788 10.0703 48.9912 9.65627C48.7277 9.54672 48.4643 9.47019 48.209 9.43072C47.0554 9.25269 46.5181 9.36547 46.4077 9.42427C46.0195 9.6313 45.549 9.62002 45.1736 9.39044C44.7966 9.16166 44.5695 8.75083 44.5743 8.31099C44.5977 6.67411 45.5837 3.43497 49.1595 2.88316C51.2967 2.55288 52.4703 3.31091 53.4137 3.91911C54.4375 4.57886 55.1754 5.05494 57.7065 3.98435C58.2091 3.77169 58.7932 3.91185 59.1436 4.32994C59.4956 4.74802 59.5335 5.34574 59.2378 5.80491C58.0996 7.56988 55.347 10.2467 51.8332 10.2467Z" fill="#135D78"/>
<path fill-rule="evenodd" clip-rule="evenodd" d="M46.7766 83.0873C46.7621 83.0873 46.7476 83.0865 46.7331 83.0865C46.0467 83.0632 45.5086 82.4872 45.532 81.7993L46.0024 68.0613C46.025 67.3911 46.5752 66.8586 47.2462 66.8586H57.1312L46.6751 39.0653C46.4326 38.4217 46.758 37.7039 47.4009 37.4615C48.0437 37.2206 48.7623 37.5452 49.0047 38.1889L60.0932 67.665C60.2374 68.0476 60.1842 68.4762 59.9514 68.8121C59.7186 69.1472 59.3368 69.3478 58.9284 69.3478H48.4489L48.0195 81.8854C47.997 82.5573 47.4444 83.0873 46.7766 83.0873Z" fill="#135D78"/>
<path fill-rule="evenodd" clip-rule="evenodd" d="M41.7153 83.0874C41.0273 83.0874 40.4707 82.5299 40.4707 81.8428V68.1032C40.4707 67.4169 41.0273 66.8586 41.7153 66.8586C42.4032 66.8586 42.9599 67.4169 42.9599 68.1032V81.8428C42.9599 82.5299 42.4032 83.0874 41.7153 83.0874Z" fill="#135D78"/>
<path fill-rule="evenodd" clip-rule="evenodd" d="M36.2369 83.0873C35.5691 83.0873 35.0165 82.5581 34.9939 81.8854L34.5645 69.3478H24.0851C23.6783 69.3478 23.298 69.1496 23.0644 68.8169C22.8316 68.4842 22.776 68.0589 22.9154 67.677L33.6728 38.2001C33.908 37.5549 34.6225 37.2214 35.2686 37.4574C35.9146 37.6926 36.2465 38.4072 36.0113 39.0532L25.8637 66.8586H35.7672C36.4375 66.8586 36.9885 67.3911 37.011 68.0613L37.4815 81.7992C37.5048 82.4872 36.9667 83.0631 36.2804 83.0865C36.2659 83.0865 36.2514 83.0873 36.2369 83.0873Z" fill="#135D78"/>
<path fill-rule="evenodd" clip-rule="evenodd" d="M45.5267 81.8475C45.5025 82.5354 44.9403 83.0872 44.2467 83.0872C44.1653 83.0872 44.084 83.0792 44.0042 83.0647C43.9277 83.0494 43.8512 83.0276 43.777 82.9986C43.7045 82.9704 43.6353 82.935 43.5692 82.8939C43.504 82.8528 43.4419 82.8061 43.3855 82.7545C43.3284 82.703 43.276 82.6458 43.2293 82.5854C43.1825 82.5242 43.1407 82.4581 43.1052 82.3896C43.0698 82.3195 43.04 82.247 43.0182 82.1713C42.9949 82.0956 42.9795 82.0167 42.9707 81.9369C42.9667 81.9007 42.965 81.8652 42.9618 81.8298C42.961 81.7774 42.961 81.725 42.961 81.6719H40.4807C40.4799 81.7001 40.4727 81.7275 40.4727 81.7557C40.4727 83.8098 42.1627 85.4797 44.2419 85.4797C46.321 85.4797 48.0094 83.8195 48.0094 81.7661C48.0094 81.7371 48.0046 81.7001 48.0038 81.6719H45.5364" fill="#135D78"/>
<path fill-rule="evenodd" clip-rule="evenodd" d="M40.4791 81.8475C40.4549 82.5354 39.7686 83.2153 38.7576 83.0872C38.6778 83.0768 38.5957 83.0792 38.5159 83.0647C38.4386 83.0494 38.3621 83.0276 38.2888 82.9986C38.2163 82.9704 38.1462 82.935 38.0801 82.8939C38.0149 82.8528 37.9537 82.8061 37.8973 82.7545C37.8401 82.703 37.7877 82.6458 37.741 82.5854C37.6935 82.5242 37.6524 82.4581 37.6169 82.3896C37.5807 82.3195 37.5517 82.247 37.5291 82.1713C37.5066 82.0956 37.4905 82.0167 37.4824 81.9369C37.4784 81.9007 37.476 81.8652 37.4735 81.8298V81.6719H34.9916C34.9916 81.7001 34.9844 81.7275 34.9844 81.7557C34.9844 83.8098 36.6744 85.4797 38.7536 85.4797C40.8327 85.4797 42.9618 83.8195 42.9618 81.7661C42.9618 81.7371 42.9562 81.7001 42.9562 81.6719H40.4887" fill="#135D78"/>
</svg>
