<svg width="44" height="88" viewBox="0 0 44 88" fill="none" xmlns="http://www.w3.org/2000/svg">
<path fill-rule="evenodd" clip-rule="evenodd" d="M21.4067 2.68017C18.3254 2.68017 15.819 5.18652 15.819 8.26692C15.819 11.3473 18.3254 13.8537 21.4067 13.8537C24.4871 13.8537 26.9934 11.3473 26.9934 8.26692C26.9934 5.18652 24.4871 2.68017 21.4067 2.68017ZM21.4084 16.5347C16.8488 16.5347 13.1406 12.8256 13.1406 8.26687C13.1406 3.70813 16.8488 0 21.4084 0C25.9672 0 29.6762 3.70813 29.6762 8.26687C29.6762 12.8256 25.9672 16.5347 21.4084 16.5347Z" fill="#135D78"/>
<path fill-rule="evenodd" clip-rule="evenodd" d="M28.8168 84.7154H28.7959C28.0553 84.7036 27.4649 84.0941 27.4767 83.3544L28.3619 31.4634C28.3747 30.7228 28.9824 30.1378 29.7229 30.1442C30.4643 30.1551 31.0539 30.7647 31.042 31.5052L30.1569 83.3963C30.145 84.1286 29.5482 84.7154 28.8168 84.7154Z" fill="#135D78"/>
<path fill-rule="evenodd" clip-rule="evenodd" d="M21.7941 84.7155C21.0545 84.7155 20.4531 84.116 20.4531 83.3755V51.799C20.4531 51.0585 21.0545 50.459 21.7941 50.459C22.5337 50.459 23.1342 51.0585 23.1342 51.799V83.3755C23.1342 84.116 22.5337 84.7155 21.7941 84.7155Z" fill="#135D78"/>
<path fill-rule="evenodd" clip-rule="evenodd" d="M38.9194 53.8907C37.1427 53.8907 35.4778 52.8026 34.8173 51.0614C34.8101 51.0432 34.8046 51.0268 34.7991 51.0095L28.4318 31.9085C28.1971 31.2052 28.5765 30.4465 29.2788 30.2136C29.9811 29.9789 30.7399 30.3583 30.9746 31.0606L37.3319 50.1316C37.6585 50.9604 38.5737 51.398 39.4261 51.1323C40.2831 50.8631 40.7807 49.9815 40.5733 49.1118L32.7922 26.0743C32.7677 26.0015 32.7495 25.926 32.7377 25.8505C32.3146 23.1221 30.315 20.9114 27.6431 20.2173L25.2241 19.5896C24.5072 19.4031 24.0778 18.6716 24.2643 17.9548C24.4499 17.2388 25.1813 16.8085 25.8982 16.9941L28.3172 17.6227C31.9862 18.5761 34.7418 21.5901 35.3677 25.3219L43.1306 48.3039C43.1406 48.334 43.1488 48.3631 43.1561 48.3931C43.752 50.6611 42.4656 52.9882 40.2267 53.6896C39.7937 53.8261 39.3533 53.8907 38.9194 53.8907Z" fill="#135D78"/>
<path fill-rule="evenodd" clip-rule="evenodd" d="M14.4835 84.7154C13.7521 84.7154 13.1544 84.1287 13.1435 83.3954L12.3029 31.5043C12.292 30.7638 12.8824 30.1552 13.6229 30.1442C14.3598 30.1361 14.9721 30.7238 14.983 31.4643L15.8245 83.3554C15.8345 84.095 15.2441 84.7045 14.5036 84.7154H14.4835Z" fill="#135D78"/>
<path fill-rule="evenodd" clip-rule="evenodd" d="M4.38204 53.8907C3.94809 53.8907 3.50868 53.8261 3.07473 53.6896C0.836751 52.9882 -0.450541 50.6611 0.145343 48.3931C0.152621 48.3631 0.160809 48.334 0.171726 48.3039L7.93369 25.3219C8.5596 21.5901 11.3152 18.5761 14.9842 17.6227L17.4032 16.9941C18.121 16.8085 18.8516 17.2388 19.0372 17.9548C19.2237 18.6716 18.7943 19.4031 18.0774 19.5896L15.6584 20.2173C12.9864 20.9114 10.9868 23.1221 10.5638 25.8505C10.5519 25.926 10.5347 26.0015 10.5092 26.0743L2.72812 49.1118C2.52069 49.9815 3.01833 50.8631 3.87531 51.1323C4.72865 51.3989 5.64386 50.9595 5.96955 50.1307L12.3733 31.0579C12.6089 30.3564 13.3685 29.978 14.0699 30.2145C14.7723 30.4492 15.1498 31.2089 14.9142 31.9112L8.50137 51.0123C8.49591 51.0286 8.49045 51.045 8.48409 51.0614C7.82361 52.8026 6.15877 53.8907 4.38204 53.8907Z" fill="#135D78"/>
<path fill-rule="evenodd" clip-rule="evenodd" d="M27.4809 83.0364C27.4827 83.0728 27.4791 83.1101 27.4791 83.1474C27.4791 84.34 26.5011 85.3071 25.3084 85.3071C24.1167 85.3071 23.1342 84.3382 23.1342 83.1455C23.1342 83.1082 23.1323 83.0728 23.1342 83.0364H20.465C20.464 83.0737 20.4531 83.1073 20.4531 83.1446C20.4531 85.8229 22.6311 88 25.3084 88C27.9867 88 30.1601 85.8366 30.1601 83.1592C30.1601 83.1219 30.1538 83.0737 30.1529 83.0364H27.4809Z" fill="#135D78"/>
<path fill-rule="evenodd" clip-rule="evenodd" d="M20.4649 83.0364C20.4667 83.0728 20.4594 83.1073 20.4594 83.1446C20.4594 84.3373 19.3331 85.3107 18.0031 85.3071C16.8104 85.3035 15.8224 84.3382 15.8224 83.1455C15.8224 83.1082 15.8188 83.0728 15.8206 83.0364H13.1587C13.1578 83.0737 13.1387 83.211 13.1387 83.2483C13.1387 85.9266 15.3257 88 18.0031 88C20.6796 88 22.8584 85.8229 22.8584 83.1446C22.8584 83.1073 22.8475 83.0737 22.8466 83.0364H20.4649Z" fill="#135D78"/>
</svg>
