<svg width="88" height="84" viewBox="0 0 88 84" fill="none" xmlns="http://www.w3.org/2000/svg">
<path fill-rule="evenodd" clip-rule="evenodd" d="M70.1094 42.4968H70.0988C68.9513 42.4968 68.0175 43.4239 68.0117 44.5732C68.0059 45.7255 68.9359 46.6651 70.0891 46.6709H70.0997C71.2472 46.6709 72.181 45.7429 72.1858 44.5945C72.1916 43.4422 71.2617 42.5026 70.1094 42.4968Z" fill="#135D78"/>
<path d="M70.1094 42.4968H70.0988C68.9513 42.4968 68.0175 43.4239 68.0117 44.5732C68.0059 45.7255 68.9359 46.6651 70.0891 46.6709H70.0997C71.2472 46.6709 72.181 45.7429 72.1858 44.5945C72.1916 43.4422 71.2617 42.5026 70.1094 42.4968" stroke="#135D78" stroke-width="0.5"/>
<mask id="mask0_8617_71323" style="mask-type:alpha" maskUnits="userSpaceOnUse" x="0" y="0" width="88" height="84">
<path fill-rule="evenodd" clip-rule="evenodd" d="M0.5 0.966675H87.2693V83.4608H0.5V0.966675Z" fill="white" stroke="white" stroke-width="0.5"/>
</mask>
<g mask="url(#mask0_8617_71323)">
<path fill-rule="evenodd" clip-rule="evenodd" d="M80.721 59.6306C80.345 60.6427 79.2884 61.1792 78.5238 61.0961L76.1371 60.8332C76.0839 60.8274 76.0317 60.8245 75.9805 60.8264C75.0622 60.8515 74.5334 61.7061 74.1071 62.3934C74.0491 62.4891 73.9988 62.5732 73.9592 62.6283C72.7605 64.2764 71.3202 65.8144 69.6798 67.2006C69.0418 67.74 68.7334 68.5568 68.8552 69.3862C68.862 69.4317 68.8707 69.4752 68.8832 69.5187L71.3328 78.5966C71.3927 79.2027 70.9645 79.7566 70.3555 79.8465L62.9682 80.935C62.6482 80.9824 62.2857 81.0365 61.5714 79.6551L59.8169 75.2771C59.8053 75.2481 59.7937 75.2201 59.7792 75.192C58.8802 73.3902 57.5578 73.5265 57.0309 73.6676C53.7694 74.5444 50.3542 74.9803 46.8809 74.9629C43.4067 74.9455 39.9973 74.4748 36.7454 73.5661C35.1553 73.1214 34.3607 74.4303 34.0214 74.989C34.0175 74.9977 34.0117 75.0074 34.0059 75.0161L31.276 79.8098C30.5027 81.1815 30.2214 81.2134 29.827 81.1515L22.4504 79.9886C22.1488 79.9413 21.8829 79.7769 21.7012 79.5275C21.5359 79.3013 21.4595 79.0307 21.4827 78.759L25.0246 68.6651C25.159 68.2794 25.0787 67.8512 24.8148 67.5409C20.4097 62.3731 16.1825 56.6001 17.0573 47.8905C17.1975 46.4859 17.5233 45.0717 18.0259 43.6864C18.0994 43.4805 18.1767 43.2785 18.255 43.0765C18.2666 43.0484 18.2773 43.0214 18.2879 42.9933C18.2908 42.9885 18.2908 42.9827 18.2927 42.9779C20.9907 36.1368 26.2194 31.2464 33.8512 28.4257C34.6642 29.3227 35.5806 30.1328 36.585 30.8365C35.628 31.1265 34.8585 31.4204 34.3423 31.6727C33.7739 31.9511 33.5371 32.6374 33.8164 33.2068C34.0948 33.7762 34.7821 34.012 35.3496 33.7336C36.6778 33.085 41.0046 31.7529 45.9201 31.7781C50.8307 31.8022 55.1479 33.1778 56.4693 33.84C56.6346 33.9231 56.8105 33.9618 56.9826 33.9618C57.4031 33.9618 57.8081 33.7307 58.0092 33.3296C58.2934 32.7631 58.0643 32.0729 57.4988 31.7897C56.9836 31.5316 56.216 31.229 55.26 30.9293C56.5988 30.0091 57.7849 28.9013 58.7864 27.6504C59.5133 27.8834 60.6289 28.2855 61.4409 28.5774C62.2393 28.8655 62.9305 29.1149 63.2785 29.2203C63.6101 29.3208 63.9706 29.2647 64.2577 29.0704C68.4908 26.1859 71.4816 25.9993 74.5286 26.5726C72.5063 28.7543 71.3927 30.5765 70.3371 33.2725C70.1621 33.7191 70.2839 34.2286 70.6426 34.5476C75.2584 38.6549 76.0317 40.9875 77.3155 44.8532L77.3309 44.8996C77.6296 45.7986 78.4155 46.4047 79.3426 46.4443L83.9845 46.6038C84.2735 46.6444 84.5326 46.7933 84.7192 47.0243C84.8893 47.236 84.9773 47.4922 84.9744 47.7561L80.721 59.6306ZM31.8676 17.3119C31.886 13.54 33.3737 10.001 36.0543 7.34749C38.7184 4.71042 42.2429 3.26139 45.9877 3.26139H46.0612C53.8477 3.30102 60.1513 9.66749 60.1117 17.455C60.0846 22.8461 56.9381 27.7983 52.0826 30.1251C50.243 29.7587 48.1279 29.4938 45.9317 29.4832C43.7335 29.4735 41.6155 29.7162 39.773 30.0651C34.9358 27.6891 31.8406 22.7127 31.8676 17.3119V17.3119ZM8.41534 52.6697C7.16448 53.4865 5.38581 53.6131 4.18714 52.9713C3.27558 52.4831 2.80578 51.6141 2.79418 50.3864C2.78451 49.4236 3.24271 48.7953 3.62841 48.4376C4.19584 47.9127 4.98658 47.615 5.78988 47.615C5.88171 47.615 5.97451 47.6188 6.06634 47.6266C7.81021 47.7774 9.13164 48.6416 9.89048 50.1264C10.0635 50.4666 10.2037 50.8301 10.311 51.211C9.70874 51.7513 9.07751 52.2376 8.41534 52.6697V52.6697ZM86.5075 45.5879C85.9304 44.8687 85.1107 44.4182 84.1981 44.3186C84.1701 44.3157 84.1411 44.3138 84.1131 44.3128L79.5011 44.1543L79.4924 44.1301C78.2396 40.3543 77.3184 37.5829 72.7702 33.3798C73.849 30.8433 75.0622 29.1913 77.5813 26.733C77.8781 26.444 77.995 26.0177 77.8887 25.6165C77.7824 25.2163 77.4682 24.9051 77.067 24.8007C73.1192 23.7818 69.1007 23.1786 63.4419 26.8568C63.1045 26.7388 62.6695 26.5822 62.2181 26.4198C61.4177 26.1308 60.7197 25.8804 60.1397 25.6823C61.5781 23.2308 62.3911 20.4043 62.4066 17.4666C62.453 8.41469 55.1237 1.01196 46.0718 0.966524C41.6803 0.952024 37.5565 2.63209 34.4399 5.71672C31.3234 8.80136 29.595 12.9155 29.5728 17.3003C29.5554 20.6459 30.5713 23.8514 32.3722 26.5349C24.4359 29.6417 18.9762 34.913 16.1235 42.2277C14.9858 45.1094 13.6469 47.4787 12.0732 49.3733C12.0287 49.2757 11.9823 49.179 11.933 49.0833C10.8136 46.889 8.80104 45.5598 6.26548 45.3404C4.71494 45.208 3.18471 45.7222 2.07014 46.7546C1.04258 47.7058 0.485776 49.0031 0.500276 50.4086C0.520576 52.4783 1.44568 54.1071 3.10544 54.9945C5.02911 56.024 7.72804 55.8577 9.66911 54.5904C9.96878 54.3952 10.2617 54.1902 10.5507 53.9766C10.4318 55.3957 9.97264 56.8631 9.18964 58.1661C8.86388 58.7104 9.03981 59.4141 9.58211 59.7408C9.76771 59.852 9.97168 59.9052 10.1727 59.9052C10.5623 59.9052 10.9412 59.706 11.1568 59.3484C12.5362 57.0506 13.1008 54.3932 12.804 51.9959C13.4546 51.3241 14.0703 50.5884 14.6532 49.7929C14.5363 57.9525 18.6011 63.7264 22.6418 68.5249L19.2768 78.1143C19.2546 78.179 19.2372 78.2467 19.2265 78.3153C19.0825 79.2221 19.3039 80.1317 19.8452 80.877C20.3885 81.6223 21.186 82.1114 22.0927 82.2545L29.4684 83.4174C29.6559 83.4474 29.8338 83.4609 30.0049 83.4609C31.8512 83.4609 32.7637 81.8427 33.2722 80.9408L35.9924 76.1655C36.1036 75.9828 36.1809 75.8716 36.2321 75.8039C39.6503 76.7503 43.2279 77.2385 46.8693 77.2568C50.5098 77.2723 54.1029 76.8218 57.5346 75.9083C57.5742 75.9547 57.6341 76.0379 57.7066 76.178L59.4621 80.559C59.4747 80.5909 59.4892 80.6228 59.5056 80.6537C59.9474 81.5198 60.9817 83.5469 63.3017 83.2057L70.6899 82.1163C72.5691 81.8398 73.8732 80.0853 73.5957 78.2061C73.5899 78.1616 73.5803 78.1181 73.5696 78.0746L71.1249 69.0208C71.1278 68.9947 71.1404 68.9706 71.1597 68.9541C72.9423 67.4481 74.5073 65.7738 75.8152 63.9768C75.8925 63.8704 75.9699 63.7457 76.0598 63.6007C76.1265 63.4925 76.2396 63.3088 76.342 63.1638L78.2734 63.3765C79.909 63.5553 82.0734 62.5819 82.8757 60.4165L87.188 48.3796C87.219 48.2945 87.2393 48.2066 87.2489 48.1176C87.3475 47.2051 87.0856 46.3071 86.5075 45.5879V45.5879Z" fill="#135D78"/>
<path d="M80.721 59.6306L80.9554 59.7177L80.9564 59.7149L80.721 59.6306ZM78.5238 61.0961L78.4964 61.3446L78.4968 61.3446L78.5238 61.0961ZM76.1371 60.8332L76.1645 60.5847L76.1642 60.5846L76.1371 60.8332ZM75.9805 60.8264L75.9873 61.0763L75.9899 61.0762L75.9805 60.8264ZM74.1071 62.3934L73.8946 62.2616L73.8933 62.2638L74.1071 62.3934ZM73.9592 62.6283L74.1614 62.7753L74.1622 62.7742L73.9592 62.6283ZM69.6798 67.2006L69.5184 67.0096L69.5184 67.0097L69.6798 67.2006ZM68.8552 69.3862L68.6079 69.4225L68.6079 69.423L68.8552 69.3862ZM68.8832 69.5187L69.1246 69.4535L69.1234 69.4493L68.8832 69.5187ZM71.3328 78.5966L71.5816 78.572L71.5795 78.5515L71.5741 78.5315L71.3328 78.5966ZM70.3555 79.8465L70.3919 80.0938L70.392 80.0938L70.3555 79.8465ZM62.9682 80.935L62.9318 80.6877L62.9316 80.6877L62.9682 80.935ZM61.5714 79.6551L61.3393 79.7481L61.3438 79.7593L61.3493 79.77L61.5714 79.6551ZM59.8169 75.2771L59.5848 75.3699L59.5848 75.3701L59.8169 75.2771ZM59.7792 75.192L59.5554 75.3036L59.5571 75.3069L59.7792 75.192ZM57.0309 73.6676L56.9662 73.4261L56.966 73.4262L57.0309 73.6676ZM46.8809 74.9629L46.8822 74.7129L46.8809 74.9629ZM36.7454 73.5661L36.6781 73.8069L36.6782 73.8069L36.7454 73.5661ZM34.0214 74.989L33.8077 74.8593L33.7994 74.8729L33.7929 74.8875L34.0214 74.989ZM34.0059 75.0161L33.7979 74.8774L33.793 74.8847L33.7887 74.8924L34.0059 75.0161ZM31.276 79.8098L31.0588 79.6861L31.0583 79.687L31.276 79.8098ZM29.827 81.1515L29.7881 81.3985L29.7883 81.3985L29.827 81.1515ZM22.4504 79.9886L22.4893 79.7417L22.4892 79.7417L22.4504 79.9886ZM21.7012 79.5275L21.9033 79.3803L21.9031 79.38L21.7012 79.5275ZM21.4827 78.759L21.2468 78.6762L21.2363 78.7062L21.2337 78.7377L21.4827 78.759ZM25.0246 68.6651L25.2605 68.7479L25.2607 68.7473L25.0246 68.6651ZM24.8148 67.5409L25.0053 67.3789L25.0051 67.3787L24.8148 67.5409ZM17.0573 47.8905L17.3061 47.9154L17.3061 47.9153L17.0573 47.8905ZM18.0259 43.6864L18.261 43.7717L18.2614 43.7704L18.0259 43.6864ZM18.255 43.0765L18.024 42.9808L18.0219 42.9861L18.255 43.0765ZM18.2879 42.9933L18.0735 42.8647L18.0621 42.8838L18.0542 42.9047L18.2879 42.9933ZM18.2927 42.9779L18.5249 43.0707L18.5253 43.0696L18.2927 42.9779ZM33.8512 28.4257L34.0365 28.2578L33.923 28.1326L33.7646 28.1912L33.8512 28.4257ZM36.585 30.8365L36.6575 31.0758L37.1494 30.9267L36.7284 30.6318L36.585 30.8365ZM34.3423 31.6727L34.2325 31.4481L34.2323 31.4482L34.3423 31.6727ZM33.8164 33.2068L34.041 33.097L34.0409 33.0967L33.8164 33.2068ZM35.3496 33.7336L35.2399 33.509L35.2395 33.5092L35.3496 33.7336ZM45.9201 31.7781L45.9188 32.028L45.9188 32.0281L45.9201 31.7781ZM56.4693 33.84L56.5816 33.6166L56.5813 33.6164L56.4693 33.84ZM58.0092 33.3296L57.7858 33.2174L57.7857 33.2175L58.0092 33.3296ZM57.4988 31.7897L57.3868 32.0132L57.3869 32.0132L57.4988 31.7897ZM55.26 30.9293L55.1184 30.7233L54.6951 31.0142L55.1852 31.1679L55.26 30.9293ZM58.7864 27.6504L58.8627 27.4123L58.6988 27.3598L58.5912 27.4941L58.7864 27.6504ZM61.4409 28.5774L61.5257 28.3423L61.5255 28.3422L61.4409 28.5774ZM63.2785 29.2203L63.351 28.981L63.351 28.981L63.2785 29.2203ZM64.2577 29.0704L64.3979 29.2775L64.3985 29.277L64.2577 29.0704ZM74.5286 26.5726L74.7119 26.7425L75.0196 26.4105L74.5748 26.3269L74.5286 26.5726ZM70.3371 33.2725L70.5699 33.3637L70.5699 33.3637L70.3371 33.2725ZM70.6426 34.5476L70.8088 34.3608L70.8087 34.3608L70.6426 34.5476ZM77.3155 44.8532L77.0782 44.932L77.0783 44.9322L77.3155 44.8532ZM77.3309 44.8996L77.5682 44.8208L77.5681 44.8205L77.3309 44.8996ZM79.3426 46.4443L79.3319 46.6941L79.334 46.6942L79.3426 46.4443ZM83.9845 46.6038L84.0193 46.3563L84.0062 46.3544L83.9931 46.354L83.9845 46.6038ZM84.7192 47.0243L84.914 46.8677L84.9137 46.8673L84.7192 47.0243ZM84.9744 47.7561L85.2097 47.8404L85.2239 47.8008L85.2244 47.7588L84.9744 47.7561ZM36.0543 7.34749L35.8784 7.16981L35.8784 7.16982L36.0543 7.34749ZM46.0612 3.26139L46.0625 3.01139H46.0612V3.26139ZM60.1117 17.455L59.8617 17.4537V17.4537L60.1117 17.455ZM52.0826 30.1251L52.0337 30.3702L52.1155 30.3865L52.1906 30.3505L52.0826 30.1251ZM45.9317 29.4832L45.9329 29.2332H45.9328L45.9317 29.4832ZM39.773 30.0651L39.6628 30.2895L39.7377 30.3263L39.8196 30.3108L39.773 30.0651ZM4.18714 52.9713L4.06912 53.1916L4.06913 53.1916L4.18714 52.9713ZM2.79418 50.3864L3.04417 50.384L3.04416 50.3839L2.79418 50.3864ZM3.62841 48.4376L3.45864 48.2541L3.45842 48.2543L3.62841 48.4376ZM6.06634 47.6266L6.08788 47.3775L6.08732 47.3774L6.06634 47.6266ZM9.89048 50.1264L10.1133 50.013L10.1131 50.0126L9.89048 50.1264ZM10.311 51.211L10.4779 51.397L10.5938 51.293L10.5516 51.1432L10.311 51.211ZM84.1981 44.3186L84.2253 44.0701L84.2239 44.07L84.1981 44.3186ZM84.1131 44.3128L84.1217 44.063H84.1217L84.1131 44.3128ZM79.5011 44.1543L79.2659 44.239L79.3233 44.3983L79.4925 44.4041L79.5011 44.1543ZM79.4924 44.1301L79.2551 44.2089L79.2572 44.2148L79.4924 44.1301ZM72.7702 33.3798L72.5402 33.282L72.4713 33.444L72.6005 33.5634L72.7702 33.3798ZM77.5813 26.733L77.4069 26.5539L77.4067 26.5541L77.5813 26.733ZM77.8887 25.6165L78.1304 25.5525L78.1303 25.5523L77.8887 25.6165ZM77.067 24.8007L77.13 24.5587L77.1295 24.5586L77.067 24.8007ZM63.4419 26.8568L63.3594 27.0928L63.4752 27.1332L63.5781 27.0664L63.4419 26.8568ZM62.2181 26.4198L62.1332 26.655L62.1335 26.6551L62.2181 26.4198ZM60.1397 25.6823L59.9241 25.5557L59.7692 25.8198L60.0589 25.9188L60.1397 25.6823ZM62.4066 17.4666L62.6566 17.4679V17.4678L62.4066 17.4666ZM46.0718 0.966524L46.0731 0.716527L46.0727 0.716525L46.0718 0.966524ZM29.5728 17.3003L29.8228 17.3016V17.3016L29.5728 17.3003ZM32.3722 26.5349L32.4634 26.7677L32.7534 26.6541L32.5798 26.3955L32.3722 26.5349ZM16.1235 42.2277L16.3561 42.3195L16.3565 42.3186L16.1235 42.2277ZM12.0732 49.3733L11.8457 49.4769L12.0109 49.8396L12.2655 49.5331L12.0732 49.3733ZM11.933 49.0833L11.7103 49.1969L11.7108 49.1978L11.933 49.0833ZM6.26548 45.3404L6.28703 45.0913L6.28675 45.0913L6.26548 45.3404ZM2.07014 46.7546L2.23997 46.9381L2.24003 46.938L2.07014 46.7546ZM0.500276 50.4086L0.750264 50.4062L0.750263 50.406L0.500276 50.4086ZM3.10544 54.9945L3.22341 54.7741L3.22332 54.774L3.10544 54.9945ZM9.66911 54.5904L9.53263 54.381L9.53244 54.3811L9.66911 54.5904ZM10.5507 53.9766L10.7998 53.9975L10.8459 53.4475L10.4021 53.7755L10.5507 53.9766ZM9.18964 58.1661L8.97535 58.0374L8.97513 58.0377L9.18964 58.1661ZM9.58211 59.7408L9.45309 59.955L9.45365 59.9553L9.58211 59.7408ZM11.1568 59.3484L11.3709 59.4774L11.3712 59.477L11.1568 59.3484ZM12.804 51.9959L12.6244 51.822L12.5412 51.9079L12.5559 52.0266L12.804 51.9959ZM14.6532 49.7929L14.9032 49.7964L14.9144 49.0134L14.4516 49.6451L14.6532 49.7929ZM22.6418 68.5249L22.8777 68.6077L22.9249 68.473L22.833 68.3639L22.6418 68.5249ZM19.2768 78.1143L19.0409 78.0315L19.0404 78.0331L19.2768 78.1143ZM19.2265 78.3153L19.4734 78.3545L19.4736 78.3536L19.2265 78.3153ZM19.8452 80.877L19.6429 81.0239L19.6432 81.0243L19.8452 80.877ZM22.0927 82.2545L22.0537 82.5014L22.0538 82.5014L22.0927 82.2545ZM29.4684 83.4174L29.5078 83.1705L29.5073 83.1704L29.4684 83.4174ZM33.2722 80.9408L33.055 80.817L33.0544 80.818L33.2722 80.9408ZM35.9924 76.1655L35.7787 76.0354L35.7752 76.0417L35.9924 76.1655ZM36.2321 75.8039L36.2989 75.563L36.1353 75.5177L36.0328 75.653L36.2321 75.8039ZM46.8693 77.2568L46.8681 77.5068H46.8683L46.8693 77.2568ZM57.5346 75.9083L57.7247 75.7459L57.6224 75.6262L57.4703 75.6667L57.5346 75.9083ZM57.7066 76.178L57.9387 76.085L57.9342 76.0739L57.9287 76.0632L57.7066 76.178ZM59.4621 80.559L59.6947 80.4673L59.6942 80.466L59.4621 80.559ZM59.5056 80.6537L59.7283 80.5401L59.7264 80.5364L59.5056 80.6537ZM63.3017 83.2057L63.3381 83.453L63.3382 83.453L63.3017 83.2057ZM70.6899 82.1163L70.6536 81.8689L70.6535 81.8689L70.6899 82.1163ZM73.5957 78.2061L73.3478 78.2384L73.3484 78.2426L73.5957 78.2061ZM73.5696 78.0746L73.8126 78.0152L73.811 78.0095L73.5696 78.0746ZM71.1249 69.0208L70.8765 68.9932L70.8712 69.0403L70.8836 69.086L71.1249 69.0208ZM71.1597 68.9541L70.9984 68.7632L70.9978 68.7636L71.1597 68.9541ZM75.8152 63.9768L76.0173 64.1239L76.0174 64.1238L75.8152 63.9768ZM76.0598 63.6007L76.2723 63.7325L76.2726 63.7319L76.0598 63.6007ZM76.342 63.1638L76.3694 62.9153L76.2229 62.8992L76.1379 63.0195L76.342 63.1638ZM78.2734 63.3765L78.2461 63.625L78.2463 63.625L78.2734 63.3765ZM82.8757 60.4165L83.1102 60.5034L83.1111 60.5008L82.8757 60.4165ZM87.188 48.3796L86.9531 48.2942L86.9527 48.2953L87.188 48.3796ZM87.2489 48.1176L87.4975 48.1446L87.4975 48.1445L87.2489 48.1176ZM80.4867 59.5435C80.1508 60.4476 79.2024 60.9184 78.5508 60.8475L78.4968 61.3446C79.3745 61.44 80.5392 60.8378 80.9554 59.7177L80.4867 59.5435ZM78.5512 60.8476L76.1645 60.5847L76.1097 61.0816L78.4964 61.3446L78.5512 60.8476ZM76.1642 60.5846C76.1028 60.5779 76.0378 60.574 75.9711 60.5766L75.9899 61.0762C76.0256 61.0749 76.0651 61.0768 76.11 61.0817L76.1642 60.5846ZM75.9737 60.5765C75.4296 60.5914 75.0103 60.8544 74.6818 61.1855C74.358 61.5119 74.1049 61.9227 73.8947 62.2616L74.3196 62.5251C74.5357 62.1767 74.76 61.8166 75.0368 61.5376C75.3088 61.2634 75.6131 61.0865 75.9873 61.0763L75.9737 60.5765ZM73.8933 62.2638C73.832 62.3649 73.7885 62.4374 73.7562 62.4823L74.1622 62.7742C74.2092 62.7089 74.2662 62.6133 74.3209 62.5229L73.8933 62.2638ZM73.757 62.4812C72.5708 64.1122 71.1444 65.6356 69.5184 67.0096L69.8411 67.3915C71.496 65.9931 72.9503 64.4406 74.1614 62.7753L73.757 62.4812ZM69.5184 67.0097C68.8141 67.6051 68.4735 68.5079 68.6079 69.4225L69.1026 69.3499C68.9933 68.6057 69.2694 67.8749 69.8412 67.3915L69.5184 67.0097ZM68.6079 69.423C68.6159 69.4764 68.6267 69.5312 68.6431 69.588L69.1234 69.4493C69.1147 69.4191 69.1081 69.3869 69.1025 69.3494L68.6079 69.423ZM68.6419 69.5838L71.0914 78.6618L71.5741 78.5315L69.1246 69.4535L68.6419 69.5838ZM71.084 78.6212C71.1308 79.095 70.7956 79.5288 70.319 79.5992L70.392 80.0938C71.1334 79.9844 71.6546 79.3105 71.5816 78.572L71.084 78.6212ZM70.319 79.5992L62.9318 80.6877L63.0047 81.1823L70.3919 80.0938L70.319 79.5992ZM62.9316 80.6877C62.8482 80.7 62.7962 80.7066 62.7426 80.7007C62.6957 80.6956 62.6376 80.6793 62.5606 80.6257C62.3934 80.5092 62.1472 80.2243 61.7934 79.5403L61.3493 79.77C61.7099 80.4673 62.0022 80.846 62.2748 81.0359C62.4177 81.1355 62.5549 81.1832 62.6883 81.1978C62.815 81.2116 62.9282 81.1936 63.0048 81.1823L62.9316 80.6877ZM61.8034 79.5621L60.0489 75.1841L59.5848 75.3701L61.3393 79.7481L61.8034 79.5621ZM60.049 75.1842C60.037 75.1543 60.0217 75.1167 60.0012 75.0772L59.5571 75.3069C59.5657 75.3234 59.5735 75.3419 59.5848 75.3699L60.049 75.1842ZM60.0029 75.0804C59.5284 74.1294 58.926 73.6623 58.3462 73.4646C57.7741 73.2695 57.2576 73.3481 56.9662 73.4261L57.0956 73.9091C57.3312 73.846 57.7392 73.7859 58.1848 73.9378C58.6227 74.0871 59.131 74.4528 59.5555 75.3036L60.0029 75.0804ZM56.966 73.4262C53.7267 74.297 50.3337 74.7302 46.8822 74.7129L46.8797 75.2129C50.3746 75.2304 53.8121 74.7917 57.0958 73.909L56.966 73.4262ZM46.8822 74.7129C43.4297 74.6956 40.0425 74.2278 36.8127 73.3253L36.6782 73.8069C39.9521 74.7217 43.3838 75.1954 46.8797 75.2129L46.8822 74.7129ZM36.8128 73.3253C35.9311 73.0788 35.2544 73.3207 34.761 73.7038C34.2803 74.077 33.976 74.5822 33.8077 74.8593L34.2351 75.1188C34.4061 74.8371 34.6687 74.4085 35.0676 74.0987C35.4539 73.7989 35.9696 73.6087 36.6781 73.8069L36.8128 73.3253ZM33.7929 74.8875C33.7956 74.8815 33.7977 74.8779 33.798 74.8773C33.7985 74.8764 33.7985 74.8764 33.7979 74.8774L34.2139 75.1548C34.223 75.1411 34.2376 75.118 34.2498 75.0906L33.7929 74.8875ZM33.7887 74.8924L31.0588 79.6861L31.4933 79.9335L34.2232 75.1398L33.7887 74.8924ZM31.0583 79.687C30.6716 80.3729 30.4282 80.6842 30.254 80.8224C30.1742 80.8858 30.1163 80.9065 30.0698 80.9143C30.0177 80.923 29.9595 80.9193 29.8658 80.9045L29.7883 81.3985C29.8917 81.4147 30.0166 81.4302 30.1523 81.4074C30.2936 81.3838 30.4284 81.3224 30.5649 81.214C30.8233 81.0089 31.1072 80.6183 31.4938 79.9326L31.0583 79.687ZM29.8659 80.9046L22.4893 79.7417L22.4114 80.2356L29.7881 81.3985L29.8659 80.9046ZM22.4892 79.7417C22.2544 79.7048 22.0468 79.5772 21.9033 79.3803L21.4992 79.6747C21.7191 79.9766 22.0431 80.1777 22.4116 80.2356L22.4892 79.7417ZM21.9031 79.38C21.7726 79.2015 21.7139 78.9906 21.7318 78.7803L21.2337 78.7377C21.2052 79.0707 21.2992 79.4011 21.4994 79.675L21.9031 79.38ZM21.7186 78.8418L25.2605 68.7479L24.7887 68.5823L21.2468 78.6762L21.7186 78.8418ZM25.2607 68.7473C25.4242 68.2779 25.3267 67.7568 25.0053 67.3789L24.6244 67.7028C24.8308 67.9455 24.8937 68.2808 24.7885 68.5828L25.2607 68.7473ZM25.0051 67.3787C20.6067 62.2187 16.4422 56.5159 17.3061 47.9154L16.8086 47.8655C15.9228 56.6843 20.2128 62.5274 24.6246 67.703L25.0051 67.3787ZM17.3061 47.9153C17.4441 46.5322 17.7651 45.1383 18.2609 43.7717L17.7909 43.6011C17.2815 45.005 16.9509 46.4395 16.8086 47.8656L17.3061 47.9153ZM18.2614 43.7704C18.3337 43.5679 18.41 43.3684 18.4881 43.1668L18.0219 42.9861C17.9435 43.1886 17.8651 43.3932 17.7905 43.6024L18.2614 43.7704ZM18.486 43.172C18.4988 43.1413 18.5103 43.1119 18.5217 43.082L18.0542 42.9047C18.0442 42.9309 18.0345 42.9556 18.024 42.9809L18.486 43.172ZM18.5023 43.1219C18.5144 43.1018 18.5218 43.0833 18.5265 43.0694C18.531 43.0561 18.5335 43.0451 18.5345 43.041C18.5347 43.0398 18.535 43.0388 18.5351 43.0383C18.5355 43.0364 18.535 43.0386 18.5353 43.0373C18.5353 43.0371 18.535 43.0387 18.5344 43.0409C18.5334 43.0451 18.5305 43.0565 18.5249 43.0707L18.0606 42.885C18.054 42.9016 18.0504 42.9155 18.0487 42.9223C18.0479 42.9259 18.0472 42.9288 18.047 42.9299C18.0465 42.9318 18.0468 42.9306 18.0469 42.9302C18.0472 42.9287 18.0491 42.9204 18.0527 42.9097C18.0565 42.8984 18.0629 42.8824 18.0735 42.8647L18.5023 43.1219ZM18.5253 43.0696C21.1942 36.3021 26.3649 31.4592 33.9379 28.6601L33.7646 28.1912C26.0739 31.0336 20.7872 35.9714 18.0602 42.8861L18.5253 43.0696ZM33.666 28.5935C34.4914 29.5044 35.4218 30.3268 36.4415 31.0413L36.7284 30.6318C35.7394 29.9388 34.837 29.1411 34.0365 28.2578L33.666 28.5935ZM36.5125 30.5973C35.5481 30.8895 34.765 31.1878 34.2325 31.4481L34.4521 31.8973C34.9521 31.6529 35.7078 31.3635 36.6575 31.0758L36.5125 30.5973ZM34.2323 31.4482C33.5404 31.7871 33.2515 32.623 33.592 33.3169L34.0409 33.0967C33.8226 32.6518 34.0074 32.1151 34.4523 31.8972L34.2323 31.4482ZM33.5919 33.3166C33.9308 34.0097 34.7678 34.2975 35.4597 33.9581L35.2395 33.5092C34.7965 33.7265 34.2589 33.5426 34.041 33.097L33.5919 33.3166ZM35.4593 33.9583C36.7507 33.3276 41.0392 32.0031 45.9188 32.028L45.9214 31.5281C40.97 31.5027 36.6049 32.8424 35.2399 33.509L35.4593 33.9583ZM45.9188 32.0281C50.7936 32.052 55.0725 33.4197 56.3573 34.0635L56.5813 33.6164C55.2232 32.9359 50.8678 31.5524 45.9213 31.5281L45.9188 32.0281ZM56.357 34.0633C56.5584 34.1646 56.773 34.2118 56.9826 34.2118V33.7118C56.8481 33.7118 56.7108 33.6816 56.5816 33.6166L56.357 34.0633ZM56.9826 34.2118C57.4936 34.2118 57.9874 33.931 58.2327 33.4416L57.7857 33.2175C57.6289 33.5305 57.3126 33.7118 56.9826 33.7118V34.2118ZM58.2327 33.4417C58.5787 32.752 58.3 31.9113 57.6108 31.5661L57.3869 32.0132C57.8286 32.2344 58.0081 32.7742 57.7858 33.2174L58.2327 33.4417ZM57.6108 31.5661C57.0795 31.3 56.2984 30.9928 55.3348 30.6908L55.1852 31.1679C56.1337 31.4652 56.8876 31.7631 57.3868 32.0132L57.6108 31.5661ZM55.4016 31.1353C56.7608 30.2011 57.9649 29.0764 58.9816 27.8066L58.5912 27.4941C57.605 28.7261 56.4368 29.817 55.1184 30.7233L55.4016 31.1353ZM58.7101 27.8885C59.4318 28.1198 60.5423 28.52 61.3563 28.8127L61.5255 28.3422C60.7154 28.0509 59.5948 27.6469 58.8627 27.4123L58.7101 27.8885ZM61.356 28.8126C62.1504 29.0992 62.85 29.3517 63.2061 29.4595L63.351 28.981C63.011 28.878 62.3283 28.6318 61.5257 28.3423L61.356 28.8126ZM63.206 29.4595C63.6104 29.5821 64.049 29.5135 64.3979 29.2775L64.1176 28.8634C63.8923 29.0159 63.6097 29.0594 63.351 28.981L63.206 29.4595ZM64.3985 29.277C66.4943 27.8489 68.2696 27.0974 69.8875 26.7699C71.5044 26.4426 72.9797 26.5355 74.4823 26.8182L74.5748 26.3269C73.0305 26.0363 71.4869 25.936 69.7883 26.2798C68.0908 26.6234 66.2543 27.4074 64.117 28.8638L64.3985 29.277ZM74.3452 26.4026C72.3009 28.6082 71.1709 30.4573 70.1043 33.1814L70.5699 33.3637C71.6145 30.6956 72.7117 28.9005 74.7119 26.7425L74.3452 26.4026ZM70.1043 33.1813C69.8912 33.7253 70.0395 34.3457 70.4764 34.7343L70.8087 34.3608C70.5284 34.1114 70.4331 33.7129 70.5699 33.3637L70.1043 33.1813ZM70.4764 34.7343C72.7719 36.7769 74.0996 38.3673 75.0132 39.9179C75.9283 41.4712 76.4351 42.9954 77.0782 44.932L77.5527 44.7744C76.9121 42.8452 76.3904 41.2704 75.444 39.6641C74.496 38.0551 73.1291 36.4256 70.8088 34.3608L70.4764 34.7343ZM77.0783 44.9322L77.0938 44.9786L77.5681 44.8205L77.5526 44.7741L77.0783 44.9322ZM77.0937 44.9784C77.4239 45.9724 78.2975 46.6499 79.3319 46.6941L79.3532 46.1945C78.5335 46.1595 77.8353 45.6248 77.5682 44.8208L77.0937 44.9784ZM79.334 46.6942L83.9759 46.8537L83.9931 46.354L79.3512 46.1945L79.334 46.6942ZM83.9497 46.8514C84.1743 46.8829 84.3769 46.9983 84.5247 47.1814L84.9137 46.8673C84.6884 46.5882 84.3728 46.4059 84.0193 46.3563L83.9497 46.8514ZM84.5243 47.1809C84.6585 47.3479 84.7266 47.5478 84.7244 47.7533L85.2244 47.7588C85.2279 47.4366 85.1201 47.1242 84.914 46.8677L84.5243 47.1809ZM84.739 47.6718L80.4857 59.5463L80.9564 59.7149L85.2097 47.8404L84.739 47.6718ZM32.1176 17.3131C32.1357 13.6075 33.5967 10.132 36.2302 7.52516L35.8784 7.16982C33.1507 9.86994 31.6363 13.4724 31.6176 17.3107L32.1176 17.3131ZM36.2301 7.52517C38.8475 4.93442 42.3088 3.51139 45.9877 3.51139V3.01139C42.177 3.01139 38.5893 4.48643 35.8784 7.16981L36.2301 7.52517ZM45.9877 3.51139H46.0612V3.01139H45.9877V3.51139ZM46.0599 3.51139C53.7084 3.55032 59.9006 9.80431 59.8617 17.4537L60.3617 17.4562C60.402 9.53067 53.987 3.05173 46.0625 3.01139L46.0599 3.51139ZM59.8617 17.4537C59.8351 22.7488 56.744 27.6141 51.9745 29.8996L52.1906 30.3505C57.1323 27.9825 60.3342 22.9433 60.3617 17.4562L59.8617 17.4537ZM52.1314 29.8799C50.2791 29.511 48.1479 29.2439 45.9329 29.2332L45.9305 29.7332C48.108 29.7437 50.2069 30.0064 52.0337 30.3702L52.1314 29.8799ZM45.9328 29.2332C43.7161 29.2234 41.582 29.4681 39.7265 29.8195L39.8196 30.3108C41.649 29.9643 43.7509 29.7236 45.9306 29.7332L45.9328 29.2332ZM39.8833 29.8407C35.1318 27.5068 32.0911 22.6178 32.1176 17.3131L31.6176 17.3106C31.5901 22.8075 34.7399 27.8713 39.6628 30.2895L39.8833 29.8407ZM8.27865 52.4603C7.09508 53.2332 5.41403 53.3446 4.30516 52.7509L4.06913 53.1916C5.35759 53.8816 7.23388 53.7398 8.55203 52.879L8.27865 52.4603ZM4.30517 52.7509C3.49036 52.3145 3.05509 51.5404 3.04417 50.384L2.54419 50.3887C2.55646 51.6877 3.06079 52.6517 4.06912 53.1916L4.30517 52.7509ZM3.04416 50.3839C3.0354 49.5114 3.44775 48.9461 3.7984 48.6209L3.45842 48.2543C3.03767 48.6444 2.53362 49.3358 2.54419 50.3889L3.04416 50.3839ZM3.79817 48.6211C4.31668 48.1415 5.0457 47.865 5.78988 47.865V47.365C4.92746 47.365 4.07501 47.6839 3.45864 48.2541L3.79817 48.6211ZM5.78988 47.865C5.87476 47.865 5.96056 47.8685 6.04536 47.8757L6.08732 47.3774C5.98846 47.3691 5.88866 47.365 5.78988 47.365V47.865ZM6.04481 47.8756C7.70791 48.0194 8.95053 48.8365 9.66786 50.2401L10.1131 50.0126C9.31276 48.4466 7.91251 47.5353 6.08788 47.3775L6.04481 47.8756ZM9.66763 50.2397C9.8328 50.5645 9.96719 50.9126 10.0703 51.2787L10.5516 51.1432C10.4402 50.7476 10.2942 50.3688 10.1133 50.013L9.66763 50.2397ZM10.144 51.0249C9.55097 51.557 8.92985 52.0354 8.27872 52.4603L8.55197 52.879C9.22517 52.4397 9.86652 51.9456 10.4779 51.397L10.144 51.0249ZM86.7025 45.4314C86.0841 44.6607 85.2041 44.1769 84.2253 44.0701L84.171 44.5672C85.0173 44.6595 85.7767 45.0766 86.3125 45.7443L86.7025 45.4314ZM84.2239 44.07C84.1898 44.0664 84.1551 44.0641 84.1217 44.063L84.1045 44.5627C84.1271 44.5635 84.1504 44.565 84.1724 44.5673L84.2239 44.07ZM84.1217 44.063L79.5097 43.9044L79.4925 44.4041L84.1045 44.5627L84.1217 44.063ZM79.7363 44.0696L79.7276 44.0454L79.2572 44.2148L79.2659 44.239L79.7363 44.0696ZM79.7297 44.0514C79.1042 42.1662 78.5539 40.5067 77.5847 38.7922C76.6139 37.0747 75.2286 35.3113 72.9399 33.1962L72.6005 33.5634C74.86 35.6514 76.2094 37.3752 77.1494 39.0382C78.0911 40.7041 78.6278 42.3182 79.2551 44.2089L79.7297 44.0514ZM73.0003 33.4777C74.0627 30.9797 75.2531 29.3542 77.7559 26.9119L77.4067 26.5541C74.8712 29.0283 73.6354 30.7069 72.5402 33.282L73.0003 33.4777ZM77.7557 26.9121C78.1175 26.5598 78.2597 26.0404 78.1304 25.5525L77.6471 25.6806C77.7304 25.995 77.6386 26.3282 77.4069 26.5539L77.7557 26.9121ZM78.1303 25.5523C78.0007 25.0645 77.6179 24.6857 77.13 24.5587L77.0041 25.0426C77.3185 25.1244 77.564 25.3681 77.6471 25.6807L78.1303 25.5523ZM77.1295 24.5586C75.1488 24.0474 73.124 23.633 70.8756 23.8182C68.6234 24.0036 66.1648 24.7887 63.3056 26.6471L63.5781 27.0664C66.3778 25.2466 68.7579 24.4942 70.9166 24.3165C73.079 24.1384 75.0375 24.5351 77.0046 25.0427L77.1295 24.5586ZM63.5244 26.6208C63.1883 26.5033 62.7546 26.3471 62.3027 26.1846L62.1335 26.6551C62.5844 26.8173 63.0207 26.9744 63.3594 27.0928L63.5244 26.6208ZM62.303 26.1847C61.5028 25.8957 60.8029 25.6446 60.2206 25.4457L60.0589 25.9188C60.6366 26.1162 61.3326 26.3659 62.1332 26.655L62.303 26.1847ZM60.3554 25.8088C61.8153 23.3205 62.6409 20.451 62.6566 17.4679L62.1566 17.4652C62.1413 20.3575 61.341 23.141 59.9241 25.5557L60.3554 25.8088ZM62.6566 17.4678C62.7037 8.27787 55.263 0.762653 46.0731 0.716527L46.0706 1.21652C54.9844 1.26126 62.2023 8.55151 62.1566 17.4653L62.6566 17.4678ZM46.0727 0.716525C41.6153 0.701808 37.4279 2.40763 34.2641 5.53904L34.6158 5.89441C37.6851 2.85655 41.7452 1.20224 46.071 1.21652L46.0727 0.716525ZM34.2641 5.53904C31.1004 8.67033 29.3454 12.8479 29.3228 17.299L29.8228 17.3016C29.8447 12.9831 31.5464 8.93238 34.6158 5.89441L34.2641 5.53904ZM29.3228 17.299C29.3051 20.6963 30.3368 23.9505 32.1647 26.6742L32.5798 26.3955C30.8059 23.7523 29.8056 20.5956 29.8228 17.3016L29.3228 17.299ZM32.2811 26.3021C24.286 29.4319 18.771 34.7511 15.8906 42.1369L16.3565 42.3186C19.1814 35.0748 24.5858 29.8515 32.4634 26.7677L32.2811 26.3021ZM15.891 42.1359C14.7604 44.9993 13.4338 47.344 11.8809 49.2136L12.2655 49.5331C13.8601 47.6133 15.2111 45.2194 16.3561 42.3195L15.891 42.1359ZM12.3007 49.2697C12.2549 49.169 12.2067 49.0687 12.1553 48.9688L11.7108 49.1978C11.758 49.2894 11.8026 49.3824 11.8457 49.4769L12.3007 49.2697ZM12.1557 48.9697C10.9956 46.6955 8.90506 45.3179 6.28703 45.0913L6.24392 45.5895C8.69702 45.8018 10.6317 47.0825 11.7103 49.1969L12.1557 48.9697ZM6.28675 45.0913C4.66832 44.9531 3.06807 45.4895 1.90026 46.5712L2.24003 46.938C3.30135 45.955 4.76157 45.4628 6.2442 45.5895L6.28675 45.0913ZM1.90031 46.5712C0.820671 47.5706 0.235066 48.9355 0.25029 50.4112L0.750263 50.406C0.736486 49.0706 1.26448 47.8411 2.23997 46.9381L1.90031 46.5712ZM0.250288 50.4111C0.271375 52.5609 1.23783 54.2795 2.98757 55.215L3.22332 54.774C1.65352 53.9347 0.769778 52.3956 0.750264 50.4062L0.250288 50.4111ZM2.98748 55.2149C4.99773 56.2907 7.79416 56.1131 9.80578 54.7998L9.53244 54.3811C7.66193 55.6023 5.06049 55.7572 3.22341 54.7741L2.98748 55.2149ZM9.80559 54.7999C10.1099 54.6016 10.4068 54.3938 10.6993 54.1776L10.4021 53.7755C10.1165 53.9866 9.82769 54.1887 9.53263 54.381L9.80559 54.7999ZM10.3016 53.9557C10.1859 55.337 9.73845 56.7674 8.97535 58.0374L9.40393 58.2949C10.2068 56.9587 10.6778 55.4543 10.7998 53.9975L10.3016 53.9557ZM8.97513 58.0377C8.57862 58.7001 8.79273 59.5571 9.45309 59.955L9.71113 59.5267C9.28689 59.2711 9.14913 58.7206 9.40415 58.2945L8.97513 58.0377ZM9.45365 59.9553C9.67885 60.0902 9.92735 60.1552 10.1727 60.1552V59.6552C10.016 59.6552 9.85657 59.6138 9.71057 59.5264L9.45365 59.9553ZM10.1727 60.1552C10.6469 60.1552 11.1086 59.9127 11.3709 59.4774L10.9427 59.2193C10.7739 59.4994 10.4777 59.6552 10.1727 59.6552V60.1552ZM11.3712 59.477C12.7777 57.1341 13.3561 54.4209 13.0521 51.9652L12.5559 52.0266C12.8454 54.3655 12.2948 56.9671 10.9425 59.2197L11.3712 59.477ZM12.9836 52.1698C13.6428 51.4891 14.2658 50.7446 14.8549 49.9406L14.4516 49.6451C13.8749 50.4322 13.2664 51.159 12.6244 51.822L12.9836 52.1698ZM14.4033 49.7893C14.2849 58.0434 18.4013 63.8772 22.4505 68.686L22.833 68.3639C18.8009 63.5756 14.7876 57.8616 14.9032 49.7964L14.4033 49.7893ZM22.4059 68.4421L19.0409 78.0315L19.5127 78.197L22.8777 68.6077L22.4059 68.4421ZM19.0404 78.0331C19.0138 78.1104 18.9926 78.1924 18.9795 78.277L19.4736 78.3536C19.4817 78.301 19.4953 78.2477 19.5133 78.1954L19.0404 78.0331ZM18.9796 78.2761C18.8251 79.2491 19.0631 80.2256 19.6429 81.0239L20.0475 80.7301C19.5447 80.0378 19.3399 79.195 19.4734 78.3545L18.9796 78.2761ZM19.6432 81.0243C20.2252 81.8227 21.0812 82.348 22.0537 82.5014L22.1317 82.0075C21.2908 81.8749 20.5518 81.4219 20.0472 80.7297L19.6432 81.0243ZM22.0538 82.5014L29.4294 83.6643L29.5073 83.1704L22.1316 82.0075L22.0538 82.5014ZM29.4289 83.6643C29.6294 83.6963 29.8204 83.7109 30.0049 83.7109V83.2109C29.8471 83.2109 29.6825 83.1984 29.5078 83.1705L29.4289 83.6643ZM30.0049 83.7109C32.0168 83.7109 32.9946 81.9422 33.49 81.0636L33.0544 80.818C32.5328 81.7432 31.6857 83.2109 30.0049 83.2109V83.7109ZM33.4894 81.0645L36.2096 76.2892L35.7752 76.0417L33.055 80.817L33.4894 81.0645ZM36.206 76.2954C36.314 76.118 36.3866 76.0141 36.4315 75.9548L36.0328 75.653C35.9753 75.729 35.8932 75.8476 35.7788 76.0355L36.206 76.2954ZM36.1654 76.0449C39.6055 76.9973 43.2052 77.4883 46.8681 77.5068L46.8706 77.0068C43.2507 76.9886 39.6951 76.5033 36.2989 75.563L36.1654 76.0449ZM46.8683 77.5068C50.53 77.5224 54.1451 77.0693 57.5989 76.1499L57.4703 75.6667C54.0607 76.5743 50.4896 77.0222 46.8704 77.0068L46.8683 77.5068ZM57.3445 76.0707C57.3695 76.1 57.4192 76.1665 57.4846 76.2929L57.9287 76.0632C57.8491 75.9093 57.7789 75.8095 57.7247 75.7459L57.3445 76.0707ZM57.4746 76.271L59.23 80.6519L59.6942 80.466L57.9387 76.085L57.4746 76.271ZM59.2295 80.6506C59.2452 80.6905 59.2636 80.7311 59.2848 80.771L59.7264 80.5364C59.7147 80.5144 59.7041 80.4912 59.6947 80.4673L59.2295 80.6506ZM59.2829 80.7673C59.5028 81.1984 59.8886 81.9584 60.5273 82.5639C61.1754 83.1782 62.0879 83.6369 63.3381 83.453L63.2653 82.9584C62.1955 83.1157 61.4309 82.7315 60.8713 82.201C60.3025 81.6618 59.9502 80.9751 59.7283 80.5401L59.2829 80.7673ZM63.3382 83.453L70.7264 82.3636L70.6535 81.8689L63.2652 82.9584L63.3382 83.453ZM70.7263 82.3636C72.7422 82.067 74.1407 80.1854 73.8431 78.1696L73.3484 78.2426C73.6057 79.9851 72.3961 81.6126 70.6536 81.8689L70.7263 82.3636ZM73.8436 78.1738C73.836 78.1155 73.8238 78.0613 73.8125 78.0153L73.3268 78.134C73.3368 78.1749 73.3438 78.2078 73.3478 78.2384L73.8436 78.1738ZM73.811 78.0095L71.3663 68.9557L70.8836 69.086L73.3283 78.1398L73.811 78.0095ZM71.3734 69.0484C71.3696 69.0828 71.353 69.118 71.3217 69.1446L70.9978 68.7636C70.9278 68.8232 70.8861 68.9066 70.8765 68.9932L71.3734 69.0484ZM71.3211 69.1451C73.1182 67.6267 74.6971 65.9378 76.0173 64.1239L75.6131 63.8296C74.3175 65.6098 72.7663 67.2694 70.9984 68.7632L71.3211 69.1451ZM76.0174 64.1238C76.1013 64.0085 76.1837 63.8752 76.2723 63.7325L75.8473 63.469C75.756 63.6162 75.6838 63.7324 75.613 63.8297L76.0174 64.1238ZM76.2726 63.7319C76.3402 63.6222 76.4491 63.4455 76.5462 63.3081L76.1379 63.0195C76.03 63.1721 75.9128 63.3627 75.8469 63.4696L76.2726 63.7319ZM76.3147 63.4123L78.2461 63.625L78.3008 63.128L76.3694 62.9153L76.3147 63.4123ZM78.2463 63.625C79.9843 63.815 82.2641 62.7867 83.1102 60.5034L82.6413 60.3297C81.8827 62.377 79.8338 63.2956 78.3006 63.1279L78.2463 63.625ZM83.1111 60.5008L87.4234 48.4639L86.9527 48.2953L82.6404 60.3322L83.1111 60.5008ZM87.423 48.465C87.4608 48.3609 87.4857 48.2533 87.4975 48.1446L87.0004 48.0906C86.9929 48.1598 86.9771 48.2281 86.9531 48.2942L87.423 48.465ZM87.4975 48.1445C87.6032 47.1661 87.3219 46.202 86.7024 45.4312L86.3127 45.7445C86.8492 46.4121 87.0919 47.2441 87.0004 48.0908L87.4975 48.1445Z" fill="#135D78"/>
</g>
<path fill-rule="evenodd" clip-rule="evenodd" d="M42.4946 13.1778C42.5004 12.1009 43.4352 11.2889 44.8726 11.0144L44.8494 15.6988C43.3608 15.2068 42.484 14.2991 42.4946 13.1778ZM47.1288 18.5727C48.6204 19.0638 49.4981 19.9725 49.4875 21.0957C49.4836 21.7125 49.2004 22.2306 48.6455 22.6366C48.2386 22.9334 47.7108 23.1441 47.1056 23.2601L47.1288 18.5727ZM42.4502 21.0551C42.4511 20.422 41.9378 19.9077 41.3047 19.9067H41.3037C40.6705 19.9067 40.1572 20.42 40.1563 21.0532C40.1543 23.3896 42.049 25.1702 44.7992 25.5704V25.612C44.7992 25.6313 44.804 25.6487 44.804 25.6671L44.7972 27.0581C44.7943 27.6913 45.3047 28.2075 45.9389 28.2114H45.9437C46.5759 28.2114 47.0882 27.701 47.0921 27.0697L47.0998 25.584C48.2173 25.439 49.2052 25.0678 49.9989 24.4887C51.1415 23.6545 51.7756 22.4529 51.7814 21.1122C51.8046 18.7593 50.0143 16.8985 47.1414 16.1928L47.1675 11.0318C48.4425 11.2937 49.5329 12.0013 49.532 13.2184C49.531 13.8515 50.0453 14.3658 50.6784 14.3668H50.6794C51.3116 14.3658 51.8249 13.8535 51.8259 13.2203C51.8278 10.8829 49.9331 9.1023 47.1791 8.70307L47.1868 7.21537C47.1888 6.5822 46.6784 6.066 46.0442 6.06213C45.414 6.06213 44.8939 6.5706 44.891 7.20377L44.8852 8.64893L44.8842 8.69243C42.1234 9.0646 40.2123 10.8278 40.2007 13.1604C40.1785 15.5132 41.9659 17.3731 44.8369 18.0797L44.8108 23.2408C43.5367 22.9778 42.4492 22.2702 42.4502 21.0551Z" fill="#135D78"/>
<path d="M44.8726 11.0144L45.1226 11.0156L45.1241 10.7118L44.8257 10.7688L44.8726 11.0144ZM44.8494 15.6988L44.771 15.9362L45.0977 16.0442L45.0994 15.7001L44.8494 15.6988ZM47.1288 18.5727L47.207 18.3353L46.8805 18.2278L46.8788 18.5715L47.1288 18.5727ZM49.4875 21.0957L49.2375 21.0934L49.2375 21.0942L49.4875 21.0957ZM48.6455 22.6366L48.7928 22.8386L48.7931 22.8384L48.6455 22.6366ZM47.1056 23.2601L46.8556 23.2589L46.8541 23.5629L47.1527 23.5056L47.1056 23.2601ZM41.3047 19.9067L41.305 19.6567H41.3047V19.9067ZM40.1563 21.0532L39.9063 21.0528L39.9063 21.053L40.1563 21.0532ZM44.7992 25.5704H45.0492V25.3542L44.8352 25.323L44.7992 25.5704ZM44.804 25.6671L45.054 25.6683V25.6671H44.804ZM44.7972 27.0581L44.5472 27.0569L44.5472 27.057L44.7972 27.0581ZM45.9389 28.2114L45.9373 28.4614H45.9389V28.2114ZM47.0921 27.0697L47.3421 27.0713L47.3421 27.071L47.0921 27.0697ZM47.0998 25.584L47.0677 25.336L46.851 25.3642L46.8498 25.5827L47.0998 25.584ZM49.9989 24.4887L50.1462 24.6907L50.1463 24.6906L49.9989 24.4887ZM51.7814 21.1122L51.5314 21.1097L51.5314 21.1111L51.7814 21.1122ZM47.1414 16.1928L46.8914 16.1915L46.8904 16.3886L47.0818 16.4356L47.1414 16.1928ZM47.1675 11.0318L47.2178 10.7869L46.919 10.7255L46.9175 11.0305L47.1675 11.0318ZM49.532 13.2184L49.782 13.2187V13.2186L49.532 13.2184ZM50.6784 14.3668L50.678 14.6168H50.6784V14.3668ZM50.6794 14.3668V14.6168L50.6798 14.6168L50.6794 14.3668ZM51.8259 13.2203L52.0759 13.2207L52.0759 13.2205L51.8259 13.2203ZM47.1791 8.70307L46.9291 8.70177L46.928 8.91928L47.1432 8.95048L47.1791 8.70307ZM47.1868 7.21537L47.4368 7.21667L47.4368 7.21613L47.1868 7.21537ZM46.0442 6.06213L46.0457 5.81213H46.0442V6.06213ZM44.891 7.20377L44.641 7.20262L44.641 7.20276L44.891 7.20377ZM44.8852 8.64893L45.1352 8.65449L45.1352 8.64994L44.8852 8.64893ZM44.8842 8.69243L44.9176 8.94019L45.1294 8.91164L45.1342 8.69799L44.8842 8.69243ZM40.2007 13.1604L40.4507 13.1627L40.4507 13.1616L40.2007 13.1604ZM44.8369 18.0797L45.0868 18.081L45.0878 17.884L44.8966 17.837L44.8369 18.0797ZM44.8108 23.2408L44.7602 23.4856L45.0592 23.5473L45.0607 23.242L44.8108 23.2408ZM42.7446 13.1791C42.7495 12.2787 43.5326 11.5248 44.9195 11.2599L44.8257 10.7688C43.3377 11.053 42.2514 11.9231 42.2446 13.1764L42.7446 13.1791ZM44.6226 11.0131L44.5994 15.6976L45.0994 15.7001L45.1226 11.0156L44.6226 11.0131ZM44.9279 15.4615C43.4849 14.9845 42.7355 14.1424 42.7446 13.1801L42.2446 13.1754C42.2325 14.4558 43.2366 15.4291 44.771 15.9362L44.9279 15.4615ZM47.0506 18.8102C48.4963 19.2861 49.2466 20.1292 49.2375 21.0934L49.7375 21.0981C49.7496 19.8158 48.7445 18.8415 47.207 18.3353L47.0506 18.8102ZM49.2375 21.0942C49.2342 21.6218 48.9974 22.0694 48.4979 22.4348L48.7931 22.8384C49.4034 22.3918 49.7331 21.8032 49.7375 21.0973L49.2375 21.0942ZM48.4982 22.4346C48.1279 22.7047 47.6368 22.9037 47.0586 23.0146L47.1527 23.5056C47.7847 23.3845 48.3492 23.1621 48.7928 22.8386L48.4982 22.4346ZM47.3556 23.2613L47.3788 18.574L46.8788 18.5715L46.8556 23.2589L47.3556 23.2613ZM42.7002 21.0555C42.7013 20.2841 42.0761 19.6579 41.305 19.6567L41.3043 20.1567C41.7995 20.1575 42.2009 20.5598 42.2002 21.0548L42.7002 21.0555ZM41.3047 19.6567H41.3037V20.1567H41.3047V19.6567ZM41.3037 19.6567C40.5324 19.6567 39.9074 20.282 39.9063 21.0528L40.4063 21.0536C40.407 20.5581 40.8087 20.1567 41.3037 20.1567V19.6567ZM39.9063 21.053C39.9042 23.5518 41.9319 25.4058 44.7632 25.8178L44.8352 25.323C42.166 24.9346 40.4045 23.2275 40.4063 21.0534L39.9063 21.053ZM44.5492 25.5704V25.612H45.0492V25.5704H44.5492ZM44.5492 25.612C44.5492 25.6407 44.5528 25.6657 44.5538 25.673C44.5545 25.6784 44.5545 25.6787 44.5545 25.6784C44.5544 25.6776 44.554 25.6733 44.554 25.6671H45.054C45.054 25.6517 45.053 25.6384 45.052 25.6285C45.051 25.6192 45.0499 25.6105 45.0494 25.6069C45.0479 25.596 45.0492 25.6027 45.0492 25.612H44.5492ZM44.554 25.6659L44.5472 27.0569L45.0472 27.0593L45.054 25.6683L44.554 25.6659ZM44.5472 27.057C44.5437 27.8281 45.1653 28.4567 45.9373 28.4614L45.9404 27.9614C45.4441 27.9583 45.0449 27.5545 45.0472 27.0593L44.5472 27.057ZM45.9389 28.4614H45.9437V27.9614H45.9389V28.4614ZM45.9437 28.4614C46.7136 28.4614 47.3374 27.8398 47.3421 27.0713L46.8421 27.0682C46.8391 27.5622 46.4382 27.9614 45.9437 27.9614V28.4614ZM47.3421 27.071L47.3498 25.5853L46.8498 25.5827L46.8421 27.0684L47.3421 27.071ZM47.132 25.8319C48.2844 25.6824 49.3136 25.2982 50.1462 24.6907L49.8515 24.2868C49.0969 24.8374 48.1502 25.1956 47.0677 25.336L47.132 25.8319ZM50.1463 24.6906C51.3489 23.8126 52.0252 22.5384 52.0314 21.1132L51.5314 21.1111C51.526 22.3675 50.934 23.4964 49.8514 24.2868L50.1463 24.6906ZM52.0314 21.1146C52.0561 18.6064 50.1433 16.6727 47.201 15.95L47.0818 16.4356C49.8853 17.1242 51.5531 18.9122 51.5314 21.1097L52.0314 21.1146ZM47.3914 16.1941L47.4175 11.033L46.9175 11.0305L46.8914 16.1915L47.3914 16.1941ZM47.1172 11.2767C47.7288 11.4023 48.2774 11.6316 48.6677 11.9586C49.0519 12.2804 49.2824 12.6948 49.282 13.2182L49.782 13.2186C49.7825 12.5249 49.4682 11.9769 48.9888 11.5753C48.5153 11.1787 47.8812 10.9232 47.2178 10.7869L47.1172 11.2767ZM49.282 13.218C49.2808 13.9897 49.9072 14.6156 50.678 14.6168L50.6788 14.1168C50.1833 14.116 49.7812 13.7134 49.782 13.2187L49.282 13.218ZM50.6784 14.6168H50.6794V14.1168H50.6784V14.6168ZM50.6798 14.6168C51.4496 14.6156 52.0747 13.9918 52.0759 13.2207L51.5759 13.2199C51.5751 13.7152 51.1736 14.116 50.679 14.1168L50.6798 14.6168ZM52.0759 13.2205C52.0779 10.7207 50.0501 8.86664 47.215 8.45565L47.1432 8.95048C49.8162 9.33796 51.5777 11.0451 51.5759 13.2201L52.0759 13.2205ZM47.4291 8.70437L47.4368 7.21667L46.9368 7.21407L46.9291 8.70177L47.4291 8.70437ZM47.4368 7.21613C47.4392 6.44536 46.8178 5.81685 46.0457 5.81214L46.0427 6.31213C46.5389 6.31515 46.9383 6.71904 46.9368 7.2146L47.4368 7.21613ZM46.0442 5.81213C45.2785 5.81213 44.6445 6.42963 44.641 7.20262L45.141 7.20491C45.1432 6.71157 45.5494 6.31213 46.0442 6.31213V5.81213ZM44.641 7.20276L44.6352 8.64793L45.1352 8.64994L45.141 7.20477L44.641 7.20276ZM44.6352 8.64338L44.6343 8.68688L45.1342 8.69799L45.1351 8.65449L44.6352 8.64338ZM44.8508 8.44467C42.0092 8.82774 39.9631 10.6631 39.9507 13.1591L40.4507 13.1616C40.4615 10.9925 42.2376 9.30147 44.9176 8.94019L44.8508 8.44467ZM39.9507 13.158C39.927 15.666 41.8366 17.5988 44.7771 18.3225L44.8966 17.837C42.0951 17.1474 40.4299 15.3605 40.4507 13.1627L39.9507 13.158ZM44.5869 18.0785L44.5608 23.2395L45.0607 23.242L45.0868 18.081L44.5869 18.0785ZM44.8613 22.9959C44.2501 22.8698 43.7025 22.6403 43.313 22.3135C42.9296 21.9918 42.6997 21.5778 42.7002 21.0553L42.2002 21.0549C42.1996 21.7476 42.513 22.295 42.9916 22.6965C43.4642 23.093 44.0973 23.3488 44.7602 23.4856L44.8613 22.9959Z" fill="#135D78"/>
</svg>
