<svg width="34" height="51" viewBox="0 0 34 51" fill="none" xmlns="http://www.w3.org/2000/svg">
<path fill-rule="evenodd" clip-rule="evenodd" d="M15.7129 39.2997C18.7793 39.2997 21.3077 41.8217 21.3077 44.8977C21.3077 47.9736 18.7857 50.4988 15.7129 50.4988C12.6402 50.4988 10.115 47.9769 10.115 44.8977C10.115 41.8249 12.6402 39.2997 15.7129 39.2997ZM16.0481 0C24.7832 0 33.383 4.02292 33.383 13.647C33.383 22.5206 23.2178 25.9348 21.0308 29.1396C19.3946 31.5231 19.939 34.876 15.4361 34.876C12.5019 34.876 11.0686 32.4893 11.0686 30.3056C11.0686 22.1792 23.0085 20.3368 23.0085 13.647C23.0085 9.9655 20.5574 7.78173 16.4604 7.78173C7.72526 7.78173 11.1362 16.7874 4.52045 16.7874C2.13053 16.7874 0.0820323 15.3509 0.0820323 12.626C0.0788114 5.93292 7.72204 0 16.0481 0Z" fill="#135D78"/>
</svg>
