<svg width="84" height="72" viewBox="0 0 84 72" fill="none" xmlns="http://www.w3.org/2000/svg">
<path fill-rule="evenodd" clip-rule="evenodd" d="M68.0468 45.7435C62.0065 45.7435 57.0047 41.6853 55.9665 36.9665H80.0328C78.9946 41.6853 73.9927 45.7435 68.0468 45.7435ZM78.334 33.1914H57.6653L68.0468 12.5225L78.334 33.1914ZM41.9985 13.8439C39.1838 13.8439 36.9021 11.5622 36.9021 8.74755C36.9021 5.93274 39.1838 3.65101 41.9985 3.65101C44.8133 3.65101 47.095 5.93274 47.095 8.74755C47.095 11.5622 44.8133 13.8439 41.9985 13.8439ZM51.7195 60.5609H32.2776C33.0327 56.7858 37.0909 53.9545 41.9985 53.9545C46.9062 53.9545 50.9644 56.7858 51.7195 60.5609ZM25.9543 68.1112H58.0428V64.336H25.9543V68.1112ZM15.9502 45.7435C10.0044 45.7435 5.00234 41.6853 3.96417 36.9665H28.0306C26.9925 41.6853 21.9904 45.7435 15.9502 45.7435ZM15.9502 12.5225L26.3318 33.1914H5.66296L15.9502 12.5225ZM82.5809 33.4744L69.7456 7.61491C69.4069 6.98897 68.7583 6.59264 68.0468 6.57674L67.1974 6.76551H50.5869C49.359 2.02231 44.5183 -0.827364 39.7751 0.400481C36.6546 1.20833 34.2179 3.64505 33.4101 6.76551H16.7996L15.9502 6.57674C15.2386 6.59264 14.5903 6.98897 14.2514 7.61491L1.41599 33.4744C0.575091 33.6553 -0.0188707 34.4078 0.000458338 35.2677C0.000458338 43.1953 7.17316 49.7074 15.9502 49.7074C24.7273 49.7074 31.9945 43.1953 31.9945 35.2677C31.979 34.4198 31.3998 33.6863 30.5788 33.4744L19.1591 10.5406H33.3158C34.0295 13.9546 36.6969 16.6221 40.1109 17.3358V50.4625C33.9764 51.2176 29.1631 55.8421 28.4082 60.5609H24.2555C23.1478 60.65 22.2682 61.5295 22.1792 62.6373V70.1875C22.2778 71.2253 23.1989 71.9867 24.2367 71.8881C24.243 71.8876 24.2492 71.8868 24.2555 71.8863H59.7416C60.7783 71.9952 61.707 71.243 61.816 70.2063C61.8167 70.2 61.8172 70.1936 61.818 70.1875V62.6373C61.7289 61.5295 60.8493 60.65 59.7416 60.5609H55.5889C54.8339 55.8421 50.0206 51.2176 43.886 50.4625V17.3358C47.3 16.6221 49.9675 13.9546 50.6814 10.5406H64.838L53.4183 33.4744C52.5971 33.6863 52.0181 34.4198 52.0026 35.2677C52.0026 43.1953 59.1753 49.7074 68.0468 49.7074C76.9183 49.7074 83.9967 43.1953 83.9967 35.2677C84.016 34.4078 83.4219 33.6553 82.5809 33.4744Z" fill="#135D78"/>
</svg>
