<svg viewBox="0 0 26 44" xmlns="http://www.w3.org/2000/svg" fill-rule="evenodd" clip-rule="evenodd"
  stroke-linejoin="round" stroke-miterlimit="2" fill="#125d78">
  <g>
    <path
      d="M12.167 5.783a3.403 3.403 0 00-3.384 3.384 3.403 3.403 0 003.384 3.384 3.404 3.404 0 003.383-3.384 3.404 3.404 0 00-3.383-3.384zm0 8.095c-2.584-.003-4.709-2.127-4.712-4.711.004-2.583 2.129-4.707 4.712-4.71 2.583.003 4.707 2.127 4.71 4.71-.003 2.583-2.127 4.708-4.71 4.711z" />
    <path
      d="M12.533 43.4c-.38.001-.755-.09-1.093-.264a2.41 2.41 0 01-1.203-1.467 2.411 2.411 0 01.25-1.9l5.364-8.447-6.63-.04a4.854 4.854 0 01-3.496-1.744 4.853 4.853 0 01-1.111-3.712l.008-.052 1.72-8.655a10.438 10.438 0 012.088-4.483l.624-.778a.666.666 0 011.036.83l-.625.779a9.103 9.103 0 00-1.822 3.91L5.93 26.005c-.11.967.184 1.937.812 2.68a3.539 3.539 0 002.505 1.269l7.812.048a.665.665 0 01.556 1.02l-6 9.447c-.147.255-.183.55-.102.833.082.285.273.519.537.655a1.081 1.081 0 001.4-.384l.01-.014 7.186-10.852a2.07 2.07 0 00.137-1.952 2.07 2.07 0 00-1.542-1.217l-5.775-1.055a.667.667 0 01-.535-.765l.842-4.94a.665.665 0 01.656-.565.666.666 0 01.651.787l-.731 4.294 5.13.938a3.432 3.432 0 012.811 3.366c0 .644-.182 1.274-.524 1.819l-.01.014-7.186 10.854a2.413 2.413 0 01-2.038 1.116l.001-.001z" />
    <path
      d="M16.727 21.97c-.28 0-.562-.049-.835-.146l-5.578-1.992a.664.664 0 01.446-1.25l5.579 1.992c.297.106.616.087.898-.055.282-.14.487-.384.58-.686l2.338-7.598a.81.81 0 00-.6-1.032.816.816 0 00-.943.523l-2.088 5.915a.663.663 0 01-.905.38l-4.52-2.102a.664.664 0 01.559-1.204l3.858 1.795 1.844-5.226a2.15 2.15 0 012.483-1.377c.58.129 1.086.499 1.386 1.014.299.514.37 1.136.195 1.704l-2.338 7.598a2.449 2.449 0 01-1.255 1.483c-.342.173-.72.264-1.104.264zm-3.141 4.524a.63.63 0 01-.13-.013l-2.628-.526a.665.665 0 01-.533-.651.666.666 0 01.793-.65l2.628.525a.666.666 0 01.533.651.667.667 0 01-.663.664zm-3.121 15.253c-.96 0-1.604-.367-1.736-.448a2.455 2.455 0 01-1.142-1.513 2.459 2.459 0 01.284-1.91l4.949-7.594a.665.665 0 01.556-.301c.363 0 .663.3.663.664a.667.667 0 01-.108.362l-4.94 7.581a1.14 1.14 0 00.416 1.569.401.401 0 01.027.017c.014.008.514.308 1.274.233a.668.668 0 01.729.661c0 .34-.261.628-.599.661a3.865 3.865 0 01-.373.018z" />
    <path
      d="M5.037 16.145a.773.773 0 01-.068-.003c-1.175-.118-2.198-.349-3.045-.686a1.243 1.243 0 01-1.41-.487 1.242 1.242 0 01.074-1.512l.261-.31C.609 12.462.2 10.928.2 8.452c0-2.52.42-4.218.65-4.96l-.19-.196c-.391-.4-.47-.997-.196-1.486.269-.485.83-.734 1.37-.608l.446.102c.867-.168 5.239-.92 8.81.205a5.11 5.11 0 003.086 0c3.571-1.125 7.944-.373 8.81-.205l.446-.102a1.245 1.245 0 011.37.608 1.245 1.245 0 01-.196 1.486l-.19.196c.23.742.65 2.44.65 4.96 0 2.476-.41 4.01-.649 4.694l.26.311c.364.427.395 1.051.074 1.512a1.243 1.243 0 01-1.409.487 9.227 9.227 0 01-1.203.38.667.667 0 01-.829-.643c0-.308.214-.578.514-.647.42-.1.83-.236 1.226-.407a.66.66 0 01.438-.034l-.342-.408a.663.663 0 01-.086-.72c.005-.011.678-1.453.678-4.525 0-3.113-.691-4.863-.698-4.88a.67.67 0 01.14-.714l.296-.305-.334.077a.668.668 0 01-.285.002c-.046-.01-4.721-.978-8.282.143-1.27.4-2.613.4-3.884 0-3.57-1.124-8.235-.153-8.282-.143a.673.673 0 01-.286-.002l-.334-.077.297.305c.185.19.24.47.139.715-.006.016-.697 1.766-.697 4.879 0 3.072.673 4.514.68 4.528a.672.672 0 01-.088.717l-.342.408a.66.66 0 01.438.034c.764.337 1.735.567 2.886.682a.667.667 0 01.592.66c0 .362-.296.66-.658.664h.001z" />
  </g>
</svg>