<svg width="64" height="88" viewBox="0 0 64 88" fill="none" xmlns="http://www.w3.org/2000/svg">
<path fill-rule="evenodd" clip-rule="evenodd" d="M33.3908 12.4337C30.2784 12.0511 27.4336 14.2725 27.0511 17.3867C26.6694 20.5001 28.8917 23.3439 32.005 23.7255C35.1174 24.109 37.9621 21.8868 38.3447 18.7734C38.7264 15.6591 36.5041 12.8154 33.3908 12.4337ZM31.6724 26.4349C27.0649 25.8699 23.7764 21.6607 24.3415 17.0532C24.9084 12.4466 29.1167 9.15915 33.7232 9.72421C38.3307 10.2911 41.6192 14.4984 41.0522 19.1059C40.4872 23.7134 36.2789 27.0009 31.6724 26.4349Z" fill="#135D78"/>
<path fill-rule="evenodd" clip-rule="evenodd" d="M39.1549 29.3915L39.0586 29.3776C39.091 29.3887 39.1132 29.3943 39.129 29.3961C39.1447 29.398 39.153 29.3961 39.1549 29.3915Z" fill="#135D78"/>
<path fill-rule="evenodd" clip-rule="evenodd" d="M24.4502 33.3772L26.1231 33.1354L27.8988 36.309L27.9776 36.7657L29.807 47.372L29.8904 47.8592C29.9071 47.9537 29.9812 48.0287 30.0766 48.0473L30.562 48.1371L31.5217 48.3159C31.9357 48.3928 32.2961 48.6271 32.5341 48.9745C32.7731 49.3219 32.8611 49.7415 32.7842 50.1565C32.6323 50.9744 31.8672 51.5358 31.0427 51.4348C31.0094 51.4311 30.977 51.4255 30.9436 51.419L15.9938 48.641C14.9341 48.6179 13.955 49.0912 13.3103 49.9379C12.6387 50.8179 12.4562 51.9257 12.8073 52.9753L18.6264 70.3761C18.8376 71.0069 19.3999 71.4664 20.0603 71.547C20.1604 71.559 20.2632 71.5627 20.367 71.5581C20.9061 71.5266 21.3924 71.2542 21.6981 70.8096C22.0047 70.3641 22.0862 69.8138 21.9213 69.3006L17.3425 54.7445C17.1702 54.1952 17.3101 53.5959 17.7084 53.18C18.0512 52.8215 18.5495 52.6436 19.0405 52.7038C19.1137 52.7131 19.185 52.7261 19.2563 52.7455L35.8355 57.165C37.3111 57.2752 38.7293 56.7092 39.7288 55.6152C40.2049 55.0919 40.5532 54.4833 40.7644 53.8043C40.9636 53.1661 41.0219 52.4973 40.9404 51.8192L40.9321 51.7516C40.921 51.6543 40.9099 51.558 40.8904 51.4598L37.3111 33.2364L36.9499 31.3958C36.8665 30.9678 36.9619 30.5334 37.2204 30.174C37.4566 29.8433 37.803 29.6191 38.1948 29.5422C38.3486 29.5126 38.5079 29.507 38.6673 29.5265C38.7729 29.5395 38.8794 29.5645 38.9859 29.5987C39.0369 29.6154 39.0739 29.6228 39.0998 29.6256C39.1184 29.6284 39.1388 29.6284 39.1582 29.6256L40.8413 29.8535L54.8713 30.8048C55.8875 30.777 56.8332 30.3565 57.5372 29.621C58.2542 28.8716 58.6303 27.886 58.5979 26.8457L58.2172 13.454C58.1903 12.9732 57.9772 12.5351 57.615 12.2183C57.3455 11.9811 57.0167 11.8329 56.6637 11.7894C56.5424 11.7746 56.4192 11.7727 56.2969 11.7829C55.3697 11.8589 54.6536 12.6472 54.6647 13.6142L54.5323 25.3599C54.5267 25.7925 54.3424 26.2084 54.0256 26.5011C53.7079 26.7948 53.279 26.9458 52.8538 26.918L37.9568 25.5646C37.9271 25.5619 37.8975 25.5591 37.8688 25.5554C37.0379 25.4544 36.4311 24.7198 36.4867 23.8843C36.5451 23.0163 37.2982 22.3559 38.1606 22.4142L51.1438 23.6398C51.2077 23.6462 51.2716 23.6249 51.3198 23.5823C51.368 23.5388 51.3958 23.4767 51.3967 23.4119L51.5069 13.5929C51.4958 12.0691 52.2137 10.5963 53.429 9.65332C54.1849 9.06696 55.0871 8.71496 56.0375 8.63622C56.3784 8.60751 56.7221 8.61399 57.0583 8.65567C58.0347 8.7761 58.9489 9.18738 59.6983 9.84599C60.7136 10.7362 61.3073 11.97 61.3731 13.3502L61.7529 26.7513C61.8131 28.6409 61.1267 30.4343 59.8206 31.8025C58.5145 33.1688 56.7536 33.9358 54.8639 33.9635C54.8447 33.9635 54.8252 33.9635 54.8073 33.9633C54.7957 33.9632 54.7848 33.963 54.775 33.9626L41.2989 32.9668L40.8219 32.9455C40.7533 32.9418 40.6875 32.9687 40.6412 33.0196C40.5949 33.0697 40.5727 33.1382 40.581 33.2058L40.6913 34.0617L40.9821 35.5448L41.273 37.0278C42.2095 41.7946 43.2081 46.919 44.1659 52.0943C44.633 54.6228 45.2347 57.1757 45.817 59.6461L45.8332 59.7151C46.0806 60.7619 46.327 61.8086 46.5641 62.8553L47.4348 66.6847L48.3037 70.5141C48.3176 70.5753 48.3565 70.6281 48.4102 70.6605L60.7849 78.1581C63.1461 79.5466 63.9622 82.5145 62.6412 84.9146C61.9836 86.1114 60.897 86.972 59.5816 87.3379C58.936 87.5176 58.2755 87.5676 57.6215 87.487C56.9889 87.4092 56.3812 87.2119 55.8152 86.9006L55.7124 86.8423L39.4889 77.1604C39.148 76.9576 38.8979 76.6352 38.7849 76.2554L33.9514 60.4321C33.9009 60.2622 33.8794 60.0886 33.8863 59.9169L33.9692 59.9391L33.8962 59.7931C33.8913 59.8342 33.8879 59.8755 33.8863 59.9169L21.624 56.6453C21.6129 56.6425 21.6027 56.6398 21.5915 56.6388C21.5202 56.6296 21.447 56.6555 21.3961 56.7083C21.3377 56.7694 21.3183 56.8574 21.3433 56.938L24.9309 68.3465C25.3941 69.7925 25.1634 71.3432 24.2982 72.6002C23.4349 73.8553 22.0649 74.6242 20.5439 74.7094C20.2549 74.7251 19.9649 74.7168 19.6787 74.6816C19.0599 74.6057 18.4671 74.4139 17.9187 74.111C16.8349 73.5154 16.0225 72.5446 15.6326 71.3774L9.81344 53.9766C9.13445 51.9498 9.50405 49.7239 10.799 48.0232C12.094 46.3234 14.1421 45.3776 16.2763 45.4925C16.3125 45.4953 16.3486 45.498 16.3838 45.5027C16.4162 45.5054 16.4486 45.511 16.4801 45.5166L25.7952 47.2497L26.2806 47.3405C26.2852 47.3414 26.2907 47.3423 26.2954 47.3423C26.3649 47.3516 26.4353 47.3275 26.4862 47.2784C26.539 47.2247 26.564 47.1478 26.551 47.0737L26.4677 46.5865L24.8494 37.2047L24.7697 36.7471C24.7531 36.6452 24.6697 36.5693 24.5697 36.5572C24.5511 36.5545 24.5298 36.5545 24.5094 36.5572L24.0509 36.6249L17.5408 37.5632C16.9183 37.6531 16.2921 37.6605 15.677 37.5854C14.8017 37.4771 13.9643 37.2075 13.1889 36.7805C12.8833 36.6128 12.5878 36.4192 12.3071 36.2062C10.8027 35.0603 9.84401 33.3966 9.60687 31.5218L7.57453 15.4382C7.42632 14.095 7.82001 12.7833 8.68333 11.7449C9.54574 10.7056 10.7629 10.0776 12.1098 9.9766C12.4321 9.95252 12.7563 9.959 13.0759 9.99791C15.2796 10.2693 17.0424 11.9913 17.3629 14.1839L19.1035 26.0991C19.1127 26.163 19.1479 26.2195 19.1998 26.2557C19.2322 26.2779 19.2674 26.2909 19.3045 26.2955C19.3295 26.2992 19.3545 26.2983 19.3804 26.2927L30.876 23.8899C31.0289 23.8621 31.1845 23.8584 31.3364 23.8778C32.0209 23.9621 32.5823 24.4966 32.699 25.1774C32.8463 26.0352 32.2683 26.8531 31.404 27.0023L18.0762 29.7201C17.9243 29.747 17.7696 29.7507 17.6167 29.7312C17.3518 29.6988 17.098 29.5997 16.8822 29.4431C16.5403 29.1939 16.3088 28.8114 16.2476 28.3927L14.2394 14.6406C14.1236 13.8505 13.4881 13.2307 12.6943 13.1326C12.5794 13.1187 12.4627 13.1159 12.346 13.1242C11.8615 13.1613 11.4234 13.3873 11.1121 13.7615C10.8046 14.1321 10.6619 14.5998 10.711 15.0843L12.7397 31.1253C12.8684 32.1535 13.3955 33.0669 14.2199 33.6949C14.7618 34.1071 15.4019 34.3683 16.0689 34.4508C16.406 34.4915 16.7497 34.4878 17.0906 34.4387L24.4502 33.3772ZM37.5952 60.2135C39.0283 59.9616 40.3551 59.3179 41.4684 58.3201C41.599 58.2034 41.7222 58.0793 41.8454 57.9533C41.8955 57.9005 41.9686 57.8755 42.0409 57.8847L42.0456 57.8856C42.0547 57.8872 42.0649 57.889 42.0752 57.8921C42.1567 57.9144 42.2197 57.9792 42.2382 58.0617L42.3577 58.5906L45.3951 71.962C45.4896 72.3769 45.7526 72.7419 46.1167 72.9624L59.1574 80.8629C60.0624 81.3918 60.3681 82.4979 59.8753 83.3945C59.6307 83.8392 59.2259 84.1597 58.7359 84.2949C58.4932 84.3635 58.2468 84.3811 57.9995 84.3514C57.754 84.3218 57.5233 84.244 57.314 84.1217L41.713 74.8104C41.663 74.7817 41.6259 74.7335 41.6092 74.6788L37.3266 60.673L37.4997 60.5L37.5952 60.2135Z" fill="#135D78"/>
<path fill-rule="evenodd" clip-rule="evenodd" d="M26.839 39.8379C26.1832 39.8277 25.6061 39.3544 25.4913 38.6837L24.8132 34.7533C24.6835 33.9965 25.1911 33.2786 25.947 33.148C26.7001 33.0165 27.4226 33.525 27.5532 34.2818L28.2304 38.2122C28.361 38.969 27.8524 39.6869 27.0956 39.8184C27.0104 39.8323 26.9243 39.8388 26.839 39.8379Z" fill="#135D78"/>
<path fill-rule="evenodd" clip-rule="evenodd" d="M7.54503 29.7668C7.08466 29.6557 6.68263 29.5501 6.38158 29.4621C6.11388 29.3843 5.82765 29.4 5.57198 29.5075L6.09813 28.6775C6.35472 28.2727 6.34638 27.7475 6.08331 27.3464C6.06756 27.3214 4.48356 24.8509 3.73325 19.2355C2.97181 13.5461 3.80828 10.178 3.81661 10.1475C3.93889 9.67596 3.77122 9.17575 3.38773 8.87377L2.7708 8.39023L3.39885 8.44766C3.5767 8.46434 3.75455 8.44211 3.92129 8.3819C4.00466 8.35225 12.2961 5.43806 19.0943 6.62004C21.5139 7.03966 23.9686 6.71082 26.1936 5.66964C32.4277 2.75082 41.2092 3.37794 41.2963 3.38442C41.4732 3.39739 41.6501 3.37238 41.8178 3.30939L42.4097 3.08893L41.941 3.71882C41.6511 4.10787 41.6205 4.63402 41.8604 5.05642C41.8771 5.08606 43.5695 8.11697 44.33 13.8064C44.7088 16.6428 44.6468 18.7446 44.5708 20.1517L46.9561 20.6009C47.121 19.0142 47.1802 16.6557 46.756 13.4822C46.14 8.87655 44.958 5.87621 44.354 4.57566L44.656 4.17086C45.272 3.34366 45.2702 2.23208 44.6505 1.40766C44.0317 0.582314 42.9655 0.269219 41.9984 0.630482L41.2083 0.925051C39.5826 0.830567 31.4069 0.525809 25.1552 3.45389C23.3878 4.28109 21.4361 4.54232 19.514 4.20791C12.712 3.02594 4.90411 5.46863 3.35994 5.98644L2.51977 5.90956C1.49341 5.81693 0.545793 6.3968 0.165077 7.35646C-0.214712 8.3152 0.0752243 9.38695 0.886677 10.0243L1.28314 10.3346C1.04322 11.7491 0.691224 14.955 1.30722 19.5597C1.91211 24.0857 3.03573 26.7896 3.64061 27.9827L3.24045 28.6154C2.6791 29.5 2.77358 30.6172 3.47388 31.3953C4.16398 32.1604 5.24129 32.3753 6.16853 31.94" fill="#135D78"/>
<path fill-rule="evenodd" clip-rule="evenodd" d="M5.43771 32.1849C4.70592 32.1849 4.0927 31.6134 4.05101 30.8733C4.0084 30.1072 4.59476 29.4514 5.36082 29.4078L7.2783 29.3004C8.04436 29.2772 8.70019 29.8441 8.74373 30.6102C8.78634 31.3762 8.19998 32.0321 7.43392 32.0756L5.51644 32.1831C5.49051 32.184 5.46364 32.1849 5.43771 32.1849Z" fill="#135D78"/>
<path fill-rule="evenodd" clip-rule="evenodd" d="M45.789 21.9084C45.7742 21.9084 45.7603 21.9084 45.7455 21.9074C45.0804 21.8843 44.5265 21.3665 44.5506 20.7023L44.6173 18.8247C44.6404 18.1586 45.2453 17.5556 45.8974 17.6232C46.5625 17.6464 47.0822 18.205 47.0581 18.8691L46.9914 20.7468C46.9682 21.397 46.4338 21.9084 45.789 21.9084Z" fill="#135D78"/>
</svg>
